<?xml version="1.0" encoding="UTF-8" standalone="no"?>
<!-- Created with Inkscape (http://www.inkscape.org/) -->

<svg
   version="1.1"
   id="svg1"
   width="533.37433"
   height="185.37776"
   viewBox="0 0 533.37433 185.37776"
   sodipodi:docname="flowselfenergy.svg"
   inkscape:version="1.4.2 (ebf0e940, 2025-05-08)"
   xmlns:inkscape="http://www.inkscape.org/namespaces/inkscape"
   xmlns:sodipodi="http://sodipodi.sourceforge.net/DTD/sodipodi-0.dtd"
   xmlns="http://www.w3.org/2000/svg"
   xmlns:svg="http://www.w3.org/2000/svg">
  <defs
     id="defs1">
    <clipPath
       clipPathUnits="userSpaceOnUse"
       id="clipPath3">
      <path
         d="M 0,0 H 403.65353 V 153.07086 H 0 Z"
         transform="matrix(1,0,0,-1,0,153.07087)"
         id="path3" />
    </clipPath>
    <clipPath
       clipPathUnits="userSpaceOnUse"
       id="clipPath4">
      <path
         d="M 0,0 H 403.65353 V 153.07086 H 0 Z"
         transform="matrix(1,0,0,-1,0,153.07087)"
         id="path4" />
    </clipPath>
    <clipPath
       clipPathUnits="userSpaceOnUse"
       id="clipPath5">
      <path
         d="M 0,0 H 403.65353 V 153.07086 H 0 Z"
         transform="matrix(1,0,0,-1,0,153.07087)"
         id="path5" />
    </clipPath>
    <clipPath
       clipPathUnits="userSpaceOnUse"
       id="clipPath6">
      <path
         d="M 0,0 H 403.65353 V 153.07086 H 0 Z"
         transform="matrix(1,0,0,-1,0,153.07087)"
         id="path6" />
    </clipPath>
    <clipPath
       clipPathUnits="userSpaceOnUse"
       id="clipPath7">
      <path
         d="M 0,0 H 403.65353 V 153.07086 H 0 Z"
         transform="matrix(1,0,0,-1,0,153.07087)"
         id="path7" />
    </clipPath>
    <clipPath
       clipPathUnits="userSpaceOnUse"
       id="clipPath8">
      <path
         d="M 0,0 H 403.65353 V 153.07086 H 0 Z"
         transform="matrix(1,0,0,-1,0,153.07087)"
         id="path8" />
    </clipPath>
    <clipPath
       clipPathUnits="userSpaceOnUse"
       id="clipPath9">
      <path
         d="M 0,0 H 403.65353 V 153.07086 H 0 Z"
         transform="matrix(-1,0,0,1,0,-153.07087)"
         id="path9" />
    </clipPath>
    <clipPath
       clipPathUnits="userSpaceOnUse"
       id="clipPath10">
      <path
         d="M 0,0 H 403.65353 V 153.07086 H 0 Z"
         transform="matrix(1,0,0,-1,0,153.07087)"
         id="path10" />
    </clipPath>
    <clipPath
       clipPathUnits="userSpaceOnUse"
       id="clipPath11">
      <path
         d="M 0,0 H 403.65353 V 153.07086 H 0 Z"
         transform="matrix(1,0,0,-1,0,153.07087)"
         id="path11" />
    </clipPath>
    <clipPath
       clipPathUnits="userSpaceOnUse"
       id="clipPath12">
      <path
         d="M 0,0 H 403.65353 V 153.07086 H 0 Z"
         transform="matrix(1,0,0,-1,0,153.07087)"
         id="path12" />
    </clipPath>
    <clipPath
       clipPathUnits="userSpaceOnUse"
       id="clipPath13">
      <path
         d="M 0,0 H 403.65353 V 153.07086 H 0 Z"
         transform="matrix(1,0,0,-1,0,153.07087)"
         id="path13" />
    </clipPath>
    <clipPath
       clipPathUnits="userSpaceOnUse"
       id="clipPath14">
      <path
         d="M 0,0 H 403.65353 V 153.07086 H 0 Z"
         transform="matrix(1,0,0,-1,0,153.07087)"
         id="path14" />
    </clipPath>
    <clipPath
       clipPathUnits="userSpaceOnUse"
       id="clipPath15">
      <path
         d="M 0,0 H 403.65353 V 153.07086 H 0 Z"
         transform="matrix(1,0,0,-1.3239702,0,202.66126)"
         id="path15" />
    </clipPath>
    <clipPath
       clipPathUnits="userSpaceOnUse"
       id="clipPath16">
      <path
         d="M 0,0 H 403.65353 V 153.07086 H 0 Z"
         id="path16" />
    </clipPath>
    <clipPath
       clipPathUnits="userSpaceOnUse"
       id="clipPath17">
      <path
         d="M 0,0 H 403.65353 V 153.07086 H 0 Z"
         id="path17" />
    </clipPath>
    <clipPath
       clipPathUnits="userSpaceOnUse"
       id="clipPath18">
      <path
         d="M 0,0 H 403.65353 V 153.07086 H 0 Z"
         id="path18" />
    </clipPath>
    <clipPath
       clipPathUnits="userSpaceOnUse"
       id="clipPath19">
      <path
         d="M 0,0 H 403.65353 V 153.07086 H 0 Z"
         transform="matrix(1,0,0,-1,0,153.07087)"
         id="path19" />
    </clipPath>
    <clipPath
       clipPathUnits="userSpaceOnUse"
       id="clipPath20">
      <path
         d="M 0,0 H 403.65353 V 153.07086 H 0 Z"
         id="path20" />
    </clipPath>
    <clipPath
       clipPathUnits="userSpaceOnUse"
       id="clipPath21">
      <path
         d="M 0,0 H 403.65353 V 153.07086 H 0 Z"
         id="path21" />
    </clipPath>
    <clipPath
       clipPathUnits="userSpaceOnUse"
       id="clipPath22">
      <path
         d="M 0,0 H 403.65353 V 153.07086 H 0 Z"
         id="path22" />
    </clipPath>
    <clipPath
       clipPathUnits="userSpaceOnUse"
       id="clipPath23">
      <path
         d="M 0,0 H 403.65353 V 153.07086 H 0 Z"
         id="path23" />
    </clipPath>
    <clipPath
       clipPathUnits="userSpaceOnUse"
       id="clipPath24">
      <path
         d="M 0,0 H 403.65353 V 153.07086 H 0 Z"
         id="path24" />
    </clipPath>
    <clipPath
       clipPathUnits="userSpaceOnUse"
       id="clipPath25">
      <path
         d="M 0,0 H 403.65353 V 153.07086 H 0 Z"
         id="path25" />
    </clipPath>
    <clipPath
       clipPathUnits="userSpaceOnUse"
       id="clipPath26">
      <path
         d="M 0,0 H 403.65353 V 153.07086 H 0 Z"
         transform="matrix(1,0,0,-1.3239702,0,202.66126)"
         id="path26" />
    </clipPath>
    <clipPath
       clipPathUnits="userSpaceOnUse"
       id="clipPath27">
      <path
         d="M 0,0 H 403.65353 V 153.07086 H 0 Z"
         transform="matrix(1,0,0,-1,0,153.07087)"
         id="path27" />
    </clipPath>
    <clipPath
       clipPathUnits="userSpaceOnUse"
       id="clipPath28">
      <path
         d="M 0,0 H 403.65353 V 153.07086 H 0 Z"
         transform="matrix(1,0,0,-1,0,153.07087)"
         id="path28" />
    </clipPath>
    <clipPath
       clipPathUnits="userSpaceOnUse"
       id="clipPath29">
      <path
         d="M 0,0 H 403.65353 V 153.07086 H 0 Z"
         transform="matrix(1,0,0,-1,0,153.07087)"
         id="path29" />
    </clipPath>
    <clipPath
       clipPathUnits="userSpaceOnUse"
       id="clipPath30">
      <path
         d="M 0,0 H 403.65353 V 153.07086 H 0 Z"
         transform="matrix(1,0,0,-1,0,153.07087)"
         id="path30" />
    </clipPath>
    <clipPath
       clipPathUnits="userSpaceOnUse"
       id="clipPath31">
      <path
         d="M 0,0 H 403.65353 V 153.07086 H 0 Z"
         transform="matrix(1,0,0,-1,0,153.07087)"
         id="path31" />
    </clipPath>
    <clipPath
       clipPathUnits="userSpaceOnUse"
       id="clipPath32">
      <path
         d="M 0,0 H 403.65353 V 153.07086 H 0 Z"
         transform="matrix(1,0,0,-1,0,153.07087)"
         id="path32" />
    </clipPath>
    <clipPath
       clipPathUnits="userSpaceOnUse"
       id="clipPath33">
      <path
         d="M 0,0 H 403.65353 V 153.07086 H 0 Z"
         transform="matrix(1,0,0,-1.3239702,0,202.66126)"
         id="path33" />
    </clipPath>
    <clipPath
       clipPathUnits="userSpaceOnUse"
       id="clipPath34">
      <path
         d="M 0,0 H 403.65353 V 153.07086 H 0 Z"
         id="path34" />
    </clipPath>
    <clipPath
       clipPathUnits="userSpaceOnUse"
       id="clipPath35">
      <path
         d="M 0,0 H 403.65353 V 153.07086 H 0 Z"
         id="path35" />
    </clipPath>
    <clipPath
       clipPathUnits="userSpaceOnUse"
       id="clipPath36">
      <path
         d="M 0,0 H 403.65353 V 153.07086 H 0 Z"
         transform="matrix(1,0,0,-1,0,153.07087)"
         id="path36" />
    </clipPath>
    <clipPath
       clipPathUnits="userSpaceOnUse"
       id="clipPath37">
      <path
         d="M 0,0 H 403.65353 V 153.07086 H 0 Z"
         transform="matrix(1,0,0,-1,0,153.07087)"
         id="path37" />
    </clipPath>
    <clipPath
       clipPathUnits="userSpaceOnUse"
       id="clipPath38">
      <path
         d="M 0,0 H 403.65353 V 153.07086 H 0 Z"
         transform="matrix(1,0,0,-1,0,153.07087)"
         id="path38" />
    </clipPath>
    <clipPath
       clipPathUnits="userSpaceOnUse"
       id="clipPath39">
      <path
         d="M 0,0 H 403.65353 V 153.07086 H 0 Z"
         id="path39" />
    </clipPath>
    <clipPath
       clipPathUnits="userSpaceOnUse"
       id="clipPath40">
      <path
         d="M 0,0 H 403.65353 V 153.07086 H 0 Z"
         transform="matrix(1,0,0,-1,0,153.07087)"
         id="path40" />
    </clipPath>
    <clipPath
       clipPathUnits="userSpaceOnUse"
       id="clipPath41">
      <path
         d="M 0,0 H 403.65353 V 153.07086 H 0 Z"
         transform="matrix(1,0,0,-1,0,153.07087)"
         id="path41" />
    </clipPath>
    <clipPath
       clipPathUnits="userSpaceOnUse"
       id="clipPath42">
      <path
         d="M 0,0 H 403.65353 V 153.07086 H 0 Z"
         transform="matrix(1,0,0,-1,0,153.07087)"
         id="path42" />
    </clipPath>
    <clipPath
       clipPathUnits="userSpaceOnUse"
       id="clipPath43">
      <path
         d="M 0,0 H 403.65353 V 153.07086 H 0 Z"
         transform="matrix(1,0,0,-1,0,153.07087)"
         id="path43" />
    </clipPath>
    <clipPath
       clipPathUnits="userSpaceOnUse"
       id="clipPath44">
      <path
         d="M 0,0 H 403.65353 V 153.07086 H 0 Z"
         transform="matrix(1,0,0,-1,0,153.07087)"
         id="path44" />
    </clipPath>
    <clipPath
       clipPathUnits="userSpaceOnUse"
       id="clipPath45">
      <path
         d="M 0,0 H 403.65353 V 153.07086 H 0 Z"
         transform="matrix(1,0,0,-1,0,153.07087)"
         id="path45" />
    </clipPath>
    <clipPath
       clipPathUnits="userSpaceOnUse"
       id="clipPath46">
      <path
         d="M 0,0 H 403.65353 V 153.07086 H 0 Z"
         transform="matrix(1,0,0,-1.3239702,0,202.66126)"
         id="path46" />
    </clipPath>
    <clipPath
       clipPathUnits="userSpaceOnUse"
       id="clipPath47">
      <path
         d="M 0,0 H 403.65353 V 153.07086 H 0 Z"
         id="path47" />
    </clipPath>
    <clipPath
       clipPathUnits="userSpaceOnUse"
       id="clipPath48">
      <path
         d="M 0,0 H 403.65353 V 153.07086 H 0 Z"
         id="path48" />
    </clipPath>
    <clipPath
       clipPathUnits="userSpaceOnUse"
       id="clipPath49">
      <path
         d="M 0,0 H 403.65353 V 153.07086 H 0 Z"
         id="path49" />
    </clipPath>
    <clipPath
       clipPathUnits="userSpaceOnUse"
       id="clipPath50">
      <path
         d="M 0,0 H 403.65353 V 153.07086 H 0 Z"
         transform="matrix(1,0,0,-1.3239702,0,202.66126)"
         id="path50" />
    </clipPath>
    <clipPath
       clipPathUnits="userSpaceOnUse"
       id="clipPath51">
      <path
         d="M 0,0 H 403.65353 V 153.07086 H 0 Z"
         id="path51" />
    </clipPath>
    <clipPath
       clipPathUnits="userSpaceOnUse"
       id="clipPath52">
      <path
         d="M 0,0 H 403.65353 V 153.07086 H 0 Z"
         id="path52" />
    </clipPath>
    <clipPath
       clipPathUnits="userSpaceOnUse"
       id="clipPath53">
      <path
         d="M 0,0 H 403.65353 V 153.07086 H 0 Z"
         id="path53" />
    </clipPath>
    <clipPath
       clipPathUnits="userSpaceOnUse"
       id="clipPath54">
      <path
         d="M 0,0 H 403.65353 V 153.07086 H 0 Z"
         transform="matrix(1,0,0,-1,0,153.07087)"
         id="path54" />
    </clipPath>
    <clipPath
       clipPathUnits="userSpaceOnUse"
       id="clipPath55">
      <path
         d="M 0,0 H 403.65353 V 153.07086 H 0 Z"
         transform="matrix(1,0,0,-1,0,153.07087)"
         id="path55" />
    </clipPath>
    <clipPath
       clipPathUnits="userSpaceOnUse"
       id="clipPath56">
      <path
         d="M 0,0 H 403.65353 V 153.07086 H 0 Z"
         transform="matrix(1,0,0,-1,0,153.07087)"
         id="path56" />
    </clipPath>
    <clipPath
       clipPathUnits="userSpaceOnUse"
       id="clipPath57">
      <path
         d="M 0,0 H 403.65353 V 153.07086 H 0 Z"
         id="path57" />
    </clipPath>
    <clipPath
       clipPathUnits="userSpaceOnUse"
       id="clipPath58">
      <path
         d="M 0,0 H 403.65353 V 153.07086 H 0 Z"
         transform="matrix(1,0,0,-1,0,153.07087)"
         id="path58" />
    </clipPath>
    <clipPath
       clipPathUnits="userSpaceOnUse"
       id="clipPath59">
      <path
         d="M 0,0 H 403.65353 V 153.07086 H 0 Z"
         transform="matrix(1,0,0,-1,0,153.07087)"
         id="path59" />
    </clipPath>
    <clipPath
       clipPathUnits="userSpaceOnUse"
       id="clipPath60">
      <path
         d="M 0,0 H 403.65353 V 153.07086 H 0 Z"
         transform="matrix(1,0,0,-1,0,153.07087)"
         id="path60" />
    </clipPath>
    <clipPath
       clipPathUnits="userSpaceOnUse"
       id="clipPath61">
      <path
         d="M 0,0 H 403.65353 V 153.07086 H 0 Z"
         transform="matrix(1,0,0,-1,0,153.07087)"
         id="path61" />
    </clipPath>
    <clipPath
       clipPathUnits="userSpaceOnUse"
       id="clipPath62">
      <path
         d="M 0,0 H 403.65353 V 153.07086 H 0 Z"
         transform="matrix(1,0,0,-1,0,153.07087)"
         id="path62" />
    </clipPath>
    <clipPath
       clipPathUnits="userSpaceOnUse"
       id="clipPath63">
      <path
         d="M 0,0 H 403.65353 V 153.07086 H 0 Z"
         transform="matrix(1,0,0,-1,0,153.07087)"
         id="path63" />
    </clipPath>
    <clipPath
       clipPathUnits="userSpaceOnUse"
       id="clipPath64">
      <path
         d="M 0,0 H 403.65353 V 153.07086 H 0 Z"
         transform="matrix(1,0,0,-1.3239702,0,202.66126)"
         id="path64" />
    </clipPath>
    <clipPath
       clipPathUnits="userSpaceOnUse"
       id="clipPath65">
      <path
         d="M 0,0 H 403.65353 V 153.07086 H 0 Z"
         id="path65" />
    </clipPath>
    <clipPath
       clipPathUnits="userSpaceOnUse"
       id="clipPath66">
      <path
         d="M 0,0 H 403.65353 V 153.07086 H 0 Z"
         id="path66" />
    </clipPath>
    <clipPath
       clipPathUnits="userSpaceOnUse"
       id="clipPath67">
      <path
         d="M 0,0 H 403.65353 V 153.07086 H 0 Z"
         id="path67" />
    </clipPath>
    <clipPath
       clipPathUnits="userSpaceOnUse"
       id="clipPath68">
      <path
         d="M 0,0 H 403.65353 V 153.07086 H 0 Z"
         transform="matrix(1,0,0,-1.3239702,0,202.66126)"
         id="path68" />
    </clipPath>
    <clipPath
       clipPathUnits="userSpaceOnUse"
       id="clipPath69">
      <path
         d="M 0,0 H 403.65353 V 153.07086 H 0 Z"
         id="path69" />
    </clipPath>
    <clipPath
       clipPathUnits="userSpaceOnUse"
       id="clipPath70">
      <path
         d="M 0,0 H 403.65353 V 153.07086 H 0 Z"
         id="path70" />
    </clipPath>
    <clipPath
       clipPathUnits="userSpaceOnUse"
       id="clipPath71">
      <path
         d="M 0,0 H 403.65353 V 153.07086 H 0 Z"
         id="path71" />
    </clipPath>
    <clipPath
       clipPathUnits="userSpaceOnUse"
       id="clipPath72">
      <path
         d="M 0,0 H 403.65353 V 153.07086 H 0 Z"
         id="path72" />
    </clipPath>
    <clipPath
       clipPathUnits="userSpaceOnUse"
       id="clipPath73">
      <path
         d="M 0,0 H 403.65353 V 153.07086 H 0 Z"
         id="path73" />
    </clipPath>
    <clipPath
       clipPathUnits="userSpaceOnUse"
       id="clipPath74">
      <path
         d="M 0,0 H 403.65353 V 153.07086 H 0 Z"
         id="path74" />
    </clipPath>
    <clipPath
       clipPathUnits="userSpaceOnUse"
       id="clipPath75">
      <path
         d="M 0,0 H 403.65353 V 153.07086 H 0 Z"
         id="path75" />
    </clipPath>
    <clipPath
       clipPathUnits="userSpaceOnUse"
       id="clipPath76">
      <path
         d="M 0,0 H 403.65353 V 153.07086 H 0 Z"
         id="path76" />
    </clipPath>
    <clipPath
       clipPathUnits="userSpaceOnUse"
       id="clipPath77">
      <path
         d="M 0,0 H 403.65353 V 153.07086 H 0 Z"
         id="path77" />
    </clipPath>
  </defs>
  <sodipodi:namedview
     id="namedview1"
     pagecolor="#ffffff"
     bordercolor="#000000"
     borderopacity="0.25"
     inkscape:showpageshadow="2"
     inkscape:pageopacity="0.0"
     inkscape:pagecheckerboard="0"
     inkscape:deskcolor="#d1d1d1"
     inkscape:zoom="0.84631006"
     inkscape:cx="252.86241"
     inkscape:cy="457.87002"
     inkscape:window-width="1016"
     inkscape:window-height="1078"
     inkscape:window-x="1029"
     inkscape:window-y="688"
     inkscape:window-maximized="0"
     inkscape:current-layer="g1">
    <inkscape:page
       x="0"
       y="0"
       inkscape:label="57"
       id="page1"
       width="533.37433"
       height="185.37776"
       margin="0"
       bleed="0" />
  </sodipodi:namedview>
  <g
     id="g1"
     inkscape:groupmode="layer"
     inkscape:label="57"
     transform="translate(-144.34058,-103.91812)">
    <g
       id="g152">
      <path
         d="m 170.773,37.117 h 26.36"
         style="fill:none;stroke:#000000;stroke-width:0.72;stroke-linecap:butt;stroke-linejoin:miter;stroke-miterlimit:4;stroke-dasharray:none;stroke-opacity:1"
         transform="matrix(1.3342933,0,0,1.3342933,141.732,94.487903)"
         clip-path="url(#clipPath3)"
         id="path78" />
      <path
         d="m 200.898,38.859 -4.718,-1.734 4.718,-1.734 c -0.753,1.023 -0.75,2.425 0,3.468 z"
         style="fill:#000000;fill-opacity:1;fill-rule:evenodd;stroke:#000000;stroke-width:0.27;stroke-linecap:butt;stroke-linejoin:round;stroke-miterlimit:4;stroke-dasharray:none;stroke-opacity:1"
         transform="matrix(1.3342933,0,0,1.3342933,141.732,94.487903)"
         clip-path="url(#clipPath4)"
         id="path79" />
      <path
         d="m 114.926,37.117 h 30.918"
         style="fill:none;stroke:#000000;stroke-width:0.72;stroke-linecap:butt;stroke-linejoin:miter;stroke-miterlimit:4;stroke-dasharray:none;stroke-opacity:1"
         transform="matrix(1.3342933,0,0,1.3342933,141.732,94.487903)"
         clip-path="url(#clipPath5)"
         id="path80" />
      <path
         d="m 118.695,38.859 -4.722,-1.734 4.722,-1.734 c -0.757,1.023 -0.75,2.425 0,3.468 z"
         style="fill:#000000;fill-opacity:1;fill-rule:evenodd;stroke:#000000;stroke-width:0.27;stroke-linecap:butt;stroke-linejoin:round;stroke-miterlimit:4;stroke-dasharray:none;stroke-opacity:1"
         transform="matrix(1.3342933,0,0,1.3342933,141.732,94.487903)"
         clip-path="url(#clipPath6)"
         id="path81" />
      <path
         d="m 153.641,28.848 c -4.114,-2.082 -6.243,-6.731 -5.125,-11.207 1.113,-4.473 5.172,-7.582 9.781,-7.493 4.613,0.09 8.547,3.356 9.484,7.872 0.942,4.515 -1.367,9.078 -5.558,10.996"
         style="fill:#ffffff;fill-opacity:1;fill-rule:nonzero;stroke:#000000;stroke-width:0.72;stroke-linecap:butt;stroke-linejoin:miter;stroke-miterlimit:4;stroke-dasharray:none;stroke-opacity:1"
         transform="matrix(1.3342933,0,0,1.3342933,141.732,94.487903)"
         clip-path="url(#clipPath7)"
         id="path82" />
      <path
         d="m 159.387,10.168 h 0.449"
         style="fill:none;stroke:#000000;stroke-width:0.8;stroke-linecap:butt;stroke-linejoin:miter;stroke-miterlimit:4;stroke-dasharray:none;stroke-opacity:1"
         transform="matrix(1.3342933,0,0,1.3342933,141.732,94.487903)"
         clip-path="url(#clipPath8)"
         id="path83" />
      <path
         d="m -155.652,-8.23 -5.243,-1.93 5.243,-1.93 c -0.836,1.141 -0.832,2.699 0,3.86 z"
         style="fill:#000000;fill-opacity:1;fill-rule:evenodd;stroke:#000000;stroke-width:0.3;stroke-linecap:butt;stroke-linejoin:round;stroke-miterlimit:4;stroke-dasharray:none;stroke-opacity:1"
         transform="matrix(-1.3342933,0,0,-1.3342933,141.732,94.487903)"
         clip-path="url(#clipPath9)"
         id="path84" />
      <path
         d="m 164.918,7.352 -4.867,7.449"
         style="fill:none;stroke:#000000;stroke-width:1.04;stroke-linecap:butt;stroke-linejoin:miter;stroke-miterlimit:4;stroke-dasharray:none;stroke-opacity:1"
         transform="matrix(1.3342933,0,0,1.3342933,141.732,94.487903)"
         clip-path="url(#clipPath10)"
         id="path85" />
      <path
         d="M 58.715,37.098 H 85.07"
         style="fill:none;stroke:#000000;stroke-width:0.72;stroke-linecap:butt;stroke-linejoin:miter;stroke-miterlimit:4;stroke-dasharray:none;stroke-opacity:1"
         transform="matrix(1.3342933,0,0,1.3342933,141.732,94.487903)"
         clip-path="url(#clipPath11)"
         id="path86" />
      <path
         d="m 88.84,38.84 -4.723,-1.735 4.723,-1.734 c -0.754,1.024 -0.75,2.426 0,3.469 z"
         style="fill:#000000;fill-opacity:1;fill-rule:evenodd;stroke:#000000;stroke-width:0.27;stroke-linecap:butt;stroke-linejoin:round;stroke-miterlimit:4;stroke-dasharray:none;stroke-opacity:1"
         transform="matrix(1.3342933,0,0,1.3342933,141.732,94.487903)"
         clip-path="url(#clipPath12)"
         id="path87" />
      <path
         d="M 3.043,37.098 H 33.961"
         style="fill:none;stroke:#000000;stroke-width:0.72;stroke-linecap:butt;stroke-linejoin:miter;stroke-miterlimit:4;stroke-dasharray:none;stroke-opacity:1"
         transform="matrix(1.3342933,0,0,1.3342933,141.732,94.487903)"
         clip-path="url(#clipPath13)"
         id="path88" />
      <path
         d="M 6.813,38.84 2.09,37.105 6.813,35.371 c -0.758,1.024 -0.75,2.426 0,3.469 z"
         style="fill:#000000;fill-opacity:1;fill-rule:evenodd;stroke:#000000;stroke-width:0.27;stroke-linecap:butt;stroke-linejoin:round;stroke-miterlimit:4;stroke-dasharray:none;stroke-opacity:1"
         transform="matrix(1.3342933,0,0,1.3342933,141.732,94.487903)"
         clip-path="url(#clipPath14)"
         id="path89" />
      <path
         d="M 71.031,70.884 H 21.18 L 46.105,27.71 Z"
         style="fill:#df3223;fill-opacity:1;fill-rule:nonzero;stroke:#000000;stroke-width:0.82846;stroke-linecap:butt;stroke-linejoin:miter;stroke-miterlimit:4;stroke-dasharray:none;stroke-opacity:1"
         transform="matrix(1.3342933,0,0,1.0077971,141.732,94.487903)"
         clip-path="url(#clipPath15)"
         id="path90" />
      <path
         d="m 40.738,108.157 0.95,0.922 c 1.39,1.234 1.929,1.715 1.929,2.609 0,1.023 -0.804,1.738 -1.894,1.738 -1.012,0 -1.676,-0.824 -1.676,-1.621 0,-0.5 0.449,-0.5 0.476,-0.5 0.153,0 0.465,0.106 0.465,0.473 0,0.234 -0.16,0.469 -0.472,0.469 -0.071,0 -0.09,0 -0.118,-0.012 0.207,0.582 0.688,0.914 1.207,0.914 0.813,0 1.2,-0.727 1.2,-1.461 0,-0.715 -0.45,-1.422 -0.938,-1.977 l -1.719,-1.914 c -0.101,-0.097 -0.101,-0.113 -0.101,-0.328 h 3.32 l 0.25,1.555 h -0.222 c -0.047,-0.27 -0.106,-0.66 -0.196,-0.797 -0.066,-0.07 -0.652,-0.07 -0.851,-0.07 z"
         style="fill:#000000;fill-opacity:1;fill-rule:evenodd;stroke:none"
         transform="matrix(1.3342933,0,0,-1.3342933,141.732,298.72933)"
         clip-path="url(#clipPath16)"
         id="path91" />
      <path
         d="m 45.898,107.477 v 0.055 l -0.003,0.054 -0.008,0.102 -0.004,0.047 -0.016,0.094 -0.012,0.043 -0.007,0.043 -0.012,0.043 -0.012,0.039 -0.015,0.035 -0.016,0.039 -0.016,0.031 -0.015,0.035 -0.02,0.032 -0.019,0.027 -0.02,0.031 -0.019,0.024 -0.047,0.046 -0.047,0.039 -0.055,0.032 -0.055,0.023 -0.027,0.008 -0.031,0.008 -0.063,0.008 h -0.035 c -0.293,0 -0.472,-0.223 -0.472,-0.473 0,-0.242 0.179,-0.473 0.472,-0.473 0.11,0 0.227,0.035 0.317,0.114 0.023,0.019 0.035,0.027 0.043,0.027 0.011,0 0.015,-0.008 0.015,-0.133 0,-0.664 -0.308,-1.199 -0.605,-1.492 -0.102,-0.098 -0.102,-0.117 -0.102,-0.145 0,-0.062 0.047,-0.097 0.09,-0.097 0.102,0 0.816,0.687 0.816,1.734 z"
         style="fill:#000000;fill-opacity:1;fill-rule:evenodd;stroke:none"
         transform="matrix(1.3342933,0,0,-1.3342933,141.732,298.72933)"
         clip-path="url(#clipPath17)"
         id="path92" />
      <path
         d="m 52.16,110.329 v 0.269 l -0.004,0.133 -0.008,0.133 -0.007,0.137 -0.008,0.132 -0.016,0.133 -0.019,0.129 -0.02,0.133 -0.023,0.129 -0.028,0.129 -0.035,0.133 -0.039,0.128 -0.043,0.125 -0.051,0.125 -0.054,0.125 c -0.41,0.86 -1.149,1.004 -1.524,1.004 -0.535,0 -1.187,-0.234 -1.554,-1.066 -0.289,-0.617 -0.332,-1.316 -0.332,-2.031 0,-0.672 0.035,-1.473 0.402,-2.153 0.387,-0.722 1.039,-0.902 1.476,-0.902 v 0.195 c -0.347,0 -0.878,0.223 -1.039,1.082 -0.097,0.535 -0.097,1.356 -0.097,1.887 0,0.57 0,1.16 0.074,1.645 0.168,1.066 0.84,1.144 1.062,1.144 0.293,0 0.887,-0.16 1.055,-1.047 0.09,-0.5 0.09,-1.179 0.09,-1.742 0,-0.672 0,-1.277 -0.098,-1.852 -0.136,-0.847 -0.644,-1.117 -1.047,-1.117 v -0.195 c 0.485,0 1.161,0.184 1.555,1.035 0.289,0.617 0.332,1.313 0.332,2.02 z"
         style="fill:#000000;fill-opacity:1;fill-rule:evenodd;stroke:none"
         transform="matrix(1.3342933,0,0,-1.3342933,141.732,298.72933)"
         clip-path="url(#clipPath18)"
         id="path93" />
      <path
         d="m 47.813,13.031 c 0,0.946 -0.766,1.707 -1.708,1.707 -0.945,0 -1.707,-0.761 -1.707,-1.707 0,-0.945 0.762,-1.707 1.707,-1.707 0.942,0 1.708,0.762 1.708,1.707 z"
         style="fill:#000000;fill-opacity:1;fill-rule:nonzero;stroke:#000000;stroke-width:0.72;stroke-linecap:butt;stroke-linejoin:miter;stroke-miterlimit:4;stroke-dasharray:none;stroke-opacity:1"
         transform="matrix(1.3342933,0,0,1.3342933,141.732,94.487903)"
         clip-path="url(#clipPath19)"
         id="path94" />
      <path
         d="m 105.199,116.782 h 0.094 l 0.016,0.004 h 0.035 l 0.011,0.004 h 0.016 l 0.016,0.004 h 0.015 l 0.012,0.007 0.031,0.008 0.012,0.004 0.012,0.008 0.015,0.004 0.008,0.008 0.012,0.007 0.019,0.02 0.008,0.012 0.012,0.011 v 0.004 l 0.016,0.032 v 0.007 l 0.004,0.004 v 0.02 l 0.003,0.008 v 0.039 c 0,0.214 -0.203,0.214 -0.355,0.214 H 98.73 c -0.156,0 -0.355,0 -0.355,-0.214 0,-0.215 0.199,-0.215 0.363,-0.215 z"
         style="fill:#000000;fill-opacity:1;fill-rule:evenodd;stroke:none"
         transform="matrix(1.3342933,0,0,-1.3342933,141.732,298.72933)"
         clip-path="url(#clipPath20)"
         id="path95" />
      <path
         d="m 105.211,114.68 h 0.105 l 0.016,0.004 h 0.031 l 0.012,0.004 0.031,0.008 0.012,0.004 0.016,0.004 0.011,0.004 0.016,0.003 0.012,0.008 0.011,0.004 0.008,0.012 0.024,0.016 0.007,0.011 0.004,0.004 0.004,0.008 0.008,0.004 0.004,0.004 v 0.008 l 0.004,0.007 0.004,0.004 0.008,0.016 v 0.008 l 0.004,0.008 v 0.019 l 0.003,0.008 v 0.035 c 0,0.219 -0.203,0.219 -0.367,0.219 h -6.461 c -0.164,0 -0.363,0 -0.363,-0.219 0,-0.215 0.199,-0.215 0.355,-0.215 z"
         style="fill:#000000;fill-opacity:1;fill-rule:evenodd;stroke:none"
         transform="matrix(1.3342933,0,0,-1.3342933,141.732,298.72933)"
         clip-path="url(#clipPath21)"
         id="path96" />
      <path
         d="m 230.477,125.797 v 0.094 l -0.004,0.008 v 0.035 l -0.004,0.016 v 0.011 l -0.004,0.008 v 0.012 l -0.016,0.031 -0.011,0.012 -0.032,0.016 h -0.008 l -0.003,0.004 h -0.012 l -0.008,0.003 h -0.027 l -0.004,0.004 h -0.09 c -0.606,-0.625 -1.461,-0.625 -1.774,-0.625 v -0.3 c 0.196,0 0.77,0 1.274,0.253 v -5.046 c 0,-0.352 -0.027,-0.465 -0.902,-0.465 h -0.313 v -0.305 c 0.344,0.031 1.188,0.031 1.578,0.031 0.391,0 1.235,0 1.578,-0.031 v 0.305 h -0.312 c -0.875,0 -0.906,0.105 -0.906,0.465 z"
         style="fill:#000000;fill-opacity:1;fill-rule:evenodd;stroke:none"
         transform="matrix(1.3342933,0,0,-1.3342933,141.732,298.72933)"
         clip-path="url(#clipPath22)"
         id="path97" />
      <path
         d="m 227.707,115.294 h 4.879 v 0.398 h -4.879"
         style="fill:#000000;fill-opacity:1;fill-rule:nonzero;stroke:none"
         transform="matrix(1.3342933,0,0,-1.3342933,141.732,298.72933)"
         clip-path="url(#clipPath23)"
         id="path98" />
      <path
         d="m 228.852,107.059 1.031,1.004 c 1.519,1.34 2.105,1.867 2.105,2.84 0,1.113 -0.875,1.894 -2.066,1.894 -1.102,0 -1.824,-0.898 -1.824,-1.765 0,-0.547 0.488,-0.547 0.515,-0.547 0.172,0 0.512,0.117 0.512,0.516 0,0.253 -0.176,0.507 -0.52,0.507 -0.074,0 -0.097,0 -0.125,-0.007 0.223,0.632 0.75,0.992 1.317,0.992 0.883,0 1.305,-0.793 1.305,-1.59 0,-0.777 -0.489,-1.547 -1.024,-2.152 l -1.867,-2.082 c -0.113,-0.106 -0.113,-0.125 -0.113,-0.36 h 3.617 l 0.273,1.695 h -0.246 c -0.047,-0.293 -0.113,-0.722 -0.211,-0.871 -0.07,-0.074 -0.711,-0.074 -0.926,-0.074 z"
         style="fill:#000000;fill-opacity:1;fill-rule:evenodd;stroke:none"
         transform="matrix(1.3342933,0,0,-1.3342933,141.732,298.72933)"
         clip-path="url(#clipPath24)"
         id="path99" />
      <path
         d="m 216.676,115.727 h 3.023 c 0.149,0 0.356,0 0.356,0.219 0,0.215 -0.207,0.215 -0.356,0.215 h -3.023 v 3.035 c 0,0.144 0,0.355 -0.219,0.355 -0.211,0 -0.211,-0.211 -0.211,-0.355 v -3.035 h -3.031 c -0.152,0 -0.356,0 -0.356,-0.215 0,-0.219 0.204,-0.219 0.356,-0.219 h 3.031 V 112.7 c 0,-0.153 0,-0.36 0.211,-0.36 0.219,0 0.219,0.207 0.219,0.36 z"
         style="fill:#000000;fill-opacity:1;fill-rule:evenodd;stroke:none"
         transform="matrix(1.3342933,0,0,-1.3342933,141.732,298.72933)"
         clip-path="url(#clipPath25)"
         id="path100" />
      <path
         d="M 183.031,70.884 H 133.18 L 158.105,27.71 Z"
         style="fill:#3c42a1;fill-opacity:1;fill-rule:nonzero;stroke:#000000;stroke-width:0.82846;stroke-linecap:butt;stroke-linejoin:miter;stroke-miterlimit:4;stroke-dasharray:none;stroke-opacity:1"
         transform="matrix(1.3342933,0,0,1.0077971,141.732,94.487903)"
         clip-path="url(#clipPath26)"
         id="path101" />
      <path
         d="m 269.504,53.063 c -0.27,0.289 -0.539,0.589 -0.777,0.886 -0.235,0.301 -0.442,0.594 -0.586,0.871 -0.145,0.278 -0.227,0.539 -0.235,0.774 -0.008,0.23 0.059,0.437 0.199,0.613 0.145,0.176 0.36,0.32 0.633,0.434 0.278,0.113 0.606,0.199 0.969,0.261 0.363,0.063 0.754,0.106 1.141,0.141 0.382,0.031 0.769,0.059 1.113,0.094 0.344,0.035 0.648,0.078 0.891,0.144 0.242,0.067 0.421,0.153 0.527,0.274 0.105,0.117 0.133,0.269 0.094,0.453 -0.043,0.187 -0.157,0.406 -0.321,0.66 -0.164,0.25 -0.382,0.531 -0.625,0.832 -0.242,0.301 -0.5,0.617 -0.754,0.945 -0.183,0.235 -0.359,0.469 -0.515,0.7 -0.051,0.089 -0.098,0.179 -0.141,0.269 -0.152,0.316 -0.254,0.625 -0.281,0.91 -0.031,0.281 0.016,0.539 0.133,0.758 0.117,0.215 0.312,0.383 0.57,0.504 0.254,0.121 0.574,0.187 0.926,0.203 0.355,0.02 0.746,-0.012 1.14,-0.074 0.399,-0.063 0.797,-0.156 1.176,-0.258 0.387,-0.105 0.715,-0.207 1.035,-0.297 0.309,-0.09 0.571,-0.152 0.778,-0.176 0.203,-0.019 0.351,0.008 0.449,0.09 0.094,0.086 0.137,0.231 0.141,0.434 0,0.207 -0.036,0.472 -0.09,0.781 -0.051,0.324 -0.117,0.664 -0.176,1.059 -0.051,0.332 -0.094,0.679 -0.109,1.031 -0.004,0.051 -0.008,0.101 -0.008,0.152 -0.012,0.395 0.008,0.778 0.074,1.114 0.066,0.339 0.18,0.628 0.336,0.851 0.16,0.223 0.363,0.375 0.598,0.445 0.238,0.071 0.507,0.059 0.796,-0.023 0.29,-0.086 0.594,-0.246 0.899,-0.457 0.305,-0.211 0.605,-0.473 0.891,-0.75 0.289,-0.281 0.558,-0.57 0.808,-0.848 0.246,-0.269 0.473,-0.523 0.672,-0.718 0.199,-0.196 0.375,-0.336 0.531,-0.403 0.153,-0.066 0.285,-0.054 0.407,0.035 0.125,0.09 0.234,0.258 0.343,0.493 0.11,0.234 0.219,0.535 0.336,0.871 0.121,0.339 0.25,0.707 0.399,1.082 0.148,0.375 0.316,0.742 0.5,1.078 0.187,0.332 0.39,0.621 0.613,0.844 0.219,0.222 0.449,0.371 0.687,0.437 0.012,0.004 0.024,0.004 0.032,0.008 0.226,0.055 0.457,0.035 0.679,-0.063 0.235,-0.105 0.457,-0.293 0.668,-0.547 0.207,-0.253 0.395,-0.57 0.567,-0.917 0.172,-0.352 0.32,-0.731 0.453,-1.106 0.133,-0.383 0.242,-0.738 0.351,-1.07 0.11,-0.321 0.207,-0.606 0.313,-0.817 0.105,-0.211 0.211,-0.351 0.336,-0.414 0.125,-0.062 0.265,-0.047 0.43,0.043 0.164,0.086 0.351,0.25 0.566,0.457 0.211,0.207 0.461,0.473 0.723,0.742 0.265,0.274 0.55,0.555 0.851,0.821 0.301,0.261 0.613,0.496 0.922,0.679 0.313,0.18 0.617,0.305 0.898,0.352 0.286,0.047 0.543,0.016 0.766,-0.09 0.223,-0.109 0.402,-0.297 0.535,-0.551 0.133,-0.25 0.215,-0.566 0.254,-0.925 0.008,-0.055 0.012,-0.114 0.016,-0.172 0.019,-0.309 0.008,-0.637 -0.024,-0.973 -0.039,-0.398 -0.105,-0.797 -0.175,-1.172 -0.071,-0.367 -0.149,-0.73 -0.2,-1.023 -0.05,-0.297 -0.082,-0.547 -0.066,-0.739 0.016,-0.187 0.078,-0.316 0.191,-0.386 0.118,-0.071 0.289,-0.082 0.516,-0.051 0.227,0.031 0.512,0.105 0.836,0.199 0.328,0.098 0.68,0.203 1.066,0.309 0.387,0.101 0.782,0.195 1.168,0.25 0.387,0.058 0.758,0.082 1.09,0.054 0.332,-0.027 0.617,-0.105 0.84,-0.238 0.223,-0.133 0.383,-0.32 0.465,-0.551 0.082,-0.23 0.094,-0.507 0.035,-0.808 -0.02,-0.102 -0.047,-0.207 -0.082,-0.313 -0.066,-0.215 -0.16,-0.433 -0.27,-0.66 -0.171,-0.336 -0.382,-0.68 -0.609,-1.012 -0.227,-0.332 -0.457,-0.644 -0.672,-0.937 -0.211,-0.293 -0.402,-0.555 -0.535,-0.785 -0.137,-0.227 -0.219,-0.422 -0.227,-0.578 -0.007,-0.16 0.055,-0.282 0.192,-0.379 0.137,-0.094 0.348,-0.164 0.621,-0.219 0.269,-0.051 0.602,-0.094 0.969,-0.137 0.367,-0.043 0.758,-0.086 1.156,-0.148 0.398,-0.063 0.789,-0.141 1.144,-0.25 0.356,-0.106 0.672,-0.238 0.922,-0.399 0.012,-0.007 0.024,-0.019 0.039,-0.027 0.227,-0.156 0.395,-0.336 0.489,-0.543 0.101,-0.215 0.113,-0.457 0.05,-0.711 -0.054,-0.219 -0.175,-0.453 -0.343,-0.683 -0.024,-0.036 -0.051,-0.067 -0.074,-0.102 -0.149,-0.184 -0.325,-0.371 -0.52,-0.555 -0.063,-0.058 -0.129,-0.121 -0.195,-0.179 -0.203,-0.039 -0.395,-0.078 -0.575,-0.114 -0.062,-0.011 -0.125,-0.027 -0.183,-0.039 h -0.004"
         style="fill:#ffffff;fill-opacity:1;fill-rule:nonzero;stroke:#000000;stroke-width:0.72;stroke-linecap:butt;stroke-linejoin:miter;stroke-miterlimit:4;stroke-dasharray:none;stroke-opacity:1"
         transform="matrix(1.3342933,0,0,1.3342933,141.732,94.487903)"
         clip-path="url(#clipPath27)"
         id="path102" />
      <path
         d="m 285.605,61.957 -2.128,13.215"
         style="fill:none;stroke:#000000;stroke-width:1.04;stroke-linecap:butt;stroke-linejoin:miter;stroke-miterlimit:4;stroke-dasharray:none;stroke-opacity:1"
         transform="matrix(1.3342933,0,0,1.3342933,141.732,94.487903)"
         clip-path="url(#clipPath28)"
         id="path103" />
      <path
         d="M 298.055,37.125 H 324.41"
         style="fill:none;stroke:#000000;stroke-width:0.72;stroke-linecap:butt;stroke-linejoin:miter;stroke-miterlimit:4;stroke-dasharray:none;stroke-opacity:1"
         transform="matrix(1.3342933,0,0,1.3342933,141.732,94.487903)"
         clip-path="url(#clipPath29)"
         id="path104" />
      <path
         d="m 328.18,38.867 -4.723,-1.734 4.723,-1.735 c -0.754,1.024 -0.75,2.426 0,3.469 z"
         style="fill:#000000;fill-opacity:1;fill-rule:evenodd;stroke:#000000;stroke-width:0.27;stroke-linecap:butt;stroke-linejoin:round;stroke-miterlimit:4;stroke-dasharray:none;stroke-opacity:1"
         transform="matrix(1.3342933,0,0,1.3342933,141.732,94.487903)"
         clip-path="url(#clipPath30)"
         id="path105" />
      <path
         d="m 242.207,37.125 h 30.918"
         style="fill:none;stroke:#000000;stroke-width:0.72;stroke-linecap:butt;stroke-linejoin:miter;stroke-miterlimit:4;stroke-dasharray:none;stroke-opacity:1"
         transform="matrix(1.3342933,0,0,1.3342933,141.732,94.487903)"
         clip-path="url(#clipPath31)"
         id="path106" />
      <path
         d="m 245.973,38.867 -4.719,-1.734 4.719,-1.735 c -0.754,1.024 -0.75,2.426 0,3.469 z"
         style="fill:#000000;fill-opacity:1;fill-rule:evenodd;stroke:#000000;stroke-width:0.27;stroke-linecap:butt;stroke-linejoin:round;stroke-miterlimit:4;stroke-dasharray:none;stroke-opacity:1"
         transform="matrix(1.3342933,0,0,1.3342933,141.732,94.487903)"
         clip-path="url(#clipPath32)"
         id="path107" />
      <path
         d="M 310.758,70.884 H 260.902 L 285.832,27.71 Z"
         style="fill:#3c42a1;fill-opacity:1;fill-rule:nonzero;stroke:#000000;stroke-width:0.82846;stroke-linecap:butt;stroke-linejoin:miter;stroke-miterlimit:4;stroke-dasharray:none;stroke-opacity:1"
         transform="matrix(1.3342933,0,0,1.0077971,141.732,94.487903)"
         clip-path="url(#clipPath33)"
         id="path108" />
      <path
         d="m 219.32,49.774 h 3.02 c 0.152,0 0.359,0 0.359,0.215 0,0.219 -0.207,0.219 -0.359,0.219 h -3.02 v 3.031 c 0,0.148 0,0.355 -0.218,0.355 -0.211,0 -0.211,-0.207 -0.211,-0.355 v -3.031 h -3.032 c -0.156,0 -0.355,0 -0.355,-0.219 0,-0.215 0.199,-0.215 0.355,-0.215 h 3.032 v -3.031 c 0,-0.149 0,-0.356 0.211,-0.356 0.218,0 0.218,0.207 0.218,0.356 z"
         style="fill:#000000;fill-opacity:1;fill-rule:evenodd;stroke:none"
         transform="matrix(1.3342933,0,0,-1.3342933,141.732,298.72933)"
         clip-path="url(#clipPath34)"
         id="path109" />
      <path
         d="m 23.875,49.778 h 3.02 c 0.152,0 0.359,0 0.359,0.219 0,0.214 -0.207,0.214 -0.359,0.214 h -3.02 v 3.032 c 0,0.148 0,0.359 -0.219,0.359 -0.211,0 -0.211,-0.211 -0.211,-0.359 v -3.032 h -3.031 c -0.156,0 -0.355,0 -0.355,-0.214 0,-0.219 0.199,-0.219 0.355,-0.219 h 3.031 v -3.027 c 0,-0.153 0,-0.36 0.211,-0.36 0.219,0 0.219,0.207 0.219,0.36 z"
         style="fill:#000000;fill-opacity:1;fill-rule:evenodd;stroke:none"
         transform="matrix(1.3342933,0,0,-1.3342933,141.732,298.72933)"
         clip-path="url(#clipPath35)"
         id="path110" />
      <path
         d="m 91.738,103.113 h 26.36"
         style="fill:none;stroke:#000000;stroke-width:0.72;stroke-linecap:butt;stroke-linejoin:miter;stroke-miterlimit:4;stroke-dasharray:none;stroke-opacity:1"
         transform="matrix(1.3342933,0,0,1.3342933,141.732,94.487903)"
         clip-path="url(#clipPath36)"
         id="path111" />
      <path
         d="M 35.797,103.113 H 66.711"
         style="fill:none;stroke:#000000;stroke-width:0.72;stroke-linecap:butt;stroke-linejoin:miter;stroke-miterlimit:4;stroke-dasharray:none;stroke-opacity:1"
         transform="matrix(1.3342933,0,0,1.3342933,141.732,94.487903)"
         clip-path="url(#clipPath37)"
         id="path112" />
      <path
         d="m 39.563,104.855 -4.719,-1.738 4.719,-1.734 c -0.754,1.023 -0.75,2.426 0,3.472 z"
         style="fill:#000000;fill-opacity:1;fill-rule:evenodd;stroke:#000000;stroke-width:0.27;stroke-linecap:butt;stroke-linejoin:round;stroke-miterlimit:4;stroke-dasharray:none;stroke-opacity:1"
         transform="matrix(1.3342933,0,0,1.3342933,141.732,94.487903)"
         clip-path="url(#clipPath38)"
         id="path113" />
      <path
         d="m 80.031,33.586 c 0.348,-0.175 0.727,-0.335 1.114,-0.488 0.398,-0.16 0.75,-0.289 1.109,-0.429 0.344,-0.137 0.644,-0.266 0.879,-0.391 0.234,-0.125 0.394,-0.25 0.469,-0.379 0.074,-0.129 0.062,-0.262 -0.036,-0.402 -0.101,-0.145 -0.285,-0.293 -0.535,-0.457 -0.246,-0.161 -0.558,-0.332 -0.902,-0.516 l -0.012,-0.008 c -0.328,-0.176 -0.676,-0.371 -1.019,-0.594 -0.34,-0.218 -0.66,-0.457 -0.93,-0.711 -0.27,-0.253 -0.48,-0.515 -0.617,-0.773 -0.133,-0.258 -0.184,-0.508 -0.149,-0.738 0.036,-0.231 0.164,-0.434 0.371,-0.598 0.204,-0.168 0.489,-0.297 0.829,-0.387 0.339,-0.089 0.726,-0.14 1.136,-0.156 0.414,-0.019 0.836,-0.012 1.242,0.02 0.415,0.027 0.786,0.066 1.129,0.093 0.336,0.028 0.618,0.047 0.832,0.032 0.215,-0.012 0.356,-0.059 0.426,-0.153 0.071,-0.09 0.063,-0.23 0,-0.422 -0.066,-0.187 -0.195,-0.429 -0.355,-0.71 -0.176,-0.305 -0.348,-0.586 -0.559,-0.961 -0.199,-0.352 -0.398,-0.723 -0.566,-1.098 -0.121,-0.27 -0.223,-0.539 -0.301,-0.797 -0.031,-0.102 -0.055,-0.195 -0.078,-0.289 -0.078,-0.34 -0.102,-0.645 -0.059,-0.898 0.043,-0.25 0.156,-0.45 0.328,-0.579 0.176,-0.132 0.411,-0.195 0.696,-0.191 0.285,0 0.613,0.066 0.968,0.18 0.352,0.117 0.727,0.277 1.098,0.457 0.375,0.183 0.738,0.383 1.078,0.57 0.336,0.184 0.653,0.359 0.914,0.484 0.266,0.129 0.489,0.211 0.657,0.231 0.167,0.016 0.281,-0.035 0.351,-0.156 0.066,-0.121 0.09,-0.317 0.078,-0.575 -0.015,-0.253 -0.058,-0.578 -0.117,-0.941 -0.059,-0.367 -0.129,-0.758 -0.187,-1.172 -0.059,-0.414 -0.106,-0.828 -0.125,-1.223 -0.016,-0.39 0,-0.753 0.058,-1.062 0.055,-0.305 0.156,-0.551 0.301,-0.723 0.144,-0.168 0.336,-0.257 0.562,-0.269 0.227,-0.008 0.489,0.062 0.778,0.203 0.285,0.141 0.593,0.344 0.906,0.59 0.316,0.246 0.633,0.527 0.937,0.808 0.27,0.25 0.637,0.606 0.868,0.817 0.265,0.246 0.507,0.457 0.715,0.601 0.207,0.145 0.382,0.219 0.523,0.215 0.141,-0.008 0.246,-0.09 0.324,-0.262 0.082,-0.168 0.133,-0.414 0.172,-0.722 0.039,-0.305 0.063,-0.676 0.086,-1.071 0.023,-0.398 0.047,-0.816 0.086,-1.234 0.039,-0.414 0.094,-0.812 0.172,-1.168 0.008,-0.023 0.012,-0.047 0.019,-0.07 0.075,-0.324 0.172,-0.606 0.293,-0.82 0.133,-0.235 0.293,-0.391 0.481,-0.461 0.187,-0.071 0.402,-0.055 0.636,0.039 0.231,0.097 0.485,0.273 0.747,0.504 0.257,0.234 0.527,0.523 0.789,0.839 0.265,0.313 0.523,0.645 0.773,0.965 0.246,0.317 0.481,0.617 0.691,0.864 0.211,0.246 0.403,0.437 0.571,0.55 0.168,0.114 0.316,0.149 0.441,0.102 0.129,-0.051 0.235,-0.188 0.328,-0.402 0.094,-0.215 0.172,-0.504 0.25,-0.844 0.075,-0.336 0.149,-0.731 0.231,-1.129 0.078,-0.402 0.164,-0.817 0.265,-1.207 0.102,-0.387 0.215,-0.746 0.348,-1.047 0.137,-0.301 0.289,-0.535 0.457,-0.691 0.172,-0.153 0.363,-0.223 0.567,-0.204 0.203,0.02 0.421,0.125 0.648,0.305 0.223,0.18 0.453,0.438 0.684,0.738 0.234,0.301 0.46,0.645 0.683,0.996 0.227,0.356 0.434,0.704 0.641,1.032 0.199,0.324 0.39,0.613 0.562,0.836 0.176,0.222 0.336,0.379 0.485,0.445 0.144,0.07 0.281,0.055 0.406,-0.051 0.125,-0.101 0.242,-0.293 0.355,-0.551 0.114,-0.257 0.223,-0.582 0.336,-0.945 0.117,-0.375 0.231,-0.758 0.36,-1.164 0.125,-0.394 0.257,-0.789 0.406,-1.141 0.144,-0.351 0.305,-0.656 0.473,-0.894 0.171,-0.234 0.351,-0.395 0.543,-0.465 0.191,-0.074 0.39,-0.055 0.597,0.047 0.203,0.101 0.41,0.293 0.617,0.547 0.207,0.254 0.414,0.57 0.614,0.918 0.203,0.351 0.394,0.726 0.582,1.097 0.187,0.368 0.363,0.727 0.535,1.032 0.168,0.308 0.328,0.566 0.476,0.75 0.153,0.179 0.297,0.285 0.438,0.297 0.137,0.015 0.273,-0.059 0.406,-0.215 0.133,-0.157 0.266,-0.399 0.403,-0.696 0.136,-0.296 0.273,-0.652 0.417,-1.031 0.149,-0.375 0.297,-0.773 0.458,-1.152 0.16,-0.379 0.328,-0.738 0.503,-1.043 0.176,-0.301 0.36,-0.547 0.547,-0.711 0.192,-0.164 0.383,-0.246 0.578,-0.238 0.196,0.011 0.391,0.109 0.586,0.285 0.196,0.179 0.387,0.437 0.575,0.746 0.183,0.308 0.367,0.672 0.539,1.047 0.175,0.375 0.343,0.765 0.504,1.129 0.16,0.363 0.312,0.699 0.46,0.972 0.149,0.274 0.293,0.485 0.434,0.61 0.063,0.058 0.121,0.097 0.184,0.121 0.078,0.027 0.156,0.031 0.234,0.008 0.141,-0.047 0.277,-0.18 0.422,-0.387 0.144,-0.211 0.293,-0.492 0.449,-0.824 0.152,-0.328 0.317,-0.7 0.485,-1.078 0.167,-0.383 0.339,-0.766 0.523,-1.118 0.184,-0.351 0.371,-0.664 0.562,-0.914 0.192,-0.246 0.387,-0.426 0.582,-0.519 0.196,-0.09 0.391,-0.094 0.586,-0.012 0.192,0.086 0.379,0.258 0.563,0.5 0.18,0.242 0.355,0.555 0.523,0.906 0.168,0.356 0.325,0.742 0.477,1.133 0.148,0.387 0.297,0.777 0.434,1.121 0.136,0.344 0.273,0.649 0.406,0.879 0.133,0.231 0.265,0.387 0.398,0.457 0.137,0.07 0.274,0.051 0.418,-0.055 0.149,-0.101 0.301,-0.293 0.461,-0.546 0.16,-0.254 0.328,-0.571 0.508,-0.918 0.18,-0.352 0.367,-0.727 0.562,-1.094 0.196,-0.367 0.399,-0.723 0.606,-1.031 0.203,-0.309 0.414,-0.567 0.621,-0.747 0.207,-0.179 0.414,-0.281 0.609,-0.292 0.2,-0.012 0.391,0.066 0.571,0.226 0.183,0.16 0.351,0.406 0.507,0.707 0.157,0.305 0.301,0.668 0.434,1.051 0.137,0.387 0.258,0.793 0.375,1.183 0.117,0.391 0.231,0.762 0.34,1.079 0.109,0.316 0.223,0.578 0.34,0.761 0.117,0.18 0.242,0.282 0.375,0.297 0.136,0.008 0.285,-0.062 0.445,-0.215 0.164,-0.152 0.34,-0.382 0.527,-0.668 0.192,-0.281 0.395,-0.613 0.61,-0.961 0.215,-0.347 0.441,-0.707 0.672,-1.043 0.226,-0.332 0.461,-0.636 0.691,-0.882 0.231,-0.246 0.457,-0.426 0.676,-0.528 0.215,-0.097 0.422,-0.113 0.609,-0.039 0.188,0.071 0.356,0.235 0.508,0.469 0.152,0.234 0.281,0.547 0.395,0.898 0.117,0.356 0.211,0.754 0.296,1.161 0.09,0.41 0.161,0.816 0.239,1.195 0.074,0.379 0.144,0.726 0.226,1.008 0.082,0.281 0.172,0.496 0.282,0.625 0.109,0.133 0.234,0.179 0.382,0.144 0.149,-0.039 0.317,-0.16 0.512,-0.347 0.191,-0.188 0.406,-0.442 0.641,-0.735 0.254,-0.32 0.457,-0.586 0.742,-0.941 0.262,-0.324 0.527,-0.641 0.793,-0.922 0.269,-0.277 0.531,-0.516 0.781,-0.684 0.25,-0.164 0.484,-0.257 0.695,-0.269 0.215,-0.008 0.399,0.066 0.559,0.226 0.152,0.153 0.273,0.375 0.375,0.661 0.004,0.011 0.008,0.027 0.016,0.043 0.101,0.3 0.175,0.664 0.226,1.058 0.055,0.399 0.086,0.817 0.113,1.234 0.024,0.407 0.043,0.825 0.067,1.176 0.027,0.36 0.058,0.672 0.113,0.91 0.055,0.239 0.133,0.407 0.242,0.493 0.11,0.086 0.25,0.082 0.426,0.007 0.176,-0.074 0.387,-0.222 0.629,-0.425 0.242,-0.203 0.516,-0.461 0.809,-0.735 0.293,-0.273 0.601,-0.562 0.918,-0.832 0.32,-0.269 0.636,-0.519 0.941,-0.715 0.309,-0.191 0.598,-0.332 0.855,-0.394 0.262,-0.063 0.489,-0.047 0.676,0.047 0.184,0.097 0.328,0.273 0.422,0.515 0.098,0.246 0.149,0.563 0.164,0.922 0.012,0.36 -0.015,0.758 -0.062,1.168 -0.047,0.41 -0.117,0.824 -0.184,1.219 -0.07,0.391 -0.137,0.762 -0.18,1.074 -0.043,0.313 -0.062,0.57 -0.039,0.758 0.024,0.191 0.09,0.309 0.211,0.359 0.117,0.047 0.289,0.028 0.508,-0.05 0.223,-0.075 0.496,-0.211 0.805,-0.372 0.324,-0.171 0.64,-0.347 1.019,-0.542 0.368,-0.188 0.743,-0.368 1.118,-0.52 0.371,-0.148 0.726,-0.258 1.054,-0.316 0.324,-0.055 0.61,-0.051 0.84,0.019 0.231,0.067 0.402,0.207 0.508,0.402 0.105,0.2 0.14,0.457 0.113,0.762 -0.008,0.09 -0.019,0.184 -0.039,0.281 -0.043,0.231 -0.117,0.481 -0.211,0.735 -0.137,0.367 -0.32,0.742 -0.515,1.105 -0.2,0.367 -0.411,0.715 -0.606,1.032 -0.191,0.316 -0.367,0.597 -0.488,0.832 -0.121,0.23 -0.196,0.418 -0.196,0.554 0,0.141 0.071,0.227 0.211,0.278 0.145,0.05 0.368,0.066 0.649,0.058 0.277,-0.008 0.629,-0.039 1.004,-0.062 0.386,-0.028 0.797,-0.051 1.215,-0.051 0.418,0 0.832,0.023 1.214,0.086 0.383,0.062 0.723,0.156 0.997,0.293 0.273,0.137 0.48,0.312 0.597,0.519 0.113,0.203 0.141,0.438 0.086,0.684 -0.058,0.25 -0.207,0.508 -0.422,0.762 -0.215,0.254 -0.5,0.504 -0.82,0.734 -0.309,0.223 -0.645,0.426 -0.984,0.609 0,0 -0.04,0.024 -0.04,0.024 -0.312,0.164 -0.781,0.398 -1.031,0.527 -0.304,0.16 -0.554,0.305 -0.73,0.438 -0.176,0.132 -0.274,0.257 -0.281,0.379 -0.008,0.121 0.074,0.242 0.234,0.367 0.16,0.125 0.402,0.258 0.699,0.402 0.289,0.141 0.656,0.309 1.024,0.481 0.375,0.175 0.761,0.367 1.132,0.574 -0.199,-0.016 -0.394,-0.031 -0.593,-0.047"
         style="fill:#ffffff;fill-opacity:0.725926;fill-rule:nonzero;stroke:none"
         transform="matrix(1.3342933,0,0,-1.3342933,141.732,298.72933)"
         clip-path="url(#clipPath39)"
         id="path114" />
      <path
         d="m 80.031,119.484 c 0.348,0.176 0.727,0.336 1.114,0.489 0.398,0.16 0.75,0.289 1.109,0.429 0.344,0.137 0.644,0.266 0.879,0.391 0.234,0.125 0.394,0.25 0.469,0.379 0.074,0.129 0.062,0.262 -0.036,0.402 -0.101,0.145 -0.285,0.293 -0.535,0.457 -0.246,0.16 -0.558,0.332 -0.902,0.516 l -0.012,0.008 c -0.328,0.175 -0.676,0.371 -1.019,0.593 -0.34,0.219 -0.66,0.457 -0.93,0.711 -0.27,0.254 -0.48,0.516 -0.617,0.774 -0.133,0.258 -0.184,0.508 -0.149,0.738 0.036,0.231 0.164,0.434 0.371,0.598 0.204,0.168 0.489,0.297 0.829,0.386 0.339,0.09 0.726,0.141 1.136,0.157 0.414,0.019 0.836,0.011 1.242,-0.02 0.415,-0.027 0.786,-0.066 1.129,-0.094 0.336,-0.027 0.618,-0.046 0.832,-0.031 0.215,0.012 0.356,0.059 0.426,0.153 0.071,0.089 0.063,0.23 0,0.421 -0.066,0.188 -0.195,0.43 -0.355,0.711 -0.176,0.305 -0.348,0.586 -0.559,0.961 -0.199,0.352 -0.398,0.723 -0.566,1.098 -0.121,0.269 -0.223,0.539 -0.301,0.797 -0.031,0.101 -0.055,0.195 -0.078,0.289 -0.078,0.34 -0.102,0.644 -0.059,0.898 0.043,0.25 0.156,0.45 0.328,0.578 0.176,0.133 0.411,0.196 0.696,0.192 0.285,0 0.613,-0.067 0.968,-0.18 0.352,-0.117 0.727,-0.277 1.098,-0.457 0.375,-0.183 0.738,-0.383 1.078,-0.57 0.336,-0.184 0.653,-0.36 0.914,-0.485 0.266,-0.128 0.489,-0.21 0.657,-0.23 0.167,-0.016 0.281,0.035 0.351,0.156 0.066,0.121 0.09,0.317 0.078,0.574 -0.015,0.254 -0.058,0.579 -0.117,0.942 -0.059,0.367 -0.129,0.758 -0.187,1.172 -0.059,0.414 -0.106,0.828 -0.125,1.222 -0.016,0.391 0,0.754 0.058,1.063 0.055,0.305 0.156,0.551 0.301,0.723 0.144,0.168 0.336,0.257 0.562,0.269 0.227,0.008 0.489,-0.062 0.778,-0.203 0.285,-0.141 0.593,-0.344 0.906,-0.59 0.316,-0.246 0.633,-0.527 0.937,-0.808 0.27,-0.25 0.637,-0.606 0.868,-0.817 0.265,-0.246 0.507,-0.457 0.715,-0.601 0.207,-0.145 0.382,-0.219 0.523,-0.215 0.141,0.008 0.246,0.09 0.324,0.261 0.082,0.168 0.133,0.414 0.172,0.723 0.039,0.305 0.063,0.676 0.086,1.07 0.023,0.399 0.047,0.817 0.086,1.235 0.039,0.414 0.094,0.812 0.172,1.168 0.008,0.023 0.012,0.047 0.019,0.07 0.075,0.324 0.172,0.606 0.293,0.82 0.133,0.235 0.293,0.391 0.481,0.461 0.187,0.071 0.402,0.055 0.636,-0.039 0.231,-0.097 0.485,-0.273 0.747,-0.504 0.257,-0.234 0.527,-0.523 0.789,-0.84 0.265,-0.312 0.523,-0.644 0.773,-0.964 0.246,-0.317 0.481,-0.618 0.691,-0.864 0.211,-0.246 0.403,-0.437 0.571,-0.55 0.168,-0.114 0.316,-0.149 0.441,-0.102 0.129,0.051 0.235,0.188 0.328,0.402 0.094,0.215 0.172,0.504 0.25,0.844 0.075,0.336 0.149,0.731 0.231,1.129 0.078,0.402 0.164,0.816 0.265,1.207 0.102,0.387 0.215,0.746 0.348,1.047 0.137,0.301 0.289,0.535 0.457,0.691 0.172,0.153 0.363,0.223 0.567,0.203 0.203,-0.019 0.421,-0.125 0.648,-0.304 0.223,-0.18 0.453,-0.438 0.684,-0.739 0.234,-0.3 0.46,-0.644 0.683,-0.996 0.227,-0.355 0.434,-0.703 0.641,-1.031 0.199,-0.324 0.39,-0.613 0.562,-0.836 0.176,-0.222 0.336,-0.379 0.485,-0.445 0.144,-0.07 0.281,-0.055 0.406,0.051 0.125,0.101 0.242,0.293 0.355,0.55 0.114,0.258 0.223,0.582 0.336,0.946 0.117,0.375 0.231,0.758 0.36,1.164 0.125,0.394 0.257,0.789 0.406,1.14 0.144,0.352 0.305,0.657 0.473,0.895 0.171,0.234 0.351,0.395 0.543,0.465 0.191,0.074 0.39,0.055 0.597,-0.047 0.203,-0.102 0.41,-0.293 0.617,-0.547 0.207,-0.254 0.414,-0.57 0.614,-0.918 0.203,-0.351 0.394,-0.726 0.582,-1.098 0.187,-0.367 0.363,-0.726 0.535,-1.031 0.168,-0.308 0.328,-0.566 0.476,-0.75 0.153,-0.179 0.297,-0.285 0.438,-0.297 0.137,-0.015 0.273,0.059 0.406,0.215 0.133,0.156 0.266,0.399 0.403,0.695 0.136,0.297 0.273,0.653 0.417,1.032 0.149,0.375 0.297,0.773 0.458,1.152 0.16,0.379 0.328,0.738 0.503,1.043 0.176,0.301 0.36,0.547 0.547,0.711 0.192,0.164 0.383,0.246 0.578,0.238 0.196,-0.011 0.391,-0.109 0.586,-0.285 0.196,-0.18 0.387,-0.437 0.575,-0.746 0.183,-0.309 0.367,-0.672 0.539,-1.047 0.175,-0.375 0.343,-0.765 0.504,-1.129 0.16,-0.363 0.312,-0.699 0.46,-0.972 0.149,-0.274 0.293,-0.485 0.434,-0.61 0.063,-0.058 0.121,-0.097 0.184,-0.121 0.078,-0.027 0.156,-0.031 0.234,-0.008 0.141,0.047 0.277,0.18 0.422,0.387 0.144,0.211 0.293,0.492 0.449,0.824 0.152,0.328 0.317,0.699 0.485,1.078 0.167,0.383 0.339,0.766 0.523,1.118 0.184,0.351 0.371,0.664 0.562,0.914 0.192,0.246 0.387,0.425 0.582,0.519 0.196,0.09 0.391,0.094 0.586,0.012 0.192,-0.086 0.379,-0.258 0.563,-0.5 0.18,-0.242 0.355,-0.555 0.523,-0.906 0.168,-0.356 0.325,-0.743 0.477,-1.133 0.148,-0.387 0.297,-0.778 0.434,-1.121 0.136,-0.344 0.273,-0.649 0.406,-0.879 0.133,-0.231 0.265,-0.387 0.398,-0.457 0.137,-0.071 0.274,-0.051 0.418,0.054 0.149,0.102 0.301,0.293 0.461,0.547 0.16,0.254 0.328,0.571 0.508,0.918 0.18,0.352 0.367,0.727 0.562,1.094 0.196,0.367 0.399,0.723 0.606,1.031 0.203,0.309 0.414,0.567 0.621,0.746 0.207,0.18 0.414,0.282 0.609,0.293 0.2,0.012 0.391,-0.066 0.571,-0.226 0.183,-0.16 0.351,-0.406 0.507,-0.707 0.157,-0.305 0.301,-0.668 0.434,-1.051 0.137,-0.387 0.258,-0.793 0.375,-1.184 0.117,-0.39 0.231,-0.761 0.34,-1.078 0.109,-0.316 0.223,-0.578 0.34,-0.761 0.117,-0.18 0.242,-0.282 0.375,-0.297 0.136,-0.008 0.285,0.062 0.445,0.215 0.164,0.152 0.34,0.382 0.527,0.667 0.192,0.282 0.395,0.614 0.61,0.961 0.215,0.348 0.441,0.707 0.672,1.043 0.226,0.332 0.461,0.637 0.691,0.883 0.231,0.246 0.457,0.426 0.676,0.528 0.215,0.097 0.422,0.113 0.609,0.039 0.188,-0.071 0.356,-0.235 0.508,-0.469 0.152,-0.235 0.281,-0.547 0.395,-0.899 0.117,-0.355 0.211,-0.753 0.296,-1.16 0.09,-0.41 0.161,-0.816 0.239,-1.195 0.074,-0.379 0.144,-0.727 0.226,-1.008 0.082,-0.281 0.172,-0.496 0.282,-0.625 0.109,-0.133 0.234,-0.18 0.382,-0.144 0.149,0.039 0.317,0.16 0.512,0.347 0.191,0.188 0.406,0.442 0.641,0.735 0.254,0.32 0.457,0.586 0.742,0.941 0.262,0.324 0.527,0.641 0.793,0.922 0.269,0.277 0.531,0.516 0.781,0.684 0.25,0.164 0.484,0.257 0.695,0.269 0.215,0.008 0.399,-0.066 0.559,-0.227 0.152,-0.152 0.273,-0.375 0.375,-0.66 0.004,-0.011 0.008,-0.027 0.016,-0.043 0.101,-0.3 0.175,-0.664 0.226,-1.058 0.055,-0.399 0.086,-0.817 0.113,-1.235 0.024,-0.406 0.043,-0.824 0.067,-1.175 0.027,-0.36 0.058,-0.672 0.113,-0.911 0.055,-0.238 0.133,-0.406 0.242,-0.492 0.11,-0.086 0.25,-0.082 0.426,-0.008 0.176,0.075 0.387,0.223 0.629,0.426 0.242,0.203 0.516,0.461 0.809,0.735 0.293,0.273 0.601,0.562 0.918,0.832 0.32,0.269 0.636,0.519 0.941,0.714 0.309,0.192 0.598,0.333 0.855,0.395 0.262,0.063 0.489,0.047 0.676,-0.047 0.184,-0.098 0.328,-0.273 0.422,-0.515 0.098,-0.247 0.149,-0.563 0.164,-0.922 0.012,-0.36 -0.015,-0.758 -0.062,-1.168 -0.047,-0.41 -0.117,-0.825 -0.184,-1.219 -0.07,-0.391 -0.137,-0.762 -0.18,-1.074 -0.043,-0.313 -0.062,-0.571 -0.039,-0.758 0.024,-0.192 0.09,-0.309 0.211,-0.359 0.117,-0.047 0.289,-0.028 0.508,0.05 0.223,0.075 0.496,0.211 0.805,0.371 0.324,0.172 0.64,0.348 1.019,0.543 0.368,0.188 0.743,0.368 1.118,0.52 0.371,0.148 0.726,0.258 1.054,0.316 0.324,0.055 0.61,0.051 0.84,-0.019 0.231,-0.067 0.402,-0.207 0.508,-0.403 0.105,-0.199 0.14,-0.457 0.113,-0.761 -0.008,-0.09 -0.019,-0.184 -0.039,-0.282 -0.043,-0.23 -0.117,-0.48 -0.211,-0.734 -0.137,-0.367 -0.32,-0.742 -0.515,-1.105 -0.2,-0.368 -0.411,-0.715 -0.606,-1.032 -0.191,-0.316 -0.367,-0.597 -0.488,-0.832 -0.121,-0.23 -0.196,-0.418 -0.196,-0.554 0,-0.141 0.071,-0.227 0.211,-0.278 0.145,-0.05 0.368,-0.066 0.649,-0.058 0.277,0.008 0.629,0.039 1.004,0.062 0.386,0.028 0.797,0.051 1.215,0.051 0.418,0 0.832,-0.023 1.214,-0.086 0.383,-0.062 0.723,-0.156 0.997,-0.293 0.273,-0.137 0.48,-0.312 0.597,-0.519 0.113,-0.204 0.141,-0.438 0.086,-0.684 -0.058,-0.25 -0.207,-0.508 -0.422,-0.762 -0.215,-0.254 -0.5,-0.504 -0.82,-0.734 -0.309,-0.223 -0.645,-0.426 -0.984,-0.61 0,0 -0.04,-0.023 -0.04,-0.023 -0.312,-0.164 -0.781,-0.398 -1.031,-0.527 -0.304,-0.16 -0.554,-0.305 -0.73,-0.438 -0.176,-0.133 -0.274,-0.258 -0.281,-0.379 -0.008,-0.121 0.074,-0.242 0.234,-0.367 0.16,-0.125 0.402,-0.258 0.699,-0.402 0.289,-0.141 0.656,-0.309 1.024,-0.481 0.375,-0.175 0.761,-0.367 1.132,-0.574 -0.199,0.016 -0.394,0.031 -0.593,0.047"
         style="fill:none;stroke:#000000;stroke-width:0.72;stroke-linecap:butt;stroke-linejoin:miter;stroke-miterlimit:4;stroke-dasharray:none;stroke-opacity:1"
         transform="matrix(1.3342933,0,0,1.3342933,141.732,94.487903)"
         clip-path="url(#clipPath40)"
         id="path115" />
      <path
         d="m 174.082,103.113 h 26.356"
         style="fill:none;stroke:#000000;stroke-width:0.72;stroke-linecap:butt;stroke-linejoin:miter;stroke-miterlimit:4;stroke-dasharray:none;stroke-opacity:1"
         transform="matrix(1.3342933,0,0,1.3342933,141.732,94.487903)"
         clip-path="url(#clipPath41)"
         id="path116" />
      <path
         d="m 204.203,104.855 -4.719,-1.738 4.719,-1.734 c -0.754,1.023 -0.746,2.426 0,3.472 z"
         style="fill:#000000;fill-opacity:1;fill-rule:evenodd;stroke:#000000;stroke-width:0.27;stroke-linecap:butt;stroke-linejoin:round;stroke-miterlimit:4;stroke-dasharray:none;stroke-opacity:1"
         transform="matrix(1.3342933,0,0,1.3342933,141.732,94.487903)"
         clip-path="url(#clipPath42)"
         id="path117" />
      <path
         d="m 117.477,103.113 h 31.511"
         style="fill:none;stroke:#000000;stroke-width:0.72;stroke-linecap:butt;stroke-linejoin:miter;stroke-miterlimit:4;stroke-dasharray:none;stroke-opacity:1"
         transform="matrix(1.3342933,0,0,1.3342933,141.732,94.487903)"
         clip-path="url(#clipPath43)"
         id="path118" />
      <path
         d="m 121.242,104.855 -4.719,-1.734 4.719,-1.734 c -0.754,1.023 -0.75,2.426 0,3.468 z"
         style="fill:#000000;fill-opacity:1;fill-rule:evenodd;stroke:#000000;stroke-width:0.27;stroke-linecap:butt;stroke-linejoin:round;stroke-miterlimit:4;stroke-dasharray:none;stroke-opacity:1"
         transform="matrix(1.3342933,0,0,1.3342933,141.732,94.487903)"
         clip-path="url(#clipPath44)"
         id="path119" />
      <path
         d="m 123.008,133.195 -2.461,12.707"
         style="fill:none;stroke:#000000;stroke-width:1.04;stroke-linecap:butt;stroke-linejoin:miter;stroke-miterlimit:4;stroke-dasharray:none;stroke-opacity:1"
         transform="matrix(1.3342933,0,0,1.3342933,141.732,94.487903)"
         clip-path="url(#clipPath45)"
         id="path120" />
      <path
         d="M 104.086,158.152 H 54.23 l 24.93,-43.173 z"
         style="fill:#44bf41;fill-opacity:1;fill-rule:nonzero;stroke:#000000;stroke-width:0.82846;stroke-linecap:butt;stroke-linejoin:miter;stroke-miterlimit:4;stroke-dasharray:none;stroke-opacity:1"
         transform="matrix(1.3342933,0,0,1.0077971,141.732,94.487903)"
         clip-path="url(#clipPath46)"
         id="path121" />
      <path
         d="m 73.977,42.426 0.949,0.922 c 1.39,1.235 1.929,1.715 1.929,2.61 0,1.023 -0.804,1.738 -1.894,1.738 -1.012,0 -1.676,-0.824 -1.676,-1.621 0,-0.5 0.449,-0.5 0.473,-0.5 0.156,0 0.469,0.109 0.469,0.472 0,0.235 -0.161,0.469 -0.473,0.469 -0.07,0 -0.09,0 -0.117,-0.008 0.207,0.578 0.687,0.911 1.207,0.911 0.812,0 1.199,-0.727 1.199,-1.461 0,-0.715 -0.449,-1.422 -0.938,-1.977 l -1.718,-1.914 c -0.102,-0.094 -0.102,-0.113 -0.102,-0.328 h 3.32 l 0.25,1.555 h -0.222 c -0.047,-0.27 -0.106,-0.661 -0.195,-0.797 -0.067,-0.071 -0.657,-0.071 -0.852,-0.071 z"
         style="fill:#000000;fill-opacity:1;fill-rule:evenodd;stroke:none"
         transform="matrix(1.3342933,0,0,-1.3342933,141.732,298.72933)"
         clip-path="url(#clipPath47)"
         id="path122" />
      <path
         d="m 79.137,41.747 -0.004,0.054 v 0.055 l -0.008,0.102 -0.004,0.046 -0.016,0.094 -0.023,0.086 -0.008,0.043 -0.015,0.039 -0.012,0.039 -0.031,0.071 -0.016,0.031 -0.02,0.031 -0.019,0.027 -0.02,0.032 -0.019,0.023 -0.047,0.047 -0.023,0.019 -0.028,0.02 -0.023,0.016 -0.028,0.015 -0.054,0.024 -0.031,0.008 -0.028,0.007 -0.031,0.008 h -0.035 l -0.031,0.004 c -0.293,0 -0.473,-0.227 -0.473,-0.477 0,-0.238 0.18,-0.472 0.473,-0.472 0.105,0 0.226,0.035 0.316,0.113 0.023,0.02 0.035,0.031 0.043,0.031 0.008,0 0.016,-0.011 0.016,-0.136 0,-0.661 -0.309,-1.2 -0.61,-1.493 -0.098,-0.097 -0.098,-0.117 -0.098,-0.14 0,-0.067 0.047,-0.102 0.09,-0.102 0.098,0 0.817,0.688 0.817,1.735 z"
         style="fill:#000000;fill-opacity:1;fill-rule:evenodd;stroke:none"
         transform="matrix(1.3342933,0,0,-1.3342933,141.732,298.72933)"
         clip-path="url(#clipPath48)"
         id="path123" />
      <path
         d="m 83.914,47.461 v 0.012 l -0.004,0.012 v 0.105 l -0.004,0.012 v 0.012 l -0.004,0.008 v 0.007 l -0.004,0.012 -0.003,0.004 -0.008,0.016 -0.008,0.004 -0.004,0.004 -0.004,0.007 -0.016,0.008 H 83.84 l -0.004,0.004 h -0.012 l -0.004,0.004 h -0.023 l -0.008,0.004 h -0.082 c -0.555,-0.57 -1.34,-0.57 -1.625,-0.57 v -0.282 c 0.176,0 0.707,0 1.168,0.235 v -4.633 c 0,-0.324 -0.023,-0.43 -0.832,-0.43 h -0.285 v -0.277 c 0.316,0.027 1.094,0.027 1.449,0.027 0.359,0 1.137,0 1.449,-0.027 v 0.277 h -0.285 c -0.805,0 -0.832,0.098 -0.832,0.43 z"
         style="fill:#000000;fill-opacity:1;fill-rule:evenodd;stroke:none"
         transform="matrix(1.3342933,0,0,-1.3342933,141.732,298.72933)"
         clip-path="url(#clipPath49)"
         id="path124" />
      <path
         d="m 186.535,158.152 h -49.851 l 24.925,-43.173 z"
         style="fill:#44bf41;fill-opacity:1;fill-rule:nonzero;stroke:#000000;stroke-width:0.82846;stroke-linecap:butt;stroke-linejoin:miter;stroke-miterlimit:4;stroke-dasharray:none;stroke-opacity:1"
         transform="matrix(1.3342933,0,0,1.0077971,141.732,94.487903)"
         clip-path="url(#clipPath50)"
         id="path125" />
      <path
         d="m 156.426,42.426 0.949,0.922 c 1.391,1.235 1.93,1.715 1.93,2.61 0,1.023 -0.805,1.738 -1.895,1.738 -1.012,0 -1.676,-0.824 -1.676,-1.621 0,-0.5 0.45,-0.5 0.477,-0.5 0.152,0 0.465,0.109 0.465,0.472 0,0.235 -0.16,0.469 -0.473,0.469 -0.07,0 -0.09,0 -0.117,-0.008 0.207,0.578 0.687,0.911 1.207,0.911 0.812,0 1.199,-0.727 1.199,-1.461 0,-0.715 -0.449,-1.422 -0.937,-1.977 l -1.719,-1.914 c -0.102,-0.094 -0.102,-0.113 -0.102,-0.328 h 3.321 l 0.25,1.555 h -0.223 c -0.047,-0.27 -0.105,-0.661 -0.195,-0.797 -0.067,-0.071 -0.653,-0.071 -0.852,-0.071 z"
         style="fill:#000000;fill-opacity:1;fill-rule:evenodd;stroke:none"
         transform="matrix(1.3342933,0,0,-1.3342933,141.732,298.72933)"
         clip-path="url(#clipPath51)"
         id="path126" />
      <path
         d="m 161.586,41.747 v 0.054 l -0.004,0.055 -0.008,0.102 -0.004,0.046 -0.015,0.094 -0.012,0.043 -0.008,0.043 -0.012,0.043 -0.011,0.039 -0.016,0.039 -0.031,0.071 -0.016,0.031 -0.019,0.031 -0.02,0.027 -0.019,0.032 -0.02,0.023 -0.047,0.047 -0.023,0.019 -0.028,0.02 -0.023,0.016 -0.027,0.015 -0.055,0.024 -0.027,0.008 -0.063,0.015 h -0.031 l -0.035,0.004 c -0.293,0 -0.473,-0.227 -0.473,-0.477 0,-0.238 0.18,-0.472 0.473,-0.472 0.109,0 0.226,0.035 0.316,0.113 0.024,0.02 0.035,0.031 0.043,0.031 0.012,0 0.016,-0.011 0.016,-0.136 0,-0.661 -0.309,-1.2 -0.606,-1.493 -0.101,-0.097 -0.101,-0.117 -0.101,-0.14 0,-0.067 0.047,-0.102 0.09,-0.102 0.101,0 0.816,0.688 0.816,1.735 z"
         style="fill:#000000;fill-opacity:1;fill-rule:evenodd;stroke:none"
         transform="matrix(1.3342933,0,0,-1.3342933,141.732,298.72933)"
         clip-path="url(#clipPath52)"
         id="path127" />
      <path
         d="m 166.363,47.461 v 0.012 l -0.004,0.012 v 0.117 l -0.004,0.012 v 0.008 l -0.003,0.007 -0.004,0.012 -0.004,0.004 -0.008,0.016 -0.004,0.004 -0.008,0.004 -0.004,0.007 -0.015,0.008 h -0.012 l -0.008,0.004 h -0.012 l -0.003,0.004 h -0.024 l -0.008,0.004 h -0.082 c -0.554,-0.57 -1.34,-0.57 -1.625,-0.57 v -0.282 c 0.18,0 0.707,0 1.168,0.235 v -4.633 c 0,-0.324 -0.023,-0.43 -0.828,-0.43 h -0.289 v -0.277 c 0.316,0.027 1.094,0.027 1.449,0.027 0.36,0 1.137,0 1.449,-0.027 v 0.277 h -0.285 c -0.804,0 -0.832,0.098 -0.832,0.43 z"
         style="fill:#000000;fill-opacity:1;fill-rule:evenodd;stroke:none"
         transform="matrix(1.3342933,0,0,-1.3342933,141.732,298.72933)"
         clip-path="url(#clipPath53)"
         id="path128" />
      <path
         d="m 289.098,103.012 h 28.621"
         style="fill:none;stroke:#000000;stroke-width:0.72;stroke-linecap:butt;stroke-linejoin:miter;stroke-miterlimit:4;stroke-dasharray:none;stroke-opacity:1"
         transform="matrix(1.3342933,0,0,1.3342933,141.732,94.487903)"
         clip-path="url(#clipPath54)"
         id="path129" />
      <path
         d="M 233.156,103.012 H 264.07"
         style="fill:none;stroke:#000000;stroke-width:0.72;stroke-linecap:butt;stroke-linejoin:miter;stroke-miterlimit:4;stroke-dasharray:none;stroke-opacity:1"
         transform="matrix(1.3342933,0,0,1.3342933,141.732,94.487903)"
         clip-path="url(#clipPath55)"
         id="path130" />
      <path
         d="m 236.922,104.754 -4.723,-1.734 4.723,-1.735 c -0.754,1.024 -0.75,2.426 0,3.469 z"
         style="fill:#000000;fill-opacity:1;fill-rule:evenodd;stroke:#000000;stroke-width:0.27;stroke-linecap:butt;stroke-linejoin:round;stroke-miterlimit:4;stroke-dasharray:none;stroke-opacity:1"
         transform="matrix(1.3342933,0,0,1.3342933,141.732,94.487903)"
         clip-path="url(#clipPath56)"
         id="path131" />
      <path
         d="m 277.398,33.883 c 0.012,-0.011 0.02,-0.019 0.028,-0.027 0.027,-0.02 0.054,-0.043 0.082,-0.062 0.101,-0.086 0.211,-0.165 0.328,-0.239 0.187,-0.129 0.391,-0.246 0.594,-0.355 0.277,-0.149 0.554,-0.278 0.824,-0.399 0.086,-0.039 0.172,-0.074 0.254,-0.113 0.336,-0.144 0.64,-0.273 0.875,-0.387 0.23,-0.117 0.394,-0.222 0.472,-0.328 0.079,-0.105 0.075,-0.215 -0.019,-0.336 -0.09,-0.125 -0.266,-0.258 -0.5,-0.418 -0.231,-0.152 -0.535,-0.332 -0.856,-0.531 0,0 -0.007,-0.008 -0.007,-0.008 -0.328,-0.203 -0.676,-0.426 -1.016,-0.672 -0.336,-0.242 -0.656,-0.504 -0.926,-0.777 -0.265,-0.27 -0.48,-0.543 -0.613,-0.812 -0.133,-0.266 -0.184,-0.52 -0.148,-0.747 0.035,-0.226 0.164,-0.421 0.367,-0.578 0.207,-0.16 0.488,-0.273 0.828,-0.351 0.336,-0.074 0.726,-0.106 1.133,-0.11 0.41,0 0.832,0.024 1.242,0.059 0.418,0.039 0.777,0.086 1.125,0.121 0.332,0.035 0.617,0.059 0.832,0.043 0.211,-0.012 0.355,-0.059 0.426,-0.156 0.07,-0.094 0.062,-0.239 0,-0.434 -0.067,-0.195 -0.196,-0.441 -0.356,-0.73 -0.219,-0.391 -0.301,-0.512 -0.554,-0.973 -0.2,-0.355 -0.399,-0.727 -0.567,-1.105 -0.121,-0.27 -0.223,-0.539 -0.301,-0.797 -0.031,-0.098 -0.058,-0.192 -0.078,-0.285 -0.082,-0.34 -0.101,-0.645 -0.058,-0.899 0.043,-0.25 0.152,-0.449 0.328,-0.578 0.172,-0.133 0.41,-0.195 0.695,-0.191 0.285,0 0.613,0.066 0.965,0.179 0.355,0.114 0.73,0.278 1.101,0.457 0.375,0.184 0.735,0.379 1.079,0.571 0.336,0.183 0.648,0.359 0.914,0.484 0.265,0.129 0.484,0.211 0.652,0.227 0.168,0.019 0.285,-0.032 0.355,-0.153 0.067,-0.121 0.086,-0.316 0.075,-0.574 -0.012,-0.258 -0.059,-0.578 -0.118,-0.941 -0.058,-0.368 -0.125,-0.758 -0.183,-1.176 -0.063,-0.41 -0.109,-0.828 -0.125,-1.219 -0.016,-0.394 0,-0.758 0.055,-1.062 0.058,-0.305 0.16,-0.551 0.304,-0.723 0.145,-0.168 0.336,-0.258 0.563,-0.27 0.226,-0.007 0.488,0.063 0.773,0.203 0.289,0.137 0.598,0.344 0.91,0.59 0.313,0.243 0.629,0.524 0.938,0.809 0.265,0.246 0.637,0.605 0.863,0.816 0.27,0.246 0.508,0.457 0.719,0.602 0.207,0.141 0.379,0.219 0.519,0.215 0.141,-0.008 0.25,-0.09 0.329,-0.262 0.082,-0.168 0.132,-0.414 0.171,-0.723 0.039,-0.304 0.063,-0.675 0.086,-1.07 0.024,-0.398 0.047,-0.82 0.086,-1.234 0.039,-0.414 0.094,-0.813 0.172,-1.168 0.008,-0.024 0.012,-0.047 0.016,-0.075 0.078,-0.32 0.176,-0.601 0.297,-0.82 0.132,-0.23 0.293,-0.387 0.48,-0.457 0.188,-0.074 0.402,-0.058 0.633,0.039 0.234,0.094 0.488,0.27 0.746,0.504 0.262,0.234 0.527,0.524 0.793,0.836 0.266,0.316 0.523,0.648 0.77,0.965 0.246,0.316 0.48,0.617 0.691,0.863 0.215,0.246 0.406,0.442 0.574,0.555 0.168,0.113 0.317,0.148 0.442,0.098 0.125,-0.051 0.234,-0.188 0.324,-0.399 0.094,-0.215 0.176,-0.504 0.254,-0.844 0.074,-0.336 0.148,-0.73 0.226,-1.129 0.082,-0.406 0.168,-0.816 0.266,-1.207 0.101,-0.386 0.219,-0.75 0.351,-1.046 0.133,-0.301 0.286,-0.54 0.457,-0.692 0.172,-0.152 0.364,-0.223 0.567,-0.207 0.203,0.02 0.422,0.125 0.644,0.309 0.227,0.179 0.457,0.437 0.688,0.734 0.23,0.301 0.461,0.648 0.684,1 0.226,0.356 0.433,0.703 0.636,1.031 0.203,0.325 0.391,0.614 0.567,0.836 0.175,0.223 0.336,0.375 0.48,0.446 0.149,0.07 0.285,0.054 0.41,-0.051 0.125,-0.102 0.242,-0.293 0.356,-0.551 0.113,-0.258 0.222,-0.586 0.336,-0.949 0.117,-0.371 0.226,-0.754 0.355,-1.16 0.129,-0.399 0.262,-0.789 0.406,-1.141 0.149,-0.352 0.305,-0.66 0.477,-0.895 0.172,-0.234 0.352,-0.394 0.543,-0.464 0.191,-0.075 0.391,-0.055 0.594,0.046 0.203,0.102 0.414,0.29 0.621,0.543 0.207,0.254 0.414,0.575 0.613,0.922 0.199,0.348 0.395,0.727 0.582,1.098 0.184,0.367 0.363,0.723 0.531,1.031 0.168,0.309 0.328,0.567 0.481,0.746 0.152,0.184 0.297,0.285 0.437,0.301 0.137,0.016 0.274,-0.058 0.407,-0.215 0.132,-0.16 0.265,-0.398 0.402,-0.695 0.133,-0.297 0.273,-0.652 0.418,-1.031 0.144,-0.379 0.297,-0.774 0.457,-1.153 0.16,-0.382 0.328,-0.738 0.504,-1.043 0.176,-0.3 0.359,-0.546 0.547,-0.711 0.187,-0.164 0.382,-0.246 0.578,-0.238 0.195,0.008 0.39,0.106 0.586,0.285 0.195,0.18 0.386,0.434 0.57,0.746 0.188,0.309 0.367,0.668 0.543,1.047 0.176,0.375 0.34,0.762 0.5,1.125 0.16,0.364 0.316,0.7 0.465,0.973 0.148,0.273 0.289,0.488 0.43,0.613 0.062,0.059 0.125,0.098 0.187,0.121 0.078,0.028 0.156,0.032 0.231,0.008 0.14,-0.047 0.281,-0.18 0.425,-0.39 0.145,-0.208 0.293,-0.493 0.45,-0.821 0.152,-0.328 0.312,-0.703 0.48,-1.082 0.168,-0.379 0.344,-0.762 0.527,-1.113 0.18,-0.352 0.368,-0.668 0.559,-0.914 0.195,-0.246 0.391,-0.426 0.586,-0.52 0.195,-0.09 0.39,-0.093 0.582,-0.011 0.195,0.082 0.383,0.257 0.562,0.5 0.184,0.242 0.36,0.554 0.528,0.906 0.164,0.351 0.324,0.742 0.476,1.133 0.149,0.386 0.293,0.777 0.434,1.117 0.137,0.347 0.269,0.648 0.402,0.879 0.133,0.23 0.266,0.39 0.403,0.461 0.132,0.07 0.273,0.05 0.418,-0.055 0.144,-0.102 0.296,-0.293 0.457,-0.547 0.164,-0.254 0.332,-0.57 0.511,-0.918 0.18,-0.351 0.367,-0.726 0.563,-1.098 0.195,-0.367 0.398,-0.722 0.601,-1.027 0.207,-0.308 0.418,-0.566 0.625,-0.746 0.207,-0.18 0.411,-0.281 0.61,-0.293 0.199,-0.012 0.39,0.066 0.57,0.227 0.18,0.16 0.352,0.406 0.508,0.707 0.156,0.304 0.301,0.664 0.433,1.05 0.133,0.387 0.258,0.793 0.375,1.184 0.118,0.387 0.227,0.762 0.34,1.078 0.11,0.317 0.219,0.578 0.336,0.762 0.121,0.18 0.242,0.281 0.379,0.297 0.137,0.008 0.285,-0.063 0.445,-0.215 0.161,-0.152 0.336,-0.387 0.528,-0.668 0.191,-0.281 0.394,-0.617 0.609,-0.961 0.215,-0.348 0.438,-0.707 0.668,-1.043 0.231,-0.332 0.465,-0.641 0.695,-0.883 0.231,-0.246 0.457,-0.429 0.672,-0.527 0.219,-0.098 0.422,-0.113 0.61,-0.039 0.187,0.07 0.359,0.234 0.511,0.469 0.149,0.234 0.282,0.543 0.395,0.898 0.113,0.355 0.211,0.754 0.297,1.16 0.086,0.406 0.16,0.813 0.234,1.195 0.074,0.379 0.149,0.727 0.231,1.004 0.082,0.282 0.172,0.496 0.281,0.629 0.105,0.133 0.234,0.18 0.379,0.141 0.148,-0.035 0.32,-0.156 0.512,-0.344 0.195,-0.187 0.41,-0.445 0.64,-0.734 0.254,-0.317 0.465,-0.59 0.746,-0.942 0.258,-0.324 0.528,-0.644 0.793,-0.921 0.266,-0.282 0.531,-0.516 0.781,-0.684 0.25,-0.164 0.485,-0.262 0.696,-0.27 0.211,-0.011 0.398,0.067 0.558,0.227 0.149,0.148 0.274,0.375 0.371,0.656 0.008,0.016 0.012,0.031 0.016,0.047 0.102,0.301 0.176,0.664 0.231,1.059 0.054,0.394 0.086,0.816 0.109,1.234 0.027,0.406 0.047,0.824 0.07,1.176 0.024,0.359 0.059,0.672 0.114,0.91 0.054,0.238 0.132,0.406 0.242,0.492 0.109,0.082 0.25,0.082 0.426,0.008 0.175,-0.074 0.386,-0.223 0.628,-0.426 0.243,-0.203 0.516,-0.461 0.809,-0.734 0.293,-0.274 0.602,-0.563 0.918,-0.832 0.316,-0.27 0.637,-0.52 0.941,-0.715 0.305,-0.191 0.594,-0.332 0.856,-0.395 0.258,-0.062 0.488,-0.05 0.672,0.047 0.183,0.098 0.328,0.27 0.426,0.516 0.097,0.246 0.148,0.562 0.16,0.922 0.011,0.359 -0.012,0.758 -0.059,1.168 -0.047,0.41 -0.117,0.824 -0.187,1.219 -0.067,0.39 -0.133,0.761 -0.176,1.074 -0.043,0.312 -0.063,0.57 -0.039,0.758 0.023,0.191 0.09,0.308 0.207,0.359 0.121,0.047 0.289,0.027 0.511,-0.051 0.223,-0.078 0.493,-0.211 0.805,-0.371 0.32,-0.172 0.641,-0.348 1.02,-0.543 0.363,-0.187 0.742,-0.367 1.113,-0.519 0.371,-0.149 0.73,-0.262 1.055,-0.317 0.324,-0.055 0.613,-0.051 0.843,0.02 0.231,0.066 0.403,0.203 0.508,0.402 0.102,0.199 0.141,0.457 0.114,0.762 -0.008,0.09 -0.02,0.183 -0.04,0.281 -0.043,0.23 -0.117,0.48 -0.214,0.734 -0.137,0.368 -0.317,0.743 -0.516,1.106 -0.199,0.367 -0.406,0.711 -0.602,1.031 -0.191,0.316 -0.367,0.598 -0.488,0.828 -0.125,0.235 -0.195,0.422 -0.195,0.559 -0.004,0.137 0.066,0.226 0.211,0.277 0.144,0.051 0.363,0.067 0.644,0.055 0.282,-0.008 0.629,-0.035 1.008,-0.059 0.383,-0.027 0.793,-0.051 1.215,-0.051 0.418,0 0.832,0.024 1.215,0.086 0.379,0.059 0.722,0.157 0.996,0.293 0.273,0.137 0.476,0.313 0.594,0.52 0.117,0.203 0.144,0.437 0.089,0.683 -0.058,0.25 -0.207,0.508 -0.421,0.762 -0.219,0.254 -0.5,0.504 -0.821,0.735 -0.308,0.222 -0.644,0.425 -0.984,0.609 0,0 -0.039,0.023 -0.039,0.023 -0.317,0.164 -0.781,0.399 -1.031,0.528 -0.305,0.16 -0.559,0.304 -0.735,0.437 -0.172,0.133 -0.269,0.258 -0.277,0.379 -0.008,0.121 0.07,0.242 0.234,0.367 0.16,0.125 0.403,0.258 0.699,0.403 0.29,0.14 0.657,0.308 1.02,0.48 0.375,0.176 0.762,0.367 1.133,0.574 -0.195,-0.015 -0.395,-0.031 -0.594,-0.05"
         style="fill:#ffffff;fill-opacity:0.725926;fill-rule:nonzero;stroke:none"
         transform="matrix(1.3342933,0,0,-1.3342933,141.732,298.72933)"
         clip-path="url(#clipPath57)"
         id="path132" />
      <path
         d="m 277.398,119.188 c 0.012,0.011 0.02,0.019 0.028,0.027 0.027,0.019 0.054,0.043 0.082,0.062 0.101,0.086 0.211,0.164 0.328,0.239 0.187,0.129 0.391,0.246 0.594,0.355 0.277,0.149 0.554,0.277 0.824,0.399 0.086,0.039 0.172,0.074 0.254,0.113 0.336,0.144 0.64,0.273 0.875,0.387 0.23,0.117 0.394,0.222 0.472,0.328 0.079,0.105 0.075,0.215 -0.019,0.336 -0.09,0.125 -0.266,0.257 -0.5,0.418 -0.231,0.152 -0.535,0.332 -0.856,0.531 0,0 -0.007,0.008 -0.007,0.008 -0.328,0.203 -0.676,0.425 -1.016,0.672 -0.336,0.242 -0.656,0.503 -0.926,0.777 -0.265,0.269 -0.48,0.543 -0.613,0.812 -0.133,0.266 -0.184,0.52 -0.148,0.746 0.035,0.227 0.164,0.422 0.367,0.579 0.207,0.16 0.488,0.273 0.828,0.351 0.336,0.074 0.726,0.106 1.133,0.11 0.41,0 0.832,-0.024 1.242,-0.059 0.418,-0.039 0.777,-0.086 1.125,-0.121 0.332,-0.035 0.617,-0.059 0.832,-0.043 0.211,0.012 0.355,0.058 0.426,0.156 0.07,0.094 0.062,0.238 0,0.434 -0.067,0.195 -0.196,0.441 -0.356,0.73 -0.219,0.391 -0.301,0.512 -0.554,0.973 -0.2,0.355 -0.399,0.726 -0.567,1.105 -0.121,0.27 -0.223,0.539 -0.301,0.797 -0.031,0.098 -0.058,0.192 -0.078,0.285 -0.082,0.34 -0.101,0.645 -0.058,0.899 0.043,0.25 0.152,0.449 0.328,0.578 0.172,0.133 0.41,0.195 0.695,0.191 0.285,0 0.613,-0.066 0.965,-0.179 0.355,-0.114 0.73,-0.278 1.101,-0.457 0.375,-0.184 0.735,-0.379 1.079,-0.571 0.336,-0.183 0.648,-0.359 0.914,-0.484 0.265,-0.129 0.484,-0.211 0.652,-0.227 0.168,-0.019 0.285,0.032 0.355,0.153 0.067,0.121 0.086,0.316 0.075,0.574 -0.012,0.258 -0.059,0.578 -0.118,0.941 -0.058,0.367 -0.125,0.758 -0.183,1.176 -0.063,0.41 -0.109,0.828 -0.125,1.219 -0.016,0.394 0,0.758 0.055,1.062 0.058,0.305 0.16,0.551 0.304,0.723 0.145,0.168 0.336,0.258 0.563,0.27 0.226,0.007 0.488,-0.063 0.773,-0.204 0.289,-0.136 0.598,-0.343 0.91,-0.589 0.313,-0.243 0.629,-0.524 0.938,-0.809 0.265,-0.246 0.637,-0.606 0.863,-0.816 0.27,-0.247 0.508,-0.457 0.719,-0.602 0.207,-0.141 0.379,-0.219 0.519,-0.215 0.141,0.008 0.25,0.09 0.329,0.262 0.082,0.168 0.132,0.414 0.171,0.723 0.039,0.304 0.063,0.675 0.086,1.07 0.024,0.398 0.047,0.82 0.086,1.234 0.039,0.414 0.094,0.813 0.172,1.168 0.008,0.024 0.012,0.047 0.016,0.074 0.078,0.321 0.176,0.602 0.297,0.821 0.132,0.23 0.293,0.386 0.48,0.457 0.188,0.074 0.402,0.058 0.633,-0.039 0.234,-0.094 0.488,-0.27 0.746,-0.504 0.262,-0.235 0.527,-0.524 0.793,-0.836 0.266,-0.317 0.523,-0.649 0.77,-0.965 0.246,-0.316 0.48,-0.617 0.691,-0.863 0.215,-0.246 0.406,-0.442 0.574,-0.555 0.168,-0.113 0.317,-0.148 0.442,-0.098 0.125,0.051 0.234,0.188 0.324,0.399 0.094,0.215 0.176,0.504 0.254,0.844 0.074,0.335 0.148,0.73 0.226,1.128 0.082,0.407 0.168,0.817 0.266,1.207 0.101,0.387 0.219,0.75 0.351,1.047 0.133,0.301 0.286,0.539 0.457,0.692 0.172,0.152 0.364,0.222 0.567,0.207 0.203,-0.02 0.422,-0.125 0.644,-0.309 0.227,-0.179 0.457,-0.437 0.688,-0.734 0.23,-0.301 0.461,-0.649 0.684,-1 0.226,-0.356 0.433,-0.703 0.636,-1.031 0.203,-0.325 0.391,-0.614 0.567,-0.836 0.175,-0.223 0.336,-0.375 0.48,-0.446 0.149,-0.07 0.285,-0.054 0.41,0.051 0.125,0.102 0.242,0.293 0.356,0.551 0.113,0.258 0.222,0.586 0.336,0.949 0.117,0.371 0.226,0.754 0.355,1.16 0.129,0.399 0.262,0.789 0.406,1.141 0.149,0.351 0.305,0.66 0.477,0.894 0.172,0.235 0.352,0.395 0.543,0.465 0.191,0.074 0.391,0.055 0.594,-0.047 0.203,-0.101 0.414,-0.289 0.621,-0.543 0.207,-0.253 0.414,-0.574 0.613,-0.921 0.199,-0.348 0.395,-0.727 0.582,-1.098 0.184,-0.367 0.363,-0.723 0.531,-1.031 0.168,-0.309 0.328,-0.567 0.481,-0.746 0.152,-0.184 0.297,-0.286 0.437,-0.301 0.137,-0.016 0.274,0.058 0.407,0.215 0.132,0.16 0.265,0.398 0.402,0.695 0.133,0.297 0.273,0.652 0.418,1.031 0.144,0.379 0.297,0.774 0.457,1.153 0.16,0.382 0.328,0.738 0.504,1.042 0.176,0.301 0.359,0.547 0.547,0.711 0.187,0.164 0.382,0.247 0.578,0.239 0.195,-0.008 0.39,-0.106 0.586,-0.285 0.195,-0.18 0.386,-0.434 0.57,-0.747 0.188,-0.308 0.367,-0.668 0.543,-1.046 0.176,-0.375 0.34,-0.762 0.5,-1.125 0.16,-0.364 0.316,-0.7 0.465,-0.973 0.148,-0.274 0.289,-0.488 0.43,-0.613 0.062,-0.059 0.125,-0.098 0.187,-0.121 0.078,-0.028 0.156,-0.032 0.231,-0.008 0.14,0.047 0.281,0.179 0.425,0.39 0.145,0.207 0.293,0.493 0.45,0.821 0.152,0.328 0.312,0.703 0.48,1.082 0.168,0.379 0.344,0.761 0.527,1.113 0.18,0.352 0.368,0.668 0.559,0.914 0.195,0.246 0.391,0.426 0.586,0.52 0.195,0.089 0.39,0.093 0.582,0.011 0.195,-0.082 0.383,-0.258 0.562,-0.5 0.184,-0.242 0.36,-0.554 0.528,-0.906 0.164,-0.352 0.324,-0.742 0.476,-1.133 0.149,-0.386 0.293,-0.777 0.434,-1.117 0.137,-0.348 0.269,-0.648 0.402,-0.879 0.133,-0.23 0.266,-0.39 0.403,-0.461 0.132,-0.07 0.273,-0.051 0.418,0.055 0.144,0.101 0.296,0.293 0.457,0.547 0.164,0.254 0.332,0.57 0.511,0.918 0.18,0.351 0.367,0.726 0.563,1.097 0.195,0.368 0.398,0.723 0.601,1.028 0.207,0.308 0.418,0.566 0.625,0.746 0.207,0.18 0.411,0.281 0.61,0.293 0.199,0.012 0.39,-0.067 0.57,-0.227 0.18,-0.16 0.352,-0.406 0.508,-0.707 0.156,-0.304 0.301,-0.664 0.433,-1.051 0.133,-0.386 0.258,-0.793 0.375,-1.183 0.118,-0.387 0.227,-0.762 0.34,-1.078 0.11,-0.317 0.219,-0.578 0.336,-0.762 0.121,-0.18 0.242,-0.281 0.379,-0.297 0.137,-0.008 0.285,0.063 0.445,0.215 0.161,0.152 0.336,0.387 0.528,0.668 0.191,0.281 0.394,0.617 0.609,0.961 0.215,0.348 0.438,0.707 0.668,1.043 0.231,0.332 0.465,0.64 0.695,0.883 0.231,0.246 0.457,0.429 0.672,0.527 0.219,0.098 0.422,0.113 0.61,0.039 0.187,-0.07 0.359,-0.234 0.511,-0.469 0.149,-0.234 0.282,-0.543 0.395,-0.898 0.113,-0.356 0.211,-0.754 0.297,-1.16 0.086,-0.407 0.16,-0.813 0.234,-1.196 0.074,-0.379 0.149,-0.726 0.231,-1.004 0.082,-0.281 0.172,-0.496 0.281,-0.628 0.105,-0.133 0.234,-0.18 0.379,-0.141 0.148,0.035 0.32,0.156 0.512,0.344 0.195,0.187 0.41,0.445 0.64,0.734 0.254,0.316 0.465,0.59 0.746,0.941 0.258,0.325 0.528,0.645 0.793,0.922 0.266,0.282 0.531,0.516 0.781,0.684 0.25,0.164 0.485,0.262 0.696,0.269 0.211,0.012 0.398,-0.066 0.558,-0.226 0.149,-0.149 0.274,-0.375 0.371,-0.656 0.008,-0.016 0.012,-0.032 0.016,-0.047 0.102,-0.301 0.176,-0.664 0.231,-1.059 0.054,-0.394 0.086,-0.816 0.109,-1.234 0.027,-0.406 0.047,-0.824 0.07,-1.176 0.024,-0.359 0.059,-0.672 0.114,-0.91 0.054,-0.238 0.132,-0.406 0.242,-0.492 0.109,-0.082 0.25,-0.082 0.426,-0.008 0.175,0.074 0.386,0.223 0.628,0.426 0.243,0.203 0.516,0.461 0.809,0.734 0.293,0.273 0.602,0.563 0.918,0.832 0.316,0.27 0.637,0.52 0.941,0.715 0.305,0.191 0.594,0.332 0.856,0.394 0.258,0.063 0.488,0.051 0.672,-0.046 0.183,-0.098 0.328,-0.27 0.426,-0.516 0.097,-0.246 0.148,-0.563 0.16,-0.922 0.011,-0.359 -0.012,-0.758 -0.059,-1.168 -0.047,-0.41 -0.117,-0.824 -0.187,-1.219 -0.067,-0.39 -0.133,-0.761 -0.176,-1.074 -0.043,-0.312 -0.063,-0.57 -0.039,-0.758 0.023,-0.191 0.09,-0.308 0.207,-0.359 0.121,-0.047 0.289,-0.027 0.511,0.051 0.223,0.078 0.493,0.211 0.805,0.371 0.32,0.172 0.641,0.347 1.02,0.543 0.363,0.187 0.742,0.367 1.113,0.519 0.371,0.149 0.73,0.262 1.055,0.317 0.324,0.054 0.613,0.051 0.843,-0.02 0.231,-0.066 0.403,-0.203 0.508,-0.402 0.102,-0.199 0.141,-0.457 0.114,-0.762 -0.008,-0.09 -0.02,-0.183 -0.04,-0.281 -0.043,-0.231 -0.117,-0.481 -0.214,-0.734 -0.137,-0.368 -0.317,-0.743 -0.516,-1.106 -0.199,-0.367 -0.406,-0.711 -0.602,-1.031 -0.191,-0.317 -0.367,-0.598 -0.488,-0.828 -0.125,-0.235 -0.195,-0.422 -0.195,-0.559 -0.004,-0.137 0.066,-0.226 0.211,-0.277 0.144,-0.051 0.363,-0.067 0.644,-0.055 0.282,0.008 0.629,0.035 1.008,0.059 0.383,0.027 0.793,0.05 1.215,0.05 0.418,0 0.832,-0.023 1.215,-0.086 0.379,-0.058 0.722,-0.156 0.996,-0.292 0.273,-0.137 0.476,-0.313 0.594,-0.52 0.117,-0.203 0.144,-0.438 0.089,-0.684 -0.058,-0.25 -0.207,-0.507 -0.421,-0.761 -0.219,-0.254 -0.5,-0.504 -0.821,-0.735 -0.308,-0.222 -0.644,-0.425 -0.984,-0.609 0,0 -0.039,-0.024 -0.039,-0.024 -0.317,-0.164 -0.781,-0.398 -1.031,-0.527 -0.305,-0.16 -0.559,-0.305 -0.735,-0.437 -0.172,-0.133 -0.269,-0.258 -0.277,-0.379 -0.008,-0.121 0.07,-0.242 0.234,-0.367 0.16,-0.125 0.403,-0.258 0.699,-0.403 0.29,-0.14 0.657,-0.308 1.02,-0.48 0.375,-0.176 0.762,-0.367 1.133,-0.574 -0.195,0.015 -0.395,0.031 -0.594,0.05"
         style="fill:none;stroke:#000000;stroke-width:0.72;stroke-linecap:butt;stroke-linejoin:miter;stroke-miterlimit:4;stroke-dasharray:none;stroke-opacity:1"
         transform="matrix(1.3342933,0,0,1.3342933,141.732,94.487903)"
         clip-path="url(#clipPath58)"
         id="path133" />
      <path
         d="m 371.438,103.012 h 26.359"
         style="fill:none;stroke:#000000;stroke-width:0.72;stroke-linecap:butt;stroke-linejoin:miter;stroke-miterlimit:4;stroke-dasharray:none;stroke-opacity:1"
         transform="matrix(1.3342933,0,0,1.3342933,141.732,94.487903)"
         clip-path="url(#clipPath59)"
         id="path134" />
      <path
         d="m 401.563,104.754 -4.719,-1.734 4.719,-1.735 c -0.754,1.024 -0.75,2.426 0,3.469 z"
         style="fill:#000000;fill-opacity:1;fill-rule:evenodd;stroke:#000000;stroke-width:0.27;stroke-linecap:butt;stroke-linejoin:round;stroke-miterlimit:4;stroke-dasharray:none;stroke-opacity:1"
         transform="matrix(1.3342933,0,0,1.3342933,141.732,94.487903)"
         clip-path="url(#clipPath60)"
         id="path135" />
      <path
         d="m 317.148,103.016 h 29.2"
         style="fill:none;stroke:#000000;stroke-width:0.72;stroke-linecap:butt;stroke-linejoin:miter;stroke-miterlimit:4;stroke-dasharray:none;stroke-opacity:1"
         transform="matrix(1.3342933,0,0,1.3342933,141.732,94.487903)"
         clip-path="url(#clipPath61)"
         id="path136" />
      <path
         d="m 320.914,104.758 -4.719,-1.735 4.719,-1.738 c -0.754,1.028 -0.75,2.426 0,3.473 z"
         style="fill:#000000;fill-opacity:1;fill-rule:evenodd;stroke:#000000;stroke-width:0.27;stroke-linecap:butt;stroke-linejoin:round;stroke-miterlimit:4;stroke-dasharray:none;stroke-opacity:1"
         transform="matrix(1.3342933,0,0,1.3342933,141.732,94.487903)"
         clip-path="url(#clipPath62)"
         id="path137" />
      <path
         d="m 316.391,96.297 -2.461,12.707"
         style="fill:none;stroke:#000000;stroke-width:1.04;stroke-linecap:butt;stroke-linejoin:miter;stroke-miterlimit:4;stroke-dasharray:none;stroke-opacity:1"
         transform="matrix(1.3342933,0,0,1.3342933,141.732,94.487903)"
         clip-path="url(#clipPath63)"
         id="path138" />
      <path
         d="M 301.441,158.023 H 251.59 l 24.926,-43.174 z"
         style="fill:#44bf41;fill-opacity:1;fill-rule:nonzero;stroke:#000000;stroke-width:0.82846;stroke-linecap:butt;stroke-linejoin:miter;stroke-miterlimit:4;stroke-dasharray:none;stroke-opacity:1"
         transform="matrix(1.3342933,0,0,1.0077971,141.732,94.487903)"
         clip-path="url(#clipPath64)"
         id="path139" />
      <path
         d="m 271.336,42.426 0.945,0.922 c 1.395,1.235 1.934,1.715 1.934,2.61 0,1.023 -0.805,1.738 -1.899,1.738 -1.011,0 -1.671,-0.824 -1.671,-1.621 0,-0.5 0.449,-0.5 0.472,-0.5 0.156,0 0.469,0.109 0.469,0.472 0,0.235 -0.16,0.469 -0.477,0.469 -0.07,0 -0.089,0 -0.113,-0.008 0.203,0.578 0.688,0.911 1.207,0.911 0.813,0 1.199,-0.727 1.199,-1.461 0,-0.715 -0.449,-1.422 -0.941,-1.977 l -1.715,-1.914 c -0.101,-0.094 -0.101,-0.113 -0.101,-0.328 h 3.316 l 0.254,1.555 h -0.227 c -0.043,-0.27 -0.105,-0.661 -0.195,-0.797 -0.063,-0.071 -0.652,-0.071 -0.848,-0.071 z"
         style="fill:#000000;fill-opacity:1;fill-rule:evenodd;stroke:none"
         transform="matrix(1.3342933,0,0,-1.3342933,141.732,298.72933)"
         clip-path="url(#clipPath65)"
         id="path140" />
      <path
         d="m 276.492,41.747 v 0.109 l -0.008,0.102 -0.023,0.14 -0.008,0.043 -0.023,0.086 -0.012,0.039 -0.016,0.039 -0.011,0.035 -0.016,0.036 -0.016,0.031 -0.023,0.031 -0.016,0.027 -0.019,0.032 -0.024,0.023 -0.019,0.024 -0.024,0.023 -0.027,0.019 -0.023,0.02 -0.024,0.016 -0.027,0.015 -0.028,0.012 -0.031,0.012 -0.027,0.008 -0.063,0.015 h -0.031 l -0.031,0.004 c -0.297,0 -0.473,-0.227 -0.473,-0.477 0,-0.238 0.176,-0.472 0.473,-0.472 0.105,0 0.223,0.035 0.312,0.113 0.028,0.02 0.036,0.031 0.047,0.031 0.008,0 0.016,-0.011 0.016,-0.136 0,-0.661 -0.313,-1.2 -0.609,-1.493 -0.098,-0.097 -0.098,-0.117 -0.098,-0.14 0,-0.067 0.043,-0.102 0.09,-0.102 0.097,0 0.812,0.688 0.812,1.735 z"
         style="fill:#000000;fill-opacity:1;fill-rule:evenodd;stroke:none"
         transform="matrix(1.3342933,0,0,-1.3342933,141.732,298.72933)"
         clip-path="url(#clipPath66)"
         id="path141" />
      <path
         d="m 281.27,47.461 v 0.11 l -0.004,0.004 v 0.039 l -0.008,0.015 v 0.012 l -0.004,0.004 -0.008,0.016 -0.008,0.004 -0.015,0.015 -0.012,0.004 h -0.012 l -0.004,0.004 h -0.011 l -0.008,0.004 h -0.02 l -0.008,0.004 h -0.082 c -0.554,-0.57 -1.339,-0.57 -1.628,-0.57 v -0.282 c 0.179,0 0.707,0 1.171,0.235 v -4.633 c 0,-0.324 -0.027,-0.43 -0.832,-0.43 h -0.285 v -0.277 c 0.313,0.027 1.09,0.027 1.446,0.027 0.359,0 1.136,0 1.453,-0.027 v 0.277 h -0.286 c -0.808,0 -0.835,0.098 -0.835,0.43 z"
         style="fill:#000000;fill-opacity:1;fill-rule:evenodd;stroke:none"
         transform="matrix(1.3342933,0,0,-1.3342933,141.732,298.72933)"
         clip-path="url(#clipPath67)"
         id="path142" />
      <path
         d="m 383.895,158.023 h -49.856 l 24.926,-43.174 z"
         style="fill:#44bf41;fill-opacity:1;fill-rule:nonzero;stroke:#000000;stroke-width:0.82846;stroke-linecap:butt;stroke-linejoin:miter;stroke-miterlimit:4;stroke-dasharray:none;stroke-opacity:1"
         transform="matrix(1.3342933,0,0,1.0077971,141.732,94.487903)"
         clip-path="url(#clipPath68)"
         id="path143" />
      <path
         d="m 353.785,42.426 0.945,0.922 c 1.395,1.235 1.934,1.715 1.934,2.61 0,1.023 -0.805,1.738 -1.894,1.738 -1.016,0 -1.676,-0.824 -1.676,-1.621 0,-0.5 0.449,-0.5 0.472,-0.5 0.157,0 0.469,0.109 0.469,0.472 0,0.235 -0.16,0.469 -0.476,0.469 -0.071,0 -0.09,0 -0.114,-0.008 0.203,0.578 0.688,0.911 1.207,0.911 0.813,0 1.2,-0.727 1.2,-1.461 0,-0.715 -0.45,-1.422 -0.942,-1.977 l -1.715,-1.914 c -0.101,-0.094 -0.101,-0.113 -0.101,-0.328 h 3.32 l 0.25,1.555 h -0.223 c -0.046,-0.27 -0.109,-0.661 -0.199,-0.797 -0.062,-0.071 -0.652,-0.071 -0.847,-0.071 z"
         style="fill:#000000;fill-opacity:1;fill-rule:evenodd;stroke:none"
         transform="matrix(1.3342933,0,0,-1.3342933,141.732,298.72933)"
         clip-path="url(#clipPath69)"
         id="path144" />
      <path
         d="m 358.945,41.747 -0.004,0.054 v 0.055 l -0.007,0.102 -0.004,0.046 -0.008,0.047 -0.012,0.047 -0.008,0.043 -0.011,0.043 -0.008,0.043 -0.016,0.039 -0.012,0.039 -0.031,0.071 -0.015,0.031 -0.02,0.031 -0.019,0.027 -0.02,0.032 -0.02,0.023 -0.046,0.047 -0.024,0.019 -0.027,0.02 -0.024,0.016 -0.027,0.015 -0.055,0.024 -0.062,0.015 -0.027,0.008 h -0.036 l -0.031,0.004 c -0.293,0 -0.473,-0.227 -0.473,-0.477 0,-0.238 0.18,-0.472 0.473,-0.472 0.106,0 0.223,0.035 0.313,0.113 0.027,0.02 0.039,0.031 0.046,0.031 0.008,0 0.016,-0.011 0.016,-0.136 0,-0.661 -0.308,-1.2 -0.609,-1.493 -0.098,-0.097 -0.098,-0.117 -0.098,-0.14 0,-0.067 0.047,-0.102 0.09,-0.102 0.098,0 0.816,0.688 0.816,1.735 z"
         style="fill:#000000;fill-opacity:1;fill-rule:evenodd;stroke:none"
         transform="matrix(1.3342933,0,0,-1.3342933,141.732,298.72933)"
         clip-path="url(#clipPath70)"
         id="path145" />
      <path
         d="m 363.723,47.461 v 0.012 l -0.004,0.012 v 0.105 l -0.004,0.012 v 0.012 l -0.008,0.015 v 0.012 l -0.004,0.004 -0.008,0.016 -0.007,0.004 -0.004,0.004 -0.004,0.007 -0.008,0.004 -0.012,0.004 h -0.012 l -0.003,0.004 h -0.012 l -0.004,0.004 h -0.024 l -0.007,0.004 h -0.082 c -0.555,-0.57 -1.34,-0.57 -1.629,-0.57 v -0.282 c 0.179,0 0.707,0 1.172,0.235 v -4.633 c 0,-0.324 -0.024,-0.43 -0.832,-0.43 h -0.286 v -0.277 c 0.317,0.027 1.094,0.027 1.45,0.027 0.355,0 1.132,0 1.449,-0.027 v 0.277 h -0.285 c -0.809,0 -0.832,0.098 -0.832,0.43 z"
         style="fill:#000000;fill-opacity:1;fill-rule:evenodd;stroke:none"
         transform="matrix(1.3342933,0,0,-1.3342933,141.732,298.72933)"
         clip-path="url(#clipPath71)"
         id="path146" />
      <path
         d="m 280.492,108.11 0.965,0.941 c 1.418,1.254 1.965,1.746 1.965,2.657 0,1.039 -0.817,1.769 -1.93,1.769 -1.031,0 -1.707,-0.84 -1.707,-1.652 0,-0.508 0.457,-0.508 0.485,-0.508 0.156,0 0.476,0.109 0.476,0.48 0,0.239 -0.164,0.477 -0.484,0.477 -0.071,0 -0.09,0 -0.117,-0.008 0.207,0.59 0.699,0.93 1.23,0.93 0.828,0 1.219,-0.742 1.219,-1.488 0,-0.727 -0.457,-1.45 -0.957,-2.012 l -1.746,-1.949 c -0.106,-0.098 -0.106,-0.118 -0.106,-0.336 h 3.383 l 0.254,1.582 h -0.227 c -0.047,-0.274 -0.109,-0.672 -0.199,-0.809 -0.066,-0.074 -0.668,-0.074 -0.867,-0.074 z"
         style="fill:#ffffff;fill-opacity:1;fill-rule:evenodd;stroke:none"
         transform="matrix(1.3342933,0,0,-1.3342933,141.732,298.72933)"
         clip-path="url(#clipPath72)"
         id="path147" />
      <path
         d="m 285.746,107.419 -0.004,0.054 v 0.055 l -0.004,0.055 -0.004,0.05 -0.004,0.047 -0.007,0.051 -0.012,0.047 -0.008,0.043 -0.023,0.086 -0.012,0.039 -0.016,0.039 -0.011,0.035 -0.02,0.035 -0.016,0.035 -0.039,0.063 -0.039,0.055 -0.047,0.046 -0.027,0.02 -0.023,0.02 -0.055,0.031 -0.055,0.023 -0.031,0.012 -0.031,0.004 -0.031,0.008 h -0.032 l -0.035,0.004 c -0.297,0 -0.48,-0.231 -0.48,-0.485 0,-0.242 0.183,-0.48 0.48,-0.48 0.11,0 0.231,0.035 0.32,0.117 0.028,0.019 0.04,0.027 0.047,0.027 0.008,0 0.016,-0.008 0.016,-0.136 0,-0.676 -0.316,-1.223 -0.617,-1.52 -0.102,-0.102 -0.102,-0.121 -0.102,-0.145 0,-0.066 0.047,-0.101 0.09,-0.101 0.102,0 0.832,0.699 0.832,1.766 z"
         style="fill:#ffffff;fill-opacity:1;fill-rule:evenodd;stroke:none"
         transform="matrix(1.3342933,0,0,-1.3342933,141.732,298.72933)"
         clip-path="url(#clipPath73)"
         id="path148" />
      <path
         d="m 289.09,108.11 0.965,0.941 c 1.422,1.254 1.968,1.746 1.968,2.657 0,1.039 -0.82,1.769 -1.929,1.769 -1.031,0 -1.707,-0.84 -1.707,-1.652 0,-0.508 0.457,-0.508 0.484,-0.508 0.156,0 0.473,0.109 0.473,0.48 0,0.239 -0.164,0.477 -0.485,0.477 -0.07,0 -0.089,0 -0.117,-0.008 0.211,0.59 0.703,0.93 1.231,0.93 0.828,0 1.222,-0.742 1.222,-1.488 0,-0.727 -0.457,-1.45 -0.957,-2.012 l -1.75,-1.949 c -0.101,-0.098 -0.101,-0.118 -0.101,-0.336 h 3.379 l 0.257,1.582 h -0.23 c -0.043,-0.274 -0.105,-0.672 -0.199,-0.809 -0.063,-0.074 -0.664,-0.074 -0.864,-0.074 z"
         style="fill:#ffffff;fill-opacity:1;fill-rule:evenodd;stroke:none"
         transform="matrix(1.3342933,0,0,-1.3342933,141.732,298.72933)"
         clip-path="url(#clipPath74)"
         id="path149" />
      <path
         d="m 154.305,108.883 v -0.777 c 0,-0.324 -0.016,-0.422 -0.68,-0.422 h -0.191 v -0.277 c 0.371,0.027 0.836,0.027 1.214,0.027 0.375,0 0.852,0 1.215,-0.027 v 0.277 h -0.187 c -0.664,0 -0.68,0.098 -0.68,0.422 v 0.777 h 0.899 v 0.278 h -0.899 v 4.082 c 0,0.179 0,0.23 -0.144,0.23 -0.082,0 -0.106,0 -0.18,-0.109 l -2.75,-4.203 h 0.25 l 2.187,3.343 v -3.343 h -2.437 v -0.278 z"
         style="fill:#ffffff;fill-opacity:1;fill-rule:evenodd;stroke:none"
         transform="matrix(1.3342933,0,0,-1.3342933,141.732,298.72933)"
         clip-path="url(#clipPath75)"
         id="path150" />
      <path
         d="m 157.98,107.415 -0.003,0.054 v 0.055 l -0.008,0.102 -0.004,0.046 -0.016,0.094 -0.023,0.086 -0.008,0.043 -0.016,0.039 -0.011,0.039 -0.032,0.071 -0.015,0.031 -0.039,0.062 -0.02,0.028 -0.019,0.023 -0.047,0.047 -0.024,0.019 -0.027,0.02 -0.023,0.02 -0.028,0.011 -0.027,0.016 -0.027,0.008 -0.032,0.011 -0.031,0.004 -0.031,0.008 h -0.031 l -0.032,0.004 c -0.297,0 -0.476,-0.227 -0.476,-0.477 0,-0.242 0.179,-0.472 0.476,-0.472 0.106,0 0.223,0.035 0.317,0.113 0.023,0.02 0.035,0.027 0.043,0.027 0.007,0 0.015,-0.007 0.015,-0.132 0,-0.664 -0.312,-1.204 -0.609,-1.496 -0.098,-0.098 -0.098,-0.118 -0.098,-0.145 0,-0.063 0.043,-0.098 0.09,-0.098 0.098,0 0.816,0.688 0.816,1.739 z"
         style="fill:#ffffff;fill-opacity:1;fill-rule:evenodd;stroke:none"
         transform="matrix(1.3342933,0,0,-1.3342933,141.732,298.72933)"
         clip-path="url(#clipPath76)"
         id="path151" />
      <path
         d="m 164.258,110.274 -0.004,0.133 v 0.133 l -0.004,0.136 -0.004,0.133 -0.008,0.137 -0.011,0.133 -0.016,0.132 -0.016,0.129 -0.019,0.133 -0.028,0.133 -0.027,0.129 -0.035,0.129 -0.039,0.129 -0.043,0.125 -0.051,0.129 -0.027,0.062 -0.028,0.059 c -0.41,0.863 -1.148,1.008 -1.523,1.008 -0.539,0 -1.195,-0.235 -1.562,-1.067 -0.286,-0.621 -0.333,-1.32 -0.333,-2.035 0,-0.672 0.04,-1.48 0.407,-2.16 0.383,-0.727 1.039,-0.906 1.476,-0.906 v 0.199 c -0.347,0 -0.879,0.222 -1.039,1.082 -0.097,0.539 -0.097,1.363 -0.097,1.894 0,0.571 0,1.161 0.074,1.645 0.168,1.07 0.84,1.148 1.062,1.148 0.297,0 0.891,-0.16 1.059,-1.047 0.09,-0.5 0.09,-1.183 0.09,-1.746 0,-0.675 0,-1.285 -0.098,-1.855 -0.137,-0.852 -0.644,-1.121 -1.051,-1.121 v -0.199 c 0.485,0 1.164,0.187 1.563,1.043 0.285,0.617 0.332,1.312 0.332,2.023 z"
         style="fill:#ffffff;fill-opacity:1;fill-rule:evenodd;stroke:none"
         transform="matrix(1.3342933,0,0,-1.3342933,141.732,298.72933)"
         clip-path="url(#clipPath77)"
         id="path152" />
    </g>
  </g>
</svg>
