<?xml version="1.0" encoding="UTF-8" standalone="no"?>
<!-- Created with Inkscape (http://www.inkscape.org/) -->

<svg
   version="1.1"
   id="svg1"
   width="325.37335"
   height="90.969994"
   viewBox="0 0 325.37335 90.969994"
   sodipodi:docname="quantumcircuit.svg"
   inkscape:version="1.4.2 (ebf0e940, 2025-05-08)"
   xmlns:inkscape="http://www.inkscape.org/namespaces/inkscape"
   xmlns:sodipodi="http://sodipodi.sourceforge.net/DTD/sodipodi-0.dtd"
   xmlns="http://www.w3.org/2000/svg"
   xmlns:svg="http://www.w3.org/2000/svg">
  <defs
     id="defs1" />
  <sodipodi:namedview
     id="namedview1"
     pagecolor="#ffffff"
     bordercolor="#000000"
     borderopacity="0.25"
     inkscape:showpageshadow="2"
     inkscape:pageopacity="0.0"
     inkscape:pagecheckerboard="0"
     inkscape:deskcolor="#d1d1d1"
     inkscape:zoom="0.87962963"
     inkscape:cx="99.473684"
     inkscape:cy="343.32632"
     inkscape:window-width="2032"
     inkscape:window-height="1079"
     inkscape:window-x="10"
     inkscape:window-y="688"
     inkscape:window-maximized="0"
     inkscape:current-layer="g1">
    <inkscape:page
       x="0"
       y="0"
       inkscape:label="9"
       id="page1"
       width="325.37335"
       height="90.969994"
       margin="0"
       bleed="0" />
  </sodipodi:namedview>
  <g
     id="g1"
     inkscape:groupmode="layer"
     inkscape:label="9"
     transform="translate(-305.37061,-196.20895)">
    <g
       id="group-MC20"
       transform="translate(-112.54737,101.17895)">
      <g
         id="group-MC21">
        <path
           id="path104"
           d="m 3.8795391,-3.6908156 c 0,-0.035156 -0.023437,-0.09375 -0.082031,-0.09375 -0.1054687,0 -0.4453125,0.3398437 -0.5859375,0.5976562 -0.1875,-0.46875 -0.5273437,-0.609375 -0.796875,-0.609375 -1.0195312,0 -2.07421874,1.2773438 -2.07421874,2.5195313 0,0.84374997 0.50390625,1.37109372 1.13671874,1.37109372 0.3632813,0 0.703125,-0.2109375 1.0078125,-0.515625 -0.070312,0.3046875 -0.3515625,1.46484378 -0.3867187,1.53515628 -0.070312,0.2460937 -0.1289063,0.28125 -0.609375,0.28125 -0.1171875,0 -0.1992188,0 -0.1992188,0.1757812 0,0.011719 0,0.09375 0.1054688,0.09375 0.28125,0 0.5742187,-0.023437 0.8671875,-0.023437 0.28125,0 0.5976562,0.023437 0.8789062,0.023437 0.046875,0 0.1523438,0 0.1523438,-0.1757812 0,-0.09375 -0.082031,-0.09375 -0.2226563,-0.09375 -0.4101562,0 -0.4101562,-0.058594 -0.4101562,-0.1289063 0,-0.070312 0.011719,-0.1171875 0.035156,-0.1992187 z m -2.3789063,3.59765622 c -0.51562499,0 -0.55078124,-0.65625 -0.55078124,-0.80859375 0,-0.41015627 0.24609374,-1.34765627 0.39843754,-1.71093747 0.2695312,-0.6328125 0.7148437,-0.984375 1.0664062,-0.984375 0.5507813,0 0.6796875,0.6914062 0.6796875,0.75 0,0.046875 -0.4804687,1.93359372 -0.5039062,1.96874997 -0.1289063,0.234375 -0.609375,0.78515625 -1.0898438,0.78515625 z m 0,0"
           style="fill:#231f20;fill-opacity:1;fill-rule:nonzero;stroke:none"
           aria-label="q"
           transform="matrix(1.3333333,0,0,1.3333333,417.464,104.6164)" />
        <path
           id="path105"
           d="m 3.0943844,-1.9105328 c 0,-0.6679688 -0.070312,-1.1367188 -0.3515625,-1.5585938 -0.1875,-0.2695312 -0.5625,-0.515625 -1.0429688,-0.515625 -1.38281247,0 -1.38281247,1.640625 -1.38281247,2.0742188 0,0.4335937 0,2.02734374 1.38281247,2.02734374 1.3945313,0 1.3945313,-1.59375004 1.3945313,-2.02734374 z m -1.3945313,1.86328124 c -0.2695312,0 -0.6328125,-0.1640625 -0.76171872,-0.65625 -0.0820313,-0.35156254 -0.0820313,-0.84375004 -0.0820313,-1.28906254 0,-0.4335937 0,-0.890625 0.09375,-1.21875 0.12890632,-0.4804687 0.50390632,-0.609375 0.75000002,-0.609375 0.328125,0 0.6445313,0.1992188 0.75,0.5507813 0.09375,0.328125 0.1054688,0.75 0.1054688,1.2773437 0,0.4453125 0,0.890625 -0.082031,1.26562504 -0.1171875,0.55078125 -0.5273437,0.6796875 -0.7734378,0.6796875 z m 0,0"
           style="fill:#231f20;fill-opacity:1;fill-rule:nonzero;stroke:none"
           aria-label="0"
           transform="matrix(1.3333333,0,0,1.3333333,422.56947,106.33253)" />
        <path
           id="path106"
           d="m 1.6525234,-3.2455031 c 0,-0.2460938 -0.2109375,-0.4453125 -0.4570312,-0.4453125 -0.24609376,0 -0.45703126,0.1992187 -0.45703126,0.4453125 0,0.2578125 0.2109375,0.4570312 0.45703126,0.4570312 0.2460937,0 0.4570312,-0.1992187 0.4570312,-0.4570312 z m 0,2.78906247 c 0,-0.24609375 -0.2109375,-0.45703125 -0.4570312,-0.45703125 -0.24609376,0 -0.45703126,0.2109375 -0.45703126,0.45703125 0,0.24609375 0.2109375,0.457031255 0.45703126,0.457031255 0.2460937,0 0.4570312,-0.210937505 0.4570312,-0.457031255 z m 0,0"
           style="fill:#231f20;fill-opacity:1;fill-rule:nonzero;stroke:none"
           aria-label=":"
           transform="matrix(1.3333333,0,0,1.3333333,430.87867,104.6164)" />
        <path
           id="path107"
           d="m 5.26236,-5.1900453 c 0,-0.3046875 0.011719,-0.3984375 0.6796875,-0.3984375 H 6.1412662 V -5.858014 c -0.3046875,0.023437 -0.9375,0.023437 -1.2539062,0.023437 -0.328125,0 -0.9726563,0 -1.2773438,-0.023437 v 0.2695312 h 0.2109375 c 0.65625,0 0.6796875,0.09375 0.6796875,0.3984375 V -3.186139 H 1.934235 v -2.0039063 c 0,-0.3046875 0.011719,-0.3984375 0.6796875,-0.3984375 H 2.8131412 V -5.858014 c -0.3046875,0.023437 -0.9375,0.023437 -1.265625,0.023437 -0.3164062,0 -0.96093748,0 -1.26562498,-0.023437 v 0.2695312 h 0.2109375 c 0.65624998,0 0.67968748,0.09375 0.67968748,0.3984375 v 4.52343753 c 0,0.3046875 -0.023437,0.3984375 -0.67968748,0.3984375 h -0.2109375 v 0.26953125 c 0.3046875,-0.0234375 0.93749998,-0.0234375 1.26562498,-0.0234375 0.328125,0 0.9609375,0 1.265625,0.0234375 V -0.26817027 H 2.6139225 c -0.6679688,0 -0.6796875,-0.09375 -0.6796875,-0.3984375 V -2.9166078 h 2.5664062 v 2.25000003 c 0,0.3046875 -0.023437,0.3984375 -0.6796875,0.3984375 H 3.6100162 v 0.26953125 c 0.3046875,-0.0234375 0.9375,-0.0234375 1.265625,-0.0234375 0.328125,0 0.9609375,0 1.265625,0.0234375 V -0.26817027 H 5.9420475 c -0.6679688,0 -0.6796875,-0.09375 -0.6796875,-0.3984375 z m 0,0"
           style="fill:#231f20;fill-opacity:1;fill-rule:nonzero;stroke:none"
           aria-label="H"
           transform="matrix(1.3333333,0,0,1.3333333,454.64368,107.17397)" />
        <path
           id="path108"
           d="M 0,0 H -11.582 V -11.01 H 0 V 0"
           style="fill:none;stroke:#231f20;stroke-width:0.343;stroke-linecap:round;stroke-linejoin:round;stroke-miterlimit:10;stroke-dasharray:none;stroke-opacity:1"
           transform="matrix(1.3333333,0,0,-1.3333333,466.65333,95.926667)" />
        <path
           id="path109"
           d="M 0,0 H -8.578"
           style="fill:none;stroke:#231f20;stroke-width:0.343;stroke-linecap:round;stroke-linejoin:round;stroke-miterlimit:10;stroke-dasharray:none;stroke-opacity:1"
           transform="matrix(1.3333333,0,0,-1.3333333,451.21067,103.26667)" />
        <path
           id="path110"
           d="m 3.5860359,-2.1453813 1.7109375,-1.7109375 c 0.09375,-0.09375 0.1054688,-0.1171875 0.1054688,-0.1875 0,-0.09375 -0.070312,-0.1640625 -0.1640625,-0.1640625 -0.070312,0 -0.1054688,0.035156 -0.1875,0.1054688 L 3.3399422,-2.3797563 1.6172859,-4.1024125 c -0.09375,-0.09375 -0.1171875,-0.1054688 -0.1875,-0.1054688 -0.082031,0 -0.1640625,0.070312 -0.1640625,0.1640625 0,0.070313 0.035156,0.1054688 0.1054688,0.1875 l 1.7109375,1.7109375 -1.7109375,1.71093755 c -0.082031,0.0820313 -0.1054688,0.12890625 -0.1054688,0.1875 0,0.09375 0.082031,0.1640625 0.1640625,0.1640625 0.070312,0 0.09375,-0.01171875 0.1875,-0.10546875 L 3.3282234,-1.9110063 5.0391609,-0.18835 c 0.09375,0.0820312 0.140625,0.10546875 0.1992188,0.10546875 0.09375,0 0.1640625,-0.0703125 0.1640625,-0.1640625 0,-0.0703125 -0.011719,-0.09375 -0.1054688,-0.1875 z m 0,0"
           style="fill:#231f20;fill-opacity:1;fill-rule:nonzero;stroke:none"
           aria-label="×"
           transform="matrix(1.3333333,0,0,1.3333333,473.6444,106.12613)" />
        <path
           id="path111"
           d="M 0,0 H -8.579"
           style="fill:none;stroke:#231f20;stroke-width:0.343;stroke-linecap:round;stroke-linejoin:round;stroke-miterlimit:10;stroke-dasharray:none;stroke-opacity:1"
           transform="matrix(1.3333333,0,0,-1.3333333,478.092,103.26667)" />
        <path
           id="path112"
           d="m 3.7965062,-2.1449188 c 0,-0.9140625 -0.75,-1.6640625 -1.6523437,-1.6640625 -0.9375,0 -1.6640625,0.7617188 -1.6640625,1.6640625 0,0.9140625 0.75,1.66406255 1.6523437,1.66406255 0.9375,0 1.6640625,-0.76171875 1.6640625,-1.66406255 z m 0,0"
           style="fill:#231f20;fill-opacity:1;fill-rule:nonzero;stroke:none"
           aria-label="•"
           transform="matrix(1.3333333,0,0,1.3333333,491.35987,106.09427)" />
        <path
           id="path113"
           d="M 0,0 V -36.493"
           style="fill:none;stroke:#231f20;stroke-width:0.343;stroke-linecap:round;stroke-linejoin:round;stroke-miterlimit:10;stroke-dasharray:none;stroke-opacity:1"
           transform="matrix(1.3333333,0,0,-1.3333333,494.22,104.82267)" />
        <path
           id="path114"
           d="M 0,0 H -11.046"
           style="fill:none;stroke:#231f20;stroke-width:0.343;stroke-linecap:round;stroke-linejoin:round;stroke-miterlimit:10;stroke-dasharray:none;stroke-opacity:1"
           transform="matrix(1.3333333,0,0,-1.3333333,492.82133,103.26667)" />
        <path
           id="path115"
           d="M 0,0 H -14.565"
           style="fill:none;stroke:#231f20;stroke-width:0.343;stroke-linecap:round;stroke-linejoin:round;stroke-miterlimit:10;stroke-dasharray:none;stroke-opacity:1"
           transform="matrix(1.3333333,0,0,-1.3333333,515.03733,103.26667)" />
        <path
           id="path116"
           d="M 0,0 H 6.691"
           style="fill:none;stroke:#231f20;stroke-width:0.343;stroke-linecap:round;stroke-linejoin:round;stroke-miterlimit:10;stroke-dasharray:none;stroke-opacity:1"
           transform="matrix(1.3333333,0,0,-1.3333333,531.39467,103.26667)" />
        <path
           id="path117"
           d="M 0,0 V 6.69"
           style="fill:none;stroke:#231f20;stroke-width:0.343;stroke-linecap:round;stroke-linejoin:round;stroke-miterlimit:10;stroke-dasharray:none;stroke-opacity:1"
           transform="matrix(1.3333333,0,0,-1.3333333,535.85467,107.72667)" />
        <path
           id="path118"
           d="m 0,0 c -1.893,0 -3.431,-1.538 -3.431,-3.432 0,-1.893 1.538,-3.431 3.431,-3.431 1.893,0 3.432,1.538 3.432,3.431 C 3.432,-1.538 1.893,0 0,0"
           style="fill:none;stroke:#231f20;stroke-width:0.343;stroke-linecap:round;stroke-linejoin:round;stroke-miterlimit:10;stroke-dasharray:none;stroke-opacity:1"
           transform="matrix(1.3333333,0,0,-1.3333333,535.85467,98.690667)" />
        <path
           id="path119"
           d="M 0,0 H -12.095"
           style="fill:none;stroke:#231f20;stroke-width:0.343;stroke-linecap:round;stroke-linejoin:round;stroke-miterlimit:10;stroke-dasharray:none;stroke-opacity:1"
           transform="matrix(1.3333333,0,0,-1.3333333,531.164,103.26667)" />
        <path
           id="path120"
           d="M 0,0 H 6.691"
           style="fill:none;stroke:#231f20;stroke-width:0.343;stroke-linecap:round;stroke-linejoin:round;stroke-miterlimit:10;stroke-dasharray:none;stroke-opacity:1"
           transform="matrix(1.3333333,0,0,-1.3333333,554.12933,103.26667)" />
        <path
           id="path121"
           d="M 0,0 V 6.69"
           style="fill:none;stroke:#231f20;stroke-width:0.343;stroke-linecap:round;stroke-linejoin:round;stroke-miterlimit:10;stroke-dasharray:none;stroke-opacity:1"
           transform="matrix(1.3333333,0,0,-1.3333333,558.59067,107.72667)" />
        <path
           id="path122"
           d="m 0,0 c -1.894,0 -3.431,-1.538 -3.431,-3.432 0,-1.893 1.537,-3.431 3.431,-3.431 1.893,0 3.431,1.538 3.431,3.431 C 3.431,-1.538 1.893,0 0,0"
           style="fill:none;stroke:#231f20;stroke-width:0.343;stroke-linecap:round;stroke-linejoin:round;stroke-miterlimit:10;stroke-dasharray:none;stroke-opacity:1"
           transform="matrix(1.3333333,0,0,-1.3333333,558.59067,98.690667)" />
        <path
           id="path123"
           d="M 0,0 H -10.018"
           style="fill:none;stroke:#231f20;stroke-width:0.343;stroke-linecap:round;stroke-linejoin:round;stroke-miterlimit:10;stroke-dasharray:none;stroke-opacity:1"
           transform="matrix(1.3333333,0,0,-1.3333333,553.90133,103.26667)" />
        <path
           id="path124"
           d="M 2.9889766,-3.3269891 1.8991328,-3.5965203 C 1.3600703,-3.7254266 1.0319453,-4.1824578 1.0319453,-4.6863641 c 0,-0.5976562 0.4570313,-1.125 1.125,-1.125 1.4414063,0 1.6289063,1.40625 1.6757813,1.7929688 0.011719,0.058594 0.011719,0.1054687 0.1054687,0.1054687 0.1171875,0 0.1171875,-0.035156 0.1171875,-0.1992187 v -1.7226563 c 0,-0.1523437 0,-0.2109375 -0.1054687,-0.2109375 -0.058594,0 -0.058594,0.011719 -0.1289063,0.1054688 l -0.2929687,0.4921875 c -0.2578125,-0.2460938 -0.609375,-0.5976563 -1.3710938,-0.5976563 -0.9609375,0 -1.67578124,0.75 -1.67578124,1.6640625 0,0.7148438 0.45703125,1.3359375 1.12500004,1.5703125 0.09375,0.035156 0.5273437,0.140625 1.1367187,0.28125 0.2226563,0.058594 0.4804688,0.1171875 0.7265625,0.4335938 0.1757813,0.2226562 0.2578125,0.515625 0.2578125,0.796875 0,0.60937499 -0.421875,1.21874999 -1.1484375,1.21874999 -0.2460937,0 -0.9023437,-0.03515625 -1.3476562,-0.45703125 C 0.72725781,-1.0066766 0.70382031,-1.5457391 0.69210156,-1.8621453 c 0,-0.082031 -0.0703125,-0.082031 -0.09375,-0.082031 -0.1171875,0 -0.1171875,0.058594 -0.1171875,0.2109375 v 1.72265629 c 0,0.140625 0,0.19921875 0.09375,0.19921875 0.0585938,0 0.0703125,-0.0117188 0.12890625,-0.10546875 0,-0.01171875 0.0234375,-0.03515625 0.30468749,-0.4921875 0.2695313,0.29296875 0.8203125,0.59765625 1.5820313,0.59765625 1.0078125,0 1.6875,-0.84375 1.6875,-1.78125004 0,-0.8554687 -0.5625,-1.5585937 -1.2890625,-1.7343753 z m 0,0"
           style="fill:#231f20;fill-opacity:1;fill-rule:nonzero;stroke:none"
           aria-label="S"
           transform="matrix(1.3333333,0,0,1.3333333,581.18267,107.17427)" />
        <path
           id="path125"
           d="M 0,0 H -9.913 V -11.01 H 0 V 0"
           style="fill:none;stroke:#231f20;stroke-width:0.343;stroke-linecap:round;stroke-linejoin:round;stroke-miterlimit:10;stroke-dasharray:none;stroke-opacity:1"
           transform="matrix(1.3333333,0,0,-1.3333333,590.96667,95.926667)" />
        <path
           id="path126"
           d="M 0,0 H -10.852"
           style="fill:none;stroke:#231f20;stroke-width:0.343;stroke-linecap:round;stroke-linejoin:round;stroke-miterlimit:10;stroke-dasharray:none;stroke-opacity:1"
           transform="matrix(1.3333333,0,0,-1.3333333,577.74933,103.26667)" />
        <path
           id="path127"
           d="m 5.2622969,-5.1902703 c 0,-0.3046875 0.011719,-0.3984375 0.6796875,-0.3984375 h 0.1992187 v -0.2695313 c -0.3046875,0.023437 -0.9375,0.023437 -1.2539062,0.023437 -0.328125,0 -0.9726563,0 -1.2773438,-0.023437 v 0.2695313 h 0.2109375 c 0.65625,0 0.6796875,0.09375 0.6796875,0.3984375 v 2.0039062 H 1.9341719 v -2.0039062 c 0,-0.3046875 0.011719,-0.3984375 0.6796875,-0.3984375 h 0.1992187 v -0.2695313 c -0.3046875,0.023437 -0.9375,0.023437 -1.265625,0.023437 -0.3164062,0 -0.96093748,0 -1.26562498,-0.023437 v 0.2695313 h 0.2109375 c 0.65624998,0 0.67968748,0.09375 0.67968748,0.3984375 v 4.52343749 c 0,0.3046875 -0.023437,0.3984375 -0.67968748,0.3984375 h -0.2109375 v 0.26953125 c 0.3046875,-0.0234375 0.93749998,-0.0234375 1.26562498,-0.0234375 0.328125,0 0.9609375,0 1.265625,0.0234375 V -0.26839531 H 2.6138594 c -0.6679688,0 -0.6796875,-0.09375 -0.6796875,-0.3984375 V -2.9168328 h 2.5664062 v 2.24999999 c 0,0.3046875 -0.023437,0.3984375 -0.6796875,0.3984375 H 3.6099531 v 0.26953125 c 0.3046875,-0.0234375 0.9375,-0.0234375 1.265625,-0.0234375 0.328125,0 0.9609375,0 1.265625,0.0234375 V -0.26839531 H 5.9419844 c -0.6679688,0 -0.6796875,-0.09375 -0.6796875,-0.3984375 z m 0,0"
           style="fill:#231f20;fill-opacity:1;fill-rule:nonzero;stroke:none"
           aria-label="H"
           transform="matrix(1.3333333,0,0,1.3333333,609.52267,107.17427)" />
        <path
           id="path128"
           d="M 0,0 H -11.581 V -11.01 H 0 V 0"
           style="fill:none;stroke:#231f20;stroke-width:0.343;stroke-linecap:round;stroke-linejoin:round;stroke-miterlimit:10;stroke-dasharray:none;stroke-opacity:1"
           transform="matrix(1.3333333,0,0,-1.3333333,621.532,95.926667)" />
        <path
           id="path129"
           d="M 0,0 H -11.343"
           style="fill:none;stroke:#231f20;stroke-width:0.343;stroke-linecap:round;stroke-linejoin:round;stroke-miterlimit:10;stroke-dasharray:none;stroke-opacity:1"
           transform="matrix(1.3333333,0,0,-1.3333333,606.09067,103.26667)" />
        <path
           id="path130"
           d="m 5.2369688,-5.0379266 c 0.3164062,-0.515625 0.8203125,-0.5507812 1.0898437,-0.5507812 v -0.2695313 c -0.2578125,0.023437 -0.609375,0.023437 -0.84375,0.023437 -0.2578125,0 -0.7617187,-0.011719 -0.984375,-0.023437 v 0.2695313 c 0.3515625,0 0.4921875,0.1640625 0.4921875,0.328125 0,0.09375 -0.046875,0.2109375 -0.082031,0.2578125 l -1.4179688,2.296875 -1.5585937,-2.53125 c -0.058594,-0.082031 -0.058594,-0.09375 -0.058594,-0.140625 0,-0.1757813 0.2226563,-0.2109375 0.609375,-0.2109375 v -0.2695313 c -0.3164062,0.023437 -0.9375,0.023437 -1.2773437,0.023437 -0.3632813,0 -0.75000005,0 -1.1132813,-0.023437 v 0.2695313 h 0.15234375 c 0.5859375,0 0.65625,0.09375 0.79687505,0.3164062 l 1.7929687,2.9296875 v 1.67578129 c 0,0.3046875 -0.011719,0.3984375 -0.6796875,0.3984375 H 1.9557188 v 0.26953125 c 0.3046875,-0.0234375 0.9140625,-0.0234375 1.2539062,-0.0234375 0.328125,0 0.9375,0 1.2539063,0.0234375 V -0.26839531 H 4.2643125 c -0.6679687,0 -0.6914062,-0.0820313 -0.6914062,-0.421875 V -2.3426141 Z m 0,0"
           style="fill:#231f20;fill-opacity:1;fill-rule:nonzero;stroke:none"
           aria-label="Y"
           transform="matrix(1.3333333,0,0,1.3333333,641.408,107.17427)" />
        <path
           id="path131"
           d="M 0,0 H -11.796 V -11.01 H 0 V 0"
           style="fill:none;stroke:#231f20;stroke-width:0.343;stroke-linecap:round;stroke-linejoin:round;stroke-miterlimit:10;stroke-dasharray:none;stroke-opacity:1"
           transform="matrix(1.3333333,0,0,-1.3333333,653.70267,95.926667)" />
        <path
           id="path132"
           d="M 0,0 H -12.332"
           style="fill:none;stroke:#231f20;stroke-width:0.343;stroke-linecap:round;stroke-linejoin:round;stroke-miterlimit:10;stroke-dasharray:none;stroke-opacity:1"
           transform="matrix(1.3333333,0,0,-1.3333333,637.97467,103.26667)" />
        <path
           id="path133"
           d="M 0,0 H -18.122"
           style="fill:none;stroke:#231f20;stroke-width:0.343;stroke-linecap:round;stroke-linejoin:round;stroke-miterlimit:10;stroke-dasharray:none;stroke-opacity:1"
           transform="matrix(1.3333333,0,0,-1.3333333,677.86533,103.26667)" />
        <path
           id="path134"
           d="M 0,0 C 3.656,3.654 9.576,3.682 13.265,0.083"
           style="fill:none;stroke:#231f20;stroke-width:0.343;stroke-linecap:round;stroke-linejoin:round;stroke-miterlimit:10;stroke-dasharray:none;stroke-opacity:1"
           transform="matrix(1.3333333,0,0,-1.3333333,700.992,106.94933)" />
        <path
           id="path135"
           d="M 0,0 4.29,7.721"
           style="fill:none;stroke:#231f20;stroke-width:0.343;stroke-linecap:round;stroke-linejoin:round;stroke-miterlimit:10;stroke-dasharray:none;stroke-opacity:1"
           transform="matrix(1.3333333,0,0,-1.3333333,709.89067,107.84133)" />
        <path
           id="path136"
           d="M 0,0 H -15.442 V -12.01 H 0 V 0"
           style="fill:none;stroke:#231f20;stroke-width:0.343;stroke-linecap:round;stroke-linejoin:round;stroke-miterlimit:10;stroke-dasharray:none;stroke-opacity:1"
           transform="matrix(1.3333333,0,0,-1.3333333,720.188,95.258667)" />
        <path
           id="path137"
           d="M 0,0 H -16.3"
           style="fill:none;stroke:#231f20;stroke-width:0.343;stroke-linecap:round;stroke-linejoin:round;stroke-miterlimit:10;stroke-dasharray:none;stroke-opacity:1"
           transform="matrix(1.3333333,0,0,-1.3333333,699.59867,103.26533)" />
        <path
           id="path138"
           d="M 0,0 H -8.577"
           style="fill:none;stroke:#231f20;stroke-width:0.343;stroke-linecap:round;stroke-linejoin:round;stroke-miterlimit:10;stroke-dasharray:none;stroke-opacity:1"
           transform="matrix(1.3333333,0,0,-1.3333333,731.624,103.26533)" />
        <path
           id="path139"
           d="M 0,0 H -8.579"
           style="fill:none;stroke:#231f20;stroke-width:0.343;stroke-linecap:round;stroke-linejoin:round;stroke-miterlimit:10;stroke-dasharray:none;stroke-opacity:1"
           transform="matrix(1.3333333,0,0,-1.3333333,743.06267,103.26533)" />
        <path
           id="path140"
           d="m 3.8795391,-3.6913297 c 0,-0.035156 -0.023437,-0.09375 -0.082031,-0.09375 -0.1054687,0 -0.4453125,0.3398438 -0.5859375,0.5976563 -0.1875,-0.46875 -0.5273437,-0.609375 -0.796875,-0.609375 -1.0195312,0 -2.07421874,1.2773437 -2.07421874,2.5195312 0,0.84375001 0.50390625,1.37109376 1.13671874,1.37109376 0.3632813,0 0.703125,-0.2109375 1.0078125,-0.515625 -0.070312,0.3046875 -0.3515625,1.46484374 -0.3867187,1.53515624 -0.070312,0.2460938 -0.1289063,0.28125 -0.609375,0.28125 -0.1171875,0 -0.1992188,0 -0.1992188,0.1757813 0,0.011719 0,0.09375 0.1054688,0.09375 0.28125,0 0.5742187,-0.023437 0.8671875,-0.023437 0.28125,0 0.5976562,0.023437 0.8789062,0.023437 0.046875,0 0.1523438,0 0.1523438,-0.1757813 0,-0.09375 -0.082031,-0.09375 -0.2226563,-0.09375 -0.4101562,0 -0.4101562,-0.058594 -0.4101562,-0.1289062 0,-0.070312 0.011719,-0.1171875 0.035156,-0.1992188 z m -2.3789063,3.59765626 c -0.51562499,0 -0.55078124,-0.65625 -0.55078124,-0.80859375 0,-0.41015621 0.24609374,-1.34765621 0.39843754,-1.71093751 0.2695312,-0.6328125 0.7148437,-0.984375 1.0664062,-0.984375 0.5507813,0 0.6796875,0.6914063 0.6796875,0.75 0,0.046875 -0.4804687,1.93359376 -0.5039062,1.96875001 -0.1289063,0.234375 -0.609375,0.78515625 -1.0898438,0.78515625 z m 0,0"
           style="fill:#231f20;fill-opacity:1;fill-rule:nonzero;stroke:none"
           aria-label="q"
           transform="matrix(1.3333333,0,0,1.3333333,417.464,122.91787)" />
        <path
           id="path141"
           d="m 2.0162594,-3.8206031 c 0,-0.1523438 -0.023437,-0.1640625 -0.1875,-0.1640625 -0.3867188,0.375 -0.92578127,0.3867187 -1.17187502,0.3867187 v 0.2109375 c 0.140625,0 0.53906252,0 0.86718752,-0.1640625 v 3.05859377 c 0,0.19921875 0,0.28125 -0.59765627,0.28125 h -0.234375 V -2.90625e-4 C 0.80922813,-0.01200938 1.5475094,-0.02372813 1.7701656,-0.02372813 c 0.1757813,0 0.9375,0.01171875 1.0664063,0.023437505 V -0.21122813 H 2.6139156 c -0.5976562,0 -0.5976562,-0.0820313 -0.5976562,-0.28125 z m 0,0"
           style="fill:#231f20;fill-opacity:1;fill-rule:nonzero;stroke:none"
           aria-label="1"
           transform="matrix(1.3333333,0,0,1.3333333,422.56947,124.6332)" />
        <path
           id="path142"
           d="m 1.6525234,-3.2460172 c 0,-0.2460937 -0.2109375,-0.4453125 -0.4570312,-0.4453125 -0.24609376,0 -0.45703126,0.1992188 -0.45703126,0.4453125 0,0.2578125 0.2109375,0.4570313 0.45703126,0.4570313 0.2460937,0 0.4570312,-0.1992188 0.4570312,-0.4570313 z m 0,2.78906251 c 0,-0.24609375 -0.2109375,-0.45703125 -0.4570312,-0.45703125 -0.24609376,0 -0.45703126,0.2109375 -0.45703126,0.45703125 0,0.24609375 0.2109375,0.4570312525 0.45703126,0.4570312525 0.2460937,0 0.4570312,-0.2109375025 0.4570312,-0.4570312525 z M 23.086117,-3.2723844 c 0,-0.3046875 0.01172,-0.3984375 0.679688,-0.3984375 h 0.199218 v -0.2695312 c -0.304687,0.023437 -0.9375,0.023437 -1.253906,0.023437 -0.328125,0 -0.972656,0 -1.277344,-0.023437 v 0.2695312 h 0.210938 c 0.65625,0 0.679687,0.09375 0.679687,0.3984375 v 2.0039063 h -2.566406 v -2.0039063 c 0,-0.3046875 0.01172,-0.3984375 0.679688,-0.3984375 h 0.199218 v -0.2695312 c -0.304687,0.023437 -0.9375,0.023437 -1.265625,0.023437 -0.316406,0 -0.960937,0 -1.265625,-0.023437 v 0.2695312 h 0.210938 c 0.65625,0 0.679687,0.09375 0.679687,0.3984375 v 4.5234375 c 0,0.3046875 -0.02344,0.3984375 -0.679687,0.3984375 h -0.210938 v 0.2695313 c 0.304688,-0.023437 0.9375,-0.023437 1.265625,-0.023437 0.328125,0 0.960938,0 1.265625,0.023437 V 1.6494906 H 20.43768 c -0.667969,0 -0.679688,-0.09375 -0.679688,-0.3984375 v -2.24999998 h 2.566406 V 1.2510531 c 0,0.3046875 -0.02344,0.3984375 -0.679687,0.3984375 h -0.210938 v 0.2695313 c 0.304688,-0.023437 0.9375,-0.023437 1.265625,-0.023437 0.328125,0 0.960938,0 1.265625,0.023437 V 1.6494906 h -0.199218 c -0.667969,0 -0.679688,-0.09375 -0.679688,-0.3984375 z m 0,0"
           style="fill:#231f20;fill-opacity:1;fill-rule:nonzero;stroke:none"
           aria-label=":&#10;H"
           transform="matrix(1.3333333,0,0,1.3333333,430.87867,122.91787)" />
        <path
           id="path143"
           d="M 0,0 H -11.582 V -11.009 H 0 V 0"
           style="fill:none;stroke:#231f20;stroke-width:0.343;stroke-linecap:round;stroke-linejoin:round;stroke-miterlimit:10;stroke-dasharray:none;stroke-opacity:1"
           transform="matrix(1.3333333,0,0,-1.3333333,466.65333,114.228)" />
        <path
           id="path144"
           d="M 0,0 H -8.578"
           style="fill:none;stroke:#231f20;stroke-width:0.343;stroke-linecap:round;stroke-linejoin:round;stroke-miterlimit:10;stroke-dasharray:none;stroke-opacity:1"
           transform="matrix(1.3333333,0,0,-1.3333333,451.21067,121.56533)" />
        <path
           id="path145"
           d="m 3.5860359,-2.1453953 1.7109375,-1.7109375 c 0.09375,-0.09375 0.1054688,-0.1171875 0.1054688,-0.1875 0,-0.09375 -0.070312,-0.1640625 -0.1640625,-0.1640625 -0.070312,0 -0.1054688,0.035156 -0.1875,0.1054687 L 3.3399422,-2.3797703 1.6172859,-4.1024266 c -0.09375,-0.09375 -0.1171875,-0.1054687 -0.1875,-0.1054687 -0.082031,0 -0.1640625,0.070312 -0.1640625,0.1640625 0,0.070312 0.035156,0.1054687 0.1054688,0.1875 l 1.7109375,1.7109375 -1.7109375,1.71093749 c -0.082031,0.0820313 -0.1054688,0.12890625 -0.1054688,0.1875 0,0.09375 0.082031,0.1640625 0.1640625,0.1640625 0.070312,0 0.09375,-0.01171875 0.1875,-0.10546875 l 1.7109375,-1.72265624 1.7109375,1.72265624 c 0.09375,0.0820313 0.140625,0.10546875 0.1992188,0.10546875 0.09375,0 0.1640625,-0.0703125 0.1640625,-0.1640625 0,-0.0703125 -0.011719,-0.09375 -0.1054688,-0.1875 z m 0,0"
           style="fill:#231f20;fill-opacity:1;fill-rule:nonzero;stroke:none"
           aria-label="×"
           transform="matrix(1.3333333,0,0,1.3333333,473.6444,124.42693)" />
        <path
           id="path146"
           d="M 0,0 H -8.579"
           style="fill:none;stroke:#231f20;stroke-width:0.343;stroke-linecap:round;stroke-linejoin:round;stroke-miterlimit:10;stroke-dasharray:none;stroke-opacity:1"
           transform="matrix(1.3333333,0,0,-1.3333333,478.092,121.56667)" />
        <path
           id="path147"
           d="M 0,0 V 13.725"
           style="fill:none;stroke:#231f20;stroke-width:0.343;stroke-linecap:round;stroke-linejoin:round;stroke-miterlimit:10;stroke-dasharray:none;stroke-opacity:1"
           transform="matrix(1.3333333,0,0,-1.3333333,478.092,121.56667)" />
        <path
           id="path148"
           d="M 0,0 H -12.096"
           style="fill:none;stroke:#231f20;stroke-width:0.343;stroke-linecap:round;stroke-linejoin:round;stroke-miterlimit:10;stroke-dasharray:none;stroke-opacity:1"
           transform="matrix(1.3333333,0,0,-1.3333333,494.22,121.56667)" />
        <path
           id="path149"
           d="M 0,0 H -15.613"
           style="fill:none;stroke:#231f20;stroke-width:0.343;stroke-linecap:round;stroke-linejoin:round;stroke-miterlimit:10;stroke-dasharray:none;stroke-opacity:1"
           transform="matrix(1.3333333,0,0,-1.3333333,515.03733,121.56667)" />
        <path
           id="path150"
           d="M 0,0 H -15.613"
           style="fill:none;stroke:#231f20;stroke-width:0.343;stroke-linecap:round;stroke-linejoin:round;stroke-miterlimit:10;stroke-dasharray:none;stroke-opacity:1"
           transform="matrix(1.3333333,0,0,-1.3333333,535.85467,121.56667)" />
        <path
           id="path151"
           d="m 3.7957266,-2.1443328 c 0,-0.9140625 -0.75,-1.6640625 -1.6523438,-1.6640625 -0.9375,0 -1.66406249,0.7617187 -1.66406249,1.6640625 0,0.9140625 0.74999999,1.66406249 1.65234379,1.66406249 0.9375,0 1.6640625,-0.76171879 1.6640625,-1.66406249 z m 0,0"
           style="fill:#231f20;fill-opacity:1;fill-rule:nonzero;stroke:none"
           aria-label="•"
           transform="matrix(1.3333333,0,0,1.3333333,555.732,124.39427)" />
        <path
           id="path152"
           d="M 0,0 V 9.279"
           style="fill:none;stroke:#231f20;stroke-width:0.343;stroke-linecap:round;stroke-linejoin:round;stroke-miterlimit:10;stroke-dasharray:none;stroke-opacity:1"
           transform="matrix(1.3333333,0,0,-1.3333333,558.59067,120.328)" />
        <path
           id="path153"
           d="M 0,0 H -16.005"
           style="fill:none;stroke:#231f20;stroke-width:0.343;stroke-linecap:round;stroke-linejoin:round;stroke-miterlimit:10;stroke-dasharray:none;stroke-opacity:1"
           transform="matrix(1.3333333,0,0,-1.3333333,557.19333,121.56667)" />
        <path
           id="path154"
           d="M 2.9889766,-3.3270031 1.8991328,-3.5965344 C 1.3600703,-3.7254406 1.0319453,-4.1824719 1.0319453,-4.6863781 c 0,-0.5976563 0.4570313,-1.125 1.125,-1.125 1.4414063,0 1.6289063,1.40625 1.6757813,1.7929687 0.011719,0.058594 0.011719,0.1054688 0.1054687,0.1054688 0.1171875,0 0.1171875,-0.035156 0.1171875,-0.1992188 v -1.7226562 c 0,-0.1523438 0,-0.2109375 -0.1054687,-0.2109375 -0.058594,0 -0.058594,0.011719 -0.1289063,0.1054687 l -0.2929687,0.4921875 c -0.2578125,-0.2460937 -0.609375,-0.5976562 -1.3710938,-0.5976562 -0.9609375,0 -1.67578124,0.75 -1.67578124,1.6640625 0,0.7148437 0.45703125,1.3359375 1.12500004,1.5703125 0.09375,0.035156 0.5273437,0.140625 1.1367187,0.28125 0.2226563,0.058594 0.4804688,0.1171875 0.7265625,0.4335937 0.1757813,0.2226563 0.2578125,0.515625 0.2578125,0.796875 0,0.60937503 -0.421875,1.21875003 -1.1484375,1.21875003 -0.2460937,0 -0.9023437,-0.03515625 -1.3476562,-0.45703125 C 0.72725781,-1.0066906 0.70382031,-1.5457531 0.69210156,-1.8621594 c 0,-0.082031 -0.0703125,-0.082031 -0.09375,-0.082031 -0.1171875,0 -0.1171875,0.058594 -0.1171875,0.2109375 v 1.72265623 c 0,0.140625 0,0.19921875 0.09375,0.19921875 0.0585938,0 0.0703125,-0.0117188 0.12890625,-0.10546875 0,-0.01171875 0.0234375,-0.03515625 0.30468749,-0.4921875 0.2695313,0.29296875 0.8203125,0.59765625 1.5820313,0.59765625 1.0078125,0 1.6875,-0.84375 1.6875,-1.78124998 0,-0.8554688 -0.5625,-1.5585938 -1.2890625,-1.7343752 z m 0,0"
           style="fill:#231f20;fill-opacity:1;fill-rule:nonzero;stroke:none"
           aria-label="S"
           transform="matrix(1.3333333,0,0,1.3333333,581.18267,125.47507)" />
        <path
           id="path155"
           d="M 0,0 H -9.913 V -11.009 H 0 V 0"
           style="fill:none;stroke:#231f20;stroke-width:0.343;stroke-linecap:round;stroke-linejoin:round;stroke-miterlimit:10;stroke-dasharray:none;stroke-opacity:1"
           transform="matrix(1.3333333,0,0,-1.3333333,590.96667,114.228)" />
        <path
           id="path156"
           d="M 0,0 H -13.321"
           style="fill:none;stroke:#231f20;stroke-width:0.343;stroke-linecap:round;stroke-linejoin:round;stroke-miterlimit:10;stroke-dasharray:none;stroke-opacity:1"
           transform="matrix(1.3333333,0,0,-1.3333333,577.74933,121.56533)" />
        <path
           id="path157"
           d="m 5.2622969,-5.1902844 c 0,-0.3046875 0.011719,-0.3984375 0.6796875,-0.3984375 h 0.1992187 v -0.2695312 c -0.3046875,0.023437 -0.9375,0.023437 -1.2539062,0.023437 -0.328125,0 -0.9726563,0 -1.2773438,-0.023437 v 0.2695312 h 0.2109375 c 0.65625,0 0.6796875,0.09375 0.6796875,0.3984375 v 2.0039063 H 1.9341719 v -2.0039063 c 0,-0.3046875 0.011719,-0.3984375 0.6796875,-0.3984375 h 0.1992187 v -0.2695312 c -0.3046875,0.023437 -0.9375,0.023437 -1.265625,0.023437 -0.3164062,0 -0.96093748,0 -1.26562498,-0.023437 v 0.2695312 h 0.2109375 c 0.65624998,0 0.67968748,0.09375 0.67968748,0.3984375 v 4.52343753 c 0,0.3046875 -0.023437,0.3984375 -0.67968748,0.3984375 h -0.2109375 v 0.26953125 c 0.3046875,-0.0234375 0.93749998,-0.0234375 1.26562498,-0.0234375 0.328125,0 0.9609375,0 1.265625,0.0234375 V -0.26840937 H 2.6138594 c -0.6679688,0 -0.6796875,-0.09375 -0.6796875,-0.3984375 V -2.9168469 h 2.5664062 v 2.25000003 c 0,0.3046875 -0.023437,0.3984375 -0.6796875,0.3984375 H 3.6099531 v 0.26953125 c 0.3046875,-0.0234375 0.9375,-0.0234375 1.265625,-0.0234375 0.328125,0 0.9609375,0 1.265625,0.0234375 V -0.26840937 H 5.9419844 c -0.6679688,0 -0.6796875,-0.09375 -0.6796875,-0.3984375 z m 0,0"
           style="fill:#231f20;fill-opacity:1;fill-rule:nonzero;stroke:none"
           aria-label="H"
           transform="matrix(1.3333333,0,0,1.3333333,609.52267,125.47507)" />
        <path
           id="path158"
           d="M 0,0 H -11.581 V -11.009 H 0 V 0"
           style="fill:none;stroke:#231f20;stroke-width:0.343;stroke-linecap:round;stroke-linejoin:round;stroke-miterlimit:10;stroke-dasharray:none;stroke-opacity:1"
           transform="matrix(1.3333333,0,0,-1.3333333,621.532,114.228)" />
        <path
           id="path159"
           d="M 0,0 H -11.343"
           style="fill:none;stroke:#231f20;stroke-width:0.343;stroke-linecap:round;stroke-linejoin:round;stroke-miterlimit:10;stroke-dasharray:none;stroke-opacity:1"
           transform="matrix(1.3333333,0,0,-1.3333333,606.09067,121.56533)" />
        <path
           id="path160"
           d="M 0,0 H -18.229"
           style="fill:none;stroke:#231f20;stroke-width:0.343;stroke-linecap:round;stroke-linejoin:round;stroke-miterlimit:10;stroke-dasharray:none;stroke-opacity:1"
           transform="matrix(1.3333333,0,0,-1.3333333,645.83733,121.56533)" />
        <path
           id="path161"
           d="M 0,0 C 3.655,3.654 9.575,3.682 13.265,0.083"
           style="fill:none;stroke:#231f20;stroke-width:0.343;stroke-linecap:round;stroke-linejoin:round;stroke-miterlimit:10;stroke-dasharray:none;stroke-opacity:1"
           transform="matrix(1.3333333,0,0,-1.3333333,668.96667,125.24933)" />
        <path
           id="path162"
           d="M 0,0 4.289,7.721"
           style="fill:none;stroke:#231f20;stroke-width:0.343;stroke-linecap:round;stroke-linejoin:round;stroke-miterlimit:10;stroke-dasharray:none;stroke-opacity:1"
           transform="matrix(1.3333333,0,0,-1.3333333,677.86533,126.14133)" />
        <path
           id="path163"
           d="M 0,0 H -15.441 V -12.01 H 0 V 0"
           style="fill:none;stroke:#231f20;stroke-width:0.343;stroke-linecap:round;stroke-linejoin:round;stroke-miterlimit:10;stroke-dasharray:none;stroke-opacity:1"
           transform="matrix(1.3333333,0,0,-1.3333333,688.15867,113.55867)" />
        <path
           id="path164"
           d="M 0,0 H -16.3"
           style="fill:none;stroke:#231f20;stroke-width:0.343;stroke-linecap:round;stroke-linejoin:round;stroke-miterlimit:10;stroke-dasharray:none;stroke-opacity:1"
           transform="matrix(1.3333333,0,0,-1.3333333,667.57067,121.564)" />
        <path
           id="path165"
           d="M 0,0 H -16.299"
           style="fill:none;stroke:#231f20;stroke-width:0.343;stroke-linecap:round;stroke-linejoin:round;stroke-miterlimit:10;stroke-dasharray:none;stroke-opacity:1"
           transform="matrix(1.3333333,0,0,-1.3333333,709.89067,121.564)" />
        <path
           id="path166"
           d="M 0,0 H -16.3"
           style="fill:none;stroke:#231f20;stroke-width:0.343;stroke-linecap:round;stroke-linejoin:round;stroke-miterlimit:10;stroke-dasharray:none;stroke-opacity:1"
           transform="matrix(1.3333333,0,0,-1.3333333,731.624,121.564)" />
        <path
           id="path167"
           d="M 0,0 H -8.579"
           style="fill:none;stroke:#231f20;stroke-width:0.343;stroke-linecap:round;stroke-linejoin:round;stroke-miterlimit:10;stroke-dasharray:none;stroke-opacity:1"
           transform="matrix(1.3333333,0,0,-1.3333333,743.06267,121.564)" />
        <path
           id="path168"
           d="m 3.8795391,-3.6912438 c 0,-0.035156 -0.023437,-0.09375 -0.082031,-0.09375 -0.1054687,0 -0.4453125,0.3398438 -0.5859375,0.5976563 -0.1875,-0.46875 -0.5273437,-0.609375 -0.796875,-0.609375 -1.0195312,0 -2.07421874,1.2773437 -2.07421874,2.5195312 0,0.84375005 0.50390625,1.3710938 1.13671874,1.3710938 0.3632813,0 0.703125,-0.2109375 1.0078125,-0.515625 -0.070312,0.3046875 -0.3515625,1.4648437 -0.3867187,1.5351562 -0.070312,0.2460938 -0.1289063,0.28125 -0.609375,0.28125 -0.1171875,0 -0.1992188,0 -0.1992188,0.1757813 0,0.011719 0,0.09375 0.1054688,0.09375 0.28125,0 0.5742187,-0.023437 0.8671875,-0.023437 0.28125,0 0.5976562,0.023437 0.8789062,0.023437 0.046875,0 0.1523438,0 0.1523438,-0.1757813 0,-0.09375 -0.082031,-0.09375 -0.2226563,-0.09375 -0.4101562,0 -0.4101562,-0.058594 -0.4101562,-0.1289062 0,-0.070312 0.011719,-0.1171875 0.035156,-0.1992188 z m -2.3789063,3.5976563 c -0.51562499,0 -0.55078124,-0.65625 -0.55078124,-0.80859375 0,-0.41015625 0.24609374,-1.34765625 0.39843754,-1.71093755 0.2695312,-0.6328125 0.7148437,-0.984375 1.0664062,-0.984375 0.5507813,0 0.6796875,0.6914063 0.6796875,0.75 0,0.046875 -0.4804687,1.9335938 -0.5039062,1.96875005 -0.1289063,0.234375 -0.609375,0.78515625 -1.0898438,0.78515625 z m 0,0"
           style="fill:#231f20;fill-opacity:1;fill-rule:nonzero;stroke:none"
           aria-label="q"
           transform="matrix(1.3333333,0,0,1.3333333,417.464,141.21853)" />
        <path
           id="path169"
           d="M 3.0357906,-1.0892484 H 2.8248531 c -0.011719,0.12890621 -0.082031,0.48046871 -0.1523437,0.53906246 -0.046875,0.0351563 -0.515625,0.0351563 -0.5976563,0.0351563 H 0.97329063 C 1.6061031,-1.0658109 1.8170406,-1.2298734 2.1686031,-1.5228422 c 0.4453125,-0.3515625 0.8671875,-0.7148437 0.8671875,-1.2890625 0,-0.7265625 -0.6445312,-1.171875 -1.40625,-1.171875 -0.74999997,0 -1.25390622,0.5273438 -1.25390622,1.078125 0,0.3046875 0.2578125,0.328125 0.31640625,0.328125 0.15234375,0 0.32812497,-0.09375 0.32812497,-0.3164062 0,-0.1054688 -0.046875,-0.3164063 -0.36328122,-0.3164063 0.1875,-0.421875 0.59765622,-0.5625 0.87890622,-0.5625 0.5976563,0 0.9140625,0.46875 0.9140625,0.9609375 0,0.515625 -0.375,0.9375 -0.5625,1.1484375 l -1.45312497,1.42968751 c -0.0585938,0.0585938 -0.0585938,0.0703125 -0.0585938,0.2343750025 H 2.8482906 Z m 0,0"
           style="fill:#231f20;fill-opacity:1;fill-rule:nonzero;stroke:none"
           aria-label="2"
           transform="matrix(1.3333333,0,0,1.3333333,422.56947,142.9328)" />
        <g
           id="g169"
           aria-label=":&#10;×"
           transform="matrix(1.3333333,0,0,1.3333333,430.87867,141.21853)">
          <path
             id="path170"
             d="m 1.6525234,-3.2459313 c 0,-0.2460937 -0.2109375,-0.4453125 -0.4570312,-0.4453125 -0.24609376,0 -0.45703126,0.1992188 -0.45703126,0.4453125 0,0.2578125 0.2109375,0.4570313 0.45703126,0.4570313 0.2460937,0 0.4570312,-0.1992188 0.4570312,-0.4570313 z m 0,2.78906255 C 1.6525234,-0.7029625 1.4415859,-0.9139 1.1954922,-0.9139 c -0.24609376,0 -0.45703126,0.2109375 -0.45703126,0.45703125 0,0.24609375 0.2109375,0.45703125 0.45703126,0.45703125 0.2460937,0 0.4570312,-0.2109375 0.4570312,-0.45703125 z m 0,0"
             style="fill:#231f20;fill-opacity:1;fill-rule:nonzero;stroke:none" />
          <path
             id="path171"
             d="m 21.290219,-1.0135094 1.710937,-1.7109375 c 0.09375,-0.09375 0.105469,-0.1171875 0.105469,-0.1875 0,-0.09375 -0.07031,-0.1640625 -0.164063,-0.1640625 -0.07031,0 -0.105468,0.035156 -0.1875,0.1054688 l -1.710937,1.7226562 -1.722656,-1.7226562 c -0.09375,-0.09375 -0.117188,-0.1054688 -0.1875,-0.1054688 -0.08203,0 -0.164063,0.070312 -0.164063,0.1640625 0,0.070312 0.03516,0.1054688 0.105469,0.1875 l 1.710937,1.7109375 -1.710937,1.71093752 c -0.08203,0.0820313 -0.105469,0.12890625 -0.105469,0.1875 0,0.09375 0.08203,0.16406248 0.164063,0.16406248 0.07031,0 0.09375,-0.011719 0.1875,-0.10546873 l 1.710937,-1.72265625 1.710938,1.72265625 c 0.09375,0.0820312 0.140625,0.10546873 0.199218,0.10546873 0.09375,0 0.164063,-0.0703125 0.164063,-0.16406248 0,-0.0703125 -0.01172,-0.09375 -0.105469,-0.1875 z m 0,0"
             style="fill:#231f20;fill-opacity:1;fill-rule:nonzero;stroke:none" />
        </g>
        <path
           id="path172"
           d="M 0,0 H -14.369"
           style="fill:none;stroke:#231f20;stroke-width:0.343;stroke-linecap:round;stroke-linejoin:round;stroke-miterlimit:10;stroke-dasharray:none;stroke-opacity:1"
           transform="matrix(1.3333333,0,0,-1.3333333,458.93333,139.868)" />
        <path
           id="path173"
           d="M 0,0 H -14.37"
           style="fill:none;stroke:#231f20;stroke-width:0.343;stroke-linecap:round;stroke-linejoin:round;stroke-miterlimit:10;stroke-dasharray:none;stroke-opacity:1"
           transform="matrix(1.3333333,0,0,-1.3333333,478.09333,139.868)" />
        <path
           id="path174"
           d="M 0,0 H -12.096"
           style="fill:none;stroke:#231f20;stroke-width:0.343;stroke-linecap:round;stroke-linejoin:round;stroke-miterlimit:10;stroke-dasharray:none;stroke-opacity:1"
           transform="matrix(1.3333333,0,0,-1.3333333,494.22133,139.868)" />
        <path
           id="path175"
           d="M 0,0 H 6.69"
           style="fill:none;stroke:#231f20;stroke-width:0.343;stroke-linecap:round;stroke-linejoin:round;stroke-miterlimit:10;stroke-dasharray:none;stroke-opacity:1"
           transform="matrix(1.3333333,0,0,-1.3333333,510.57867,139.86933)" />
        <path
           id="path176"
           d="M 0,0 V 6.691"
           style="fill:none;stroke:#231f20;stroke-width:0.343;stroke-linecap:round;stroke-linejoin:round;stroke-miterlimit:10;stroke-dasharray:none;stroke-opacity:1"
           transform="matrix(1.3333333,0,0,-1.3333333,515.03867,144.33067)" />
        <path
           id="path177"
           d="m 0,0 c -1.894,0 -3.431,-1.538 -3.431,-3.432 0,-1.893 1.537,-3.431 3.431,-3.431 1.893,0 3.431,1.538 3.431,3.431 C 3.431,-1.538 1.893,0 0,0"
           style="fill:none;stroke:#231f20;stroke-width:0.343;stroke-linecap:round;stroke-linejoin:round;stroke-miterlimit:10;stroke-dasharray:none;stroke-opacity:1"
           transform="matrix(1.3333333,0,0,-1.3333333,515.03867,135.29467)" />
        <path
           id="path178"
           d="M 0,0 H -12.095"
           style="fill:none;stroke:#231f20;stroke-width:0.343;stroke-linecap:round;stroke-linejoin:round;stroke-miterlimit:10;stroke-dasharray:none;stroke-opacity:1"
           transform="matrix(1.3333333,0,0,-1.3333333,510.348,139.86933)" />
        <path
           id="path179"
           d="M 0,0 H -12.095"
           style="fill:none;stroke:#231f20;stroke-width:0.343;stroke-linecap:round;stroke-linejoin:round;stroke-miterlimit:10;stroke-dasharray:none;stroke-opacity:1"
           transform="matrix(1.3333333,0,0,-1.3333333,535.85467,139.86933)" />
        <path
           id="path180"
           d="M 2.9888281,-3.3275172 1.8989844,-3.5970484 C 1.3599219,-3.7259547 1.0317969,-4.1829859 1.0317969,-4.6868922 c 0,-0.5976562 0.4570312,-1.125 1.125,-1.125 1.4414062,0 1.6289062,1.40625 1.6757812,1.7929688 0.011719,0.058594 0.011719,0.1054687 0.1054688,0.1054687 0.1171875,0 0.1171875,-0.035156 0.1171875,-0.1992187 v -1.7226563 c 0,-0.1523437 0,-0.2109375 -0.1054688,-0.2109375 -0.058594,0 -0.058594,0.011719 -0.1289062,0.1054688 l -0.2929688,0.4921875 c -0.2578125,-0.2460938 -0.609375,-0.5976563 -1.3710937,-0.5976563 -0.9609375,0 -1.67578127,0.75 -1.67578127,1.6640625 0,0.7148438 0.45703125,1.3359375 1.12499997,1.5703125 0.09375,0.035156 0.5273438,0.140625 1.1367188,0.28125 0.2226562,0.058594 0.4804687,0.1171875 0.7265625,0.4335938 0.1757812,0.2226562 0.2578125,0.515625 0.2578125,0.796875 0,0.60937496 -0.421875,1.21874996 -1.1484375,1.21874996 -0.2460938,0 -0.9023438,-0.03515625 -1.3476563,-0.45703125 C 0.72710938,-1.0072047 0.70367188,-1.5462672 0.69195313,-1.8626734 c 0,-0.082031 -0.0703125,-0.082031 -0.09375,-0.082031 -0.1171875,0 -0.1171875,0.058594 -0.1171875,0.2109375 v 1.72265626 c 0,0.140625 0,0.19921875 0.09375,0.19921875 0.0585938,0 0.0703125,-0.0117188 0.12890625,-0.10546875 0,-0.01171875 0.0234375,-0.03515625 0.30468752,-0.4921875 0.2695312,0.29296875 0.8203125,0.59765625 1.5820312,0.59765625 1.0078125,0 1.6875,-0.84375 1.6875,-1.78125001 0,-0.8554687 -0.5625,-1.5585937 -1.2890625,-1.7343753 z m 0,0"
           style="fill:#231f20;fill-opacity:1;fill-rule:nonzero;stroke:none"
           aria-label="S"
           transform="matrix(1.3333333,0,0,1.3333333,555.41333,143.77653)" />
        <path
           id="path181"
           d="M 0,0 H -9.914 V -11.009 H 0 V 0"
           style="fill:none;stroke:#231f20;stroke-width:0.343;stroke-linecap:round;stroke-linejoin:round;stroke-miterlimit:10;stroke-dasharray:none;stroke-opacity:1"
           transform="matrix(1.3333333,0,0,-1.3333333,565.2,132.52933)" />
        <path
           id="path182"
           d="M 0,0 H -12.095"
           style="fill:none;stroke:#231f20;stroke-width:0.343;stroke-linecap:round;stroke-linejoin:round;stroke-miterlimit:10;stroke-dasharray:none;stroke-opacity:1"
           transform="matrix(1.3333333,0,0,-1.3333333,551.98133,139.868)" />
        <path
           id="path183"
           d="m 5.2624531,-5.1907984 c 0,-0.3046875 0.011719,-0.3984375 0.6796875,-0.3984375 h 0.1992188 v -0.2695313 c -0.3046875,0.023437 -0.9375,0.023437 -1.2539063,0.023437 -0.328125,0 -0.9726562,0 -1.2773437,-0.023437 v 0.2695313 h 0.2109375 c 0.65625,0 0.6796875,0.09375 0.6796875,0.3984375 v 2.0039062 H 1.9343281 v -2.0039062 c 0,-0.3046875 0.011719,-0.3984375 0.6796875,-0.3984375 h 0.1992188 v -0.2695313 c -0.3046875,0.023437 -0.9375,0.023437 -1.265625,0.023437 -0.3164063,0 -0.96093753,0 -1.26562503,-0.023437 v 0.2695313 h 0.2109375 c 0.65625003,0 0.67968753,0.09375 0.67968753,0.3984375 v 4.52343746 c 0,0.3046875 -0.023437,0.3984375 -0.67968753,0.3984375 H 0.28198437 V 6.078125e-4 C 0.58667187,-0.02282969 1.2194844,-0.02282969 1.5476094,-0.02282969 c 0.328125,0 0.9609375,0 1.265625,0.0234375025 V -0.26892344 H 2.6140156 c -0.6679687,0 -0.6796875,-0.09375 -0.6796875,-0.3984375 V -2.9173609 h 2.5664063 v 2.24999996 c 0,0.3046875 -0.023437,0.3984375 -0.6796875,0.3984375 H 3.6101094 V 6.078125e-4 c 0.3046875,-0.0234375025 0.9375,-0.0234375025 1.265625,-0.0234375025 0.328125,0 0.9609375,0 1.265625,0.0234375025 V -0.26892344 H 5.9421406 c -0.6679687,0 -0.6796875,-0.09375 -0.6796875,-0.3984375 z m 0,0"
           style="fill:#231f20;fill-opacity:1;fill-rule:nonzero;stroke:none"
           aria-label="H"
           transform="matrix(1.3333333,0,0,1.3333333,580.06933,143.77653)" />
        <path
           id="path184"
           d="M 0,0 H -11.582 V -11.009 H 0 V 0"
           style="fill:none;stroke:#231f20;stroke-width:0.343;stroke-linecap:round;stroke-linejoin:round;stroke-miterlimit:10;stroke-dasharray:none;stroke-opacity:1"
           transform="matrix(1.3333333,0,0,-1.3333333,592.08,132.52933)" />
        <path
           id="path185"
           d="M 0,0 H -8.578"
           style="fill:none;stroke:#231f20;stroke-width:0.343;stroke-linecap:round;stroke-linejoin:round;stroke-miterlimit:10;stroke-dasharray:none;stroke-opacity:1"
           transform="matrix(1.3333333,0,0,-1.3333333,576.63733,139.868)" />
        <path
           id="path186"
           d="m 5.2374609,-5.0384547 c 0.3164063,-0.515625 0.8203125,-0.5507812 1.0898438,-0.5507812 v -0.2695313 c -0.2578125,0.023437 -0.609375,0.023437 -0.84375,0.023437 -0.2578125,0 -0.7617188,-0.011719 -0.984375,-0.023437 v 0.2695313 c 0.3515625,0 0.4921875,0.1640625 0.4921875,0.328125 0,0.09375 -0.046875,0.2109375 -0.082031,0.2578125 l -1.4179687,2.296875 -1.5585938,-2.53125 c -0.058594,-0.082031 -0.058594,-0.09375 -0.058594,-0.140625 0,-0.1757813 0.2226562,-0.2109375 0.609375,-0.2109375 v -0.2695313 c -0.3164063,0.023437 -0.9375,0.023437 -1.2773438,0.023437 -0.36328121,0 -0.74999996,0 -1.11328121,-0.023437 v 0.2695313 h 0.15234375 c 0.5859375,0 0.65625,0.09375 0.79687496,0.3164062 l 1.7929688,2.9296875 v 1.67578126 c 0,0.3046875 -0.011719,0.3984375 -0.6796875,0.3984375 H 1.9562109 V 6.078125e-4 C 2.2608984,-0.02282969 2.8702734,-0.02282969 3.2101172,-0.02282969 c 0.328125,0 0.9375,0 1.2539062,0.0234375025 V -0.26892344 H 4.2648047 c -0.6679688,0 -0.6914063,-0.0820313 -0.6914063,-0.421875 V -2.3431422 Z m 0,0"
           style="fill:#231f20;fill-opacity:1;fill-rule:nonzero;stroke:none"
           aria-label="Y"
           transform="matrix(1.3333333,0,0,1.3333333,609.38,143.77653)" />
        <path
           id="path187"
           d="M 0,0 H -11.795 V -11.009 H 0 V 0"
           style="fill:none;stroke:#231f20;stroke-width:0.343;stroke-linecap:round;stroke-linejoin:round;stroke-miterlimit:10;stroke-dasharray:none;stroke-opacity:1"
           transform="matrix(1.3333333,0,0,-1.3333333,621.67467,132.52933)" />
        <path
           id="path188"
           d="M 0,0 H -10.401"
           style="fill:none;stroke:#231f20;stroke-width:0.343;stroke-linecap:round;stroke-linejoin:round;stroke-miterlimit:10;stroke-dasharray:none;stroke-opacity:1"
           transform="matrix(1.3333333,0,0,-1.3333333,605.948,139.868)" />
        <path
           id="path189"
           d="M 0,0 C 3.656,3.654 9.576,3.682 13.264,0.083"
           style="fill:none;stroke:#231f20;stroke-width:0.343;stroke-linecap:round;stroke-linejoin:round;stroke-miterlimit:10;stroke-dasharray:none;stroke-opacity:1"
           transform="matrix(1.3333333,0,0,-1.3333333,636.93867,143.552)" />
        <path
           id="path190"
           d="M 0,0 4.289,7.721"
           style="fill:none;stroke:#231f20;stroke-width:0.343;stroke-linecap:round;stroke-linejoin:round;stroke-miterlimit:10;stroke-dasharray:none;stroke-opacity:1"
           transform="matrix(1.3333333,0,0,-1.3333333,645.83733,144.44533)" />
        <path
           id="path191"
           d="M 0,0 H -15.442 V -12.009 H 0 V 0"
           style="fill:none;stroke:#231f20;stroke-width:0.343;stroke-linecap:round;stroke-linejoin:round;stroke-miterlimit:10;stroke-dasharray:none;stroke-opacity:1"
           transform="matrix(1.3333333,0,0,-1.3333333,656.13333,131.86267)" />
        <path
           id="path192"
           d="M 0,0 H -10.402"
           style="fill:none;stroke:#231f20;stroke-width:0.343;stroke-linecap:round;stroke-linejoin:round;stroke-miterlimit:10;stroke-dasharray:none;stroke-opacity:1"
           transform="matrix(1.3333333,0,0,-1.3333333,635.544,139.868)" />
        <path
           id="path193"
           d="M 0,0 H -16.299"
           style="fill:none;stroke:#231f20;stroke-width:0.343;stroke-linecap:round;stroke-linejoin:round;stroke-miterlimit:10;stroke-dasharray:none;stroke-opacity:1"
           transform="matrix(1.3333333,0,0,-1.3333333,677.86533,139.868)" />
        <path
           id="path194"
           d="M 0,0 H -24.019"
           style="fill:none;stroke:#231f20;stroke-width:0.343;stroke-linecap:round;stroke-linejoin:round;stroke-miterlimit:10;stroke-dasharray:none;stroke-opacity:1"
           transform="matrix(1.3333333,0,0,-1.3333333,709.89067,139.868)" />
        <path
           id="path195"
           d="M 0,0 H -16.3"
           style="fill:none;stroke:#231f20;stroke-width:0.343;stroke-linecap:round;stroke-linejoin:round;stroke-miterlimit:10;stroke-dasharray:none;stroke-opacity:1"
           transform="matrix(1.3333333,0,0,-1.3333333,731.624,139.868)" />
        <path
           id="path196"
           d="M 0,0 H -8.579"
           style="fill:none;stroke:#231f20;stroke-width:0.343;stroke-linecap:round;stroke-linejoin:round;stroke-miterlimit:10;stroke-dasharray:none;stroke-opacity:1"
           transform="matrix(1.3333333,0,0,-1.3333333,743.06267,139.868)" />
        <path
           id="path197"
           d="m 3.8795391,-3.6907578 c 0,-0.035156 -0.023437,-0.09375 -0.082031,-0.09375 -0.1054687,0 -0.4453125,0.3398437 -0.5859375,0.5976562 -0.1875,-0.46875 -0.5273437,-0.609375 -0.796875,-0.609375 -1.0195312,0 -2.07421874,1.2773438 -2.07421874,2.5195313 0,0.84374999 0.50390625,1.37109374 1.13671874,1.37109374 0.3632813,0 0.703125,-0.2109375 1.0078125,-0.515625 -0.070312,0.3046875 -0.3515625,1.46484376 -0.3867187,1.53515626 -0.070312,0.2460937 -0.1289063,0.28125 -0.609375,0.28125 -0.1171875,0 -0.1992188,0 -0.1992188,0.1757812 0,0.011719 0,0.09375 0.1054688,0.09375 0.28125,0 0.5742187,-0.023437 0.8671875,-0.023437 0.28125,0 0.5976562,0.023437 0.8789062,0.023437 0.046875,0 0.1523438,0 0.1523438,-0.1757812 0,-0.09375 -0.082031,-0.09375 -0.2226563,-0.09375 -0.4101562,0 -0.4101562,-0.058594 -0.4101562,-0.1289063 0,-0.070312 0.011719,-0.1171875 0.035156,-0.1992187 z m -2.3789063,3.59765624 c -0.51562499,0 -0.55078124,-0.65625 -0.55078124,-0.80859375 0,-0.41015629 0.24609374,-1.34765629 0.39843754,-1.71093749 0.2695312,-0.6328125 0.7148437,-0.984375 1.0664062,-0.984375 0.5507813,0 0.6796875,0.6914062 0.6796875,0.75 0,0.046875 -0.4804687,1.93359374 -0.5039062,1.96874999 -0.1289063,0.234375 -0.609375,0.78515625 -1.0898438,0.78515625 z m 0,0"
           style="fill:#231f20;fill-opacity:1;fill-rule:nonzero;stroke:none"
           aria-label="q"
           transform="matrix(1.3333333,0,0,1.3333333,417.464,159.51867)" />
        <path
           id="path198"
           d="m 1.6412594,-2.004225 c 0.46875,0 0.796875,0.328125 0.796875,0.9609375 0,0.75 -0.421875,0.97265625 -0.7734375,0.97265625 -0.2460938,0 -0.77343752,-0.0703125 -1.01953127,-0.421875 0.28125,-0.0117188 0.33984375,-0.2109375 0.33984375,-0.33984375 0,-0.1875 -0.140625,-0.328125 -0.328125,-0.328125 -0.1640625,0 -0.328125,0.1054688 -0.328125,0.3515625 0,0.5625 0.62109375,0.92578125 1.34765622,0.92578125 0.8320313,0 1.40625,-0.55078125 1.40625,-1.16015625 0,-0.46875 -0.3867187,-0.9257812 -1.0429687,-1.0664062 0.6328125,-0.234375 0.8554687,-0.6796875 0.8554687,-1.0429688 0,-0.4804687 -0.5390625,-0.8320312 -1.2070312,-0.8320312 -0.6679688,0 -1.17187502,0.328125 -1.17187502,0.8085937 0,0.1992188 0.12890625,0.3164063 0.3046875,0.3164063 0.18750002,0 0.30468752,-0.140625 0.30468752,-0.3046875 0,-0.1757813 -0.1171875,-0.3046875 -0.30468752,-0.3164063 0.21093752,-0.2578125 0.62109372,-0.328125 0.84375002,-0.328125 0.2695312,0 0.65625,0.1289063 0.65625,0.65625 0,0.2460938 -0.09375,0.5273438 -0.2460938,0.7148438 -0.1992187,0.2226562 -0.3632812,0.234375 -0.6679687,0.2578125 -0.140625,0.011719 -0.1640625,0.011719 -0.1875,0.011719 -0.011719,0 -0.058594,0.011719 -0.058594,0.082031 0,0.082031 0.046875,0.082031 0.1523438,0.082031 z m 0,0"
           style="fill:#231f20;fill-opacity:1;fill-rule:nonzero;stroke:none"
           aria-label="3"
           transform="matrix(1.3333333,0,0,1.3333333,422.56947,161.2348)" />
        <g
           id="g198"
           aria-label=":&#10;×"
           transform="matrix(1.3333333,0,0,1.3333333,430.87867,159.51867)">
          <path
             id="path199"
             d="m 1.6525234,-3.2454453 c 0,-0.2460938 -0.2109375,-0.4453125 -0.4570312,-0.4453125 -0.24609376,0 -0.45703126,0.1992187 -0.45703126,0.4453125 0,0.2578125 0.2109375,0.4570312 0.45703126,0.4570312 0.2460937,0 0.4570312,-0.1992187 0.4570312,-0.4570312 z m 0,2.78906249 c 0,-0.24609375 -0.2109375,-0.45703125 -0.4570312,-0.45703125 -0.24609376,0 -0.45703126,0.2109375 -0.45703126,0.45703125 0,0.24609375 0.2109375,0.4570312475 0.45703126,0.4570312475 0.2460937,0 0.4570312,-0.2109374975 0.4570312,-0.4570312475 z m 0,0"
             style="fill:#231f20;fill-opacity:1;fill-rule:nonzero;stroke:none" />
          <path
             id="path200"
             d="m 21.290219,-1.0130234 1.710937,-1.7109375 c 0.09375,-0.09375 0.105469,-0.1171875 0.105469,-0.1875 0,-0.09375 -0.07031,-0.1640625 -0.164063,-0.1640625 -0.07031,0 -0.105468,0.035156 -0.1875,0.1054687 l -1.710937,1.7226563 -1.722656,-1.7226563 c -0.09375,-0.09375 -0.117188,-0.1054687 -0.1875,-0.1054687 -0.08203,0 -0.164063,0.070312 -0.164063,0.1640625 0,0.070312 0.03516,0.1054687 0.105469,0.1875 l 1.710937,1.7109375 -1.710937,1.71093746 c -0.08203,0.0820313 -0.105469,0.12890625 -0.105469,0.1875 0,0.09375 0.08203,0.16406254 0.164063,0.16406254 0.07031,0 0.09375,-0.011719 0.1875,-0.10546879 l 1.710937,-1.72265625 1.710938,1.72265625 c 0.09375,0.0820313 0.140625,0.10546879 0.199218,0.10546879 0.09375,0 0.164063,-0.0703125 0.164063,-0.16406254 0,-0.0703125 -0.01172,-0.09375 -0.105469,-0.1875 z m 0,0"
             style="fill:#231f20;fill-opacity:1;fill-rule:nonzero;stroke:none" />
        </g>
        <path
           id="path201"
           d="M 0,0 H -14.369"
           style="fill:none;stroke:#231f20;stroke-width:0.343;stroke-linecap:round;stroke-linejoin:round;stroke-miterlimit:10;stroke-dasharray:none;stroke-opacity:1"
           transform="matrix(1.3333333,0,0,-1.3333333,458.93333,158.16933)" />
        <path
           id="path202"
           d="M 0,0 V 13.727"
           style="fill:none;stroke:#231f20;stroke-width:0.343;stroke-linecap:round;stroke-linejoin:round;stroke-miterlimit:10;stroke-dasharray:none;stroke-opacity:1"
           transform="matrix(1.3333333,0,0,-1.3333333,458.93333,158.16933)" />
        <path
           id="path203"
           d="M 0,0 H -14.37"
           style="fill:none;stroke:#231f20;stroke-width:0.343;stroke-linecap:round;stroke-linejoin:round;stroke-miterlimit:10;stroke-dasharray:none;stroke-opacity:1"
           transform="matrix(1.3333333,0,0,-1.3333333,478.09333,158.16933)" />
        <path
           id="path204"
           d="M 0,0 H 6.69"
           style="fill:none;stroke:#231f20;stroke-width:0.343;stroke-linecap:round;stroke-linejoin:round;stroke-miterlimit:10;stroke-dasharray:none;stroke-opacity:1"
           transform="matrix(1.3333333,0,0,-1.3333333,489.76,158.16933)" />
        <path
           id="path205"
           d="M 0,0 V 6.689"
           style="fill:none;stroke:#231f20;stroke-width:0.343;stroke-linecap:round;stroke-linejoin:round;stroke-miterlimit:10;stroke-dasharray:none;stroke-opacity:1"
           transform="matrix(1.3333333,0,0,-1.3333333,494.22133,162.62933)" />
        <path
           id="path206"
           d="m 0,0 c -1.894,0 -3.432,-1.538 -3.432,-3.432 0,-1.893 1.538,-3.431 3.432,-3.431 1.893,0 3.431,1.538 3.431,3.431 C 3.431,-1.538 1.893,0 0,0"
           style="fill:none;stroke:#231f20;stroke-width:0.343;stroke-linecap:round;stroke-linejoin:round;stroke-miterlimit:10;stroke-dasharray:none;stroke-opacity:1"
           transform="matrix(1.3333333,0,0,-1.3333333,494.22133,153.59467)" />
        <path
           id="path207"
           d="M 0,0 H -8.578"
           style="fill:none;stroke:#231f20;stroke-width:0.343;stroke-linecap:round;stroke-linejoin:round;stroke-miterlimit:10;stroke-dasharray:none;stroke-opacity:1"
           transform="matrix(1.3333333,0,0,-1.3333333,489.53067,158.17067)" />
        <path
           id="path208"
           d="m 3.7980406,-2.1458609 c 0,-0.9140625 -0.75,-1.6640625 -1.6523437,-1.6640625 -0.9375,0 -1.66406253,0.7617187 -1.66406253,1.6640625 0,0.9140625 0.75000003,1.66406246 1.65234373,1.66406246 0.9375,0 1.6640625,-0.76171876 1.6640625,-1.66406246 z m 0,0"
           style="fill:#231f20;fill-opacity:1;fill-rule:nonzero;stroke:none"
           aria-label="•"
           transform="matrix(1.3333333,0,0,1.3333333,512.17813,160.99787)" />
        <path
           id="path209"
           d="M 0,0 V 9.279"
           style="fill:none;stroke:#231f20;stroke-width:0.343;stroke-linecap:round;stroke-linejoin:round;stroke-miterlimit:10;stroke-dasharray:none;stroke-opacity:1"
           transform="matrix(1.3333333,0,0,-1.3333333,515.03733,156.93067)" />
        <path
           id="path210"
           d="M 0,0 H -11.047"
           style="fill:none;stroke:#231f20;stroke-width:0.343;stroke-linecap:round;stroke-linejoin:round;stroke-miterlimit:10;stroke-dasharray:none;stroke-opacity:1"
           transform="matrix(1.3333333,0,0,-1.3333333,513.63867,158.17067)" />
        <path
           id="path211"
           d="m 3.7975453,-2.1458609 c 0,-0.9140625 -0.75,-1.6640625 -1.6523437,-1.6640625 -0.9375,0 -1.66406254,0.7617187 -1.66406254,1.6640625 0,0.9140625 0.75000004,1.66406246 1.65234374,1.66406246 0.9375,0 1.6640625,-0.76171876 1.6640625,-1.66406246 z m 0,0"
           style="fill:#231f20;fill-opacity:1;fill-rule:nonzero;stroke:none"
           aria-label="•"
           transform="matrix(1.3333333,0,0,1.3333333,532.9952,160.99787)" />
        <path
           id="path212"
           d="M 0,0 V 36.731"
           style="fill:none;stroke:#231f20;stroke-width:0.343;stroke-linecap:round;stroke-linejoin:round;stroke-miterlimit:10;stroke-dasharray:none;stroke-opacity:1"
           transform="matrix(1.3333333,0,0,-1.3333333,535.85467,156.93067)" />
        <path
           id="path213"
           d="M 0,0 H -13.516"
           style="fill:none;stroke:#231f20;stroke-width:0.343;stroke-linecap:round;stroke-linejoin:round;stroke-miterlimit:10;stroke-dasharray:none;stroke-opacity:1"
           transform="matrix(1.3333333,0,0,-1.3333333,534.45733,158.17067)" />
        <path
           id="path214"
           d="M 2.9888281,-3.3284313 1.8989844,-3.5979625 C 1.3599219,-3.7268688 1.0317969,-4.1839 1.0317969,-4.6878063 c 0,-0.5976562 0.4570312,-1.125 1.125,-1.125 1.4414062,0 1.6289062,1.40625 1.6757812,1.7929688 0.011719,0.058594 0.011719,0.1054687 0.1054688,0.1054687 0.1171875,0 0.1171875,-0.035156 0.1171875,-0.1992187 v -1.7226563 c 0,-0.1523437 0,-0.2109375 -0.1054688,-0.2109375 -0.058594,0 -0.058594,0.011719 -0.1289062,0.1054688 L 3.5278906,-5.449525 c -0.2578125,-0.2460938 -0.609375,-0.5976563 -1.3710937,-0.5976563 -0.9609375,0 -1.67578127,0.75 -1.67578127,1.6640625 0,0.7148438 0.45703125,1.3359375 1.12499997,1.5703125 0.09375,0.035156 0.5273438,0.140625 1.1367188,0.28125 0.2226562,0.058594 0.4804687,0.1171875 0.7265625,0.4335938 0.1757812,0.2226562 0.2578125,0.515625 0.2578125,0.796875 0,0.609375 -0.421875,1.21875 -1.1484375,1.21875 -0.2460938,0 -0.9023438,-0.03515625 -1.3476563,-0.45703125 C 0.72710938,-1.0081188 0.70367188,-1.5471813 0.69195313,-1.8635875 c 0,-0.082031 -0.0703125,-0.082031 -0.09375,-0.082031 -0.1171875,0 -0.1171875,0.058594 -0.1171875,0.2109375 v 1.7226563 c 0,0.140625 0,0.19921875 0.09375,0.19921875 0.0585938,0 0.0703125,-0.0117188 0.12890625,-0.10546875 0,-0.01171875 0.0234375,-0.03515625 0.30468752,-0.4921875 0.2695312,0.29296875 0.8203125,0.59765625 1.5820312,0.59765625 1.0078125,0 1.6875,-0.84375 1.6875,-1.78125005 0,-0.8554687 -0.5625,-1.5585937 -1.2890625,-1.7343753 z m 0,0"
           style="fill:#231f20;fill-opacity:1;fill-rule:nonzero;stroke:none"
           aria-label="S"
           transform="matrix(1.3333333,0,0,1.3333333,555.41333,162.07853)" />
        <path
           id="path215"
           d="M 0,0 H -9.914 V -11.01 H 0 V 0"
           style="fill:none;stroke:#231f20;stroke-width:0.343;stroke-linecap:round;stroke-linejoin:round;stroke-miterlimit:10;stroke-dasharray:none;stroke-opacity:1"
           transform="matrix(1.3333333,0,0,-1.3333333,565.2,150.828)" />
        <path
           id="path216"
           d="M 0,0 H -11.047"
           style="fill:none;stroke:#231f20;stroke-width:0.343;stroke-linecap:round;stroke-linejoin:round;stroke-miterlimit:10;stroke-dasharray:none;stroke-opacity:1"
           transform="matrix(1.3333333,0,0,-1.3333333,551.98133,158.16933)" />
        <path
           id="path217"
           d="m 5.2624531,-5.1917125 c 0,-0.3046875 0.011719,-0.3984375 0.6796875,-0.3984375 h 0.1992188 v -0.2695313 c -0.3046875,0.023437 -0.9375,0.023437 -1.2539063,0.023437 -0.328125,0 -0.9726562,0 -1.2773437,-0.023437 V -5.59015 h 0.2109375 c 0.65625,0 0.6796875,0.09375 0.6796875,0.3984375 v 2.0039062 H 1.9343281 v -2.0039062 c 0,-0.3046875 0.011719,-0.3984375 0.6796875,-0.3984375 h 0.1992188 v -0.2695313 c -0.3046875,0.023437 -0.9375,0.023437 -1.265625,0.023437 -0.3164063,0 -0.96093753,0 -1.26562503,-0.023437 V -5.59015 h 0.2109375 c 0.65625003,0 0.67968753,0.09375 0.67968753,0.3984375 v 4.5234375 c 0,0.3046875 -0.023437,0.3984375 -0.67968753,0.3984375 h -0.2109375 v 0.26953125 c 0.3046875,-0.0234375 0.93750003,-0.0234375 1.26562503,-0.0234375 0.328125,0 0.9609375,0 1.265625,0.0234375 V -0.2698375 H 2.6140156 c -0.6679687,0 -0.6796875,-0.09375 -0.6796875,-0.3984375 v -2.25 h 2.5664063 v 2.25 c 0,0.3046875 -0.023437,0.3984375 -0.6796875,0.3984375 H 3.6101094 v 0.26953125 c 0.3046875,-0.0234375 0.9375,-0.0234375 1.265625,-0.0234375 0.328125,0 0.9609375,0 1.265625,0.0234375 V -0.2698375 H 5.9421406 c -0.6679687,0 -0.6796875,-0.09375 -0.6796875,-0.3984375 z m 0,0"
           style="fill:#231f20;fill-opacity:1;fill-rule:nonzero;stroke:none"
           aria-label="H"
           transform="matrix(1.3333333,0,0,1.3333333,580.06933,162.07853)" />
        <path
           id="path218"
           d="M 0,0 H -11.582 V -11.01 H 0 V 0"
           style="fill:none;stroke:#231f20;stroke-width:0.343;stroke-linecap:round;stroke-linejoin:round;stroke-miterlimit:10;stroke-dasharray:none;stroke-opacity:1"
           transform="matrix(1.3333333,0,0,-1.3333333,592.08,150.828)" />
        <path
           id="path219"
           d="M 0,0 H -8.578"
           style="fill:none;stroke:#231f20;stroke-width:0.343;stroke-linecap:round;stroke-linejoin:round;stroke-miterlimit:10;stroke-dasharray:none;stroke-opacity:1"
           transform="matrix(1.3333333,0,0,-1.3333333,576.63733,158.16933)" />
        <path
           id="path220"
           d="M 0,0 C 3.655,3.655 9.575,3.683 13.264,0.084"
           style="fill:none;stroke:#231f20;stroke-width:0.343;stroke-linecap:round;stroke-linejoin:round;stroke-miterlimit:10;stroke-dasharray:none;stroke-opacity:1"
           transform="matrix(1.3333333,0,0,-1.3333333,604.91333,161.85333)" />
        <path
           id="path221"
           d="M 0,0 4.289,7.721"
           style="fill:none;stroke:#231f20;stroke-width:0.343;stroke-linecap:round;stroke-linejoin:round;stroke-miterlimit:10;stroke-dasharray:none;stroke-opacity:1"
           transform="matrix(1.3333333,0,0,-1.3333333,613.812,162.74533)" />
        <path
           id="path222"
           d="M 0,0 H -15.44 V -12.009 H 0 V 0"
           style="fill:none;stroke:#231f20;stroke-width:0.343;stroke-linecap:round;stroke-linejoin:round;stroke-miterlimit:10;stroke-dasharray:none;stroke-opacity:1"
           transform="matrix(1.3333333,0,0,-1.3333333,624.10533,150.16267)" />
        <path
           id="path223"
           d="M 0,0 H -8.579"
           style="fill:none;stroke:#231f20;stroke-width:0.343;stroke-linecap:round;stroke-linejoin:round;stroke-miterlimit:10;stroke-dasharray:none;stroke-opacity:1"
           transform="matrix(1.3333333,0,0,-1.3333333,603.51867,158.16933)" />
        <path
           id="path224"
           d="M 0,0 H -16.299"
           style="fill:none;stroke:#231f20;stroke-width:0.343;stroke-linecap:round;stroke-linejoin:round;stroke-miterlimit:10;stroke-dasharray:none;stroke-opacity:1"
           transform="matrix(1.3333333,0,0,-1.3333333,645.83733,158.16933)" />
        <path
           id="path225"
           d="M 0,0 H -24.021"
           style="fill:none;stroke:#231f20;stroke-width:0.343;stroke-linecap:round;stroke-linejoin:round;stroke-miterlimit:10;stroke-dasharray:none;stroke-opacity:1"
           transform="matrix(1.3333333,0,0,-1.3333333,677.86533,158.16933)" />
        <path
           id="path226"
           d="M 0,0 H -24.019"
           style="fill:none;stroke:#231f20;stroke-width:0.343;stroke-linecap:round;stroke-linejoin:round;stroke-miterlimit:10;stroke-dasharray:none;stroke-opacity:1"
           transform="matrix(1.3333333,0,0,-1.3333333,709.89067,158.16933)" />
        <path
           id="path227"
           d="M 0,0 H -16.3"
           style="fill:none;stroke:#231f20;stroke-width:0.343;stroke-linecap:round;stroke-linejoin:round;stroke-miterlimit:10;stroke-dasharray:none;stroke-opacity:1"
           transform="matrix(1.3333333,0,0,-1.3333333,731.624,158.16933)" />
        <path
           id="path228"
           d="M 0,0 H -8.579"
           style="fill:none;stroke:#231f20;stroke-width:0.343;stroke-linecap:round;stroke-linejoin:round;stroke-miterlimit:10;stroke-dasharray:none;stroke-opacity:1"
           transform="matrix(1.3333333,0,0,-1.3333333,743.06267,158.16933)" />
        <g
           id="g228"
           aria-label="c:&#10;/"
           transform="matrix(1.3333333,0,0,1.3333333,422.75107,178.9328)">
          <path
             id="path229"
             d="m 3.3976375,-3.2572172 c -0.140625,0 -0.2578125,0 -0.375,0.1171875 -0.140625,0.1289063 -0.1640625,0.28125 -0.1640625,0.3398438 0,0.1992187 0.1640625,0.2929687 0.328125,0.2929687 0.2460938,0 0.4804688,-0.1992187 0.4804688,-0.5507812 0,-0.4101563 -0.4101563,-0.7382813 -1.0195313,-0.7382813 -1.1601562,0 -2.296875,1.2304688 -2.296875,2.4375 0,0.77343751 0.4921875,1.45312501 1.3945313,1.45312501 1.21875,0 1.9453125,-0.9140625 1.9453125,-1.0078125 0,-0.0585938 -0.058594,-0.11718751 -0.1054688,-0.11718751 -0.046875,0 -0.058594,0.023437 -0.1171875,0.0820313 -0.6679687,0.85546875 -1.6054687,0.85546875 -1.7109375,0.85546875 -0.5390625,0 -0.7734375,-0.421875 -0.7734375,-0.93750005 0,-0.3515625 0.1757813,-1.1835937 0.46875,-1.7109375 0.2578125,-0.4921875 0.7382813,-0.8554687 1.2070313,-0.8554687 0.2929687,0 0.6210937,0.1054687 0.7382812,0.3398437 z m 0,0"
             style="fill:#231f20;fill-opacity:1;fill-rule:nonzero;stroke:none" />
          <path
             id="path230"
             d="m 7.7482234,-3.2454984 c 0,-0.2460938 -0.2109375,-0.4453125 -0.4570312,-0.4453125 -0.2460938,0 -0.4570313,0.1992187 -0.4570313,0.4453125 0,0.2578125 0.2109375,0.4570312 0.4570313,0.4570312 0.2460937,0 0.4570312,-0.1992187 0.4570312,-0.4570312 z m 0,2.78906246 c 0,-0.24609375 -0.2109375,-0.45703125 -0.4570312,-0.45703125 -0.2460938,0 -0.4570313,0.2109375 -0.4570313,0.45703125 0,0.24609375 0.2109375,0.4570312525 0.4570313,0.4570312525 0.2460937,0 0.4570312,-0.2109375025 0.4570312,-0.4570312525 z m 0,0"
             style="fill:#231f20;fill-opacity:1;fill-rule:nonzero;stroke:none" />
          <path
             id="path231"
             d="m 18.544122,-5.808975 c 0.04687,-0.1171875 0.04687,-0.1523438 0.04687,-0.1523438 0,-0.09375 -0.08203,-0.1757812 -0.175781,-0.1757812 -0.05859,0 -0.117188,0.023437 -0.140625,0.082031 L 15.298028,2.1129 c -0.04687,0.1171875 -0.04687,0.1523437 -0.04687,0.1523437 0,0.09375 0.08203,0.1757813 0.175781,0.1757813 0.105469,0 0.140625,-0.058594 0.1875,-0.2109375 z m 0,0"
             style="fill:#231f20;fill-opacity:1;fill-rule:nonzero;stroke:none" />
        </g>
        <path
           id="path232"
           d="M 2.6496031,-0.7035 V -0.891 H 2.1105406 v -1.8867188 c 0,-0.1054687 0,-0.1289062 -0.1171875,-0.1289062 -0.082031,0 -0.082031,0.011719 -0.140625,0.070312 L 0.27069687,-0.891 v 0.1875 H 1.7003844 v 0.33984375 c 0,0.12890625 0,0.17578125 -0.375,0.17578125 H 1.1730406 v 0.1875 c 0.1992188,-0.01171875 0.4804688,-0.01171875 0.7382813,-0.01171875 0.2460937,0 0.515625,0 0.7265625,0.01171875 v -0.1875 H 2.4855406 c -0.375,0 -0.375,-0.046875 -0.375,-0.17578125 V -0.7035 Z M 1.7355406,-2.437875 V -0.891 H 0.46991562 Z m 0,0"
           style="fill:#231f20;fill-opacity:1;fill-rule:nonzero;stroke:none"
           aria-label="4"
           transform="matrix(1.3333333,0,0,1.3333333,448.17813,182.188)" />
        <path
           id="path233"
           d="M 0,0 H -14.369"
           style="fill:none;stroke:#231f20;stroke-width:0.343;stroke-linecap:round;stroke-linejoin:round;stroke-miterlimit:10;stroke-dasharray:none;stroke-opacity:1"
           transform="matrix(1.3333333,0,0,-1.3333333,458.93333,177.61333)" />
        <path
           id="path234"
           d="M 0,0 H -14.369"
           style="fill:none;stroke:#231f20;stroke-width:0.343;stroke-linecap:round;stroke-linejoin:round;stroke-miterlimit:10;stroke-dasharray:none;stroke-opacity:1"
           transform="matrix(1.3333333,0,0,-1.3333333,458.93333,175.32667)" />
        <path
           id="path235"
           d="M 0,0 H -14.37"
           style="fill:none;stroke:#231f20;stroke-width:0.343;stroke-linecap:round;stroke-linejoin:round;stroke-miterlimit:10;stroke-dasharray:none;stroke-opacity:1"
           transform="matrix(1.3333333,0,0,-1.3333333,478.09333,177.61333)" />
        <path
           id="path236"
           d="M 0,0 H -14.37"
           style="fill:none;stroke:#231f20;stroke-width:0.343;stroke-linecap:round;stroke-linejoin:round;stroke-miterlimit:10;stroke-dasharray:none;stroke-opacity:1"
           transform="matrix(1.3333333,0,0,-1.3333333,478.09333,175.32667)" />
        <path
           id="path237"
           d="M 0,0 H -12.096"
           style="fill:none;stroke:#231f20;stroke-width:0.343;stroke-linecap:round;stroke-linejoin:round;stroke-miterlimit:10;stroke-dasharray:none;stroke-opacity:1"
           transform="matrix(1.3333333,0,0,-1.3333333,494.22133,177.61333)" />
        <path
           id="path238"
           d="M 0,0 H -12.096"
           style="fill:none;stroke:#231f20;stroke-width:0.343;stroke-linecap:round;stroke-linejoin:round;stroke-miterlimit:10;stroke-dasharray:none;stroke-opacity:1"
           transform="matrix(1.3333333,0,0,-1.3333333,494.22133,175.32667)" />
        <path
           id="path239"
           d="M 0,0 H -15.613"
           style="fill:none;stroke:#231f20;stroke-width:0.343;stroke-linecap:round;stroke-linejoin:round;stroke-miterlimit:10;stroke-dasharray:none;stroke-opacity:1"
           transform="matrix(1.3333333,0,0,-1.3333333,515.03867,177.61333)" />
        <path
           id="path240"
           d="M 0,0 H -15.613"
           style="fill:none;stroke:#231f20;stroke-width:0.343;stroke-linecap:round;stroke-linejoin:round;stroke-miterlimit:10;stroke-dasharray:none;stroke-opacity:1"
           transform="matrix(1.3333333,0,0,-1.3333333,515.03867,175.32667)" />
        <path
           id="path241"
           d="M 0,0 H -15.613"
           style="fill:none;stroke:#231f20;stroke-width:0.343;stroke-linecap:round;stroke-linejoin:round;stroke-miterlimit:10;stroke-dasharray:none;stroke-opacity:1"
           transform="matrix(1.3333333,0,0,-1.3333333,535.856,177.61333)" />
        <path
           id="path242"
           d="M 0,0 H -15.613"
           style="fill:none;stroke:#231f20;stroke-width:0.343;stroke-linecap:round;stroke-linejoin:round;stroke-miterlimit:10;stroke-dasharray:none;stroke-opacity:1"
           transform="matrix(1.3333333,0,0,-1.3333333,535.856,175.32667)" />
        <path
           id="path243"
           d="M 0,0 H -17.052"
           style="fill:none;stroke:#231f20;stroke-width:0.343;stroke-linecap:round;stroke-linejoin:round;stroke-miterlimit:10;stroke-dasharray:none;stroke-opacity:1"
           transform="matrix(1.3333333,0,0,-1.3333333,558.592,177.61333)" />
        <path
           id="path244"
           d="M 0,0 H -17.052"
           style="fill:none;stroke:#231f20;stroke-width:0.343;stroke-linecap:round;stroke-linejoin:round;stroke-miterlimit:10;stroke-dasharray:none;stroke-opacity:1"
           transform="matrix(1.3333333,0,0,-1.3333333,558.592,175.32667)" />
        <path
           id="path245"
           d="M 0,0 H -19.326"
           style="fill:none;stroke:#231f20;stroke-width:0.343;stroke-linecap:round;stroke-linejoin:round;stroke-miterlimit:10;stroke-dasharray:none;stroke-opacity:1"
           transform="matrix(1.3333333,0,0,-1.3333333,584.36,177.61333)" />
        <path
           id="path246"
           d="M 0,0 H -19.326"
           style="fill:none;stroke:#231f20;stroke-width:0.343;stroke-linecap:round;stroke-linejoin:round;stroke-miterlimit:10;stroke-dasharray:none;stroke-opacity:1"
           transform="matrix(1.3333333,0,0,-1.3333333,584.36,175.32667)" />
        <path
           id="path247"
           d="m 1.4166953,-1.4173187 c 0.3867188,0 0.65625,0.2460937 0.65625,0.6679687 0,0.43359375 -0.2695312,0.66796875 -0.65625,0.66796875 -0.046875,0 -0.55078124,0 -0.77343749,-0.22265625 C 0.81903906,-0.327475 0.86591406,-0.4681 0.86591406,-0.56185 c 0,-0.1640625 -0.1171875,-0.26953125 -0.2578125,-0.26953125 -0.140625,0 -0.26953125,0.09375 -0.26953125,0.26953125 0,0.4453125 0.50390625,0.65625 1.08984379,0.65625 0.703125,0 1.1484375,-0.421875 1.1484375,-0.84375 0,-0.3515625 -0.3164063,-0.6445312 -0.8085938,-0.7617187 0.515625,-0.1640625 0.65625,-0.4921875 0.65625,-0.7265625 0,-0.3515625 -0.4453125,-0.6210938 -0.984375,-0.6210938 -0.52734374,0 -0.94921874,0.2226563 -0.94921874,0.609375 0,0.1992188 0.1640625,0.2578125 0.24609375,0.2578125 0.12890625,0 0.24609375,-0.09375 0.24609375,-0.2460937 0,-0.09375 -0.0585938,-0.2226563 -0.2109375,-0.2460938 0.1875,-0.1992187 0.57421874,-0.2109375 0.65625004,-0.2109375 0.3164062,0 0.5390625,0.1640625 0.5390625,0.4570313 0,0.2460937 -0.1640625,0.6328125 -0.609375,0.65625 -0.1289063,0.011719 -0.140625,0.011719 -0.2578125,0.011719 -0.046875,0.011719 -0.09375,0.011719 -0.09375,0.082031 0,0.070312 0.046875,0.070312 0.1289062,0.070312 z m 0,0"
           style="fill:#231f20;fill-opacity:1;fill-rule:nonzero;stroke:none"
           aria-label="3"
           transform="matrix(1.3333333,0,0,1.3333333,611.29467,185.87413)" />
        <path
           id="path248"
           d="M 0,0 H -22.09"
           style="fill:none;stroke:#231f20;stroke-width:0.343;stroke-linecap:round;stroke-linejoin:round;stroke-miterlimit:10;stroke-dasharray:none;stroke-opacity:1"
           transform="matrix(1.3333333,0,0,-1.3333333,613.812,177.61333)" />
        <path
           id="path249"
           d="M 0,0 H -22.09"
           style="fill:none;stroke:#231f20;stroke-width:0.343;stroke-linecap:round;stroke-linejoin:round;stroke-miterlimit:10;stroke-dasharray:none;stroke-opacity:1"
           transform="matrix(1.3333333,0,0,-1.3333333,613.812,175.32667)" />
        <path
           id="path250"
           d="M 0,0 V 7.721"
           style="fill:none;stroke:#231f20;stroke-width:0.343;stroke-linecap:round;stroke-linejoin:round;stroke-miterlimit:10;stroke-dasharray:none;stroke-opacity:1"
           transform="matrix(1.3333333,0,0,-1.3333333,612.668,176.468)" />
        <path
           id="path251"
           d="M 0,0 V 7.721"
           style="fill:none;stroke:#231f20;stroke-width:0.343;stroke-linecap:round;stroke-linejoin:round;stroke-miterlimit:10;stroke-dasharray:none;stroke-opacity:1"
           transform="matrix(1.3333333,0,0,-1.3333333,614.95467,176.468)" />
        <path
           id="path252"
           d="m 2.5324141,-0.83138125 h -0.1875 c -0.011719,0.0820313 -0.058594,0.3515625 -0.1171875,0.3984375 -0.035156,0.0234375 -0.3984375,0.0234375 -0.46875,0.0234375 H 0.92694531 C 1.2081953,-0.62044375 1.5246016,-0.8665375 1.7824141,-1.0306 c 0.3867187,-0.2695312 0.75,-0.515625 0.75,-0.9726562 0,-0.5507813 -0.5273438,-0.8554688 -1.1367188,-0.8554688 -0.57421874,0 -1.00781249,0.3398438 -1.00781249,0.7617188 0,0.2226562 0.1875,0.2578125 0.2578125,0.2578125 0.10546875,0 0.24609375,-0.082031 0.24609375,-0.2578125 0,-0.1523438 -0.10546875,-0.234375 -0.24609375,-0.2460938 0.12890625,-0.1992187 0.37499999,-0.328125 0.65624999,-0.328125 0.421875,0 0.7617188,0.2578125 0.7617188,0.6679688 0,0.3632812 -0.2460938,0.6445312 -0.5742188,0.9140625 l -1.04296874,0.89062495 c -0.046875,0.0351563 -0.046875,0.0351563 -0.0585938,0.0703125 V 6.5e-4 H 2.3800703 Z m 0,0"
           style="fill:#231f20;fill-opacity:1;fill-rule:nonzero;stroke:none"
           aria-label="2"
           transform="matrix(1.3333333,0,0,1.3333333,643.32267,185.87413)" />
        <path
           id="path253"
           d="M 0,0 H -24.019"
           style="fill:none;stroke:#231f20;stroke-width:0.343;stroke-linecap:round;stroke-linejoin:round;stroke-miterlimit:10;stroke-dasharray:none;stroke-opacity:1"
           transform="matrix(1.3333333,0,0,-1.3333333,645.83733,177.61333)" />
        <path
           id="path254"
           d="M 0,0 H -24.019"
           style="fill:none;stroke:#231f20;stroke-width:0.343;stroke-linecap:round;stroke-linejoin:round;stroke-miterlimit:10;stroke-dasharray:none;stroke-opacity:1"
           transform="matrix(1.3333333,0,0,-1.3333333,645.83733,175.32667)" />
        <path
           id="path255"
           d="M 0,0 V 21.446"
           style="fill:none;stroke:#231f20;stroke-width:0.343;stroke-linecap:round;stroke-linejoin:round;stroke-miterlimit:10;stroke-dasharray:none;stroke-opacity:1"
           transform="matrix(1.3333333,0,0,-1.3333333,644.69467,176.468)" />
        <path
           id="path256"
           d="M 0,0 V 21.446"
           style="fill:none;stroke:#231f20;stroke-width:0.343;stroke-linecap:round;stroke-linejoin:round;stroke-miterlimit:10;stroke-dasharray:none;stroke-opacity:1"
           transform="matrix(1.3333333,0,0,-1.3333333,646.98133,176.468)" />
        <path
           id="path257"
           d="m 1.7106797,-2.7298187 c 0,-0.1289063 -0.011719,-0.1289063 -0.1640625,-0.1289063 -0.2929688,0.28125 -0.77343751,0.28125 -0.85546876,0.28125 h -0.0820313 v 0.1875 h 0.0820313 c 0.09375,0 0.37499996,-0.011719 0.62109376,-0.1171875 v 2.14453125 c 0,0.12890625 0,0.17578125 -0.45703126,0.17578125 h -0.2109375 v 0.1875 c 0.234375,-0.01171875 0.62109376,-0.01171875 0.86718746,-0.01171875 0.2460938,0 0.6328125,0 0.8671875,0.01171875 v -0.1875 H 2.1559922 c -0.4453125,0 -0.4453125,-0.046875 -0.4453125,-0.17578125 z m 0,0"
           style="fill:#231f20;fill-opacity:1;fill-rule:nonzero;stroke:none"
           aria-label="1"
           transform="matrix(1.3333333,0,0,1.3333333,675.348,185.87413)" />
        <path
           id="path258"
           d="M 0,0 H -24.021"
           style="fill:none;stroke:#231f20;stroke-width:0.343;stroke-linecap:round;stroke-linejoin:round;stroke-miterlimit:10;stroke-dasharray:none;stroke-opacity:1"
           transform="matrix(1.3333333,0,0,-1.3333333,677.86533,177.61333)" />
        <path
           id="path259"
           d="M 0,0 H -24.021"
           style="fill:none;stroke:#231f20;stroke-width:0.343;stroke-linecap:round;stroke-linejoin:round;stroke-miterlimit:10;stroke-dasharray:none;stroke-opacity:1"
           transform="matrix(1.3333333,0,0,-1.3333333,677.86533,175.32667)" />
        <path
           id="path260"
           d="M 0,0 V 35.172"
           style="fill:none;stroke:#231f20;stroke-width:0.343;stroke-linecap:round;stroke-linejoin:round;stroke-miterlimit:10;stroke-dasharray:none;stroke-opacity:1"
           transform="matrix(1.3333333,0,0,-1.3333333,676.72133,176.468)" />
        <path
           id="path261"
           d="M 0,0 V 35.172"
           style="fill:none;stroke:#231f20;stroke-width:0.343;stroke-linecap:round;stroke-linejoin:round;stroke-miterlimit:10;stroke-dasharray:none;stroke-opacity:1"
           transform="matrix(1.3333333,0,0,-1.3333333,679.00933,176.468)" />
        <path
           id="path262"
           d="m 2.577375,-1.3704437 c 0,-0.3046875 0,-1.4882813 -1.125,-1.4882813 -1.11328125,0 -1.11328125,1.1835938 -1.11328125,1.4882813 0,0.3164062 0,1.4648437 1.11328125,1.4648437 1.125,0 1.125,-1.1484375 1.125,-1.4648437 z m -1.125,1.3242187 c -0.1523437,0 -0.515625,-0.05859375 -0.62109375,-0.4921875 -0.0585938,-0.234375 -0.0585938,-0.5273437 -0.0585938,-0.890625 0,-0.3164062 0,-0.609375 0.0585938,-0.8554687 C 0.94846875,-2.6360687 1.2765938,-2.7181 1.452375,-2.7181 c 0.328125,0 0.5507813,0.1640625 0.6328125,0.46875 0.058594,0.2226563 0.058594,0.5742188 0.058594,0.8203125 0,0.2929688 0,0.64453125 -0.058594,0.90234375 C 1.968,-0.1165375 1.6281563,-0.046225 1.452375,-0.046225 Z m 0,0"
           style="fill:#231f20;fill-opacity:1;fill-rule:nonzero;stroke:none"
           aria-label="0"
           transform="matrix(1.3333333,0,0,1.3333333,707.376,185.87413)" />
        <path
           id="path263"
           d="M 0,0 H -24.019"
           style="fill:none;stroke:#231f20;stroke-width:0.343;stroke-linecap:round;stroke-linejoin:round;stroke-miterlimit:10;stroke-dasharray:none;stroke-opacity:1"
           transform="matrix(1.3333333,0,0,-1.3333333,709.89067,177.61333)" />
        <path
           id="path264"
           d="M 0,0 H -24.019"
           style="fill:none;stroke:#231f20;stroke-width:0.343;stroke-linecap:round;stroke-linejoin:round;stroke-miterlimit:10;stroke-dasharray:none;stroke-opacity:1"
           transform="matrix(1.3333333,0,0,-1.3333333,709.89067,175.32667)" />
        <path
           id="path265"
           d="M 0,0 V 48.897"
           style="fill:none;stroke:#231f20;stroke-width:0.343;stroke-linecap:round;stroke-linejoin:round;stroke-miterlimit:10;stroke-dasharray:none;stroke-opacity:1"
           transform="matrix(1.3333333,0,0,-1.3333333,708.748,176.468)" />
        <path
           id="path266"
           d="M 0,0 V 48.897"
           style="fill:none;stroke:#231f20;stroke-width:0.343;stroke-linecap:round;stroke-linejoin:round;stroke-miterlimit:10;stroke-dasharray:none;stroke-opacity:1"
           transform="matrix(1.3333333,0,0,-1.3333333,711.036,176.468)" />
        <path
           id="path267"
           d="M 0,0 H -16.3"
           style="fill:none;stroke:#231f20;stroke-width:0.343;stroke-linecap:round;stroke-linejoin:round;stroke-miterlimit:10;stroke-dasharray:none;stroke-opacity:1"
           transform="matrix(1.3333333,0,0,-1.3333333,731.624,177.612)" />
        <path
           id="path268"
           d="M 0,0 H -16.3"
           style="fill:none;stroke:#231f20;stroke-width:0.343;stroke-linecap:round;stroke-linejoin:round;stroke-miterlimit:10;stroke-dasharray:none;stroke-opacity:1"
           transform="matrix(1.3333333,0,0,-1.3333333,731.624,175.32533)" />
        <path
           id="path269"
           d="M 0,0 H -8.579"
           style="fill:none;stroke:#231f20;stroke-width:0.343;stroke-linecap:round;stroke-linejoin:round;stroke-miterlimit:10;stroke-dasharray:none;stroke-opacity:1"
           transform="matrix(1.3333333,0,0,-1.3333333,743.06267,177.612)" />
        <path
           id="path270"
           d="M 0,0 H -8.579"
           style="fill:none;stroke:#231f20;stroke-width:0.343;stroke-linecap:round;stroke-linejoin:round;stroke-miterlimit:10;stroke-dasharray:none;stroke-opacity:1"
           transform="matrix(1.3333333,0,0,-1.3333333,743.06267,175.32533)" />
      </g>
    </g>
  </g>
</svg>
