<?xml version="1.0" encoding="UTF-8" standalone="no"?>
<svg
   version="1.1"
   viewBox="0.00 0.00 400.00 400.00"
   id="svg3"
   sodipodi:docname="bauer_consulting_logo.svg"
   inkscape:version="1.4.2 (ebf0e940, 2025-05-08)"
   xmlns:inkscape="http://www.inkscape.org/namespaces/inkscape"
   xmlns:sodipodi="http://sodipodi.sourceforge.net/DTD/sodipodi-0.dtd"
   xmlns="http://www.w3.org/2000/svg"
   xmlns:svg="http://www.w3.org/2000/svg">
  <defs
     id="defs3" />
  <sodipodi:namedview
     id="namedview3"
     pagecolor="#ffffff"
     bordercolor="#000000"
     borderopacity="0.25"
     inkscape:showpageshadow="2"
     inkscape:pageopacity="0.0"
     inkscape:pagecheckerboard="0"
     inkscape:deskcolor="#d1d1d1"
     inkscape:zoom="0.96310296"
     inkscape:cx="122.00149"
     inkscape:cy="232.06242"
     inkscape:window-width="888"
     inkscape:window-height="976"
     inkscape:window-x="845"
     inkscape:window-y="35"
     inkscape:window-maximized="0"
     inkscape:current-layer="svg3" />
  <path
     fill="#a02128"
     d="   M 320.58 173.90   C 343.73 191.07 360.86 215.69 366.52 244.14   C 372.60 274.73 364.71 302.03 344.99 325.75   Q 325.34 349.37 294.99 354.96   C 287.61 356.31 279.37 357.04 271.30 357.04   Q 241.19 357.00 132.25 357.04   Q 118.56 357.05 104.78 353.39   C 69.12 343.94 39.81 309.81 34.08 273.72   Q 33.03 267.07 33.03 240.72   Q 33.05 135.25 33.09 115.01   C 33.14 91.37 45.79 70.17 65.42 57.41   Q 70.10 54.37 79.87 49.61   Q 88.47 45.42 99.51 45.08   Q 142.45 43.77 197.52 44.23   Q 223.38 44.44 247.39 54.09   C 289.52 71.03 320.23 109.97 320.15 156.00   Q 320.12 171.09 320.03 172.73   A 1.37 1.36 20.1 0 0 320.58 173.90   Z"
     id="path2" />
  <path
     fill="#f6f2ee"
     d="   M 272.31 153.80   A 0.34 0.34 0.0 0 1 271.97 154.13   Q 245.10 154.46 221.88 154.38   Q 202.98 154.30 196.18 155.82   C 155.33 164.94 125.54 199.55 116.10 239.17   Q 116.04 239.40 116.19 239.67   A 0.62 0.61 76.7 0 0 116.74 240.01   L 161.51 240.01   A 1.73 1.70 -78.2 0 0 163.08 238.97   Q 164.94 234.67 167.25 230.00   C 174.49 215.37 186.46 205.38 202.27 201.48   Q 208.92 199.84 219.83 200.18   Q 225.32 200.35 256.61 200.09   Q 283.70 199.86 303.37 218.58   C 317.62 232.13 324.73 250.32 322.78 270.07   C 320.78 290.27 306.57 305.65 287.00 310.22   Q 280.81 311.66 272.75 311.68   Q 212.36 311.80 134.75 311.69   C 108.27 311.65 86.94 296.57 79.77 270.82   Q 78.71 267.03 78.77 258.25   Q 78.97 230.65 78.81 127.75   C 78.79 116.46 79.12 106.64 87.86 98.40   C 92.43 94.08 98.20 91.27 104.49 91.06   C 122.55 90.45 152.93 90.66 199.75 90.61   C 229.20 90.58 256.79 105.23 268.33 132.91   Q 272.59 143.14 272.31 153.80   Z"
     id="path3" />
</svg>
