<?xml version="1.0" encoding="UTF-8" standalone="no"?>
<svg
   version="1.1"
   viewBox="0.00 0.00 400.00 400.00"
   id="svg3"
   sodipodi:docname="bauer_consulting_logo.svg"
   inkscape:version="1.4.2 (ebf0e940, 2025-05-08)"
   xmlns:inkscape="http://www.inkscape.org/namespaces/inkscape"
   xmlns:sodipodi="http://sodipodi.sourceforge.net/DTD/sodipodi-0.dtd"
   xmlns="http://www.w3.org/2000/svg"
   xmlns:svg="http://www.w3.org/2000/svg">
  <defs
     id="defs3">
    <filter
       id="mask-powermask-path-effect1_inverse"
       inkscape:label="filtermask-powermask-path-effect1"
       style="color-interpolation-filters:sRGB"
       height="100"
       width="100"
       x="-50"
       y="-50">
      <feColorMatrix
         id="mask-powermask-path-effect1_primitive1"
         values="1"
         type="saturate"
         result="fbSourceGraphic" />
      <feColorMatrix
         id="mask-powermask-path-effect1_primitive2"
         values="-1 0 0 0 1 0 -1 0 0 1 0 0 -1 0 1 0 0 0 1 0 "
         in="fbSourceGraphic" />
    </filter>
  </defs>
  <sodipodi:namedview
     id="namedview3"
     pagecolor="#ffffff"
     bordercolor="#000000"
     borderopacity="0.25"
     inkscape:showpageshadow="2"
     inkscape:pageopacity="0.0"
     inkscape:pagecheckerboard="0"
     inkscape:deskcolor="#d1d1d1"
     inkscape:zoom="0.96310296"
     inkscape:cx="184.30013"
     inkscape:cy="287.09288"
     inkscape:window-width="1016"
     inkscape:window-height="1078"
     inkscape:window-x="1029"
     inkscape:window-y="688"
     inkscape:window-maximized="0"
     inkscape:current-layer="svg3" />
  <path
     id="path2"
     d="M 197.51953 44.230469 C 160.8062 43.923802 128.13643 44.206745 99.509766 45.080078 C 92.149766 45.306745 85.602474 46.816042 79.869141 49.609375 C 73.355807 52.782708 68.539922 55.38349 65.419922 57.410156 C 45.789922 70.170156 33.139844 91.369766 33.089844 115.00977 C 33.063177 128.5031 33.04263 170.40737 33.029297 240.7207 C 33.029297 258.28737 33.380078 269.28737 34.080078 273.7207 C 39.810078 309.8107 69.119297 343.94063 104.7793 353.39062 C 113.96596 355.83062 123.12333 357.04573 132.25 357.03906 C 204.87667 357.0124 251.22745 357.0124 271.30078 357.03906 C 279.37078 357.03906 287.61023 356.31094 294.99023 354.96094 C 315.22357 351.23427 331.89023 341.49667 344.99023 325.75 C 364.71023 302.03 372.59953 274.73063 366.51953 244.14062 C 360.85953 215.69063 343.73008 191.07039 320.58008 173.90039 A 1.37 1.36 20.1 0 1 320.0293 172.73047 C 320.0893 171.63714 320.13039 166.06 320.15039 156 C 320.23039 109.97 289.52062 71.029844 247.39062 54.089844 C 231.38396 47.65651 214.75953 44.370469 197.51953 44.230469 z M 199.75 90.609375 C 229.2 90.579375 256.79008 105.23016 268.33008 132.91016 C 271.17008 139.73016 272.49721 146.69411 272.31055 153.80078 A 0.34 0.34 0 0 1 271.9707 154.13086 C 254.05737 154.35086 237.36086 154.43419 221.88086 154.38086 C 209.28086 154.32753 200.71302 154.80698 196.17969 155.82031 C 155.32969 164.94031 125.53961 199.54992 116.09961 239.16992 C 116.05961 239.32326 116.08945 239.48992 116.18945 239.66992 A 0.62 0.61 76.7 0 0 116.74023 240.00977 L 161.50977 240.00977 A 1.7 1.73 11.8 0 0 163.08008 238.9707 C 164.32008 236.10404 165.71 233.11333 167.25 230 C 174.49 215.37 186.45953 205.38047 202.26953 201.48047 C 206.70286 200.38714 212.55674 199.95302 219.83008 200.17969 C 223.49008 200.29302 235.74937 200.26318 256.60938 200.08984 C 274.66938 199.93651 290.25581 206.10008 303.36914 218.58008 C 317.61914 232.13008 324.7293 250.32031 322.7793 270.07031 C 320.7793 290.27031 306.57 305.6507 287 310.2207 C 282.87333 311.1807 278.12333 311.66635 272.75 311.67969 C 232.49 311.75969 186.49 311.76279 134.75 311.68945 C 108.27 311.64945 86.939531 296.57031 79.769531 270.82031 C 79.062865 268.29365 78.729531 264.10333 78.769531 258.25 C 78.902865 239.85 78.917214 196.35 78.810547 127.75 C 78.790547 116.46 79.119375 106.64039 87.859375 98.400391 C 92.429375 94.080391 98.200234 91.270547 104.49023 91.060547 C 122.55023 90.450547 152.93 90.659375 199.75 90.609375 z "
     style="fill:#aa0000" />
</svg>
