<?xml version="1.0" encoding="utf-8"?>
<!-- Generator: Adobe Illustrator 24.1.0, SVG Export Plug-In . SVG Version: 6.00 Build 0)  -->
<svg version="1.1" id="Layer_1" xmlns="http://www.w3.org/2000/svg" xmlns:xlink="http://www.w3.org/1999/xlink" x="0px" y="0px"
	 viewBox="0 0 293.6 74" style="enable-background:new 0 0 293.6 74;" xml:space="preserve">
<style type="text/css">
	.st0{fill:#010101;}
</style>
<g>
	<g>
		<g>
			<path class="st0" d="M28.4,56.8c4.2,3.4,8.4,5,8.5,5.2l0.4,0.1l0.4-0.1c0.1-0.1,4.3-1.8,8.5-5.2c5.6-4.5,8.6-9.5,8.6-14.7V18.7
				H19.7v22.9C19.7,47.1,22.7,52.3,28.4,56.8z M36.4,49.7c-0.1-0.1-0.4-0.1-0.6-0.1l0,0c-0.8,0-1.4,0-2.2,0.1s-1.3,0.1-2.4,0.1
				c-0.5,0-0.8,0-1.2,0V38.7h0.1c0.5,0,1,0,1.6,0s1.2-0.1,1.8-0.1c0.4,0,0.8-0.1,1.2-0.1c0.7-0.1,1.4,0,1.4,0c0.1,0,0.1,0,0.1,0
				C36.4,38.6,36.4,49.7,36.4,49.7z M53.1,42.2c0,9.6-11.8,16.1-15.3,17.8v-8.8c0.1-0.1,0.1-0.1,0.1-0.2c0.1-0.2,0.2-0.4,0.6-0.4
				c0.8,0,1.4,0,2,0.1c0.6,0,1.4,0.1,2.4,0.1c1.1,0,1.8,0,1.9,0h0.6v-3.2h1.3v-1.7h-1.2v-3.1h1.3v-1.7h-1.3v-3.5h-0.6
				c-0.2,0-0.5,0-0.7,0c-0.5,0-1,0-1.6,0c-0.5,0-1.1-0.1-1.8-0.1c-0.4,0-0.8-0.1-1.2-0.1c-1-0.1-1.8,0.1-1.8,0.1l0,0v-3.4h15.3V42.2
				z M37.9,49.7V38.6c0.1,0,0.1-0.1,0.4-0.1c0,0,0.7-0.1,1.4,0c0.5,0,0.8,0.1,1.2,0.1c0.7,0.1,1.3,0.1,1.8,0.1c0.6,0,1,0,1.4,0
				c0.1,0,0.2,0,0.4,0v11.1c-0.4,0-0.7,0-1.2,0c-1,0-1.7-0.1-2.4-0.1c-0.7-0.1-1.3-0.1-2.2-0.1C38.4,49.5,38.1,49.5,37.9,49.7z
				 M21.3,20.5H53v11.9H21.3V20.5z M21.3,34h15.1v3.2c-0.2,0-1-0.1-1.7,0c-0.5,0-0.8,0.1-1.2,0.1c-0.7,0.1-1.2,0.1-1.8,0.1
				s-1.2,0-1.6,0c-0.4,0-0.6,0-0.8,0h-0.5v3.2h-1.4v1.7h1.4v3.2h-1.4v1.7h1.4v3.6h0.6c0,0,0.8,0,1.9,0s1.8-0.1,2.4-0.1
				c0.7-0.1,1.2-0.1,2-0.1c0.4,0,0.4,0.1,0.6,0.4c0,0,0,0.1,0.1,0.1v8.8c-3.6-1.8-15.1-8.2-15.1-18.1L21.3,34z"/>
			<path class="st0" d="M34.6,21.7h-8.8v0.6c0,1.9,0,5.2,0,5.4c0,0.7,0.5,1.3,1.3,1.8c1.1,0.7,2.6,1.7,2.8,1.7l0.4,0.1l0.4-0.1
				c0.1,0,1.8-1,2.9-1.7c1.2-0.8,1.3-1.6,1.3-1.8c0-0.1,0-3,0-5.4v-0.6H34.6z M27,22.9h6.4c0,0.5,0,1.1,0,1.6H27
				C27,24,27,23.5,27,22.9z M33.3,27.6c0,0.4-0.4,0.6-0.7,0.8c-0.7,0.5-1.9,1.2-2.4,1.4c-0.5-0.4-1.6-1-2.4-1.4
				c-0.5-0.4-0.8-0.6-0.8-1c0-0.1,0-0.8,0-1.8h6.4C33.3,26.7,33.3,27.4,33.3,27.6z"/>
			<path class="st0" d="M49.7,21.4h-9V22c0,2.4,0,5.4,0,5.5c0,0.7,0.5,1.3,1.4,1.9c1.1,0.7,2.8,1.7,2.8,1.7l0.4,0.1l0.4-0.1
				c0.1,0,1.8-1,3-1.7c1.3-0.8,1.3-1.7,1.3-1.9c0-0.1,0-3,0-5.5L49.7,21.4z M48.5,27.4c0,0.4-0.4,0.6-0.7,0.8
				c-0.8,0.5-2,1.2-2.5,1.6c-0.5-0.4-1.7-1-2.4-1.6c-0.2-0.1-0.8-0.6-0.8-1c0,0,0-0.1,0-0.4l3.1-2.3l3.5,2.3
				C48.5,27.3,48.5,27.4,48.5,27.4z M45,23.4l-3.2,2.2c0-0.8,0-1.9,0-2.9h6.6c0,1,0,2,0,3L45,23.4z"/>
			<path class="st0" d="M39.4,41.1l0.6,0.1c0.4,0,0.7,0.1,1.1,0.1h1.8v-1.2h-1.8c-0.2,0-0.6,0-1-0.1l-0.6-0.1c-0.1,0-0.4,0-0.5,0
				v1.2C39.3,41.1,39.4,41.1,39.4,41.1z"/>
			<path class="st0" d="M41.1,43.4c-0.2,0-0.6,0-1-0.1c-0.2,0-0.5,0-0.6-0.1c-0.1,0-0.4,0-0.5,0v1.2c0.1,0,0.2,0,0.4,0
				s0.5,0,0.6,0.1c0.4,0,0.7,0.1,1,0.1c0.4,0,1,0,1.3,0h0.5v-1.2h-0.5C42.1,43.5,41.6,43.5,41.1,43.4z"/>
			<path class="st0" d="M41.1,46.9c-0.2,0-0.6,0-1-0.1c-0.2,0-0.4,0-0.6-0.1c-0.1,0-0.4,0-0.5,0v1.2c0.1,0,0.2,0,0.2,0
				c0.2,0,0.5,0,0.6,0.1c0.4,0,0.7,0.1,1.1,0.1h0.5c0.5,0,1.1,0,1.3,0v-1.2c-0.2,0-0.8,0-1.3,0H41.1z"/>
			<path class="st0" d="M33.3,41.3c0.4,0,0.6,0,1.1-0.1c0.2,0,0.4,0,0.6-0.1c0.1,0,0.2,0,0.2,0v-1.2c-0.1,0-0.2,0-0.4,0
				s-0.5,0-0.6,0.1c-0.4,0-0.7,0.1-1,0.1h-1.8v1.2H33.3z"/>
			<path class="st0" d="M34.3,43.4c-0.4,0-0.7,0.1-1,0.1h-1.8v1.2h1.8c0.4,0,0.6,0,1.1-0.1l0.6-0.1c0.1,0,0.2,0,0.2,0v-1.2
				c-0.1,0-0.2,0-0.5,0L34.3,43.4z"/>
			<path class="st0" d="M34.3,46.8c-0.4,0-0.7,0.1-1,0.1c-0.6,0-1.4,0-1.8,0v1.2c0.2,0,1.2,0,1.8,0c0.4,0,0.6,0,1.1-0.1l0.6-0.1
				c0.1,0,0.2,0,0.2,0v-1.2c-0.1,0-0.2,0-0.4,0L34.3,46.8z"/>
			<path class="st0" d="M5.7,37.3c1.6,0,2.5-1,2.6-2.8c0-0.4,0-0.7-0.1-1.2v-0.1H6.9L7,33.4c0.1,0.2,0.1,0.6,0.1,1
				c0,0.8-0.7,1.4-1.7,1.4c-1-0.1-1.6-0.7-1.6-1.6c0-0.2,0.1-0.6,0.4-1L4.3,33L3,32.8v0.1c-0.1,0.4-0.2,0.7-0.2,1.2
				c-0.1,1.9,0.8,3,2.6,3.1C5.4,37.3,5.6,37.3,5.7,37.3z"/>
			<path class="st0" d="M5.8,31.2c0.4,0.1,0.7,0.1,1.1,0.1c1.2,0,2-0.7,2.4-1.9c0.2-0.7,0.1-1.4-0.1-1.9c-0.4-0.6-1-1.1-1.8-1.3
				c-0.4-0.1-0.6-0.1-1-0.1c-1.2,0-2,0.7-2.4,1.9C3.5,29.5,4.2,30.7,5.8,31.2z M5.1,28.3c0.2-0.7,0.7-0.8,1.2-0.8
				c0.2,0,0.5,0,0.7,0.1c0.6,0.1,1,0.5,1.2,0.8c0.1,0.2,0.1,0.5,0.1,0.8C8.1,29.9,7.6,30,7.1,30c-0.2,0-0.5,0-0.7-0.1
				C5.6,29.6,4.8,29.1,5.1,28.3z"/>
			<path class="st0" d="M11.2,24.2l-1.8-1v-0.1c0.2-0.4,0.4-0.2,0.6-0.2l1.8,0.2l0.7-1.3l-2.4-0.2c-0.1,0-0.4,0-0.5,0
				c0-0.5-0.2-1-0.7-1.2c-0.2-0.1-0.5-0.2-0.7-0.2c-0.8,0-1.3,0.8-1.7,1.7l-0.6,1.2l4.8,2.5L11.2,24.2z M8.5,22.5l-0.1,0.1l-0.8-0.5
				L7.7,22c0.2-0.4,0.5-0.7,0.8-0.5c0.1,0.1,0.1,0.1,0.1,0.2C8.7,22,8.6,22.4,8.5,22.5z"/>
			<polygon class="st0" points="14.2,19.5 11.7,17.5 15.2,18.3 16.1,17.1 12.1,13.7 11.2,14.7 13.6,16.7 10.1,15.9 9.2,17.1 
				13.4,20.6 			"/>
			<polygon class="st0" points="20.2,13.7 19.4,12.8 17.9,14 17.3,13.3 18.7,12.2 17.9,11.2 16.5,12.3 16,11.7 17.5,10.5 16.7,9.5 
				14.2,11.6 17.6,15.8 			"/>
			<polygon class="st0" points="24.7,11.1 24.1,10 22.4,11 20.3,7.3 19.1,8 21.8,12.7 			"/>
			<polygon class="st0" points="29.1,9.3 28.8,8.2 27,8.9 25.5,5 24.2,5.3 26.1,10.5 			"/>
			<path class="st0" d="M34.5,8.5c0.1,0,0.2,0,0.4,0c0.7-0.1,1.3-0.2,1.7-0.7c0.4-0.4,0.5-1,0.4-1.6l-0.2-3.4l-1.3,0.1L35.7,6
				c0.1,1.1-0.4,1.2-0.7,1.3h-0.2c-0.4,0-0.7-0.1-0.8-1.2l-0.3-3l-1.3,0.1l0.1,3.4C32.6,7.7,33.3,8.5,34.5,8.5z"/>
			<polygon class="st0" points="40.8,5.2 41.8,8.6 43.4,8.8 44.1,3.4 42.8,3.3 42.3,6.4 41.2,3.1 39.7,2.8 39,8.2 40.3,8.3 			"/>
			<polygon class="st0" points="48.1,4.6 46.8,4.3 45.2,9.3 46.5,9.8 			"/>
			<polygon class="st0" points="54.8,7.6 53.6,7 51.1,9.7 51.6,5.9 50.4,5.3 49.5,11 50.9,11.6 			"/>
			<polygon class="st0" points="56.3,15.3 57,14.3 55.4,13.3 56,12.4 57.5,13.5 58.2,12.5 56.7,11.5 57.2,10.9 58.8,11.9 59.5,11.1 
				56.9,9.1 53.6,13.3 			"/>
			<path class="st0" d="M58.4,17.6l1.6-1.3l0.1,0.1c0.2,0.2,0.2,0.4,0,0.6l-0.8,1.6l1,1.1l1.1-2.2c0-0.1,0.1-0.2,0.1-0.5
				c0.5,0.2,1,0.1,1.4-0.2c1.2-1,0.2-2-0.5-2.9l-0.8-1l-4.1,3.6L58.4,17.6z M61.5,14.8L61.5,14.8c0.2,0.4,0.5,0.6,0.5,0.8
				c0,0.1,0,0.2-0.1,0.2c-0.1,0.1-0.2,0.1-0.2,0.1c-0.2,0-0.5-0.2-0.6-0.5L61,15.3L61.5,14.8z"/>
			<path class="st0" d="M63.5,21.9c-0.2,0.1-0.6-0.1-0.7-0.4s-0.2-0.6-0.2-1.1v-0.2l-1.2,0.6l0.1,0.2c0.1,0.4,0.2,0.7,0.5,1.1
				c0.5,0.7,1,1.2,1.7,1.2c0.2,0,0.6-0.1,0.8-0.2c1-0.6,0.8-1.4,0.7-2.2c-0.1-0.5-0.1-0.7,0.1-0.8c0.1,0,0.2-0.1,0.2-0.1
				c0.2,0,0.4,0.2,0.5,0.4c0.1,0.2,0.2,0.6,0.4,1v0.2l1.1-0.5V21c-0.1-0.4-0.2-0.7-0.5-1.2c-0.6-1-1.6-1.3-2.4-0.7
				c-1,0.6-0.8,1.4-0.7,2C63.6,21.4,63.7,21.8,63.5,21.9z"/>
			<rect x="63.6" y="24.4" transform="matrix(0.9259 -0.3777 0.3777 0.9259 -4.5524 26.89)" class="st0" width="5.4" height="1.3"/>
			<polygon class="st0" points="69,28.5 64.9,29.5 65.3,30.8 69.4,29.8 69.7,31.2 70.8,30.9 69.8,26.8 68.8,27.1 			"/>
			<polygon class="st0" points="65.9,35 66,36.3 68,36.2 71.4,38 71.4,36.4 69.4,35.5 71.3,34.4 71.2,32.7 68,34.9 			"/>
			<polygon class="st0" points="6.7,47.4 7.9,47 7.4,45.3 8.2,45.1 8.7,46.9 9.8,46.5 8.9,43.5 3.8,45 4.1,46.3 6.3,45.7 			"/>
			<path class="st0" d="M11.5,51.8c0.2-0.6,0.1-1.3-0.2-2c-0.5-1-1.3-1.6-2.2-1.6c-0.5,0-1,0.1-1.4,0.4c-0.8,0.4-1.3,1-1.6,1.6
				c-0.2,0.6-0.1,1.3,0.2,2c0.5,1,1.3,1.4,2.3,1.4c0.5,0,1-0.1,1.4-0.4C10.7,53,11.2,52.4,11.5,51.8z M9.4,52.1
				c-0.4,0.1-0.7,0.2-1,0.2c-0.5,0-0.8-0.2-1-0.6c-0.2-0.2-0.2-0.6-0.2-0.8c0.1-0.4,0.5-0.7,1-1c0.4-0.1,0.6-0.2,1-0.2
				c0.5,0,0.8,0.2,1.1,0.6c0.1,0.2,0.1,0.6,0.1,0.8C10.3,51.5,9.9,51.8,9.4,52.1z"/>
			<path class="st0" d="M15.2,55.9l-2.4,1.9c-0.6,0.5-1.1,0.6-1.4,0.1c-0.1-0.2-0.2-0.4-0.2-0.6s0.2-0.6,0.6-0.8l2.4-1.9l-0.8-1.1
				l-2.6,2c-0.6,0.5-0.8,1-0.8,1.4s0.2,1.1,0.6,1.6c0.5,0.6,1.1,1,1.7,1c0.5,0,0.8-0.2,1.3-0.6l2.6-2.2L15.2,55.9z"/>
			<polygon class="st0" points="19.7,60.4 17.7,62.8 18.5,59.3 17.3,58.3 14,62.5 14.9,63.4 17,60.8 16.3,64.3 17.3,65.3 20.8,61.2 
							"/>
			<path class="st0" d="M23.7,62.9l-1.4-0.7L19.9,67l1.4,0.7c0.7,0.4,1.2,0.5,1.8,0.5c1,0,1.7-0.5,2.2-1.6
				C26.1,65,25.5,63.8,23.7,62.9z M23.9,66c-0.2,0.6-0.7,0.8-1.3,0.8c-0.2,0-0.5,0-0.7-0.1l-0.2-0.1l1.3-2.8l0.4,0.1
				c0.4,0.1,0.6,0.5,0.7,0.8S24.2,65.6,23.9,66z"/>
			<polygon class="st0" points="26.7,70 30,70.8 30.2,69.7 28.3,69.2 28.6,68.2 30.3,68.6 30.7,67.6 28.9,67.1 29.1,66.2 31,66.7 
				31.3,65.6 28,64.8 			"/>
			<path class="st0" d="M34.6,66L33,65.9l-0.4,5.4l1.6,0.1c0.1,0,0.2,0,0.4,0c1.8,0,2.8-0.8,2.9-2.5c0-0.8-0.1-1.4-0.6-1.9
				C36.4,66.4,35.7,66.1,34.6,66z M34.6,70.2h-0.4l0.1-3h0.5c0.7,0,1.4,0.6,1.3,1.6C36.1,69.8,35.2,70.3,34.6,70.2z"/>
			<path class="st0" d="M42.3,65.6l-1,5.6l1.4-0.4l0.2-1.2l1.7-0.4l0.6,1.1l1.6-0.2l-3.1-4.8L42.3,65.6z M43.2,68.6l0.1-1.4l0.7,1.2
				L43.2,68.6z"/>
			<polygon class="st0" points="47.4,68.4 47.9,69.7 49.2,69.2 48.7,67.9 			"/>
			<path class="st0" d="M50,63l-1.3,0.7l2.5,4.7l1.3-0.7c1.8-1,2.3-2.3,1.4-3.8C53.1,62.3,51.8,62,50,63z M52.2,66.6l-0.4,0.1
				l-1.4-2.6l0.4-0.1c0.2-0.1,0.5-0.2,0.7-0.2c0.6,0,1,0.4,1.3,0.8C53.3,65.4,52.8,66.2,52.2,66.6z"/>
			<polygon class="st0" points="55.1,64.7 55.8,65.8 57,65 56.1,63.8 			"/>
			<polygon class="st0" points="57.1,57.8 56.9,59.9 58.1,60 58.2,59.2 60.7,61.8 61.8,60.8 57.9,57 			"/>
			<path class="st0" d="M64.4,54.9c-0.5-0.4-1-0.4-1.6-0.1c0-0.5-0.2-1-0.6-1.2c-0.7-0.5-1.6-0.2-2.2,0.7c-0.6,0.8-0.6,1.8,0.1,2.3
				c0.4,0.2,0.8,0.4,1.3,0.1c0,0.6,0.1,1.1,0.6,1.3c0.4,0.2,0.6,0.4,1,0.4c0.5,0,1.1-0.4,1.6-1c0.4-0.5,0.5-1.1,0.5-1.4
				C65,55.6,64.8,55.2,64.4,54.9z M61.9,55.3c-0.2,0.1-0.4,0.2-0.6,0.2c-0.1,0-0.1,0-0.2-0.1c-0.2-0.2-0.1-0.5,0-0.7
				c0.1-0.1,0.2-0.2,0.4-0.2c0.1,0,0.2,0,0.2,0.1C61.8,54.8,61.9,55.2,61.9,55.3z M63.7,56.8c-0.2,0.2-0.5,0.4-0.7,0.1
				c-0.2-0.1-0.2-0.4-0.2-0.7c0.4-0.2,0.7-0.2,1-0.1c0.1,0.1,0.1,0.2,0.2,0.4C63.8,56.5,63.8,56.6,63.7,56.8z"/>
			<path class="st0" d="M66.8,49.7c-1-0.5-1.8-0.2-2.3,0.7c-0.1,0.2-0.1,0.5-0.1,0.7c-0.4-0.2-0.6-0.7-0.4-1.2
				c0.1-0.2,0.4-0.5,0.5-0.6l0.2-0.1l-1-0.7l-0.1,0.1c-0.2,0.2-0.5,0.6-0.7,1c-0.2,0.5-0.4,1.1-0.1,1.6C63,52,64,52.6,64.7,53
				c0.6,0.4,1.1,0.5,1.6,0.5c0.7,0,1.2-0.4,1.6-1C68.4,51.2,68,50.3,66.8,49.7z M66.8,51.7c-0.1,0.1-0.2,0.2-0.4,0.2
				c-0.1,0-0.2,0-0.5-0.1c-0.2-0.1-0.5-0.2-0.5-0.5c0-0.1,0-0.2,0-0.4c0.1-0.1,0.2-0.2,0.4-0.2c0.1,0,0.4,0,0.5,0.1
				c0.2,0.1,0.4,0.2,0.5,0.5C66.8,51.6,66.8,51.6,66.8,51.7z"/>
			<path class="st0" d="M68.8,44.3c-1.1-0.4-1.9,0.1-2.3,1.2c0,0.1,0,0.2-0.1,0.2l-0.6-0.2l0.6-1.8l-1.1-0.4l-1,3.1l3,1v-0.3
				c0-0.2,0-0.6,0.1-0.8c0.1-0.2,0.4-0.8,1-0.7c0.6,0.2,0.5,0.8,0.4,1.1c-0.1,0.4-0.4,0.6-0.5,0.8l-0.1,0.2l1.2,0.4l0.1-0.1
				c0.2-0.4,0.4-0.8,0.5-1.1c0.2-0.6,0.1-1.2-0.1-1.7C69.7,44.7,69.2,44.4,68.8,44.3z"/>
			<path class="st0" d="M10,37c0,14.9,12.1,27.1,27.1,27.1c15,0.1,27.2-12,27.2-27C64.3,22.2,52.2,10,37.2,10C22.1,10,10,22.2,10,37
				z M37,11c14.4,0,26.2,11.8,26.2,26.2S51.5,63.4,37,63.4S10.9,51.6,10.9,37.2C11,22.6,22.6,11,37,11z"/>
			<path class="st0" d="M37,0C16.6,0,0,16.6,0,37s16.6,37,37,37s37-16.6,37-37C74.2,16.6,57.6,0,37,0z M37,73.2
				c-19.9,0-36-16.2-36-36c0-19.9,16.2-36,36-36c19.9,0,36,16.2,36,36C73.2,57,57,73.2,37,73.2z"/>
		</g>
		<g>
			<path d="M107,45.3c-1.4,1-4.1,1.4-5.6,1.4c-6.2,0-10.3-3.5-10.3-9.4c0-3,1.2-5.3,3.1-7c1.9-1.6,4.6-2.5,7.4-2.5
				c2.4,0,4.7,0.6,6,1.1c-0.2,1.2-0.5,2.5-0.5,4h-0.8v-1.8c0-0.7-1.1-1.2-2.2-1.6c-0.8-0.2-1.9-0.5-2.9-0.5c-4.8,0-7.4,3.5-7.4,7.9
				c0,5.2,3.4,8.4,8.5,8.4c1.8,0,4.1-0.7,5.3-1.6l0.2,0.4L107,45.3z"/>
			<path d="M108.6,40.7c0-3.8,2.4-6.6,6.6-6.6c3.4,0,5.9,2.5,5.9,5.9c0,4-2.8,6.7-6.7,6.7C111,46.8,108.6,44.3,108.6,40.7z
				 M111,39.6c0,2.8,1,6.2,4.3,6.2c2.4,0,3.4-2.4,3.4-4.8c0-3.4-1.6-6.1-4.1-6.1C111.9,34.9,111,37.2,111,39.6z"/>
			<path d="M123.7,37.8c0-0.8,0-1.4-0.2-1.6c-0.1-0.2-0.4-0.2-1-0.2h-1v-0.7c1.6-0.1,3.1-0.6,4.1-1.1l0.2,0.1v2.6l0,0l1.4-1.7
				c0.6-0.7,1.4-1.1,2.2-1.1c0.5,0,1,0.1,1.2,0.2l-0.2,3.1h-0.6c-0.2-0.6-0.8-1.2-1.8-1.2c-1.1,0-2.3,1.2-2.3,2.9v4.4
				c0,0.7,0,1.2,0.1,1.4c0.1,0.2,0.5,0.4,1.1,0.4l1.3,0.1v0.7c-1.3,0-2.4-0.1-3.6-0.1c-1.3,0-2.3,0-3.2,0.1v-0.7l1.2-0.1
				c0.5,0,0.7-0.1,0.8-0.4c0.1-0.2,0.1-0.8,0.1-1.4v-5.9h0.2V37.8z"/>
			<path d="M135.8,43.5c0,0.7,0,1.2,0.1,1.4c0.1,0.2,0.4,0.4,0.8,0.4l1.2,0.1v0.7c-1,0-1.9-0.1-3.2-0.1s-2.3,0-3.2,0.1v-0.7l1.2-0.1
				c0.5,0,0.7-0.1,0.8-0.4c0.1-0.2,0.1-0.8,0.1-1.4v-5.8c0-0.8,0-1.4-0.2-1.6c-0.1-0.2-0.4-0.2-1-0.2h-1v-0.7
				c1.6-0.1,3.1-0.6,4.1-1.1l0.2,0.1v2.2l0,0l1.9-1.7c0.6-0.5,1.1-0.6,2-0.6c3,0,4.2,1.7,4.2,4.4v4.9c0,0.7,0,1.2,0.1,1.4
				c0.1,0.2,0.4,0.4,0.8,0.4l1.1,0.1V46c-0.6,0-1.4-0.1-2.2-0.1s-1.4,0-2,0.1v-7.3c0-2.2-1.2-3.2-3-3.2c-1.6,0-3.1,1.3-3.1,2.4v5.5
				L135.8,43.5L135.8,43.5z"/>
			<path d="M157.5,38.9c0,0.4,0,0.7,0,1.1c-1.6,0.2-3.1,0.4-4.7,0.4H149c0,3,1.4,5,4.7,5c1.2,0,2.2-0.6,3.2-1.2l0.4,0.2l-0.5,0.8
				c-0.2,0.4-2.4,1.4-4.1,1.4c-3.8,0-6-2.5-6-6c0-2.5,0.7-4,1.8-4.9c0.5-0.4,1.1-0.7,1.6-1.1c1-0.4,1.7-0.7,2.5-0.7
				C155.4,34,157.5,35.8,157.5,38.9z M149,39.2c2.2,0.2,4.3,0.2,6.1,0.1c0-2.4-0.8-4.3-2.8-4.3C150.4,34.9,148.9,36.4,149,39.2z"/>
			<path d="M160.1,30.2c0-0.6-0.1-1.1-0.6-1.1h-1.4v-0.7c1.3-0.2,2.8-0.5,4.1-1l0.1,0.2v15.9c0,0.7,0,1.2,0.1,1.4
				c0.1,0.2,0.4,0.4,0.8,0.4l1.2,0.1v0.7c-1,0-1.9-0.1-3.2-0.1s-2.3,0-3.2,0.1v-0.7l1.2-0.1c0.5,0,0.7-0.1,0.8-0.4
				c0.1-0.2,0.1-0.8,0.1-1.4L160.1,30.2L160.1,30.2z"/>
			<path d="M167.7,30.2c0-0.6-0.1-1.1-0.6-1.1h-1.4v-0.7c1.3-0.2,2.8-0.5,4.1-1l0.2,0.2v15.9c0,0.7,0,1.2,0.1,1.4
				c0.1,0.2,0.4,0.4,0.8,0.4l1.2,0.1v0.7c-1,0-1.9-0.1-3.2-0.1s-2.3,0-3.2,0.1v-0.7l1.2-0.1c0.5,0,0.7-0.1,0.8-0.4
				c0.1-0.2,0.1-0.8,0.1-1.4V30.2H167.7z"/>
			<path d="M180.1,31.5c0-1,0-1.7-0.2-1.9c-0.1-0.2-0.5-0.4-1.1-0.4l-1.2-0.1v-0.7c1.3,0,2.5,0.1,3.8,0.1c1.2,0,2.4,0,3.7-0.1v0.7
				l-1.2,0.1c-0.6,0-1,0.1-1.1,0.4c-0.1,0.2-0.2,1-0.2,1.9v8.9c0,3.7,1.9,4.7,5.3,4.7c2.8,0,5.3-1.1,5.3-5.3v-8.3c0-1,0-1.7-0.2-1.9
				c-0.1-0.2-0.5-0.4-1.1-0.4l-1.1-0.1v-0.7c1.1,0,2,0.1,3,0.1c1.1,0,1.9,0,3.1-0.1v0.7l-1.1,0.1c-0.6,0-1,0.1-1.1,0.4
				c-0.2,0.2-0.2,1-0.2,1.9v7.4c0,5.5-2,7.7-7.3,7.7c-4.4,0-7-1.3-7-6L180.1,31.5L180.1,31.5z"/>
			<path d="M200.2,43.5c0,0.7,0,1.2,0.1,1.4c0.1,0.2,0.4,0.4,0.8,0.4l1.2,0.1v0.7c-1,0-1.9-0.1-3.2-0.1s-2.3,0-3.2,0.1v-0.7l1.2-0.1
				c0.5,0,0.7-0.1,0.8-0.4c0.1-0.2,0.1-0.8,0.1-1.4v-5.8c0-0.8,0-1.4-0.2-1.6c-0.1-0.2-0.4-0.2-1-0.2h-1v-0.7
				c1.6-0.1,3.1-0.6,4.1-1.1l0.2,0.1v2.2l0,0l1.9-1.7c0.6-0.5,1.1-0.6,2-0.6c3,0,4.2,1.7,4.2,4.4v4.9c0,0.7,0,1.2,0.1,1.4
				c0.1,0.2,0.4,0.4,0.8,0.4l1.1,0.1V46c-0.6,0-1.4-0.1-2.2-0.1s-1.4,0-2,0.1v-7.3c0-2.2-1.2-3.2-3-3.2c-1.6,0-3.1,1.3-3.1,2.4v5.5
				L200.2,43.5L200.2,43.5z"/>
			<path d="M216.2,43.5c0,0.7,0,1.2,0.1,1.4c0.1,0.2,0.4,0.4,0.8,0.4l1.2,0.1v0.7c-1,0-1.9-0.1-3.2-0.1s-2.3,0-3.2,0.1v-0.7l1.2-0.1
				c0.5,0,0.7-0.1,0.8-0.4c0.1-0.2,0.1-0.8,0.1-1.4v-5.8c0-0.8,0-1.4-0.2-1.6c-0.1-0.2-0.4-0.2-1-0.2h-1v-0.7
				c1.6-0.1,3.1-0.6,4.1-1.1l0.2,0.1L216.2,43.5L216.2,43.5z M216.4,29.8c0,0.7-0.7,1.4-1.4,1.4s-1.4-0.7-1.4-1.4s0.7-1.4,1.4-1.4
				S216.4,29.1,216.4,29.8z"/>
			<path d="M226.4,43.5c-0.5,1-0.7,1.9-1.1,2.8H224l-4.4-10.5c-0.1-0.4-0.4-0.8-0.8-0.8h-1v-0.7c1,0,2,0.1,3,0.1s2,0,3-0.1V35h-1.3
				c-0.7,0-0.8,0.4-0.4,1.4l3.1,7.4c0.6-1.2,1.1-2.4,1.6-3.6l1.1-2.8c0.7-1.8,0.6-2.5-0.1-2.5h-1.1v-0.7c0.8,0,1.7,0.1,2.4,0.1
				c0.8,0,1.7,0,2.4-0.1v0.7h-0.8c-0.6,0-1.1,1-1.4,1.7L226.4,43.5z"/>
			<path d="M242.3,38.9c0,0.4,0,0.7,0,1.1c-1.6,0.2-3.1,0.4-4.7,0.4h-3.7c0,3,1.4,5,4.7,5c1.2,0,2.2-0.6,3.2-1.2l0.4,0.2l-0.5,0.8
				c-0.2,0.4-2.4,1.4-4.1,1.4c-3.8,0-6-2.5-6-6c0-2.5,0.7-4,1.8-4.9c0.5-0.4,1.1-0.7,1.6-1.1c1-0.4,1.7-0.7,2.5-0.7
				C240.3,34,242.3,35.8,242.3,38.9z M233.9,39.2c2.2,0.2,4.3,0.2,6.1,0.1c0-2.4-0.8-4.3-2.8-4.3C235.4,34.9,233.8,36.4,233.9,39.2z
				"/>
			<path d="M245.8,37.8c0-0.8,0-1.4-0.2-1.6c-0.1-0.2-0.4-0.2-1-0.2h-1v-0.7c1.6-0.1,3.1-0.6,4.1-1.1l0.2,0.1v2.6l0,0l1.4-1.7
				c0.6-0.7,1.4-1.1,2.2-1.1c0.5,0,1,0.1,1.2,0.2l-0.2,3.1h-0.6c-0.2-0.6-0.8-1.2-1.8-1.2c-1.1,0-2.3,1.2-2.3,2.9v4.4
				c0,0.7,0,1.2,0.1,1.4c0.1,0.2,0.5,0.4,1.1,0.4l1.3,0.1v0.7c-1.3,0-2.4-0.1-3.6-0.1c-1.3,0-2.3,0-3.2,0.1v-0.7l1.2-0.1
				c0.5,0,0.7-0.1,0.8-0.4c0.1-0.2,0.1-0.8,0.1-1.4v-5.9h0.2V37.8z"/>
			<path d="M254.7,42.5v1.1c0,1.6,1.8,2.2,3.4,2.2c1.7,0,3-1,3-2.4c0-0.8-0.5-1.4-1.2-1.7c-1.1-0.2-2.5-0.6-3.8-1.1
				c-1.2-0.5-2.2-1.2-2.2-2.8c0-2.8,2.4-3.7,4.8-3.7c1.2,0,2.3,0.2,3.4,0.6c-0.1,1-0.1,1.9-0.1,2.9h-0.7V37c0-1.3-1.6-2.2-3-2.2
				c-2.2,0-2.5,1.2-2.5,2c0,1.1,0.8,1.7,2.8,2c3.1,0.5,4.6,1.3,4.6,3.4c0,2.9-2.9,4.3-5.8,4.3c-1.2,0-2.4-0.2-3.6-0.6
				c0.2-1.1,0.2-2.4,0.2-3.6h0.8L254.7,42.5L254.7,42.5z"/>
			<path d="M268.7,43.5c0,0.7,0,1.2,0.1,1.4c0.1,0.2,0.4,0.4,0.8,0.4l1.2,0.1v0.7c-1,0-1.9-0.1-3.2-0.1c-1.3,0-2.3,0-3.2,0.1v-0.7
				l1.2-0.1c0.5,0,0.7-0.1,0.8-0.4c0.1-0.2,0.1-0.8,0.1-1.4v-5.8c0-0.8,0-1.4-0.2-1.6c-0.1-0.2-0.4-0.2-1-0.2h-1v-0.7
				c1.6-0.1,3.1-0.6,4.1-1.1l0.2,0.1v9.3H268.7z M268.9,29.8c0,0.7-0.7,1.4-1.4,1.4c-0.7,0-1.4-0.7-1.4-1.4s0.7-1.4,1.4-1.4
				S268.9,29.1,268.9,29.8z"/>
			<path d="M271.4,36.4v-0.6l2-1v-1.7c0-0.7,0-1.3-0.1-2c1-0.2,1.8-0.7,2.2-1l0.4,0.2c-0.1,1.1-0.2,2.5-0.2,3.7v1l3.5-0.1l-0.2,1.4
				h-3.4v6.8c0,1.2,0.4,1.8,1.4,1.8c0.7,0,1.2-0.2,1.6-0.5l0.4,0.5l-1.2,1.3c-0.2,0.2-1.1,0.4-1.7,0.4c-1.3,0-2.5-0.6-2.5-2.8v-7.4
				H271.4z"/>
			<path d="M290.5,36.4c0.4-1,0-1.2-1-1.3h-0.7v-0.7c0.8,0,1.7,0.1,2.4,0.1c0.8,0,1.7,0,2.4-0.1v0.7h-0.7c-0.6,0-1.2,0.8-2.2,3.1
				l-5.3,12.1c-0.8,1.9-1.8,3.1-4,3.1c-0.5,0-1-0.2-1.3-0.4l0.6-1.9h0.4c0.4,0.4,1,0.6,1.3,0.6c1.4-0.1,2.3-2.2,2.8-3.4l0.6-1.6
				c-0.5-1.2-1-2.5-1.4-3.7l-2.8-6.7c-0.4-1-0.7-1.2-1.3-1.3h-0.5v-0.7c1,0,2,0.1,3,0.1s2,0,3-0.1v0.8h-1c-0.7,0-1.2,0.2-0.6,1.7
				l1.7,4.3c0.4,1,0.7,1.9,1.3,2.9L290.5,36.4z"/>
		</g>
	</g>
</g>
</svg>
