<?xml version="1.0" encoding="utf-8"?>
<!-- Generator: Adobe Illustrator 24.1.0, SVG Export Plug-In . SVG Version: 6.00 Build 0)  -->
<svg version="1.1" id="Layer_1" xmlns="http://www.w3.org/2000/svg" xmlns:xlink="http://www.w3.org/1999/xlink" x="0px" y="0px"
	 viewBox="0 0 769 419" style="enable-background:new 0 0 769 419;" xml:space="preserve">
<style type="text/css">
	.st0{fill:#010202;}
	.st1{fill-rule:evenodd;clip-rule:evenodd;fill:#010202;}
</style>
<path class="st0" d="M509.3,232c-0.1-30.8,33-35.7,68.1-54.1l-0.3-0.8c-0.3-3.5-12.8-20.9-13-25.2c-0.3-8.2,19.8-18.9,20-21
	c-1.5-1.9-2.9-3.8-4.2-5.9c-1.4-0.1-6.9,5.8-14,5.8c-17.8,0-17.1-21.3-9.7-32.4c-10.2-20.5,1.7-20.2,1-25.5
	c-0.7-5.4-2.3-9.5-2.2-15.3c0,0-0.1-3.1,0.3-4.2c2.1-5.2,6.5-3.5,6.4-9.9c-0.1-10.9,9.2-15.4,17.3-19.7c1.5-0.8,0.2-10.1,8.7-14.8
	c10-5.5,23.3-10.1,33-2.6c8.8-4.4,20.3-5.6,30-6.2c7.2-0.5,10.4,2.8,14.4,8.1l1,1.6c7-4.7,11.6-2.9,14.4,4.3
	c11.7-8.7,31.7,13.6,24.4,29.5l0.4,0.9c9.3,2.4,10.5,21.5,11.1,28.7c0.5,5.8-2.9,10.3-3.2,15.2c0,0.6,1,1.3,1.4,1.7
	c4.3,3.6,5.5,4.3,6.9,9.8c1.4,5.8,1.1,13.6-2.6,18.7c-7.7,10.6-13.4,6.5-23.5,3.6c-1,1.4-4,5.4-4.2,6.9c30.4,15.6,24.6,13.7,11.9,43
	c-0.3,0.7-2.6,5.9-2.6,6.3c0,0.4,0.8,0.7,1,0.9c5.5,3.2,43.4,18.1,54.6,27.7c11.1,9.6,11.2,24.9,11.2,24.9l0.1,6.4H0.5v-6.6
	L509.3,232 M607.6,14.7c-2,0-7,2.1-9,3.6c-0.7,0.5-2.3,1.2-2.3,2.4c0,0.6,0.2,0.9,0.3,1c0.6,0.1,8.1-0.2,8.1-0.2
	c0.7,0.2,1.9,1.3,1.9,1.9c0,1.5-4.5,4.5-5.2,4.8c-1.2,0.5-2.9,0.4-4,1c-6.7,3.5-12.8,8.5-17.2,14.1c-1,1.3-2.4,4-2.6,4.6
	c-0.2,0.6-0.2,1.1-0.2,1.7c0,1,1.2,2.4,3,2.4c0.6,0,2.5-1,3.1-1.8c0.9-1,1.5-2.5,1.5-3.8c0-4.7,2-8.4,7.3-8.4c0.6,0,3.1,0.7,3.7,0.7
	c0.6,0,0.6-2.3,1.3-3.3c2.8-3.9,6.3-7.8,10.6-8.9c0.2,0,0.7-0.1,3.7,0c2.5,0.5,5.3,1.1,7.7,2.1c0.8,0.3,5.2,3.9,6.9,3.9
	c0.5,0,2-0.6,2-1.5c0-2.8-7.2-3.9-7.2-6.7c0-1.3,2.3-1.5,2.6-1.5c3.7,0,10.8,3.6,13.1,6.2c0.4,0.5,2.1,5.8,3.4,5.8
	c1.1,0,2.6-1.8,2.6-3c0-0.6,0.2-2.4,0.2-3c0-0.6-0.3-2.4-0.9-3.2c-1.8-2.4-7.4-6-10-6c-0.1,0-6.7,1.2-7.7,1.2c-0.6,0-4.1-0.6-6-1.3
	c-1.4-0.5-2.6-1.6-3.7-2.3c-1.3-0.8-4.3-2.1-4.9-2.1C609.2,14.9,608.2,14.7,607.6,14.7z M671.4,17.7c-2,0-8.5,3.2-9.3,3.8
	c-2.9,2.2-4,4.4-4.8,8.1c-0.2,1-0.1,2,0.1,2.7c0.3,1,0.9,2.1,1.5,2.8c0.6,0.7,1.9,1.4,2.3,2.2c0.8,1.7,0.4,3.8,1.4,5
	c2,2.4,3.3,2.5,5.2,2.5c4.2,0,4.9-4,11-4c0.6,0,2.7,0.5,3.8,1.1c0.8,0.4,2.1,2.4,2.6,1.7c0.5-0.7,0.6-1.6,0.6-2.2
	c0-3.8-6.6-7.5-10.6-7.5c-0.6,0-4.5,0.6-6.8,1.1c-1.2,0.2-3.3,1.2-4,1.2c-0.9,0-1.4-1.1-1.4-2.1c0-0.6,0.5-2.7,1-4.2
	c0.5-1.5,6.4-9.4,8.9-10.2c0.3-0.2,0.3-0.4,0.3-0.7c0-0.3-0.1-0.5-0.3-0.7C672.4,17.8,672,17.7,671.4,17.7z M677.6,47.2
	c-0.6,0-1.5,0-1.9,0.3c-0.2,0.2-0.3,0.4-0.3,0.9c0.1,0.9,1.6,1.9,2,2.3c1.5,1.3,3.2,2.8,4.4,4.4c2,2.8,3.2,6.3,5.3,9
	c1.7,2.1,3.1,3.3,4.6,3.3c0.6,0,0.7-0.6,0.7-0.6c0.3-1,0.3-1.8,0.3-2.4c0-0.6-0.2-1.3-0.3-1.9c-1.3-4.8-3.8-12.3-10.2-13.9
	C680.9,48.2,678.3,47.2,677.6,47.2z M599.3,146.1c-0.3,1.5-2.4,6.8-2.4,7.3c0,0.6-2.2,8.1-2.2,8.7c0,0.6-0.2,2.2-0.2,2.9
	c0,3.3,4.2,10.3,6.1,13.4c3.5,5.9,9.6,12.5,15.4,16.4c1.8,1.2,4.5,3.5,6.6,3.7c0.3,0,0.5,0,0.7-0.1c4.4-1,15.1-14.3,15.1-17.8
	c0-0.6-0.3-1.1-0.6-1.5c-1.1-0.3-2-0.5-2.7-0.5c-4.7,0-10.5-1.6-15-4.5c-3.4-2.2-8.5-6.3-11.1-9.5c-2.2-2.7-4.2-6.1-5.7-9.2
	c-0.2-0.5-0.6-1.1-0.9-1.7l-1.2-2.9c0-0.4,0.1-0.4,0.1-0.5h0.6c1.5,1.2,18.1,17.6,24.5,17.8h9.7c4.1,0,10.1-2.3,10.1-8.2
	c0-5.2-5.7-6-9.2-6c-0.6,0-5,0.9-6.4,1c-0.7,0-4.4-1-4.4-2.5c0-2.2,5.6-2.5,6.9-2.5c0.6,0,7.4,1.7,8,1.7c2.3,0,5.9-1.4,5.9-5
	c0-2-3.2-3.2-5-3.2c-2.3,0-4.8,2.1-7.5,2.1c-0.6,0-3.3-1.3-3.9-1.3c-0.6,0-4.7,1.9-5.8,1.9c-1,0-4-3-4.6-3s-2.6,1.8-3.2,1.8
	c-0.6,0-0.8-0.7-1.2-0.9c0.2-0.4,0.5-4.3,3-4.3c0.6,0,2.9,1.6,3.5,1.6c3.5,0,3.2-3,6.1-3c3.5,0,3.8,4.2,6.5,4.2c2.2,0,3-4,6.1-4
	c2.6,0,5.1,3,6.5,3c1.4,0,2.9-2,5.5-2c0.6,0,1.5,1.4,1.8,2.2c0.2,0.7,0,1.5,0,2.2c0,0.7,0.3,1.7,0.7,2.1c0.3,0.3,0.4,0.8,1,0.8h3
	c3.4,0,12.4-17.1,12.5-17.8c0.5-1.7,1.1-4.5,1.1-5.2c0-0.6,0.5-3.4,0.2-7.4c-0.2-4.6,2.2-7.9,2.2-12.5c0-0.6-0.3-3-0.6-4.3
	c-0.4-1.4-1.9-2.5-2.8-2.1c-0.3,0.2-1.6,2.3-1.6,3.4c0,0.6,0.2,3-0.3,4.2c-1.2,2.6-6.5,5.9-8.7,5.9c-0.7,0-2-0.4-2-2.2
	c0-0.6,1.2-1.7,1.2-2.4c0-1-0.8-0.8-2-1.6c0,0-0.5-0.2,0-0.9c1.7-0.7,3.4-0.9,5.2-1.3c1.7-0.4,4.8-4.6,4.8-6.5
	c0-0.7-1.7-2.6-3.2-2.6c-0.6,0-0.4,0.3-0.4,0.3c0.3,1.7-0.8,4.9-2.3,6.1c-0.9,0.7-2.3,1.3-2.9,1.3c-0.6,0-1.8-0.1-2-0.2
	c-3.4-1-4.3-3.8-4.3-6.2c0-0.8,0.3-0.5-0.3-1.4c-0.7,0.2-4.7,2-4.7,3.7c0,1.4,4.2,3.7,4.2,4.7c0,2.6-4,0.5-4,2.7
	c0,0.6,1.5,7,1.5,7.6v3.8c0,5.6,3.7,4,3.7,9.1c0,1-2.3,4-3.1,4.3c-0.8,0.3-1.1,0.7-1.7,1.2c-0.5,0.7-0.4,0.8-1,1.7
	c-0.9,1.5-2,1.3-3,1.1c-2.5-0.5-3.7-0.9-5.8-0.9c-0.6,0-2.1,1.7-2.7,1.7c-0.6,0-1.5-0.4-2.1-1c-0.3-0.3-1.4-3.7-3.3-3.7
	c-0.6,0-4,1.6-4.6,1.6c-2.3,0-5.1-2.8-5.1-5c0-0.2,0-2.2,1.8-2.2c1.3,0,0.8,1.5,2.1,2.2c1.6-1,3.7-3.7,4.4-3.7c0.6,0,0.9,0,1.3,0.3
	c0.9,0.6,2.2,3.1,2.2,4.7c0,1.5,1.7,2.7,3.2,2.7c3.2,0,5-2.4,5-5.4c0-0.6-1.2-5-1.2-5.6s0-0.3,0.1-0.6c-0.1-0.8-0.1-1.5-0.2-2
	c0.1-0.2,0.8-8.4,0.8-9c0-4.3-2.2-8.4-2.2-12.9c0-1.8,0.3-6.7,2-8.3c3.4-3.2,11.2-7.2,17.3-7.2c0.6,0,4.5,0.9,6.4,1.8
	c0.6,0.2,2.5,1.8,3.3,1.9c1.3-1.1,2.1-3.9,2.1-5.5c0-5.7-7.2-10-7.2-16.5c0-0.6,1.2-7.6,1.2-8.2c0-0.6-0.2-1.9-0.3-2.9
	c-0.7-4.9-6.6-10.1-10.6-10.1c-0.6,0-10.6,1-11.2,1c-6.2,0-10.1-4-16.9-4c-0.6,0-6.8,0.8-10,1.1c-13.7,1-20.6,10.9-20.6,24.4
	c0,0.6,0.3,2.9,0.1,4.1c-1.6,6.3-5.8,10.7-5.8,16.4l0.7,23.6c-0.5,7.1-5.5,3.3-5.5,10c0,0.6,0.3,3.8,0.6,5.5c0.2,1,0.8,2.1,1.3,2.7
	c0.2,0.3,2.4,1.4,3,1.4c1.7,0,2.7-3.3,4-3.7c1.4,0.4,0.4,3.7,0.6,5.4c0.4,3.5,2.6,10.3,2.8,11c0.4,1.3,0.9,2.1,1.3,3
	C598,143.3,599.3,145.5,599.3,146.1z M561.8,104.9c-1,2.1-1.8,5.1-1.8,7.2c0,1.9,2,6,5,6c0.6,0,2-0.2,2.9-0.6c0.8-0.3,1.6-0.7,2-1
	c0.9-0.6,6.1-7.1,6.3-7.8c0.2-0.8,0-1.3,0-1.3c-1.1-0.3-2.2-1-2.9-1c-0.4,0-2.8,4.5-5.6,4.5c-0.6,0-1.1-0.2-1.6-0.3
	c-2-1.3-1-4-2-5.3C563.4,104.8,562.5,104.9,561.8,104.9z M660.9,84.4c-0.6,0-1.9,0.5-2.5,0.5c-0.1,0-3.1,0.5-3.1,1.6
	c0,2.2-4.7,1.5-4.7,4.5c0,0.6,0.5,1.4,1.1,1.4c0.7,0,4.1-2,6.7-2c1.5,0,4.1,1.2,4.5,1.2c0.6,0,0.6-0.3,0.9-0.6
	c-0.3-0.6-0.5-0.8-0.5-1.4s0.2-0.3,0.4-0.5h0.7c1.5,1.2,2.7,2.7,3.8,3.8c0.6-1.1,0.9-2.2,0.9-2.9c0-2.7-4-4.8-6.1-5.1
	C662.1,84.8,661.5,84.4,660.9,84.4z M690.8,75.9c-4.3,0-7.5,8.9-7.5,11.7c0,1.6,0.7,4.4,1.7,6.6c0.9,2,2.2,4.2,3.6,5.9
	c3.5,4.1,9.1,6.5,13,6.5c1,0,9.4-1.4,9.4-5.1c0-2.3-0.7-4.3-2.8-7.1c-2.8-1.1-3.9,3.1-6.1,4.4c-1.4,0.8-3.3,1.4-3.9,1.4
	c-0.6,0-1.9-0.1-2.7-0.5c-3.8-1.8-6.2-4.4-6.2-7.9c0-3.2,2.4-7.7,6.9-8.2c0.4,0,1.1-1,1.1-1.7C697.2,79.4,693.2,75.9,690.8,75.9z
	 M658.4,92.6c-0.9,0-1.6,1.5-1.6,2c0,1,0.8,2.5,2,2.5c0.6,0,2-1.1,2-2.1C660.7,94,659.8,92.6,658.4,92.6z M649.3,125.5
	c0-2.5-1-3.3-3.7-4.3c0.2,2.4,0.4,3.1,0.5,4.2c0,0.6-1,1.7-1,2.3c0,0-0.3,0.8,0,1.1c0.2,0.3,0.3,0.3,0.9,0.3
	C647.7,129.1,649.3,127.5,649.3,125.5z M677.9,153.1c-0.9,0.5-1.3,1.1-1.6,1.8c-3.4,10.9-15.9,18.2-25.5,22.3
	c-2.1,0.9-8,1.9-8.2,1.9c-0.5,0.1-1.6,0.9-1.6,1.8c0,0.6,1.4,3,2.2,4.6c1.2,2.2,2.3,4.7,3.9,7c1.1,1.7,5.6,6,8.3,5.8
	c3.8-0.3,13.2-6.7,13.8-7.1c3.1-2.3,6.6-7.2,8.4-10.3c1.4-2.3,3.9-7.5,3.9-10.3c0-0.6-1.2-11-2.3-16.1
	C678.9,153.4,678.7,153.4,677.9,153.1z M597.2,180.8c-0.6,0.4-0.3,1.9-0.3,1.9c2.9,9.6,8,23,19.3,28.9c1.1,0.6,5,2.4,6.3,2.4
	c0.7,0,3.1-0.1,3.1-2.2c0-2.2-3.6-8.1-5.1-9.6c-1.1-1.1-2.8-1.8-4.3-2.5c-7.5-3.6-12.5-11.8-17.9-18.8
	C598.4,180.8,597.6,180.6,597.2,180.8z M582.9,183c-0.6,0-1.2,0.9-1.2,1.5c0,3,17.6,29.7,18.8,30.9c1.5,1.5,3.3,1.4,3.9,1.4
	c0.6,0,0.5-0.1,0.7-0.3c0.5-0.5,0-1.8,0-1.8c0-0.6-7.8-10.6-10.6-15.3c-1.3-2.2-6.2-9.4-6.7-10.2C587.2,188.1,584.4,183,582.9,183z
	 M640.9,189.8c-1.1,0-2,1.5-2.1,3.1c0,0.6,0.5,2.6,0.5,3.2c0,1.3-0.7,3.9-3,3.9c-0.6,0-4.7-1.5-5.4-1.5c-2.6,0-3.9,1.9-3.9,4.7
	c0,3.2,3,13,8.9,13c2.3,0,15.4-2.9,15.4-8.4c0-1.2-3-5.8-3.1-5.9h-0.8c-1,0.2-1.5,0.3-2,0.6c-2.5,2.3-1.8,6.2-4.3,8.2
	c0,0-2.1,0.2-3.4,0c-2.6-0.4-6.1-0.7-6.1-2.6c0-1,3.1-4.1,4.6-4.1c0.6,0,1.5,0.6,2.1,0.6c3.2,0,5-7,5-9.1
	C643.3,194.2,642.8,190.3,640.9,189.8z M681,185.3c-0.5,0-0.7,0.1-1.1,0.3c-0.7,0.4-1.4,3.6-2.2,4.9c-3.5,5.8-8.2,12.2-14.6,15.1
	c-1.2,0.5-2.4,0.9-3.7,1.2c-1.3,0.3-3.3,1-3.3,2.5c0,2,3.9,6.6,6.9,6.6c5.2,0,13.3-12.5,14.8-14.9c1.5-2.5,3.8-6.8,3.8-10.3
	c0.2-2.1,0.2-0.5,0.1-3.5C681.6,186.9,681.7,185.3,681,185.3z"/>
<path class="st1" d="M610.9,79.6c2,0.2,2.2,0,2.5,0c2,0.2,4.5,0.4,6.3,1.3c3.1,1.6,7.8,4.5,10.4,7.7c0.4,0.5,1.4,4.4,1.4,5.6
	c0,0.6-1.8,7.6-1.7,9.6c0,1.5,1.2,7.2,1.2,7.9c0,1.3,0.2,3.4-1.1,5.1c-1.1-0.1-4.9-6.3-4.9-8.5c0-3.3,3-3.8,3-8.2
	c0-0.8-0.2-1.5-1-1.5c-0.6,0-3.3,3-3.9,3c0,0-1.3,0.4-2,0c-0.3-0.2-0.6-0.6-0.6-0.6c1-1.7,3-4.1,3-5.5c0-1-2.6-3-3.3-2.9
	c-1.5,0.5-0.4,2.6-0.5,3.6c-0.3,2.2-3.3,5.4-5.5,5.4c-1.1,0-3.9-1.2-4.5-1.9c-2.6-2.8-1.3-3.2-1.3-5.6c0-0.6-0.2-0.4-0.2-0.8
	c-0.2,0-0.2-0.2-0.8-0.2c-1.7,0-3.2,2.6-3.2,3.6c0,1.9,1.2,4.3,4,4.9c-0.8,1.7-1.4,1.9-2.6,1.9c-4.7,0-4.2-6.2-6.2-6.2
	c-0.6,0-1.2,0.5-1.9,0.5c-0.6,0-1.8-1.2-2.4-1.6c-1-0.8-0.9-1.8-0.9-2.4C594.1,85.2,601.1,80.2,610.9,79.6 M607.7,82.6
	c-1.3,0.3-2.6,0.4-3.5,0.8c-2.6,1.2-5.8,5-5.8,7.7c0,0.9,0.7,2.2,2.2,2.2c2,0,3.5-3.7,5.5-3.7c0.6,0,0.5,0,0.8,0.2
	c0,0.7,0,1.5,0,2.3c3.1-0.7,4.5-1.3,7.2-1c0-0.3,0.3-0.3,0.3-1c0-0.6-0.5-0.6-0.5-1.2c0-0.6,0-0.3,0.2-0.5h1.7
	c0.6,0,2.3,1.8,2.9,1.8c0.6,0,0.7-0.6,0.7-1.2c0-3.4-5.2-5.6-7.9-6.2C610.7,82.5,609.7,82.5,607.7,82.6z M613.6,92.4
	c-1.5,0-2.2,0.8-2.2,2.2c0,0.8,0.3,2.2,2.1,2.2c1,0,1.9-1.3,1.9-2.5C615.3,93.9,615.2,92.4,613.6,92.4z"/>
<path class="st0" d="M73.3,275.2l-4.7,1.8c-2.8,1.2-4.3,2.1-4.4,4.4c-0.2,6,0,14.7-0.2,33.6c-0.2,20.6-10.3,28.3-26.1,28.3
	c-15.4,0-26.2-6.7-26.2-23v-29.9c0-8.9-0.3-11.1-3.3-12.2l-7.7-3v-1.5c5.2,0.4,10.2,0.9,15.2,0.9c5.6,0,11.2-0.4,16.8-0.9v1.5
	L28,277c-5.9,2.2-6.7,2.7-6.9,6.4c-0.3,6.3-0.3,15.4-0.3,31.8c0,13.6,3.1,22.5,20,22.5c11.2,0,17.9-6.9,17.9-19.7
	c0-13.1-0.1-30-1-37.3c-0.2-1.9-1.8-2.8-4.7-3.7l-5.9-1.8v-1.5c4.6,0.4,9.1,0.9,13.8,0.9c4,0,8.2-0.4,12.4-0.9V275.2"/>
<path class="st0" d="M162.9,275.7l-7.1,2.5c-2.3,0.9-3.4,1.9-3.5,3.8c-0.3,8.6-1.2,27.4-1.2,33.6c0,4.4,0,16.6,0.2,28.7h-2.5
	c-6.8-10.1-14.1-19.8-21.4-29.5l-21.6-29h-0.2v11.9c0,14,0.2,35,0.5,37c0.3,1.7,1.1,2.5,4.2,3.5l7,2.2v1.5
	c-4.7-0.4-9.5-0.8-14.1-0.8c-4.6,0-9,0.4-13.6,0.8v-1.5l8.1-3.1c1.5-0.5,2.5-1.5,2.6-2.4c0.4-3.4,1.2-19.2,1.2-32.8v-21l-1.4-2.1
	c-3.3-1.5-6.6-2.7-10-3.7v-1.5c3.4,0.4,6.8,0.9,10.2,0.9c3.2,0,6.4-0.4,9.6-0.9c2,3.7,4.3,7.1,6.8,10.5l30.1,40.4l0.2-0.2v-25.7
	c0-5.1-0.1-10.3-0.4-15.5c-0.2-3-1.1-3.8-4.1-5.1l-7-2.9v-1.5c4.4,0.4,8.8,0.9,13.2,0.9c4.8,0,9.6-0.4,14.5-0.9V275.7"/>
<path class="st0" d="M180.7,340.4l8.2-2.8c2.7-1,3-1.4,3.1-9.6c0.1-6.4,0.3-12.9,0.3-19.2c0-6.4-0.2-12.9-0.3-19.2
	c-0.2-10-0.3-10.7-2.3-11.5l-8.9-3v-1.5c5.1,0.4,10.3,0.9,16.3,0.9c5.3,0,10.5-0.4,15.8-0.9v1.5l-8.9,3c-2,0.7-2.1,1.5-2.3,11.5
	c-0.1,6.4-0.3,12.9-0.3,19.2c0,6.4,0.2,12.9,0.3,19.2c0.1,8.2,0.4,8.6,3.1,9.6l8.2,2.8v1.5c-5-0.4-11.2-0.8-15.8-0.8
	c-5.3,0-11.5,0.4-16.3,0.8V340.4"/>
<path class="st0" d="M224,273.7c4.9,0.4,9.9,0.9,14.8,0.9c4.5,0,9-0.4,13.5-0.9v1.5l-3.7,1.1c-4.9,1.4-5.8,1.9-5.8,3.1
	c0,2.2,13.6,35.3,18.6,46.6c6.5-15.5,12.4-30.8,16.1-42.6c0.6-1.9,1.1-3.1,1.1-4.3c0-1.2-3.3-2.3-8-3.8v-1.5c4,0.4,8.1,0.9,12.1,0.9
	c3.3,0,6.5-0.4,9.7-0.9v1.5c-4.6,1.2-6.1,2.4-7.8,6c-6.7,14.6-15.1,35.5-24.9,62.1h-2.4c-6.9-19.3-17.8-46.1-24.5-61.5
	c-1.7-3.9-2.4-4.2-5.8-5.4l-3-1.1V273.7"/>
<path class="st0" d="M314.5,289.6c0-10-0.3-10.7-2.6-11.5l-8.9-3v-1.5c8.8,0.4,16.9,0.9,25,0.9c10.1,0,20.1-0.4,29.5-0.9
	c-0.1,2.7-0.3,6.5-0.3,8.1c0,1.6,0.2,5.2,0.3,7.7h-1.5l-2.8-8c-1.1-3-1.9-3-14.1-3c-6.2,0-11.1,0.1-15,0.2
	c-0.2,3.7-0.5,7.7-0.5,12.1v13.1h11c12.9,0,14-0.2,15-2.5l2.8-7.6h1.5c-0.1,4-0.2,8.1-0.2,12c0,4.4,0.1,8.4,0.2,12.9h-1.5l-2.8-8.1
	c-1-2.3-2.1-2.5-15-2.5h-11v14.5c0,4.9,0.3,9.8,0.5,14.2c5,0.1,10,0.4,14.8,0.4c11.4,0,13-0.1,14-1.4c1.3-1.6,2.4-5,4.4-11.3h1.5
	c-0.2,3.1-0.6,6.3-0.6,9.4v8.1c-5.5-0.4-21.9-0.8-27.9-0.8c-9.4,0-19.6,0.4-27.2,0.8v-1.5l8.2-2.8c3-1,3.4-1.4,3.4-9.6V289.6"/>
<path class="st0" d="M401.2,304.7h7.2c9.9,0,19-1.6,19-13.3c0-9.3-6.5-13.4-16.5-13.4c-3.4,0-6.6,0.1-9.8,0.1V304.7 M380.7,340.4
	l8.2-2.8c3-1,3.4-1.4,3.4-9.6v-38.5c0-10-0.3-10.7-2.7-11.5l-8.9-3v-1.5c3.9,0.4,8.9,0.9,14.7,0.9c5.5,0,11.6-0.9,19.1-0.9
	c14,0,23.2,5.7,23.2,16.4c0,10.7-7.6,15.8-17.4,17.4l14.7,21.9c6.2,9.2,6.7,10,12.6,11v1.5c-2.4-0.2-5-0.4-7.4-0.4
	c-2.6,0-5.2,0.2-7.9,0.4c-6.8-11.5-16.3-25.1-22.9-33.7h-8.2v12.2c0,13.8,0.3,16.3,3.1,17.1l8.5,2.9v1.5c-4.6-0.4-11.7-0.8-15.4-0.8
	c-5.4,0-11.6,0.4-16.7,0.8V340.4z"/>
<path class="st0" d="M466.2,322.9h1.5l3.6,13.7c3.2,1.8,8.2,2.4,10.8,2.4c8.5,0,16.3-3.8,16.3-13.7c0-15.1-33.3-13.8-33.3-33.8
	c0-12.9,11.9-19.1,23.4-19.1c4.5,0,11.3,1.4,15.7,3.4l-0.7,14.6h-1.2l-4.1-11.8c-3.6-1.4-7.1-2-10.7-2c-6.7,0-12.9,5.2-12.9,12.3
	c0,16.7,33.3,12.4,33.3,34.4c0,9.2-6.9,19.9-27.9,19.9c-5.1,0-9.7-0.6-15.7-3L466.2,322.9"/>
<path class="st0" d="M529.2,340.4l8.2-2.8c2.7-1,3-1.4,3.1-9.6c0.1-6.4,0.3-12.9,0.3-19.2c0-6.4-0.2-12.9-0.3-19.2
	c-0.2-10-0.3-10.7-2.3-11.5l-8.9-3v-1.5c5.1,0.4,10.3,0.9,16.3,0.9c5.3,0,10.5-0.4,15.8-0.9v1.5l-8.9,3c-2,0.7-2.1,1.5-2.3,11.5
	c-0.1,6.4-0.3,12.9-0.3,19.2c0,6.4,0.2,12.9,0.3,19.2c0.1,8.2,0.4,8.6,3.1,9.6l8.2,2.8v1.5c-5-0.4-11.2-0.8-15.8-0.8
	c-5.3,0-11.5,0.4-16.3,0.8V340.4"/>
<path class="st0" d="M576.5,273.7c9.2,0.4,18.4,0.9,27.6,0.9c9.2,0,18.4-0.4,27.6-0.9v18.1h-1.5l-3.2-8.5c-1.5-3.6-2.6-4-18.5-4
	v46.3c0,5.3,0.2,8.1,0.9,9.6c0.6,1.4,2.9,2.7,11,5.3v1.5c-5-0.4-9.7-0.8-16.3-0.8c-6.6,0-11.3,0.4-16.3,0.8v-1.5
	c8.1-2.7,10.4-3.9,10.9-5.3c0.6-1.5,0.9-4.3,0.9-9.6v-46.3c-15.9,0-17,0.4-18.5,4l-3.2,8.5h-1.5V273.7"/>
<path class="st0" d="M683.4,267.7c-2.5,0-5-2.6-5-5.3c0-2.3,2.6-4.9,5-4.9c2.7,0,5.2,2.4,5.2,4.9
	C688.6,265.2,686.1,267.7,683.4,267.7 M670.5,286.9l-12.2,28.2h23.9L670.5,286.9z M662.3,267.7c-2.7,0-5-2.6-5-5.3
	c0-2.3,2.4-4.9,5-4.9c2.7,0,5.2,2.4,5.2,4.9C667.5,265.2,665.1,267.7,662.3,267.7z M635.5,340.4c2.6-0.9,5.5-2.1,8.1-3.5
	c9.2-21.8,20.7-46.2,28.4-65.4h2.3c8.5,22.1,18.1,44.2,27.1,65.8l8.9,3.1v1.5c-5.6-0.4-11.2-0.8-16.8-0.8c-4.8,0-9.5,0.4-14.2,0.8
	v-1.5c2.7-0.6,7.2-2,10.4-3.3c-1.3-4.5-4.7-14.5-6.2-17.7c-4.5-0.1-9-0.2-13.5-0.2c-4.5,0-8.8,0.1-13.3,0.2
	c-2.9,5.4-4.6,11.7-6.1,17.7l9.1,3.3v1.5c-4.2-0.4-8.3-0.8-12.6-0.8c-3.9,0-7.9,0.4-11.8,0.8V340.4z"/>
<path class="st0" d="M712,273.7c9.2,0.4,18.4,0.9,27.6,0.9c9.2,0,18.4-0.4,27.6-0.9v18.1h-1.5l-3.2-8.5c-1.5-3.6-2.6-4-18.5-4v46.3
	c0,5.3,0.2,8.1,0.9,9.6c0.6,1.4,2.9,2.7,10.9,5.3v1.5c-5-0.4-9.7-0.8-16.2-0.8c-6.6,0-11.3,0.4-16.3,0.8v-1.5
	c8.1-2.7,10.4-3.9,10.9-5.3c0.6-1.5,0.9-4.3,0.9-9.6v-46.3c-15.9,0-17,0.4-18.5,4l-3.2,8.5H712V273.7"/>
<path class="st0" d="M56.7,173.2c0-1.9-0.5-2.6-5.8-4.6l-7.1-2.7v-1.7c5.7,0.2,11.4,0.9,17.1,0.9c5.3,0,10.6-0.7,15.8-0.9v1.7
	l-7.5,3.6c-2.1,1.1-2.5,2.2-2.5,4.7v18.3c0,1.2,0.1,3.2,0.2,5.3c-4.5,1.4-14.4,3.3-22.3,3.3c-27.1,0-43.7-15.8-43.7-38.1
	c0-27.2,25.4-41,46.4-41c6.5,0,11.7,0.6,16.9,1.7c-0.1,3.1-0.2,6.2-0.2,9.1c0,3.4,0.1,6.9,0.2,10.3h-1.7c-1.7-5.1-3.9-11.6-5.7-13.9
	c-1.2-1.5-8.3-2.6-12.9-2.6C27.1,126.7,13,138.2,13,162c0,20.4,12.1,34.5,29.8,34.5c5,0,9.5-0.6,13.6-2c0.1-1.8,0.2-3.6,0.2-4.4
	V173.2"/>
<path class="st0" d="M154.6,164.7c0-19.8-5.5-38.7-25-38.7c-16.5,0-25.4,13.8-25.4,30.6c0,24.5,8.7,40.6,26,40.6
	C148.2,197.2,154.6,180.8,154.6,164.7 M92.1,162.3c0-23.6,14.8-40.2,38.8-40.2c21.8,0,35.8,15.3,35.8,36.9
	c0,23.5-14.1,42.1-37.7,42.1C104.3,201.1,92.1,181.5,92.1,162.3z"/>
<path class="st0" d="M193.5,141.3c0-11.2-0.4-12-3-12.8l-10-3.3v-1.6c9.8,0.5,18.9,1,27.9,1c11.3,0,22.4-0.5,32.9-1
	c-0.1,3-0.4,7.2-0.4,9s0.2,5.8,0.4,8.5h-1.7l-3.1-8.9c-1.2-3.3-2.1-3.3-15.8-3.3c-6.9,0-12.3,0.1-16.7,0.2
	c-0.2,4.2-0.6,8.5-0.6,13.5v14.6h12.3c14.4,0,15.7-0.2,16.7-2.8l3.1-8.4h1.7c-0.1,4.5-0.2,9-0.2,13.4c0,4.9,0.1,9.4,0.2,14.4h-1.7
	l-3.1-9c-1.1-2.6-2.4-2.9-16.7-2.9h-12.3V178c0,5.5,0.4,10.9,0.6,15.9c5.6,0.1,11.2,0.5,16.5,0.5c12.7,0,14.5-0.1,15.7-1.5
	c1.4-1.8,2.7-5.6,4.9-12.6h1.7c-0.2,3.4-0.7,7-0.7,10.5v9c-6.2-0.5-24.4-0.9-31.1-0.9c-10.4,0-21.8,0.5-30.4,0.9V198l9.1-3.1
	c3.3-1.1,3.8-1.6,3.8-10.7V141.3"/>
<path class="st0" d="M261.9,123.5c10.3,0.5,20.5,1,30.9,1c10.3,0,20.5-0.5,30.9-1v20.2H322l-3.6-9.5c-1.7-4-2.9-4.5-20.6-4.5v51.8
	c0,5.9,0.2,9,0.9,10.7c0.7,1.5,3.2,3,12.2,5.9v1.7c-5.6-0.5-10.8-0.9-18.2-0.9c-7.4,0-12.6,0.5-18.2,0.9V198c9-3,11.6-4.4,12.2-5.9
	c0.7-1.7,0.9-4.8,0.9-10.7v-51.8c-17.8,0-19,0.5-20.7,4.5l-3.6,9.5h-1.7V123.5"/>
<path class="st0" d="M339.3,198l9.1-3.1c3.3-1.1,3.8-1.6,3.8-10.7v-43c0-11.2-0.4-12-3-12.8l-10-3.3v-1.6c6,0.5,11.9,1,17.5,1
	c6,0,12.1-0.5,18.4-1v1.6l-8.9,3c-3.6,1.2-4.1,2-4.1,7.8v21.2h35.1V136c0-5.8-0.5-6.7-4-7.8l-8.9-3v-1.6c6.3,0.5,12.3,1,18.4,1
	c5.6,0,11.4-0.5,17.4-1v1.6l-10,3.3c-2.6,0.8-3,1.7-3,12.8v43c0,9.1,0.5,9.6,3.8,10.7l9.2,3.1v1.7c-5.7-0.5-12.6-0.9-18.7-0.9
	c-4.1,0-12.1,0.5-17.2,0.9V198l9.5-3.2c3.1-0.9,3.4-3.7,3.4-19.1v-13.9h-35.1v13.9c0,15.4,0.4,18.2,3.5,19.1l9.5,3.2v1.7
	c-5.1-0.5-13-0.9-17.2-0.9c-6.1,0-12.9,0.5-18.6,0.9V198"/>
<path class="st0" d="M447.3,141.3c0-11.2-0.4-12-3-12.8l-10-3.3v-1.6c9.8,0.5,18.9,1,27.9,1c11.3,0,22.4-0.5,32.9-1
	c-0.1,3-0.4,7.2-0.4,9s0.2,5.8,0.4,8.5h-1.7l-3.1-8.9c-1.2-3.3-2.1-3.3-15.8-3.3c-6.9,0-12.3,0.1-16.7,0.2
	c-0.3,4.2-0.6,8.5-0.6,13.5v14.6h12.3c14.4,0,15.7-0.2,16.7-2.8l3.1-8.4h1.7c-0.1,4.5-0.2,9-0.2,13.4c0,4.9,0.1,9.4,0.2,14.4h-1.7
	l-3.1-9c-1.1-2.6-2.4-2.9-16.7-2.9h-12.3V178c0,5.5,0.4,10.9,0.6,15.9c5.6,0.1,11.2,0.5,16.5,0.5c12.7,0,14.5-0.1,15.7-1.5
	c1.4-1.8,2.7-5.6,4.9-12.6h1.7c-0.2,3.4-0.7,7-0.7,10.5v9c-6.2-0.5-24.5-0.9-31.1-0.9c-10.4,0-21.8,0.5-30.4,0.9V198l9.1-3.1
	c3.3-1.1,3.8-1.6,3.8-10.7V141.3"/>
<path class="st0" d="M2,416.3l4.6-1.6c1.7-0.5,1.9-0.8,1.9-5.4v-21.6c0-5.6-0.2-6-1.5-6.4l-5-1.7v-0.8c5.3,0.2,10.1,0.5,15,0.5
	c4.9,0,9.8-0.2,14.6-0.5c-0.1,1.4-0.1,2.8-0.1,4.1c0,1.7,0.1,3.4,0.1,5.1h-0.8l-1.4-4.4c-0.7-1.8-1.4-1.8-3-1.8H13.8
	c-0.1,2.4-0.3,4.8-0.3,7.1v6.7h5.3c7.2,0,7.9-0.1,8.4-1.4l1.6-4.2h0.8c-0.1,2.3-0.1,4.5-0.1,6.7c0,2.4,0.1,4.7,0.1,7.2h-0.8
	l-1.6-4.5c-0.5-1.3-1.2-1.4-8.4-1.4h-5.3v11.3c0,4.6,0.2,4.8,2,5.4l4.6,1.6v0.8c-3.2-0.2-5.7-0.5-9.2-0.5c-2.9,0-5.8,0.2-8.9,0.5
	V416.3"/>
<path class="st0" d="M54.4,396.2h4.1c5.5,0,10.7-0.9,10.7-7.4c0-5.3-3.6-7.5-9.2-7.5c-1.9,0-3.7,0.1-5.5,0.1V396.2 M42.9,416.3
	l4.6-1.6c1.7-0.5,1.9-0.8,1.9-5.4v-21.6c0-5.6-0.2-6-1.5-6.4l-5-1.7v-0.8c2.2,0.2,5,0.5,8.2,0.5c3.1,0,6.5-0.5,10.7-0.5
	c7.9,0,13,3.2,13,9.2c0,6-4.3,8.9-9.8,9.8l8.2,12.3c3.5,5.2,3.8,5.6,7.1,6.2v0.8c-1.4-0.1-2.8-0.2-4.2-0.2c-1.4,0-2.9,0.1-4.4,0.2
	C68,410.7,62.7,403,59,398.2h-4.6v6.9c0,7.8,0.2,9.1,1.7,9.6l4.8,1.6v0.8c-2.6-0.2-6.6-0.5-8.7-0.5c-3,0-6.5,0.2-9.4,0.5V416.3z"/>
<path class="st0" d="M106.4,386.3l-6.9,15.8h13.4L106.4,386.3 M86.8,416.3c1.4-0.5,3.1-1.2,4.5-2c5.2-12.2,11.6-25.9,15.9-36.7h1.3
	c4.8,12.4,10.1,24.8,15.2,36.9l5,1.7v0.8c-3.2-0.2-6.3-0.5-9.4-0.5c-2.7,0-5.3,0.2-8,0.5v-0.8c1.5-0.4,4.1-1.1,5.8-1.8
	c-0.7-2.5-2.6-8.1-3.5-9.9c-2.5-0.1-5.1-0.1-7.6-0.1c-2.5,0-4.9,0.1-7.4,0.1c-1.6,3-2.6,6.6-3.4,9.9l5.1,1.8v0.8
	c-2.3-0.2-4.6-0.5-7-0.5c-2.2,0-4.4,0.2-6.6,0.5V416.3z"/>
<path class="st0" d="M177.1,379.9l-4,1.5c-1.3,0.5-1.9,1.1-2,2.1c-0.2,4.8-0.7,15.4-0.7,18.8c0,2.5,0,9.3,0.1,16.1h-1.4
	c-3.8-5.7-7.9-11.1-12-16.6l-12.1-16.3H145v6.7c0,7.9,0.1,19.6,0.3,20.7c0.2,1,0.6,1.4,2.3,2l3.9,1.3v0.8c-2.6-0.2-5.3-0.5-7.9-0.5
	c-2.6,0-5.1,0.2-7.6,0.5v-0.8l4.5-1.7c0.8-0.3,1.4-0.8,1.4-1.4c0.2-1.9,0.7-10.8,0.7-18.4v-11.8l-0.8-1.2c-1.8-0.8-3.7-1.5-5.6-2.1
	v-0.8c1.9,0.2,3.8,0.5,5.7,0.5c1.8,0,3.6-0.2,5.4-0.5c1.1,2.1,2.4,4,3.8,5.9l16.9,22.7l0.1-0.1v-14.4c0-2.9-0.1-5.8-0.2-8.7
	c-0.1-1.7-0.6-2.1-2.3-2.9l-3.9-1.6v-0.8c2.4,0.2,4.9,0.5,7.4,0.5c2.7,0,5.4-0.2,8.1-0.5V379.9"/>
<path class="st0" d="M214.7,416.3c3.3-0.9,4.4-1.3,4.4-1.7c0-0.5-0.5-0.8-1-1.4l-15-16.3l12.6-11.5c2.2-2,3.4-3.2,3.4-3.8
	c0-0.7-1.7-1-4.2-1.9v-0.8c2.6,0.2,5.2,0.5,7.8,0.5c2.2,0,4.4-0.2,6.6-0.5v0.8c-1.6,0.4-4.2,1.1-6.5,3.1l-14.1,12.3l17.5,18.6
	c0.4,0.4,1.3,1.1,1.4,1.2c0.6,0.3,2.2,1,3.7,1.3v0.8c-2.9-0.2-5.9-0.5-8.8-0.5c-2.6,0-5.2,0.2-7.8,0.5V416.3 M190,416.3l4.6-1.6
	c1.5-0.5,1.7-0.8,1.7-5.4c0.1-3.6,0.2-7.2,0.2-10.8c0-3.6-0.1-7.2-0.2-10.8c-0.1-5.6-0.2-6-1.3-6.4l-5-1.7v-0.8
	c2.9,0.2,5.8,0.5,9.1,0.5c3,0,5.9-0.2,8.9-0.5v0.8l-5,1.7c-1.1,0.4-1.2,0.8-1.3,6.4c-0.1,3.6-0.2,7.2-0.2,10.8
	c0,3.6,0.1,7.2,0.2,10.8c0.1,4.6,0.2,4.8,1.7,5.4l4.6,1.6v0.8c-2.8-0.2-6.3-0.5-8.9-0.5c-3,0-6.4,0.2-9.1,0.5V416.3z"/>
<path class="st0" d="M240.8,416.3l4.6-1.6c1.7-0.5,1.9-0.8,1.9-5.4v-21.6c0-5.6-0.2-6-1.5-6.4l-5-1.7v-0.8c5.2,0.2,10.1,0.5,15,0.5
	c4.9,0,9.8-0.2,14.6-0.5c-0.1,1.4-0.1,2.8-0.1,4.1c0,1.7,0.1,3.4,0.1,5.1h-0.8l-1.4-4.4c-0.7-1.8-1.4-1.8-3-1.8h-12.5
	c-0.1,2.4-0.3,4.8-0.3,7.1v6.7h5.2c7.2,0,7.9-0.1,8.4-1.4l1.6-4.2h0.8c-0.1,2.3-0.1,4.5-0.1,6.7c0,2.4,0.1,4.7,0.1,7.2h-0.8
	l-1.6-4.5c-0.5-1.3-1.2-1.4-8.4-1.4h-5.2v11.3c0,4.6,0.2,4.8,2,5.4l4.6,1.6v0.8c-3.2-0.2-5.7-0.5-9.2-0.5c-2.9,0-5.8,0.2-8.9,0.5
	V416.3"/>
<path class="st0" d="M323.4,379.7l-2.6,1c-1.5,0.7-2.4,1.2-2.4,2.4c-0.1,3.3,0,8.2-0.1,18.8c-0.1,11.6-5.8,15.9-14.7,15.9
	c-8.7,0-14.7-3.8-14.7-12.9v-16.8c0-5-0.2-6.2-1.8-6.9l-4.3-1.7v-0.8c2.9,0.2,5.7,0.5,8.5,0.5c3.2,0,6.3-0.2,9.4-0.5v0.8l-2.7,1
	c-3.3,1.2-3.7,1.5-3.9,3.6c-0.2,3.5-0.2,8.6-0.2,17.8c0,7.6,1.7,12.6,11.2,12.6c6.3,0,10-3.9,10-11c0-7.4-0.1-16.8-0.5-20.9
	c-0.1-1.1-1-1.6-2.6-2.1l-3.3-1v-0.8c2.6,0.2,5.1,0.5,7.8,0.5c2.3,0,4.6-0.2,7-0.5V379.7"/>
<path class="st0" d="M346.1,396.2h4.1c5.5,0,10.7-0.9,10.7-7.4c0-5.3-3.6-7.5-9.3-7.5c-1.9,0-3.7,0.1-5.5,0.1V396.2 M334.5,416.3
	l4.6-1.6c1.7-0.5,1.9-0.8,1.9-5.4v-21.6c0-5.6-0.2-6-1.5-6.4l-5-1.7v-0.8c2.2,0.2,5,0.5,8.2,0.5c3.1,0,6.5-0.5,10.7-0.5
	c7.9,0,13,3.2,13,9.2c0,6-4.3,8.9-9.8,9.8l8.2,12.3c3.5,5.2,3.8,5.6,7.1,6.2v0.8c-1.4-0.1-2.8-0.2-4.2-0.2c-1.4,0-2.9,0.1-4.4,0.2
	c-3.8-6.4-9.1-14.1-12.8-18.9h-4.6v6.9c0,7.8,0.2,9.1,1.7,9.6l4.8,1.6v0.8c-2.6-0.2-6.6-0.5-8.7-0.5c-3,0-6.5,0.2-9.4,0.5V416.3z"/>
<path class="st0" d="M380.9,378.9c5.2,0.2,10.3,0.5,15.5,0.5c5.2,0,10.3-0.2,15.5-0.5V389h-0.8l-1.8-4.8c-0.8-2-1.4-2.3-10.4-2.3v26
	c0,3,0.1,4.5,0.5,5.4c0.4,0.8,1.6,1.5,6.1,3v0.8c-2.8-0.2-5.4-0.5-9.1-0.5c-3.7,0-6.3,0.2-9.1,0.5v-0.8c4.5-1.5,5.9-2.2,6.1-3
	c0.4-0.8,0.5-2.4,0.5-5.4v-26c-9,0-9.5,0.2-10.4,2.3l-1.8,4.8h-0.8V378.9"/>
<path class="st0" d="M464.2,386.3l-6.9,15.8h13.4L464.2,386.3 M444.6,416.3c1.4-0.5,3.1-1.2,4.5-2c5.2-12.2,11.6-25.9,15.9-36.7h1.3
	c4.8,12.4,10.1,24.8,15.2,36.9l5,1.7v0.8c-3.2-0.2-6.3-0.5-9.4-0.5c-2.7,0-5.3,0.2-8,0.5v-0.8c1.5-0.4,4.1-1.1,5.9-1.8
	c-0.7-2.5-2.6-8.1-3.5-9.9c-2.5-0.1-5.1-0.1-7.6-0.1c-2.5,0-5,0.1-7.5,0.1c-1.6,3-2.6,6.6-3.4,9.9l5.1,1.8v0.8
	c-2.3-0.2-4.6-0.5-7-0.5c-2.2,0-4.4,0.2-6.6,0.5V416.3z"/>
<path class="st0" d="M495.6,416.3l3.2-1.1c2.1-0.8,2.3-1.1,2.6-3c1.5-9.3,3-24.6,3-29.1c0-1.1-0.4-1.7-1.5-2.1l-3.4-1.3v-0.8
	c3.8,0.2,7.8,0.4,11.4,0.5c3.7,9.4,7.8,18.6,12,27.9c4.7-9.1,8.8-18.5,12.8-27.9c3.5-0.1,7.4-0.2,11.5-0.5v0.8l-2.6,1
	c-2.4,0.9-2.9,1.3-2.9,2.4c0,4.1,2.6,25.9,3.3,29.6c0.3,1.8,1,2.3,2.4,2.7l3.2,0.9v0.8c-2.7-0.2-5.5-0.5-8.3-0.5
	c-2.8,0-5.5,0.2-8.3,0.5v-0.8l2.9-1c2-0.7,2.6-1.5,2.6-2c0-3-2.8-25.6-3.2-28.5H536c-5.2,11.3-9.8,21.5-14.2,32.4H521
	c-4.2-11.3-9.2-22.2-14.1-33.1h-0.1c-0.8,7.9-1.9,24.7-1.9,28.7c0,1.4,0.5,2,2.2,2.5l3.1,1.1v0.8c-2.6-0.2-5.1-0.5-7.6-0.5
	c-2.3,0-4.7,0.2-7,0.5V416.3"/>
<path class="st0" d="M585,416.3l3.2-1.1c2.1-0.8,2.3-1.1,2.6-3c1.5-9.3,3-24.6,3-29.1c0-1.1-0.4-1.7-1.5-2.1l-3.4-1.3v-0.8
	c3.8,0.2,7.8,0.4,11.4,0.5c3.7,9.4,7.8,18.6,12,27.9c4.7-9.1,8.8-18.5,12.8-27.9c3.5-0.1,7.5-0.2,11.4-0.5v0.8l-2.6,1
	c-2.5,0.9-2.9,1.3-2.9,2.4c0,4.1,2.6,25.9,3.3,29.6c0.3,1.8,1,2.3,2.4,2.7l3.2,0.9v0.8c-2.7-0.2-5.5-0.5-8.3-0.5
	c-2.8,0-5.5,0.2-8.3,0.5v-0.8l2.9-1c2-0.7,2.6-1.5,2.6-2c0-3-2.8-25.6-3.2-28.5h-0.1c-5.3,11.3-9.8,21.5-14.3,32.4h-0.8
	c-4.2-11.3-9.2-22.2-14.1-33.1h-0.1c-0.8,7.9-1.9,24.7-1.9,28.7c0,1.4,0.5,2,2.2,2.5l3.1,1.1v0.8c-2.6-0.2-5.1-0.5-7.6-0.5
	c-2.3,0-4.6,0.2-7,0.5V416.3"/>
<path class="st0" d="M667.5,386.3l-6.9,15.8H674L667.5,386.3 M647.8,416.3c1.4-0.5,3.1-1.2,4.5-2c5.2-12.2,11.6-25.9,15.9-36.7h1.3
	c4.8,12.4,10.1,24.8,15.2,36.9l5,1.7v0.8c-3.2-0.2-6.3-0.5-9.4-0.5c-2.7,0-5.3,0.2-8,0.5v-0.8c1.5-0.4,4.1-1.1,5.8-1.8
	c-0.7-2.5-2.6-8.1-3.4-9.9c-2.5-0.1-5.1-0.1-7.6-0.1c-2.5,0-4.9,0.1-7.5,0.1c-1.6,3-2.6,6.6-3.4,9.9l5.1,1.8v0.8
	c-2.3-0.2-4.7-0.5-7-0.5c-2.2,0-4.4,0.2-6.6,0.5V416.3z"/>
<path class="st0" d="M698,416.3l4.6-1.6c1.5-0.5,1.7-0.8,1.7-5.4c0.1-3.6,0.2-7.2,0.2-10.8c0-3.6-0.1-7.2-0.2-10.8
	c-0.1-5.6-0.2-6-1.3-6.4l-5-1.7v-0.8c2.9,0.2,5.8,0.5,9.1,0.5c3,0,5.9-0.2,8.9-0.5v0.8l-5,1.7c-1.1,0.4-1.2,0.8-1.3,6.4
	c-0.1,3.6-0.2,7.2-0.2,10.8c0,3.6,0.1,7.2,0.2,10.8c0.1,4.6,0.2,4.8,1.7,5.4l4.6,1.6v0.8c-2.8-0.2-6.3-0.5-8.9-0.5
	c-3,0-6.4,0.2-9.1,0.5V416.3"/>
<path class="st0" d="M768.8,379.9l-4,1.5c-1.3,0.5-1.9,1.1-2,2.1c-0.2,4.8-0.6,15.4-0.6,18.8c0,2.5,0,9.3,0.1,16.1h-1.4
	c-3.8-5.7-7.9-11.1-12-16.6l-12.1-16.3h-0.1v6.7c0,7.9,0.1,19.6,0.3,20.7c0.2,1,0.6,1.4,2.3,2l3.9,1.3v0.8c-2.6-0.2-5.3-0.5-7.9-0.5
	c-2.6,0-5.1,0.2-7.6,0.5v-0.8l4.6-1.7c0.8-0.3,1.4-0.8,1.4-1.4c0.2-1.9,0.7-10.8,0.7-18.4v-11.8l-0.8-1.2c-1.9-0.8-3.7-1.5-5.6-2.1
	v-0.8c1.9,0.2,3.8,0.5,5.7,0.5c1.8,0,3.6-0.2,5.4-0.5c1.1,2.1,2.4,4,3.8,5.9l16.9,22.7l0.1-0.1v-14.4c0-2.9-0.1-5.8-0.2-8.7
	c-0.1-1.7-0.6-2.1-2.3-2.9l-3.9-1.6v-0.8c2.4,0.2,4.9,0.5,7.4,0.5c2.7,0,5.4-0.2,8.1-0.5V379.9"/>
</svg>
