<?xml version="1.0" encoding="UTF-8" standalone="no"?>
<!-- Generator: Adobe Illustrator 13.0.2, SVG Export Plug-In . SVG Version: 6.00 Build 14948)  -->

<svg
   version="1.1"
   id="UHH-Logo_2010"
   x="0px"
   y="0px"
   width="392.04599"
   height="103.451"
   viewBox="0 0 392.04598 103.45099"
   enable-background="new 0 0 392.463 127.19"
   xml:space="preserve"
   sodipodi:docname="hamburg.svg"
   inkscape:version="1.4.2 (ebf0e940, 2025-05-08)"
   xmlns:inkscape="http://www.inkscape.org/namespaces/inkscape"
   xmlns:sodipodi="http://sodipodi.sourceforge.net/DTD/sodipodi-0.dtd"
   xmlns="http://www.w3.org/2000/svg"
   xmlns:svg="http://www.w3.org/2000/svg"><defs
   id="defs54" /><sodipodi:namedview
   id="namedview54"
   pagecolor="#ffffff"
   bordercolor="#000000"
   borderopacity="0.25"
   inkscape:showpageshadow="2"
   inkscape:pageopacity="0.0"
   inkscape:pagecheckerboard="0"
   inkscape:deskcolor="#d1d1d1"
   inkscape:zoom="2.119945"
   inkscape:cx="195.7598"
   inkscape:cy="63.445042"
   inkscape:window-width="2032"
   inkscape:window-height="1078"
   inkscape:window-x="10"
   inkscape:window-y="688"
   inkscape:window-maximized="0"
   inkscape:current-layer="UHH-Logo_2010" />
<g
   id="g18"
   transform="translate(-0.418)">
	<path
   d="m 120.492,96.585 c -6.114,0 -7.412,-3.509 -7.412,-7.259 V 75.869 h 3.144 v 13.216 c 0,2.723 0.865,4.778 4.47,4.778 3.172,0 4.614,-1.391 4.614,-5.201 V 75.869 h 3.086 V 88.42 c 0,5.443 -2.798,8.165 -7.902,8.165 z"
   id="path1" />
	<path
   d="m 142.401,96.283 v -8.96 c 0,-1.736 -0.476,-2.744 -2.072,-2.744 -2.1,0 -3.64,2.212 -3.64,4.984 v 6.72 h -2.996 V 82.367 h 2.856 c 0,0.729 -0.056,1.932 -0.196,2.716 l 0.028,0.028 c 0.812,-1.792 2.492,-3.024 4.844,-3.024 3.164,0 4.144,1.988 4.144,4.452 v 9.744 z"
   id="path2" />
	<path
   d="m 152.088,80.294 c -1.064,0 -1.932,-0.84 -1.932,-1.876 0,-1.036 0.868,-1.876 1.932,-1.876 1.036,0 1.904,0.813 1.904,1.876 0.001,1.037 -0.867,1.876 -1.904,1.876 z m -1.511,15.989 V 82.367 h 2.996 v 13.916 z"
   id="path3" />
	<path
   d="m 165.024,96.283 h -3.052 l -5.208,-13.916 h 3.304 l 2.604,7.364 c 0.336,0.952 0.644,1.932 0.896,2.855 h 0.028 c 0.224,-0.868 0.504,-1.848 0.812,-2.744 l 2.66,-7.476 h 3.22 z"
   id="path4" />
	<path
   d="m 184.316,89.506 h -8.876 c -0.084,3.221 1.344,4.677 4.116,4.677 1.428,0 2.912,-0.336 4.06,-0.896 l 0.28,2.38 c -1.4,0.588 -3.108,0.896 -4.816,0.896 -4.34,0 -6.72,-2.24 -6.72,-7.141 0,-4.199 2.296,-7.336 6.356,-7.336 3.976,0 5.684,2.717 5.684,6.021 0,0.392 -0.028,0.868 -0.084,1.399 z m -5.712,-5.208 c -1.68,0 -2.856,1.232 -3.108,3.108 h 5.908 c 0.056,-1.904 -1.036,-3.108 -2.8,-3.108 z"
   id="path5" />
	<path
   d="m 195.74,85.027 c -2.772,-0.504 -4.116,1.428 -4.116,5.6 v 5.656 h -2.996 V 82.367 h 2.856 c 0,0.784 -0.084,2.016 -0.28,3.08 h 0.056 c 0.616,-1.876 2.016,-3.612 4.62,-3.36 z"
   id="path6" />
	<path
   d="m 201.704,96.563 c -1.036,0 -2.072,-0.112 -2.94,-0.28 l 0.084,-2.548 c 0.868,0.252 1.96,0.448 3.024,0.448 1.624,0 2.744,-0.7 2.744,-1.849 0,-2.8 -6.104,-1.12 -6.104,-5.936 0,-2.408 1.96,-4.313 5.74,-4.313 0.812,0 1.764,0.112 2.604,0.252 l -0.084,2.437 c -0.84,-0.252 -1.819,-0.393 -2.716,-0.393 -1.651,0 -2.464,0.673 -2.464,1.736 0,2.688 6.16,1.316 6.16,5.937 0,2.605 -2.324,4.509 -6.048,4.509 z"
   id="path7" />
	<path
   d="m 213.549,80.294 c -1.064,0 -1.934,-0.84 -1.934,-1.876 0,-1.036 0.869,-1.876 1.934,-1.876 1.035,0 1.902,0.813 1.902,1.876 0,1.037 -0.867,1.876 -1.902,1.876 z m -1.514,15.989 V 82.367 h 2.996 v 13.916 z"
   id="path8" />
	<path
   d="m 225.252,96.53 c -2.969,0 -3.863,-1.125 -3.863,-4.17 v -7.436 h -2.66 v -2.277 h 2.66 v -4.334 l 2.967,-0.796 v 5.13 h 3.668 v 2.277 h -3.641 v 6.53 c 0,2.029 0.42,2.578 1.82,2.578 0.617,0 1.289,-0.082 1.82,-0.219 v 2.414 c -0.812,0.165 -1.847,0.303 -2.771,0.303 z"
   id="path9" />
	<path
   d="m 239.502,96.283 c 0,-0.896 0.029,-1.82 0.141,-2.576 l -0.027,-0.027 c -0.672,1.651 -2.408,2.884 -4.621,2.884 -2.379,0 -3.891,-1.345 -3.891,-3.557 0,-3.191 3.191,-5.04 8.203,-5.04 v -0.896 c 0,-1.736 -0.729,-2.632 -2.912,-2.632 -1.287,0 -2.967,0.392 -4.145,1.12 l -0.279,-2.548 c 1.373,-0.532 3.107,-0.925 4.9,-0.925 4.256,0 5.432,1.849 5.432,4.704 v 5.685 c 0,1.204 0.027,2.632 0.084,3.808 z m -5.15,-16.548 c -0.953,0 -1.68,-0.756 -1.68,-1.708 0,-0.924 0.727,-1.68 1.68,-1.68 0.951,0 1.707,0.756 1.707,1.68 0,0.952 -0.756,1.708 -1.707,1.708 z m 4.955,10.248 c -4.367,0 -5.32,1.315 -5.32,2.52 0,1.036 0.729,1.708 1.904,1.708 2.045,0 3.416,-1.96 3.416,-3.947 z m 0.56,-10.248 c -0.953,0 -1.709,-0.756 -1.709,-1.708 0,-0.924 0.756,-1.68 1.709,-1.68 0.924,0 1.68,0.756 1.68,1.68 0,0.952 -0.756,1.708 -1.68,1.708 z"
   id="path10" />
	<path
   d="m 252.02,96.53 c -2.969,0 -3.863,-1.125 -3.863,-4.17 v -7.436 h -2.66 v -2.277 h 2.66 v -4.334 l 2.967,-0.796 v 5.13 h 3.668 v 2.277 h -3.641 v 6.53 c 0,2.029 0.42,2.578 1.82,2.578 0.617,0 1.289,-0.082 1.82,-0.219 v 2.414 c -0.812,0.165 -1.848,0.303 -2.771,0.303 z"
   id="path11" />
	<path
   d="m 282.963,96.283 v -9.164 h -9.199 v 9.164 h -3.145 V 75.869 h 3.145 v 8.438 h 9.199 v -8.438 h 3.115 v 20.414 z"
   id="path12" />
	<path
   d="m 299.979,96.283 c 0,-0.896 0.027,-1.82 0.141,-2.576 l -0.029,-0.027 c -0.672,1.651 -2.408,2.884 -4.619,2.884 -2.381,0 -3.893,-1.345 -3.893,-3.557 0,-3.191 3.191,-5.04 8.205,-5.04 v -0.896 c 0,-1.736 -0.729,-2.632 -2.912,-2.632 -1.289,0 -2.969,0.392 -4.145,1.12 l -0.279,-2.548 c 1.371,-0.532 3.107,-0.925 4.898,-0.925 4.256,0 5.434,1.849 5.434,4.704 v 5.685 c 0,1.204 0.027,2.632 0.084,3.808 z m -0.196,-6.3 c -4.369,0 -5.32,1.315 -5.32,2.52 0,1.036 0.729,1.708 1.904,1.708 2.043,0 3.416,-1.96 3.416,-3.947 z"
   id="path13" />
	<path
   d="m 325.432,96.283 v -8.876 c 0,-1.736 -0.42,-2.828 -2.016,-2.828 -1.793,0 -3.584,1.988 -3.584,5.04 v 6.664 h -2.941 v -8.904 c 0,-1.567 -0.336,-2.8 -2.016,-2.8 -1.904,0 -3.557,2.128 -3.557,5.04 v 6.664 h -2.996 V 82.367 h 2.857 c 0,0.729 -0.057,1.904 -0.197,2.716 l 0.057,0.028 c 0.813,-1.848 2.549,-3.024 4.703,-3.024 2.744,0 3.641,1.765 3.865,2.996 0.588,-1.344 2.127,-2.996 4.648,-2.996 2.66,0 4.143,1.429 4.143,4.593 v 9.604 h -2.966 z"
   id="path14" />
	<path
   d="m 338.563,96.506 c -1.961,0 -3.443,-0.195 -4.957,-0.588 V 75.843 h 2.996 v 6.411 c 0,0.813 -0.084,1.933 -0.252,2.66 h 0.057 c 0.729,-1.735 2.381,-2.828 4.424,-2.828 3.305,0 5.125,2.353 5.125,6.553 -0.001,4.816 -2.774,7.867 -7.393,7.867 z m 1.484,-11.927 c -2.24,0 -3.445,2.604 -3.445,4.956 v 4.313 c 0.617,0.195 1.316,0.279 2.186,0.279 2.379,0 4.004,-1.456 4.004,-5.208 -10e-4,-2.8 -0.87,-4.34 -2.745,-4.34 z"
   id="path15" />
	<path
   d="m 359.449,96.283 c 0,-0.728 0.057,-1.932 0.197,-2.716 l -0.029,-0.028 c -0.811,1.792 -2.492,3.024 -4.844,3.024 -3.164,0 -4.145,-1.988 -4.145,-4.452 v -9.744 h 2.969 v 8.96 c 0,1.736 0.477,2.744 2.072,2.744 2.1,0 3.641,-2.212 3.641,-4.984 v -6.72 h 2.996 v 13.916 z"
   id="path16" />
	<path
   d="m 375.467,85.027 c -2.771,-0.504 -4.117,1.428 -4.117,5.6 v 5.656 h -2.996 V 82.367 h 2.857 c 0,0.784 -0.084,2.016 -0.281,3.08 h 0.057 c 0.615,-1.876 2.016,-3.612 4.619,-3.36 z"
   id="path17" />
	<path
   d="m 384.762,103.451 c -3.639,0 -5.906,-1.4 -5.906,-4.088 0,-1.568 1.035,-2.884 2.238,-3.5 -0.84,-0.42 -1.371,-1.148 -1.371,-2.072 0,-1.008 0.615,-1.96 1.596,-2.38 -1.371,-0.756 -2.072,-2.184 -2.072,-3.92 0,-2.94 2.24,-5.404 6.217,-5.404 0.84,0 1.539,0.112 2.295,0.28 h 4.705 v 2.353 h -2.129 c 0.588,0.476 0.953,1.315 0.953,2.323 0,3.024 -2.102,5.152 -6.021,5.152 -0.531,0 -1.176,-0.056 -1.596,-0.14 -0.559,0.224 -0.811,0.644 -0.811,1.035 0,0.7 0.615,0.98 2.295,0.98 h 2.381 c 3.023,0 4.73,1.428 4.73,4.032 0,2.969 -3.024,5.349 -7.504,5.349 z m 1.961,-6.945 h -2.604 c -0.252,0 -0.533,0 -0.756,-0.027 -0.953,0.531 -1.541,1.372 -1.541,2.323 0,1.484 1.4,2.324 3.416,2.324 2.604,0 4.061,-1.12 4.061,-2.632 0,-1.203 -0.813,-1.988 -2.576,-1.988 z m -1.401,-12.208 c -1.988,0 -3.164,1.204 -3.164,2.912 0,1.82 1.121,2.885 3.137,2.885 1.875,0 3.107,-1.036 3.107,-2.856 0,-1.848 -1.148,-2.941 -3.08,-2.941 z"
   id="path18" />
</g>
<g
   id="g22"
   transform="translate(-0.418)">
	<polygon
   fill="#e2001a"
   points="96.385,95.966 0.418,95.966 0.418,0 96.385,0 "
   id="polygon18" />
	<polygon
   fill="#ffffff"
   points="62.799,55.695 63.484,54.508 62.113,54.508 61.428,53.322 60.742,54.508 59.372,54.508 60.057,55.695 59.372,56.883 60.743,56.883 61.428,58.07 62.113,56.883 63.484,56.883 "
   id="polygon19" />
	<polygon
   fill="#ffffff"
   points="84.252,55.695 84.938,54.508 83.566,54.508 82.881,53.322 82.195,54.508 80.825,54.508 81.51,55.695 80.825,56.883 82.195,56.883 82.881,58.07 83.566,56.883 84.938,56.883 "
   id="polygon20" />
	<path
   fill="#ffffff"
   d="m 68.386,57.432 v 0.256 h -1.501 v 1.752 h 1.691 V 70.395 H 64.678 V 59.686 h -6.5 v 10.708 h -2.125 v 1.818 H 88.256 V 70.394 H 86.131 V 59.686 h -6.5 V 70.394 H 75.733 V 59.439 h 1.691 v -1.752 h -1.501 c -0.095,-1.885 -1.032,-3.496 -2.999,-3.932 v -1.894 h 1.408 v -1.315 h -1.408 v -1.607 h -1.539 v 1.607 h -1.408 v 1.315 h 1.408 v 1.898 c -1.737,0.405 -2.999,1.845 -2.999,3.673 z"
   id="path20" />
	<path
   fill="#ffffff"
   d="m 72.155,79.728 c -2.374,0 -4.298,1.924 -4.298,4.297 l -0.076,7.197 H 54.267 c 2.007,-5.574 3.341,-11.184 3.754,-17.131 h 14.134 14.133 c 0.414,5.947 1.748,11.557 3.755,17.131 H 76.528 l -0.076,-7.197 c 0.001,-2.373 -1.924,-4.297 -4.297,-4.297 z"
   id="path21" />
	<path
   fill="#ffffff"
   d="m 42.2,31.336 h -3.85 v -10.8 H 27.099 v 2.495 c 0,5.416 -3.205,8.662 -9.463,8.662 -6.427,0 -9.464,-2.99 -9.464,-8.555 V 7.276 h 3.885 v 15.078 c 0,3.875 1.352,6.131 5.614,6.131 4.196,0 5.614,-2.256 5.614,-6.131 V 7.276 h 3.814 v 9.946 H 38.35 V 7.276 h 3.85 v 9.946 H 53.523 V 7.276 h 3.85 v 24.061 h -3.85 v -10.8 H 42.2 Z"
   id="path22" />
</g>

</svg>
