<?xml version="1.0" encoding="UTF-8" standalone="no"?>
<!-- Generator: Adobe Illustrator 19.0.0, SVG Export Plug-In . SVG Version: 6.00 Build 0)  -->

<svg
   version="1.1"
   id="layer"
   x="0px"
   y="0px"
   viewBox="-153 -46 600 140.50754"
   xml:space="preserve"
   sodipodi:docname="hlrs.svg"
   width="600"
   height="140.50754"
   inkscape:version="1.4.2 (ebf0e940, 2025-05-08)"
   xmlns:inkscape="http://www.inkscape.org/namespaces/inkscape"
   xmlns:sodipodi="http://sodipodi.sourceforge.net/DTD/sodipodi-0.dtd"
   xmlns="http://www.w3.org/2000/svg"
   xmlns:svg="http://www.w3.org/2000/svg"><defs
   id="defs5" /><sodipodi:namedview
   id="namedview5"
   pagecolor="#ffffff"
   bordercolor="#000000"
   borderopacity="0.25"
   inkscape:showpageshadow="2"
   inkscape:pageopacity="0.0"
   inkscape:pagecheckerboard="0"
   inkscape:deskcolor="#d1d1d1"
   inkscape:zoom="1.2760736"
   inkscape:cx="304.84135"
   inkscape:cy="106.96875"
   inkscape:window-width="2032"
   inkscape:window-height="1078"
   inkscape:window-x="10"
   inkscape:window-y="688"
   inkscape:window-maximized="0"
   inkscape:current-layer="layer" />
<style
   type="text/css"
   id="style1">
	.st0{fill:#009FE3;}
	.st1{fill:none;stroke:#000000;stroke-width:1.0619;}
</style>
<rect
   x="317"
   y="-42.596962"
   class="st0"
   width="11.2"
   height="136.8"
   id="rect1" />
<g
   id="g4"
   transform="translate(-21.4,-218.29696)">
	<path
   class="st0"
   d="m 384.7,177.1 c 0,0 -24.5,1.6 -40.1,1.5 -16,0 -41,-1.8 -41,-1.8 v -2.2 c 0,0 19.3,-2.4 40.8,-2.3 20.6,0 40.3,2.2 40.3,2.2 z"
   id="path1" />
	<path
   class="st0"
   d="m 384.6,311.3 c 0,0 -24.5,1.6 -40.1,1.5 -16,0 -41,-1.8 -41,-1.8 v -2.2 c 0,0 19.3,-2.4 40.8,-2.3 20.6,0 40.3,2.2 40.3,2.2 z"
   id="path2" />
	<path
   d="m 266.7,270.6 h -15.1 l -21.8,-20.4 h -11.9 v 20.4 h -12.4 v -54 h 46.3 c 8.3,0 12.1,2.9 12.1,10.5 v 12.7 c 0,7.5 -3.9,10.5 -12.1,10.5 h -7.1 m 1.5,-24.4 H 217.9 V 241 h 28.3 c 3.9,0 5.7,-0.7 5.7,-4.3 v -6.5 c 0,-3.6 -1.8,-4.3 -5.7,-4.3 M 49.5,265.3 c 0,2.8 1.9,5.3 4.7,5.3 H 104 v -9.1 H 60.7 V 216.6 H 49.5 Z m -160,5.3 v -23.2 h 39.2 v 23.2 h 12.7 v -54 h -12.7 v 20.9 h -39.2 V 216.6 H -123 V 238 h -8.6 l 2,9.3 c 0,0 6.1,0 6.5,0 v 23.3 z M 456.6,226 v 6.2 l 11.1,-2.6 v -1.1 c 0,-9.3 -3.8,-11.8 -13.4,-11.8 h -30.7 c -10.1,0 -13.4,2.6 -13.4,12.8 v 6 c 0,10.1 3.2,12.8 13.4,12.8 h 33.7 v 12.3 h -38.2 v -6.4 l -11.1,2.3 v 1.5 c 0,10.2 3.3,12.8 13.5,12.8 h 33.4 c 10.2,0 13.5,-2.6 13.5,-12.8 v -7.4 c 0,-10.2 -3.3,-12.8 -13.5,-12.8 H 421.2 V 226 Z"
   id="path3" />
	
</g>

</svg>
