<svg xmlns="http://www.w3.org/2000/svg" viewBox="0 0 175.45 191.63"><defs><style>.a{isolation:isolate;}.b{fill:#fff;}.c,.d,.e{fill:none;stroke-linecap:round;stroke-width:22.15px;mix-blend-mode:multiply;}.c{stroke:#bcbec0;stroke-linejoin:round;}.d{stroke:gray;}.d,.e{stroke-miterlimit:10;}.e{stroke:#4d4d4d;}.f{fill:#8b8e91;}</style></defs><g class="a"><path class="b" d="M183,83.22a33,33,0,0,0-10-64.43H151.12A11.08,11.08,0,0,0,140,29.86v32.7l-10.81,0h0c-.41,0-.82,0-1.23.07H96.45V29.86a11.08,11.08,0,0,0-22.15,0v25L50.51,23.3c-.07-.1-.16-.18-.23-.28l-.19-.22c-.18-.21-.36-.42-.55-.61L49.39,22l-.65-.59-.13-.1q-.34-.29-.72-.54l-.15-.1c-.25-.16-.49-.31-.74-.45l-.24-.12c-.23-.12-.46-.23-.7-.33l-.35-.14c-.21-.09-.42-.16-.63-.23l-.45-.13-.57-.15-.5-.1L43,19l-.5-.05c-.2,0-.4,0-.6,0h-.51l-.57,0a5,5,0,0,0-.56.06l-.48.07-.63.12-.39.1-.69.21-.3.11-.74.31-.23.11-.77.41-.17.11c-.27.16-.52.34-.78.53l-.07.05-.06.05c-.26.19-.5.4-.74.61l-.12.11c-.23.22-.45.44-.66.67l-.11.12c-.21.25-.4.5-.59.75a.61.61,0,0,0-.07.1,9.74,9.74,0,0,0-.56.86l0,0a11.08,11.08,0,0,0-1.47,5v.05c0,.15,0,.31,0,.46v87.82a11.08,11.08,0,1,0,22.16,0V63.07L74.3,91.71v26a11.07,11.07,0,0,0,21.75,2.91l2.82,3.74A11.08,11.08,0,0,0,116.57,111L96.8,84.77H140v32.91a11.08,11.08,0,1,0,22.15,0V92.38l23.9,31.79a11.08,11.08,0,1,0,17.71-13.31ZM162.19,40.94H173a10.84,10.84,0,1,1,0,21.67H162.19Z" transform="translate(-30.57 -18.79)"/><polyline class="c" points="11.09 11.18 11.08 11.18 11.08 98.99"/><line class="c" x1="77.15" y1="98.88" x2="11.09" y2="11.18"/><line class="d" x1="54.8" y1="11.08" x2="54.8" y2="98.89"/><line class="d" x1="120.54" y1="11.08" x2="120.54" y2="98.89"/><line class="e" x1="54.8" y1="54.9" x2="131.43" y2="54.9"/><path class="c" d="M151.12,29.86H173a21.92,21.92,0,0,1,0,43.83H162l-32.8-.07" transform="translate(-30.57 -18.79)"/><line class="c" x1="131.43" y1="54.9" x2="164.37" y2="98.73"/><path class="f" d="M34.27,160.79h-2V143.42h3.52L39.7,159V143.42h2v17.37H38.17l-3.9-15.54Z" transform="translate(-30.57 -18.79)"/><path class="f" d="M52.66,156.4l-1,4.39H49.48l4.2-17.37h2.85l4.12,17.37H58.44l-.94-4.39Zm4.44-1.86-2-9.48-2,9.48Z" transform="translate(-30.57 -18.79)"/><path class="f" d="M72,160.79V145.3h-4v-1.88h10v1.88H74.2v15.49Z" transform="translate(-30.57 -18.79)"/><path class="f" d="M90.11,159V145.23H87.87v-1.81H94.5v1.81H92.26V159H94.5v1.81H87.87V159Z" transform="translate(-30.57 -18.79)"/><path class="f" d="M113.07,159.73a4.7,4.7,0,0,1-3.31,1.06h-1a4.73,4.73,0,0,1-3.32-1.06,4.09,4.09,0,0,1-1.15-3.16v-8.93a4.13,4.13,0,0,1,1.15-3.17,4.77,4.77,0,0,1,3.32-1.05h1a4.75,4.75,0,0,1,3.31,1.05,4.09,4.09,0,0,1,1.16,3.17v8.93A4.06,4.06,0,0,1,113.07,159.73Zm-1.57-13.88a2.09,2.09,0,0,0-1.49-.55h-1.49a2.09,2.09,0,0,0-1.49.55,1.75,1.75,0,0,0-.57,1.32V157a1.78,1.78,0,0,0,.57,1.32,2.08,2.08,0,0,0,1.49.54H110a2.08,2.08,0,0,0,1.49-.54,1.78,1.78,0,0,0,.57-1.32v-9.87A1.75,1.75,0,0,0,111.5,145.85Z" transform="translate(-30.57 -18.79)"/><path class="f" d="M124.6,160.79h-2V143.42h3.52L130,159V143.42h2v17.37H128.5l-3.9-15.54Z" transform="translate(-30.57 -18.79)"/><path class="f" d="M143,156.4l-1,4.39h-2.21l4.2-17.37h2.85L151,160.79h-2.21l-.94-4.39Zm4.44-1.86-2-9.48-2,9.48Z" transform="translate(-30.57 -18.79)"/><path class="f" d="M161.77,143.42V158.9h5.54v1.89h-7.69V143.42Z" transform="translate(-30.57 -18.79)"/><path class="f" d="M185.67,143.42v1.81h-6.13v5.68h5.51v1.81h-5.51V159h6.13v1.81h-8.29V143.42Z" transform="translate(-30.57 -18.79)"/><path class="f" d="M202.63,159.73a4.7,4.7,0,0,1-3.31,1.06H195.8V158.9h3.77a2.08,2.08,0,0,0,1.49-.54,1.78,1.78,0,0,0,.57-1.32v-2.58a1.77,1.77,0,0,0-.39-1.2,1.4,1.4,0,0,0-1.15-.46h-.74a3.9,3.9,0,0,1-2.91-1.08,4.3,4.3,0,0,1-1.07-3.14v-.94a4.09,4.09,0,0,1,1.16-3.17,4.75,4.75,0,0,1,3.31-1.05h3.55v1.88h-3.8a2.09,2.09,0,0,0-1.49.55,1.75,1.75,0,0,0-.57,1.32v1.88a1.77,1.77,0,0,0,.5,1.28,1.72,1.72,0,0,0,1.29.51h.74a3.64,3.64,0,0,1,2.75,1,4.27,4.27,0,0,1,1,3.07v1.64A4.06,4.06,0,0,1,202.63,159.73Z" transform="translate(-30.57 -18.79)"/><path class="f" d="M34.44,177.61v8H32.29V168.23h2.15v7.54h5.12v-7.54h2.15V185.6H39.56v-8Z" transform="translate(-30.57 -18.79)"/><path class="f" d="M54.36,184.54a4.72,4.72,0,0,1-3.31,1.06h-1a4.7,4.7,0,0,1-3.31-1.06,4.05,4.05,0,0,1-1.15-3.16v-8.93a4.05,4.05,0,0,1,1.15-3.16,4.7,4.7,0,0,1,3.31-1.06h1a4.72,4.72,0,0,1,3.31,1.06,4.05,4.05,0,0,1,1.15,3.16v8.93A4.05,4.05,0,0,1,54.36,184.54Zm-1.58-13.88a2.07,2.07,0,0,0-1.49-.54H49.8a2.06,2.06,0,0,0-1.48.54,1.76,1.76,0,0,0-.57,1.32v9.87a1.76,1.76,0,0,0,.57,1.32,2.06,2.06,0,0,0,1.48.54h1.49a2.07,2.07,0,0,0,1.49-.54,1.76,1.76,0,0,0,.57-1.32V172A1.76,1.76,0,0,0,52.78,170.66Z" transform="translate(-30.57 -18.79)"/><path class="f" d="M61.26,184.54a4.06,4.06,0,0,1-1.16-3.16v-8.93a4.06,4.06,0,0,1,1.16-3.16,4.7,4.7,0,0,1,3.31-1.06h3.52v1.89H64.32a2.08,2.08,0,0,0-1.49.54,1.76,1.76,0,0,0-.57,1.32v9.87a1.76,1.76,0,0,0,.57,1.32,2.08,2.08,0,0,0,1.49.54h3.77v1.89H64.57A4.7,4.7,0,0,1,61.26,184.54Z" transform="translate(-30.57 -18.79)"/><path class="f" d="M75.09,177.61v8H72.93V168.23h2.16v7.54H80.2v-7.54h2.16V185.6H80.2v-8Z" transform="translate(-30.57 -18.79)"/><path class="f" d="M89.51,168.23v15.48H95v1.89H87.35V168.23Z" transform="translate(-30.57 -18.79)"/><path class="f" d="M108.89,168.23V170h-6.13v5.68h5.51v1.82h-5.51v6.25h6.13v1.81H100.6V168.23Z" transform="translate(-30.57 -18.79)"/><path class="f" d="M117.2,183.79V170H115v-1.81h6.63V170h-2.24v13.75h2.24v1.81H115v-1.81Z" transform="translate(-30.57 -18.79)"/><path class="f" d="M134.89,184.54a4.73,4.73,0,0,1-3.32,1.06h-3.52v-1.89h3.77a2.08,2.08,0,0,0,1.49-.54,1.76,1.76,0,0,0,.57-1.32v-2.58a1.85,1.85,0,0,0-.38-1.2,1.43,1.43,0,0,0-1.16-.46h-.74a3.88,3.88,0,0,1-2.9-1.08,4.25,4.25,0,0,1-1.07-3.14v-.94a4.05,4.05,0,0,1,1.15-3.16,4.72,4.72,0,0,1,3.31-1.06h3.55v1.89h-3.79a2.07,2.07,0,0,0-1.49.54,1.76,1.76,0,0,0-.57,1.32v1.88a1.75,1.75,0,0,0,.49,1.28,1.72,1.72,0,0,0,1.29.51h.75a3.62,3.62,0,0,1,2.74,1,4.29,4.29,0,0,1,1,3.07v1.64A4.09,4.09,0,0,1,134.89,184.54Z" transform="translate(-30.57 -18.79)"/><path class="f" d="M144.3,185.6V170.12h-3.94v-1.89h10v1.89h-3.95V185.6Z" transform="translate(-30.57 -18.79)"/><path class="f" d="M162.55,184.54a4.69,4.69,0,0,1-3.31,1.06h-.62a4.7,4.7,0,0,1-3.31-1.06,4.05,4.05,0,0,1-1.15-3.16V168.23h2.15v13.62a1.74,1.74,0,0,0,.58,1.32,2.06,2.06,0,0,0,1.48.54h1.12a2.08,2.08,0,0,0,1.49-.54,1.76,1.76,0,0,0,.57-1.32V168.23h2.16v13.15A4.06,4.06,0,0,1,162.55,184.54Z" transform="translate(-30.57 -18.79)"/><path class="f" d="M169.76,185.6h-2V168.23h3.53l3.92,15.53V168.23h2V185.6h-3.55l-3.9-15.53Z" transform="translate(-30.57 -18.79)"/><path class="f" d="M182.83,184.54a4.05,4.05,0,0,1-1.15-3.16v-8.93a4.05,4.05,0,0,1,1.15-3.16,4.7,4.7,0,0,1,3.31-1.06h3.5v1.89h-3.75a2.06,2.06,0,0,0-1.48.54,1.77,1.77,0,0,0-.58,1.32v9.87a1.77,1.77,0,0,0,.58,1.32,2.06,2.06,0,0,0,1.48.54h2.44v-5.38h-2.16v-1.86h4.22v9.13h-4.25A4.7,4.7,0,0,1,182.83,184.54Z" transform="translate(-30.57 -18.79)"/><path class="f" d="M202.63,184.54a4.7,4.7,0,0,1-3.31,1.06H195.8v-1.89h3.77a2.08,2.08,0,0,0,1.49-.54,1.76,1.76,0,0,0,.57-1.32v-2.58a1.8,1.8,0,0,0-.39-1.2,1.4,1.4,0,0,0-1.15-.46h-.75a3.89,3.89,0,0,1-2.9-1.08,4.3,4.3,0,0,1-1.07-3.14v-.94a4.06,4.06,0,0,1,1.16-3.16,4.7,4.7,0,0,1,3.31-1.06h3.55v1.89h-3.8a2.08,2.08,0,0,0-1.49.54,1.76,1.76,0,0,0-.57,1.32v1.88a1.76,1.76,0,0,0,.5,1.28,1.72,1.72,0,0,0,1.29.51h.74a3.64,3.64,0,0,1,2.75,1,4.29,4.29,0,0,1,1,3.07v1.64A4.06,4.06,0,0,1,202.63,184.54Z" transform="translate(-30.57 -18.79)"/><path class="f" d="M34.2,203.22v7.19H32V193H36.7a4.76,4.76,0,0,1,3.19.93A3.68,3.68,0,0,1,41,196.91v2.39c0,1.87-.74,3-2.23,3.49l3.45,7.62H39.83l-3.2-7.19Zm4.18-7.89A1.89,1.89,0,0,0,37,194.9H34.2v6.46H37a1.57,1.57,0,0,0,1.81-1.82v-2.85A1.82,1.82,0,0,0,38.38,195.33Z" transform="translate(-30.57 -18.79)"/><path class="f" d="M68.24,193v1.81H62.11v5.69h5.51v1.81H62.11v6.25h6.13v1.81H60V193Z" transform="translate(-30.57 -18.79)"/><path class="f" d="M88.36,209.36a4.09,4.09,0,0,1-1.16-3.17v-8.93a4.07,4.07,0,0,1,1.16-3.16A4.7,4.7,0,0,1,91.67,193h3.52v1.89H91.42a2.08,2.08,0,0,0-1.49.54,1.78,1.78,0,0,0-.57,1.32v9.88a1.74,1.74,0,0,0,.57,1.31,2.09,2.09,0,0,0,1.49.55h3.77v1.88H91.67A4.75,4.75,0,0,1,88.36,209.36Z" transform="translate(-30.57 -18.79)"/><path class="f" d="M115.74,202.42v8h-2.16V193h2.16v7.55h5.11V193H123v17.37h-2.16v-8Z" transform="translate(-30.57 -18.79)"/><path class="f" d="M142.67,210.41h-2V193h3.52l3.92,15.54V193h2v17.37h-3.55l-3.89-15.53Z" transform="translate(-30.57 -18.79)"/><path class="f" d="M176.64,193v1.81h-6.13v5.69H176v1.81h-5.51v6.25h6.13v1.81h-8.29V193Z" transform="translate(-30.57 -18.79)"/><path class="f" d="M196.86,210.41h-2V193h3.53l3.92,15.54V193h2v17.37h-3.55l-3.9-15.53Z" transform="translate(-30.57 -18.79)"/></g></svg>