<?xml version="1.0" encoding="utf-8"?>
<!-- Generator: Adobe Illustrator 24.1.0, SVG Export Plug-In . SVG Version: 6.00 Build 0)  -->
<svg version="1.1" id="Layer_1" xmlns="http://www.w3.org/2000/svg" xmlns:xlink="http://www.w3.org/1999/xlink" x="0px" y="0px"
	 viewBox="0 0 729.1 171.9" style="enable-background:new 0 0 729.1 171.9;" xml:space="preserve">
<style type="text/css">
	.st0{fill:#010202;}
</style>
<g>
	<polygon class="st0" points="207.8,158.4 218.8,158.4 218.8,113 208.6,113 209.3,141.7 193,113 182,113 182,158.4 192.2,158.4 
		191.5,129.8 	"/>
	<rect x="225" y="113" class="st0" width="10.1" height="45.5"/>
	<polygon class="st0" points="258.1,148.8 257.8,148.8 248.4,113 238.1,113 250.2,158.4 265.8,158.4 277.8,113 267.5,113 	"/>
	<polygon class="st0" points="312.5,122.6 312.5,113 280.8,113 280.8,158.4 312.5,158.4 312.5,148.8 291,148.8 291,140.2 
		307.4,140.2 307.4,130.6 291,130.6 291,122.6 	"/>
	<path class="st0" d="M351,134.6v-13.3l-7.9-8.3h-25.1v45.5h10.1v-15.6h5.8l7.5,15.6h10.8l-8-16.7L351,134.6z M340.9,131.2l-1.8,2
		h-10.8v-10.6H339l1.9,2V131.2z"/>
	<polygon class="st0" points="366,128.9 366,124.6 367.9,122.6 386.7,122.6 386.7,113 363.7,113 355.9,121.3 355.9,131.9 
		360.4,137.6 377.4,142.5 377.4,146.8 375.5,148.8 355,148.8 355,158.4 379.7,158.4 387.6,150.1 387.6,139.5 383.1,133.8 	"/>
	<rect x="392.2" y="113" class="st0" width="10.1" height="45.5"/>
	<polygon class="st0" points="406.6,122.6 418.7,122.6 418.7,158.4 428.8,158.4 428.8,122.6 440.8,122.6 440.8,113 406.6,113 	"/>
	<polygon class="st0" points="472.3,113 462.7,134 462.4,134 452.8,113 441.3,113 457.2,144.5 457.2,158.4 467.9,158.4 467.9,144.5 
		483.8,113 	"/>
	<polygon class="st0" points="165.7,146.5 163.8,148.5 154.9,148.5 153,146.5 153,113 142.9,113 142.9,150.1 150.7,158.4 168,158.4 
		175.8,150.1 175.8,113 165.7,113 	"/>
	<path class="st0" d="M507.8,113l-7.9,8.3v28.9l7.9,8.3h17.2l7.9-8.3v-28.9l-7.9-8.3H507.8z M522.8,146.9l-1.9,2H512l-1.8-2v-22.2
		l1.9-2h8.9l1.9,2V146.9z"/>
	<polygon class="st0" points="538.5,158.5 548.6,158.5 548.6,141.6 563.8,141.6 563.8,131.9 548.6,131.9 548.6,122.7 568.9,122.7 
		568.9,113 538.5,113 	"/>
	<path class="st0" d="M595.1,113l-7.9,8.3v28.9l7.9,8.3h17.2l7.9-8.3v-28.9l-7.9-8.3H595.1z M610,146.9l-1.9,2h-8.9l-1.8-2v-22.2
		l1.9-2h8.9l1.9,2V146.9z"/>
	<polygon class="st0" points="674.7,113 664.6,113 664.6,158.5 692.4,158.5 692.4,148.9 674.7,148.9 	"/>
	<polygon class="st0" points="648.2,146.5 646.3,148.5 637.5,148.5 635.6,146.5 635.6,113 625.4,113 625.4,150.2 633.3,158.5 
		650.5,158.5 658.4,150.2 658.4,113 648.2,113 	"/>
	<polygon class="st0" points="718.9,146.5 717,148.5 708.1,148.5 706.2,146.5 706.2,113 696.1,113 696.1,150.2 704,158.5 
		721.2,158.5 729.1,150.2 729.1,113 718.9,113 	"/>
	<path class="st0" d="M24.9,130.6l4.4,41.4h56.4l4.4-41.4h8.9h15.9V69.8H82.9v4.9v18.5h-9.6V69.8H41.5v23.4h-9.6V69.8H0v60.8h17.7
		H24.9z M9.3,79.7h13.2v23.4H29h21.8V79.7H64v23.4h6.4h15.4h6.5V79.7h13.2v41.1h-6.6H87.6h-6l-4.4,41.4H37.6l-4.4-41.4h-6h-9.5H9.3
		V79.7z"/>
	<polygon class="st0" points="110.1,19.5 103.7,12.8 103.2,13.4 76.2,41.8 82.6,48.6 	"/>
	<polygon class="st0" points="32.2,48.6 38.7,41.8 11.1,12.8 4.7,19.5 5.2,20.1 	"/>
	<polygon class="st0" points="61.7,0 52.7,0 52.7,0.9 52.7,41.1 61.7,41.1 	"/>
</g>
</svg>
