<?xml version="1.0" encoding="UTF-8" standalone="no"?>
<!-- Generator: Adobe Illustrator 16.0.0, SVG Export Plug-In . SVG Version: 6.00 Build 0)  -->

<svg
   version="1.1"
   id="Capa_1"
   x="0px"
   y="0px"
   width="585.16901"
   height="139.502"
   viewBox="0 0 585.16901 139.502"
   xml:space="preserve"
   sodipodi:docname="stanford.svg"
   inkscape:version="1.4.2 (ebf0e940, 2025-05-08)"
   xmlns:inkscape="http://www.inkscape.org/namespaces/inkscape"
   xmlns:sodipodi="http://sodipodi.sourceforge.net/DTD/sodipodi-0.dtd"
   xmlns="http://www.w3.org/2000/svg"
   xmlns:svg="http://www.w3.org/2000/svg"><defs
   id="defs28" /><sodipodi:namedview
   id="namedview28"
   pagecolor="#ffffff"
   bordercolor="#000000"
   borderopacity="0.25"
   inkscape:showpageshadow="2"
   inkscape:pageopacity="0.0"
   inkscape:pagecheckerboard="0"
   inkscape:deskcolor="#d1d1d1"
   inkscape:zoom="1.4218164"
   inkscape:cx="292.5835"
   inkscape:cy="69.980908"
   inkscape:window-width="2032"
   inkscape:window-height="1078"
   inkscape:window-x="10"
   inkscape:window-y="688"
   inkscape:window-maximized="0"
   inkscape:current-layer="Capa_1" />
<g
   id="g13"
   transform="translate(0,-222.833)">
	<path
   d="m 28.141,316.526 c -0.338,0.177 -0.667,0.396 -0.987,0.651 H 0.042 v 27.889 l 17.135,17.269 h 57.677 l 16.8,-16.781 V 293.443 L 74.245,276.619 H 52.488 c -0.073,-1.596 0.262,-3.005 0.262,-3.005 2.326,-1.145 4.701,1.741 4.701,1.741 1.111,-0.094 2.515,0.709 2.515,0.709 1.65,-0.542 6.601,0.737 6.826,0.375 0.189,-2.956 -1.017,-4.759 -2.006,-5.724 H 91.66 V 242.418 L 72.516,222.833 H 19.966 L 0,242.662 v 51.012 l 17.342,17.342 h 15.774 c -0.362,0.926 -0.737,1.692 -0.737,1.692 z M 57.253,266.02 c -0.569,-0.262 -1.321,-0.268 -1.321,-0.268 l -1.041,-1.124 c 0,-2.338 -2.545,-1.702 -2.545,-1.702 l 0.213,-1.272 c 0.697,0 2.631,0.276 4.701,0.563 v 3.802 h -0.007 z m -1.958,54.105 3.504,0.14 v 8.452 h -8.33 l -0.006,-1.431 0.091,-7.673 c 0.143,-1.851 1.522,-0.749 1.522,-0.749 1.168,1.176 3.219,1.261 3.219,1.261 z m 1.958,-62.387 c -0.1,-0.036 -0.201,-0.088 -0.301,-0.131 h 0.301 z M 18.276,308.757 2.29,292.772 V 243.69 l 18.581,-18.499 h 50.655 l 18.052,18.511 v 24.743 h -27.6 c -0.198,-0.319 -0.329,-0.569 -0.329,-0.569 -0.487,-0.886 -1.343,-1.215 -2.116,-1.327 v -4.022 c 2.183,0.286 4.067,0.487 4.29,0.262 1.023,-1.029 -1.614,-2.682 -4.29,-3.998 v -3.428 h -7.469 c -1.857,-1.249 -2.146,-2.326 -2.146,-2.326 -0.636,-4.034 3.818,-2.387 3.818,-2.387 2.356,0.18 2.843,-1.16 2.843,-1.16 -0.91,-2.634 -4.235,-3.48 -4.765,-3.706 -0.63,-0.262 -0.73,-0.5 -0.487,-0.983 0.167,-0.332 1.958,0.478 2.539,-0.094 1.327,-1.334 -3.294,-4.284 -3.294,-4.284 3.008,-0.167 -0.311,-3.242 -0.311,-3.242 -2,-1.583 -1.303,-2.975 -1.303,-2.975 2.113,0.213 2.107,-2 1.778,-2.083 -3.112,-0.712 -2.582,-1.927 -2.582,-1.927 0,-1.06 -0.518,-2.158 -0.518,-2.158 0.423,-1.906 -0.438,-1.525 -0.438,-1.525 -1.27,0 -0.536,1.136 -0.536,1.136 -0.459,1.918 -1.781,3.245 -1.781,3.245 -2.871,-0.055 -1.373,2.64 -1.373,2.64 l 1.784,-0.161 -0.417,1.744 c -4.141,1.809 -3.008,4.789 -0.648,5.063 0.21,0.536 -0.125,1.017 -0.125,1.017 -2.457,0.106 -1.967,1.048 -4.043,2.059 -1.608,0.797 -1.571,1.619 -1.446,2.201 0.237,1.16 1.79,0.055 1.79,0.055 l -1.528,2.076 c -5.112,2.274 -0.603,3.76 -0.603,3.76 4.022,-2.405 5.593,-1.486 5.593,-1.486 0.636,2.527 -0.625,4.317 -2.095,5.489 h -7.907 c 0,0.722 0,1.976 0,3.553 -2.476,1.714 -3.379,4.009 -3.379,4.009 -1.696,1.702 -0.85,2.546 -0.85,2.546 0.843,0.423 2.63,-0.262 4.223,-1.051 0,1.586 0,3.239 0,4.835 -0.131,0.061 -0.219,0.106 -0.219,0.106 -1.06,2.119 -5.093,3.821 -5.093,3.821 -4.877,2.112 -2.545,4.883 -2.545,4.883 0.779,0.131 4.832,-0.707 7.858,-1.361 0,0.974 0,1.76 0,2.277 0.959,0 3.629,0 7.14,0 -0.898,1.525 -2.475,3.111 -2.475,3.111 -0.643,2.119 -3.182,2.975 -3.182,2.975 -6.79,1.693 -6.372,4.025 -6.372,4.025 l 5.093,-0.423 c 1.486,-1.27 2.551,0 2.551,0 l 1.696,0.423 c 0.856,1.273 -0.405,5.042 -0.405,5.042 h -3.392 c -0.213,1.279 -2.545,1.267 -2.545,1.267 -1.06,-0.414 -2.338,0.858 -2.338,0.858 -0.423,0.847 -2.332,1.699 -2.332,1.699 -1.696,0.414 -0.423,1.267 -0.423,1.267 1.489,-1.06 1.489,1.267 1.489,1.267 -0.423,1.065 -3.876,1.017 -3.821,1.912 0.107,1.583 11.673,-3.191 11.673,-3.191 1.482,-1.254 2.542,-0.621 2.542,-0.621 1.062,1.693 -2.119,3.812 -2.119,3.812 -1.272,1.485 -3.343,2.302 -3.343,2.302 -4.899,0.792 -5.45,3.629 -5.499,4.049 -5.549,0.014 -9.52,0.014 -9.52,0.014 z m 18.576,-46.04 c 2.338,-2.339 4.034,0 4.034,0 4.034,1.488 1.279,2.965 1.279,2.965 -0.53,0 -3.647,1.404 -5.961,2.47 v -5.03 c 0.404,-0.238 0.648,-0.405 0.648,-0.405 z m -0.649,-4.99 v -0.119 h 0.341 c -0.119,0.037 -0.229,0.082 -0.341,0.119 z m 1.047,18.2 c 3.821,-1.477 4.034,0.648 4.034,0.648 0.012,0.013 0.019,0.019 0.031,0.037 h -5.112 v -0.436 c 0.649,-0.149 1.047,-0.249 1.047,-0.249 z m 7.134,44.052 c 0.691,1.424 0.822,5.309 0.822,5.309 v 0.792 l -0.076,2.649 h -7.648 v -6.954 c 1.684,-1.224 2.816,-3.526 2.816,-3.526 2.159,-0.9 3.391,0.305 4.086,1.73 z m -16.319,-11.222 5.2,-1.066 c 0.417,0.056 0.523,0.476 0.475,1.066 -1.997,0 -3.909,0 -5.675,0 z m 5.169,14.771 c 0.636,-1.077 1.696,-1.059 1.696,-1.059 0.076,0.012 0.143,0.006 0.213,0.018 0,2.777 0,6.771 0,8.604 1.501,0 5.581,0 10.093,0 l -0.18,4.013 c -0.049,1.803 -0.167,5.65 -0.314,6.746 -0.429,3.258 -1.172,3.715 -1.632,4.014 -0.648,0.408 -1.601,0.578 -2.999,1.175 -3.438,1.449 -3.142,5.072 -4.801,6.126 -2.028,1.291 -1.471,0.877 -3.273,1.278 -1.809,0.402 -2.783,2.405 -2.783,2.405 h 36.845 c -0.143,-1.139 0.106,-2.168 -4.21,-3.599 -4.208,-1.395 -2.083,-2.149 -7.505,-4.907 -1.952,-0.987 -2.981,-4.494 -3.517,-7.119 -0.405,-1.997 -0.165,-2.91 -0.165,-2.91 l -0.21,-6.047 -0.006,-1.175 c 4.713,0 9.034,0 10.586,0 0,-1.687 0.006,-6.15 0.006,-10.705 2.521,0.433 6.735,3.77 6.735,3.77 4.457,2.552 3.611,-0.22 3.611,-0.22 -1.273,-9.109 -6.58,-9.961 -6.58,-9.961 -3.179,-0.854 -1.06,-2.766 -1.06,-2.766 3.824,-2.965 -0.691,-3.781 -0.691,-3.781 -2.968,0.408 -6.117,-1.595 -6.117,-1.595 -5.307,-4.037 -3.367,-6.625 -3.367,-6.625 0.423,-2.759 6.729,1.333 6.729,1.333 1.696,1.486 3.392,0.201 3.392,0.201 0.21,-0.846 2.189,-2.387 2.189,-2.387 3.608,-2.759 -5.097,-3.386 -5.097,-3.386 -4.141,-2.588 -6.683,-3.465 -7.913,-6.71 -0.347,-0.911 -0.365,-1.517 -0.365,-1.517 0,0 6.521,0.606 6.884,0.688 0.365,0.079 2.716,0.341 2.655,-0.481 -0.042,-0.603 -1.19,-2.381 -3.854,-3.58 -2.332,-1.042 -4.327,-3.09 -5.13,-4.415 10.02,0 20.134,0 20.134,0 l 16.35,15.691 v 49.706 L 73.608,360.335 H 18.362 L 2.326,344.116 V 319.54 h 22.627 c -2.606,3.587 -4.165,8.61 -4.165,8.61 -0.213,2.546 3.343,0.427 3.343,0.427 0,0 0.356,-0.64 0.472,-0.853 1.261,-2.126 4.677,-2.333 4.677,-2.333 1.689,0.409 3.954,-1.863 3.954,-1.863 z"
   id="path1" />
	<path
   d="m 49.139,230.061 c 0.131,0.112 0.569,0.45 1.897,0.749 0.737,0.167 1.215,0.853 1.227,1.665 0,0.119 -0.012,0.25 -0.024,0.375 -0.137,0.822 -0.761,2.083 -1.839,2.393 0.07,0.049 0.56,0.43 0.56,0.43 1.842,1.434 3.343,4.134 1.802,4.646 2.089,1.428 2.783,2.905 2.807,3.48 0.061,1.297 -0.706,1.601 -0.843,1.79 1.218,0.591 2.558,1.763 3.145,3.471 l 0.155,0.463 -0.165,0.453 c -0.304,0.856 -1.543,2.26 -4.232,2.059 l -0.161,-0.024 -0.158,-0.043 c -0.81,-0.255 -1.638,-0.356 -1.97,-0.063 -0.085,0.082 -0.191,0.207 -0.191,0.481 0,0.106 0.119,0.268 0.131,0.386 0.042,0.083 0.143,0.238 0.311,0.442 H 61.86 v 5.251 c 1.86,1.078 3.255,2.244 3.504,3.38 0.03,0.137 0.052,0.28 0.058,0.423 0,0.548 -0.213,1.078 -0.63,1.498 -0.457,0.46 -0.956,0.615 -2.932,0.436 v 1.882 c 0.083,0.07 0.155,0.137 0.238,0.219 H 87.277 V 244.83 L 70.584,227.664 H 48.948 c -0.013,0.061 -0.024,0.116 -0.031,0.161 0.229,0.348 0.56,2.193 0.222,2.236 z"
   id="path2" />
	<path
   d="m 35.585,301.522 0.125,-0.14 0.149,-0.11 c 0.368,-0.243 0.691,-0.529 0.98,-0.815 -0.058,0.024 -0.113,0.043 -0.113,0.043 -10.894,4.476 -12.267,3.61 -12.784,3.288 -0.466,-0.274 -0.74,-0.749 -0.779,-1.279 0,-0.042 -0.006,-0.079 -0.006,-0.115 -0.012,-1.486 1.635,-1.918 2.737,-2.198 -0.448,-0.359 -0.84,-0.919 -0.853,-1.583 -0.006,-0.104 0.006,-0.213 0.018,-0.323 0.095,-0.536 0.487,-1.242 1.727,-1.607 0.694,-0.316 1.422,-0.712 1.571,-0.943 0.019,-0.03 0.189,-0.28 0.189,-0.28 l 0.137,-0.141 c 0.192,-0.194 1.833,-1.93 3.447,-1.266 0.457,0 0.837,-0.141 1.041,-0.28 0.04,-0.207 0.17,-1.011 0.17,-1.011 h 3.529 c 0.237,-0.92 0.375,-1.836 0.368,-2.418 0,-0.042 -0.012,-0.055 -0.018,-0.106 -0.469,-0.119 -0.944,-0.229 -0.944,-0.229 l -0.417,-0.146 -0.274,-0.28 c -0.094,-0.092 -0.213,-0.223 -0.63,0.131 l -0.335,0.289 -6.774,0.566 -0.222,-1.224 c -0.149,-0.841 -0.07,-3.721 7.282,-5.578 0.536,-0.195 1.952,-0.913 2.299,-2.07 l 0.076,-0.262 h -5.718 v -2.838 c -2.63,0.536 -5.033,0.935 -5.779,0.816 l -0.499,-0.088 -0.326,-0.387 c -0.107,-0.122 -0.874,-1.066 -0.886,-2.417 0,-0.274 0.027,-0.569 0.101,-0.874 0.356,-1.528 1.647,-2.773 3.848,-3.735 0.996,-0.423 2.536,-1.264 3.541,-2.149 v -2.975 c -0.971,0.231 -1.863,0.25 -2.539,-0.088 l -0.192,-0.1 -0.162,-0.155 c -0.045,-0.024 -0.605,-0.603 -0.618,-1.577 -0.006,-0.697 0.298,-1.602 1.26,-2.649 0.229,-0.494 0.91,-1.821 2.25,-3.157 v -5.849 h 10.449 c 0.401,-0.573 0.657,-1.246 0.642,-2.019 0,-0.024 0,-0.052 -0.006,-0.083 -0.643,0.058 -1.803,0.326 -3.678,1.446 l -0.493,0.302 -0.56,-0.146 c -0.655,-0.167 -2.825,-0.877 -2.968,-2.648 -0.006,-0.049 -0.012,-0.101 -0.012,-0.149 -0.012,-1.428 1.339,-2.588 2.606,-3.218 0,0 -0.012,-0.006 -0.012,-0.013 -0.201,-0.237 -0.505,-1.227 -0.469,-1.385 0.058,-1.721 2.14,-3.03 3.991,-4.445 0.083,-0.079 0.167,-0.174 0.25,-0.256 -0.244,-0.161 -0.463,-0.356 -0.618,-0.643 -0.149,-0.274 -0.222,-0.542 -0.222,-0.822 -0.016,-1.066 -0.119,-2.625 2.28,-4.253 -0.113,-0.155 -0.375,-0.53 -0.375,-0.53 -0.137,-0.198 -0.667,-1.495 -0.673,-2.433 -0.006,-0.347 0.07,-0.703 0.25,-1.059 0.292,-0.566 0.536,-1.228 2.058,-1.267 -0.012,0 0.387,0 0.387,0 0.042,-0.006 0.554,-1.103 0.922,-1.815 -0.012,-0.037 -0.012,-0.073 -0.024,-0.104 H 21.811 L 4.615,244.839 v 47.143 l 14.632,14.645 h 7.465 c 0.597,-1.127 2.144,-2.838 6.135,-3.508 0.049,-0.013 1.785,-0.47 2.738,-1.597 z"
   id="path3" />
	<path
   d="m 25.791,328.449 -0.636,1.132 -0.32,0.189 c -0.84,0.505 -2.956,1.577 -4.39,0.682 -0.393,-0.256 -1.02,-0.834 -1.042,-2.033 0,-0.116 0.006,-0.232 0.015,-0.359 l 0.012,-0.141 0.043,-0.146 c 0.155,-0.511 0.986,-3.044 2.375,-5.748 H 4.64 v 21.307 L 19.3,358.22 h 7.782 l 0.935,-1.942 c 0.131,-0.256 1.327,-2.606 3.708,-3.13 l 1.054,-0.201 c 0.493,-0.079 0.493,-0.079 1.784,-0.901 0.393,-0.243 0.804,-0.919 1.142,-1.747 0.667,-1.626 1.358,-3.429 3.854,-4.487 0.779,-0.329 1.014,-0.476 1.668,-0.646 0.42,-0.109 0.968,-0.334 1.129,-0.426 0.183,-0.115 0.661,-0.414 1.011,-3.032 0.088,-0.683 0.219,-2.296 0.256,-4.263 0,0 0.042,-2.35 0.042,-2.375 0,0 0.006,-0.127 0.006,-0.134 -0.012,0.013 -0.131,0.171 -0.131,0.171 l 0.045,-1.522 H 32.848 v -7.935 c -0.941,0.664 -2.231,1.31 -3.522,1.151 -0.78,0.034 -2.832,0.442 -3.535,1.648 z"
   id="path4" />
	<path
   d="m 67.434,356.44 0.207,1.778 h 5.023 l 14.617,-14.65 v -47.8 L 72.26,281.453 H 57.515 c 0.405,0.262 0.816,0.511 1.267,0.709 2.898,1.291 4.57,3.398 4.661,4.729 0,0.03 0,0.061 0,0.097 0.006,0.551 -0.262,1.23 -1.06,1.604 -0.548,0.262 -2.582,0.591 -3.611,0.149 -0.941,-0.1 -2.561,-0.262 -4.314,-0.417 0.868,1.751 2.314,2.667 4.795,4.132 0,0 1.559,0.938 2.003,1.205 2.862,0.244 6.235,0.938 6.813,2.881 0.049,0.176 0.088,0.383 0.088,0.59 0.012,0.658 -0.295,1.486 -1.403,2.333 -0.768,0.614 -1.589,1.419 -1.72,1.711 -0.034,0.097 -0.137,0.426 -0.137,0.426 l -0.344,0.269 c -0.88,0.657 -3.018,1.437 -4.987,-0.165 -1.76,-1.15 -3.848,-2.058 -4.652,-2.063 -0.019,0.085 -0.046,0.182 -0.046,0.182 l -0.131,0.195 c -0.073,0.128 -0.116,0.305 -0.116,0.523 0.012,0.828 0.673,2.29 3.142,4.189 0.28,0.158 2.85,1.688 5.136,1.364 l 0.213,-0.036 0.219,0.042 c 0.472,0.085 2.829,0.603 3.285,2.448 0.292,1.211 -0.356,2.466 -1.909,3.695 -0.055,0.062 -0.113,0.122 -0.155,0.195 0.119,0.061 0.316,0.134 0.624,0.226 0.886,0.188 6.278,1.724 7.599,11.076 0.189,0.755 0.113,1.778 -0.691,2.423 -1.315,1.054 -3.337,0.135 -4.944,-0.791 l -0.088,-0.049 -0.085,-0.073 c -1.093,-0.87 -2.39,-1.735 -3.568,-2.411 V 333.57 H 51.91 l 0.167,4.787 v 0.072 c 0,0.019 -0.219,0.762 0.137,2.546 0.643,3.13 1.666,5.602 2.801,6.181 2.966,1.504 3.897,2.259 4.637,3.129 0.594,0.701 0.944,1.121 2.682,1.688 4.053,1.35 4.902,2.574 5.1,4.467 z"
   id="path5" />
	<polygon
   points="54.732,300.007 54.696,300.067 54.732,300.019 "
   id="polygon5" />
	<path
   d="m 244.293,308.58 c -10.333,3.8 -11.536,11.661 -11.536,16.1 0,3.775 1.245,16.094 17.47,16.094 7.526,0 12.34,-3.435 14.979,-6.181 1.102,3.8 4.408,6.053 9.164,6.053 5.492,0 8.574,-2.758 11.816,-6.662 l 0.655,-0.846 -1.97,-2.247 -0.965,0.828 c -0.487,0.414 -1.081,0.597 -1.958,0.597 -3.51,0 -4.186,-3.275 -4.186,-7.508 0,-1.681 0.064,-4.439 0.137,-7.617 0.106,-4.616 0.231,-10.364 0.231,-15.51 0,-5.863 -0.192,-11.469 -2.707,-15.521 -3.373,-5.112 -8.802,-7.49 -17.147,-7.49 -12.851,0 -18.712,7.913 -20.183,12.571 l -0.298,0.922 2.999,1.797 0.648,-1.224 c 0.024,-0.062 3.346,-6.232 11.436,-6.232 5.499,0 9.557,2.655 10.979,6.884 0.707,2.21 0.707,3.062 0.707,6.631 v 1.9 c -7.328,2.289 -9.608,2.74 -20.271,6.661 z m 20.284,20.995 c -3.206,2.296 -6.872,2.765 -9.435,2.765 -7.776,0 -8.936,-5.438 -8.936,-8.671 0,-4.141 1.803,-7.666 5.228,-9.408 2.469,-1.235 5.173,-2.569 13.144,-4.962 v 20.276 z"
   id="path6" />
	<path
   d="m 131.398,337.784 c 6.071,1.973 11.977,2.824 19.747,2.824 8.689,0 28.899,-2.338 28.899,-24.027 0,-12.806 -7.271,-17.664 -14.995,-22.816 l -9.066,-6.003 c -7.901,-5.218 -11.512,-7.612 -11.512,-14.657 0,-5.127 1.546,-11.968 14.833,-11.968 5.651,0 10.994,1.142 13.408,3.556 1.751,1.769 2.68,4.059 2.898,7.237 l 0.073,1.175 h 3.039 l -0.094,-1.872 c -0.101,-2.512 -0.055,-4.951 -0.055,-7.752 0,-3.541 0.085,-6.808 0.085,-6.838 l 0.04,-1.068 -1.081,-0.192 c -0.329,-0.042 -8.26,-1.397 -18.563,-1.397 -25.084,0 -27.024,16.849 -27.024,22 0,10.543 5.063,15.832 15.01,22.408 l 7.158,4.78 1.083,0.743 c 6.78,4.566 11.691,7.879 11.691,15.808 0,9.279 -5.31,13.591 -16.721,13.591 -5.438,0 -11.298,-1.718 -13.844,-4.598 -1.66,-1.869 -2.558,-4.524 -2.713,-7.222 l -0.061,-1.254 -3.535,-0.007 0.174,2.996 c 0.125,1.851 0.25,4.116 0.25,9.919 v 4.342 z"
   id="path7" />
	<path
   d="m 226.909,287.819 v -7.408 h -20.372 v -13.463 h -2.612 l -1.346,2.29 c -0.07,0.104 -4.049,7.642 -9.804,12.102 -1.626,1.258 -3.029,2.293 -6.704,3.815 l -0.779,0.319 v 2.345 h 7.907 l -0.049,4.174 c -0.101,8.891 -0.186,16.562 -0.186,26.123 0,3.471 0,9.242 0.947,12.189 2.262,7.393 7.401,10.688 16.654,10.688 10.875,0 15.488,-6.017 15.701,-6.254 l 0.518,-0.578 -1.047,-2.442 -1.236,0.634 c -0.024,0.036 -3.197,1.631 -7.325,1.631 -8.894,0 -10.638,-5.346 -10.638,-14.747 v -31.411 h 20.372 v -0.007 z"
   id="path8" />
	<path
   d="m 337.887,324.765 c -0.141,3.977 -0.256,8.574 -2.192,10.522 -1.035,1.029 -2.643,1.681 -4.963,2.046 l -1.077,0.134 v 2.771 l 1.382,-0.128 c 5.34,-0.511 9.164,-0.511 13.585,-0.511 3.873,0 7.575,0.207 11.88,0.426 l 2.966,0.152 v -2.795 l -1.182,-0.086 c -1.717,-0.109 -3.696,-0.815 -4.628,-1.68 -1.857,-1.729 -2.24,-4.506 -2.24,-14.383 V 303.77 c 0,-2.923 -0.201,-8.439 -0.779,-10.704 -2.004,-9.149 -9.043,-14.182 -19.839,-14.182 -8.245,0 -14.321,3.498 -17.342,5.742 v -4.737 l -1.176,-0.694 -0.688,0.307 c -0.73,0.348 -2.776,1.571 -6.296,2.125 -4.604,0.898 -8.967,1.135 -10.812,1.135 -0.381,0 -0.673,0 -0.911,-0.03 l -1.352,-0.101 v 3.416 l 1.126,0.125 c 0.149,0.006 0.319,0.03 0.493,0.037 1.446,0.1 4.152,0.286 5.374,2.052 1.074,1.595 1.184,4.756 1.184,12.111 v 17.098 c 0,10.199 -0.109,15.297 -1.963,17.367 -1.77,1.99 -4.303,2.387 -5.304,2.472 l -1.148,0.085 v 2.85 l 1.34,-0.134 c 5.361,-0.499 9.414,-0.499 13.749,-0.499 3.751,0 7.355,0.195 11.496,0.402 l 3.191,0.17 v -2.795 l -1.176,-0.085 c -1.735,-0.116 -3.684,-0.822 -4.627,-1.687 -1.846,-1.718 -2.247,-4.5 -2.247,-14.377 v -31.42 c 2.515,-1.297 5.863,-2.518 11.204,-2.518 7.77,0 11.801,3.602 12.701,11.335 0.487,4.573 0.487,9.213 0.487,13.683 0,3.439 0,8.141 -0.104,10.375 -0.063,0.731 -0.1,1.413 -0.112,2.071 z"
   id="path9" />
	<path
   d="m 391.362,254.771 c 1.583,-1.596 4.153,-2.156 6.028,-2.156 4.512,0 7.807,1.982 10.084,7.058 l 0.316,0.749 1.431,-0.019 5.931,-8.25 -0.176,-1.267 -0.463,-0.372 c -3.233,-2.621 -8.769,-4.561 -14.602,-4.561 -13.573,0 -21.647,6.263 -24.016,18.614 -0.719,3.715 -0.877,10.562 -0.89,15.862 -1.534,1.203 -3.629,2.314 -7.015,3.708 l -0.779,0.338 v 3.349 h 7.794 v 29.657 c 0,10.199 -0.085,15.241 -1.942,17.312 -1.766,1.997 -4.293,2.393 -5.315,2.454 l -1.163,0.104 v 2.904 l 1.382,-0.134 c 5.353,-0.5 10.4,-0.5 14.833,-0.5 3.544,0 8.439,0.158 15.028,0.5 l 1.327,0.079 v -3.197 h -1.267 c -1.497,0 -6.594,-0.183 -8.25,-2.703 -1.054,-1.547 -1.31,-5.383 -1.31,-13.286 V 287.83 h 13.335 v -7.407 H 388.33 v -11.566 c 0,-7.645 0.438,-11.511 3.032,-14.086 z"
   id="path10" />
	<path
   d="m 435.392,341.242 c 22.463,0 30.434,-17.257 30.434,-32.065 0,-19.038 -10.911,-30.418 -29.173,-30.418 -22.469,0 -30.421,17.266 -30.421,32.069 0,19.046 10.911,30.414 29.16,30.414 z m -7.715,-52.85 c 2.083,-1.803 4.938,-2.713 8.465,-2.713 14.723,0 15.466,20.112 15.466,24.144 0,10.437 -2.423,17.78 -7.222,21.799 -2.119,1.803 -4.98,2.716 -8.477,2.716 -14.741,0 -15.479,-20.118 -15.479,-24.137 0.014,-10.438 2.438,-17.788 7.247,-21.809 z"
   id="path11" />
	<path
   d="m 499.882,288.945 c 5.432,0 8.239,2.615 9.634,4.808 l 0.378,0.578 h 2.423 l 5.042,-9.219 v -1.885 l -0.408,-0.387 c -2.466,-2.204 -5.852,-3.327 -10.022,-3.327 -6.412,0 -10.967,2.868 -13.835,5.568 v -5.194 l -1.053,-0.557 -0.694,0.313 c -1.011,0.481 -3.501,1.227 -6.406,1.708 -4.604,0.904 -8.957,1.136 -10.814,1.136 -0.377,0 -0.761,-0.006 -0.979,-0.031 l -1.285,-0.034 v 3.623 l 1.169,0.125 c 0.122,0.006 0.292,0.03 0.463,0.037 1.455,0.1 4.152,0.286 5.376,2.052 1.066,1.595 1.151,4.756 1.151,12.111 v 17.098 c 0,10.199 -0.073,15.113 -1.931,17.184 -1.747,1.998 -4.305,2.399 -5.31,2.467 l -1.175,0.091 v 3.032 l 1.389,-0.134 c 5.346,-0.499 10.375,-0.499 14.833,-0.499 3.52,0 8.433,0.158 15.016,0.499 l 1.327,0.079 v -3.318 h -1.248 c -1.516,0 -6.57,-0.195 -8.263,-2.697 -1.029,-1.547 -1.291,-5.268 -1.291,-13.165 V 290.86 c 1.886,-1.297 4.029,-1.915 6.513,-1.915 z"
   id="path12" />
	<path
   d="m 583.542,334.922 c -1.419,-0.116 -4.024,-0.402 -5.255,-2.192 -1.06,-1.438 -1.156,-5.955 -1.156,-13.25 v -48.759 c 0,-7.913 0.049,-18.444 0.45,-23.382 l 0.049,-0.584 -1.023,-0.618 -0.597,0.231 c -1.218,0.447 -3.556,0.971 -5.918,1.352 -5.615,1.111 -12.525,1.69 -12.812,1.69 h -1.266 l -0.262,2.676 1.139,0.109 c 0.133,0.016 0.292,0.027 0.475,0.034 1.425,0.113 4.049,0.311 5.261,2.058 1.06,1.595 1.163,5.581 1.163,13.037 v 12.708 c -2.576,-0.551 -6.875,-1.136 -11.686,-1.136 -13.128,0 -23.54,6.217 -28.545,17.074 -2.126,4.682 -3.265,10.248 -3.265,16.094 0,17.658 10.62,29.045 27.036,29.045 7.867,0 13.749,-3.422 16.721,-5.614 v 5.054 l 1.602,0.536 0.542,-0.243 c 1.06,-0.487 3.19,-0.908 6.102,-1.383 5.065,-0.864 10.278,-1.224 11.618,-1.224 h 1.254 v -3.216 l -1.133,-0.048 c -0.135,-0.025 -0.306,-0.037 -0.494,-0.049 z m -19.759,-4.798 c -3.429,2.131 -7.381,2.447 -9.487,2.447 h -0.548 c -17.366,0 -19.254,-15.473 -19.254,-22.128 0,-16.404 5.693,-24.39 17.348,-24.39 7.338,0 10.967,3.044 11.941,4.016 z"
   id="path13" />
</g>
<g
   id="g14"
   transform="translate(0,-222.833)">
</g>
<g
   id="g15"
   transform="translate(0,-222.833)">
</g>
<g
   id="g16"
   transform="translate(0,-222.833)">
</g>
<g
   id="g17"
   transform="translate(0,-222.833)">
</g>
<g
   id="g18"
   transform="translate(0,-222.833)">
</g>
<g
   id="g19"
   transform="translate(0,-222.833)">
</g>
<g
   id="g20"
   transform="translate(0,-222.833)">
</g>
<g
   id="g21"
   transform="translate(0,-222.833)">
</g>
<g
   id="g22"
   transform="translate(0,-222.833)">
</g>
<g
   id="g23"
   transform="translate(0,-222.833)">
</g>
<g
   id="g24"
   transform="translate(0,-222.833)">
</g>
<g
   id="g25"
   transform="translate(0,-222.833)">
</g>
<g
   id="g26"
   transform="translate(0,-222.833)">
</g>
<g
   id="g27"
   transform="translate(0,-222.833)">
</g>
<g
   id="g28"
   transform="translate(0,-222.833)">
</g>
</svg>
